<?xml version="1.0" encoding="UTF-8" standalone="no"?>
<!-- Created with Inkscape (http://www.inkscape.org/) -->

<svg
   xmlns:dc="http://purl.org/dc/elements/1.1/"
   xmlns:cc="http://creativecommons.org/ns#"
   xmlns:rdf="http://www.w3.org/1999/02/22-rdf-syntax-ns#"
   xmlns:svg="http://www.w3.org/2000/svg"
   xmlns="http://www.w3.org/2000/svg"
   xmlns:sodipodi="http://sodipodi.sourceforge.net/DTD/sodipodi-0.dtd"
   xmlns:inkscape="http://www.inkscape.org/namespaces/inkscape"
   version="1.1"
   id="svg815"
   width="1000"
   height="600"
   viewBox="0 0 1000 600"
   sodipodi:docname="P1.svg"
   inkscape:version="0.92.3 (2405546, 2018-03-11)">
  <metadata
     id="metadata821">
    <rdf:RDF>
      <cc:Work
         rdf:about="">
        <dc:format>image/svg+xml</dc:format>
        <dc:type
           rdf:resource="http://purl.org/dc/dcmitype/StillImage" />
        <dc:title></dc:title>
      </cc:Work>
    </rdf:RDF>
  </metadata>
  <defs
     id="defs819" />
  <sodipodi:namedview
     pagecolor="#ffffff"
     bordercolor="#666666"
     borderopacity="1"
     objecttolerance="10"
     gridtolerance="10"
     guidetolerance="10"
     inkscape:pageopacity="0"
     inkscape:pageshadow="2"
     inkscape:window-width="1858"
     inkscape:window-height="1057"
     id="namedview817"
     showgrid="false"
     inkscape:zoom="1.378"
     inkscape:cx="500"
     inkscape:cy="300"
     inkscape:window-x="54"
     inkscape:window-y="-8"
     inkscape:window-maximized="1"
     inkscape:current-layer="svg815" />
  <path
     inkscape:connector-curvature="0"
     id="path839"
     d="m 146,544.04904 c -6.74822,-1.44159 -14.52434,-4.07705 -17.128,-5.80497 -6.84297,-4.54133 -11.08638,-12.00225 -12.53625,-22.04168 l -0.62065,-4.2976 4.89245,2.59988 c 2.69085,1.42993 5.31995,3.02636 5.84245,3.54761 1.65974,1.65576 7.14292,1.05501 8.98897,-0.98484 0.98124,-1.08426 2.4223,-1.67417 3.28294,-1.34391 1.75938,0.67513 5.22137,-3.25959 5.25585,-5.97353 0.0122,-0.9625 0.40001,-1.75 0.86172,-1.75 0.46172,0 1.30092,-1.0125 1.86489,-2.25 0.92254,-2.02431 12.61664,-19.06658 23.25143,-33.88523 2.22431,-3.09938 4.0442,-6.08178 4.0442,-6.62756 0,-0.54578 0.6851,-1.5609 1.52244,-2.25584 0.83735,-0.69493 4.8974,-6.14466 9.02234,-12.11051 9.07384,-13.12338 22.42716,-30.66155 25.33577,-33.27585 2.78736,-2.50531 2.69447,-3.17607 -1.02672,-7.41427 -3.58653,-4.08484 -2.39098,-5.41148 2.03596,-2.25921 1.60542,1.14316 3.32849,2.07847 3.82904,2.07847 1.04513,0 12.79716,-15.8436 14.46146,-19.49634 0.97558,-2.14117 0.73216,-2.78302 -2.03612,-5.36899 -1.7293,-1.6154 -3.14417,-3.4581 -3.14417,-4.0949 0,-1.22591 0.7924,-0.89437 5.26458,2.20267 1.52051,1.05298 3.17194,1.7667 3.66984,1.58603 C 234.3066,384.33058 248,364.80279 248,363.34386 c 0,-0.70042 -0.86871,-1.73841 -1.93046,-2.30664 -2.05836,-1.1016 -6.55954,-6.88056 -5.88477,-7.55532 0.22162,-0.22162 2.40821,0.92736 4.85909,2.55329 2.45088,1.62594 4.95386,2.95817 5.56217,2.96053 1.19661,0.005 8.9486,-9.92414 10.63056,-13.61563 0.89284,-1.95957 0.51111,-2.76378 -2.85292,-6.01054 -3.13704,-3.02769 -3.55081,-3.82141 -2.15228,-4.12866 0.95226,-0.2092 2.73989,0.32601 3.9725,1.18937 3.26861,2.28942 5.70595,1.93708 6.81711,-0.98549 0.53432,-1.40537 2.37375,-5.46271 4.08761,-9.0163 1.84534,-3.8262 2.89429,-7.30938 2.57215,-8.54123 C 272.97713,315.19655 273.84287,313 275.60699,313 276.37314,313 277,312.70796 277,312.35102 c 0,-1.17627 -7.32827,-7.79994 -11.70435,-10.579 -3.23281,-2.05301 -4.33797,-3.41384 -4.46669,-5.5 -0.0941,-1.52461 -0.25537,-3.67202 -0.35844,-4.77202 -0.10306,-1.1 -0.25109,-4.33218 -0.32895,-7.18261 -0.11472,-4.1995 -0.51379,-5.30075 -2.1038,-5.8054 -1.07922,-0.34253 -2.90799,-0.11663 -4.06392,0.502 -3.14606,1.68373 -4.54722,-0.0857 -6.33435,-7.99939 -3.45967,-15.31991 -15.60291,-31.35604 -25.6395,-33.85904 -7.64005,-1.90534 -35.94191,-3.15216 -71.59107,-3.1539 -25.71636,-10e-4 -35.19187,-0.33295 -38.57213,-1.35026 C 107.98061,231.49086 60.62195,202.80459 57.323793,199.63158 56.67688,199.00921 55.458228,193.55 54.615679,187.5 53.77313,181.45 52.194849,170.65 51.10839,163.5 49.317492,151.71409 48.002296,138.87569 44.961844,103.5 44.394591,96.9 43.280505,84.365376 42.486098,75.64528 40.790242,57.0301 41.145927,55.437441 46.794366,56.354056 c 3.117664,0.505927 4.291019,0.05179 8.74557,-3.384866 L 60.684743,49 H 139.1757 c 43.17003,0 78.75347,-0.2625 79.0743,-0.583333 0.32083,-0.320834 -0.20954,-1.37621 -1.17861,-2.34528 -1.40784,-1.407837 -1.90343,-4.308421 -2.46593,-14.432448 -0.38719,-6.968776 -0.43026,-13.1134 -0.0957,-13.65472 C 214.84431,17.442898 218.37648,17 222.35902,17 c 4.4529,0 7.72701,-0.481302 8.50326,-1.25 1.01061,-1.00078 1.43554,-0.943265 2.13131,0.288474 0.76389,1.352322 5.80798,1.505849 41.68772,1.268846 C 297.13159,17.159026 316.175,16.946546 317,16.835142 c 0.825,-0.111403 7.89076,0.135649 15.70169,0.549005 13.49652,0.714237 14.2874,0.651458 15.92775,-1.264336 1.40517,-1.641114 1.92541,-1.767627 2.79831,-0.680501 0.74749,0.930933 5.21043,1.536167 14.73519,1.998291 l 13.66293,0.6629 2.60846,-2.80025 2.60846,-2.800251 0.59524,2.25 c 0.55628,2.10276 1.19292,2.265135 9.7286,2.481286 17.74394,0.449334 18.52303,0.371252 20.20114,-2.024579 1.92441,-2.747483 4.03341,-2.839805 4.72198,-0.206707 0.46727,1.786863 1.46546,2.024112 9.36663,2.226259 16.76379,0.428891 17.0964,0.384778 20.30955,-2.693615 l 2.96608,-2.841683 1.00924,2.654519 c 0.9765,2.568392 1.29395,2.661651 9.784,2.874303 15.70498,0.393367 16.08187,0.339193 19.33708,-2.779494 l 3.00939,-2.883183 2.21414,2.682677 c 2.12539,2.57515 2.65504,2.693987 13.21414,2.964846 10.65679,0.273365 11.11215,0.196572 14.59439,-2.46123 4.4262,-3.378275 5.28121,-3.409227 6.72366,-0.243399 1.07846,2.366963 1.60584,2.509748 9.91051,2.683185 12.65904,0.264375 12.79533,0.240466 17.64327,-3.095001 4.57022,-3.144392 5.45951,-2.99555 6.94155,1.161816 0.52736,1.479337 1.93046,1.75 9.0719,1.75 5.86678,0 8.57695,0.381933 8.86992,1.25 0.23203,0.6875 -0.17513,3.5 -0.9048,6.25 -0.72966,2.75 -1.332,7.051492 -1.33853,9.55887 -0.0231,8.864954 9.68478,8.043687 -98.04639,8.294543 L 379.5,42.575709 373.25,45.037404 C 369.8125,46.391336 367,47.836801 367,48.249549 367,48.662297 414.74754,49 473.10566,49 c 118.4856,0 112.86437,0.316607 124.51066,-7.012862 3.36397,-2.117082 8.96982,-5.050266 12.45745,-6.518188 11.0922,-4.668643 15.66093,-3.468169 22.61712,5.942842 5.78641,7.828428 6.08261,7.916405 24.98588,7.421161 11.6046,-0.304028 14.896,-0.75582 20.50713,-2.814903 l 6.68389,-2.45275 2.51836,2.71735 c 1.38509,1.494543 3.55234,2.747216 4.8161,2.783718 1.26376,0.0365 5.22275,1.499003 8.79775,3.25 5.33727,2.61414 6.67115,3.764997 7.4568,6.433632 l 0.95679,3.25 h 13.94759 c 12.33726,0 15.34411,0.358415 26.04321,3.104335 13.73376,3.524767 15.89623,4.613039 18.19177,9.155083 0.90078,1.78232 2.54372,4.231931 3.65097,5.443579 1.51358,1.656293 2.12363,4.013849 2.45825,9.5 0.24479,4.013352 1.34229,9.477654 2.43889,12.142893 1.30877,3.18089 1.90334,6.6168 1.73045,10 l -0.26337,5.15411 9.94432,-0.047 c 5.46938,-0.0259 10.73183,-0.34922 11.69433,-0.71862 1.57648,-0.60503 1.75,-2.44655 1.75,-18.572163 V 79.261675 l 3.75,-0.619837 c 2.0625,-0.34091 6.4725,-0.624789 9.8,-0.630842 3.3275,-0.0061 6.54296,-0.503962 7.14546,-1.106464 0.63961,-0.639613 4.66199,-1.056898 9.66631,-1.002793 7.6938,0.08318 8.68415,-0.119029 9.67801,-1.976076 1.04974,-1.961455 1.73084,-2.042579 13.1333,-1.564266 6.61437,0.277461 11.86881,0.353676 11.67653,0.169366 -0.19229,-0.184309 -7.74781,-1.309168 -16.79006,-2.499685 -9.04225,-1.190517 -17.36725,-2.683199 -18.5,-3.317072 -2.5109,-1.405064 -12.97116,-2.767248 -25.05955,-3.26337 -4.95,-0.203154 -9.3375,-0.387658 -9.75,-0.410009 -1.48971,-0.08072 -0.63332,-1.57993 2.00096,-3.502915 2.42205,-1.768061 4.12626,-1.937334 17.21857,-1.710254 12.15069,0.210747 19.28006,1.071881 43.53047,5.257902 15.95,2.753233 31.7,5.701378 35,6.551434 3.3,0.850056 7.3125,1.617025 8.91667,1.704376 1.61256,0.08781 3.12261,0.829504 3.37728,1.65882 0.25334,0.825 1.25584,2.4 2.22778,3.5 0.97195,1.1 2.07836,4.025 2.4587,6.5 0.38034,2.475 1.78835,8.700025 3.12893,13.833388 2.63784,10.100912 2.56766,15.387832 -0.32615,24.569002 -1.21291,3.8482 -1.44229,8.10788 -1.0667,19.80903 0.43222,13.46561 0.29818,15.13584 -1.38662,17.27771 -1.0258,1.30409 -1.45112,2.62693 -0.94517,2.93963 0.98483,0.60865 0.63629,30.20349 -0.43816,37.20421 -0.39563,2.57784 -0.22271,4.38734 0.45957,4.80901 1.61823,1.00013 1.37982,11.07581 -0.29496,12.46576 -1.0805,0.89674 -1.4781,5.86356 -1.79092,22.37244 -0.39402,20.79397 -0.4593,21.34548 -3.25303,27.48162 -4.96596,10.90722 -12.35819,15.54572 -24.56722,15.41551 -3.025,-0.0323 -7.975,0.55275 -11,1.30004 -3.42022,0.84493 -13.81912,1.52615 -27.5,1.80152 -20.60507,0.41472 -22.23906,0.58546 -25.77026,2.69269 l -3.77025,2.2499 -32.22975,-0.82698 C 762.00338,287.93964 747.05,287.55231 746.5,287.53375 c -0.55,-0.0186 -1.13128,2.67516 -1.29174,5.98605 -0.25554,5.27285 0.21626,7.11938 3.80233,14.88141 2.25174,4.87388 3.95802,9.81497 3.79174,10.9802 -0.26546,1.86021 -0.97311,2.12232 -5.80233,2.14915 -3.025,0.0168 -7.525,0.34381 -10,0.72667 -7.47205,1.15584 -22.35163,1.53937 -24.75,0.63794 -1.57188,-0.5908 -2.26229,-1.68194 -2.29078,-3.62042 -0.0224,-1.52611 -1.07479,-5.69975 -2.3386,-9.27475 l -2.29782,-6.5 -50.4114,-0.24244 c -49.98805,-0.24039 -50.4261,-0.26022 -52.1614,-2.36078 -1.54826,-1.87415 -1.75,-4.62919 -1.75,-23.89916 v -21.7808 l -2.58504,-0.64881 c -1.42178,-0.35684 -3.43277,-0.37975 -4.46888,-0.0509 -1.83694,0.58303 -3.91234,5.8205 -3.95582,9.98289 -0.0346,3.31376 -1.5037,4.7892 -3.98457,4.0018 -1.30519,-0.41424 -3.27428,-0.16083 -4.70659,0.60572 -2.10004,1.1239 -3.14984,1.05619 -7.13084,-0.45995 -8.98476,-3.42181 -8.08546,-4.92096 -8.39358,13.99225 L 565.5,299.5 l -3.55953,0.29901 c -3.38565,0.2844 -3.71109,0.65077 -6.66233,7.5 -3.10467,7.20532 -3.02514,9.70099 0.30912,9.70099 1.54752,0 3.89248,3.8536 2.9304,4.81567 -0.35441,0.35441 -3.42837,-0.38322 -6.83102,-1.63918 -3.40265,-1.25596 -6.5987,-2.37197 -7.10234,-2.48003 -1.54033,-0.33047 -2.55604,6.31946 -2.49022,16.30354 0.10661,16.1687 0.0146,17.03866 -2.11953,20.03574 -1.20066,1.68617 -3.60789,3.32374 -5.76765,3.92358 -4.40212,1.22261 -106.74915,1.35449 -121.2069,0.15617 -7.72759,-0.64049 -11.4506,-1.57815 -19.9551,-5.02582 -9.46153,-3.83565 -10.98822,-4.17656 -16.06513,-3.58732 -3.08552,0.35811 -6.1826,1.00497 -6.8824,1.43747 -2.18441,1.35004 -0.78266,5.35101 2.55586,7.29508 3.13043,1.82289 3.18024,1.81784 6.88955,-0.69937 4.51131,-3.06146 4.84146,-3.07921 9.03756,-0.48588 3.72421,2.30169 4.90485,4.88107 3.95904,8.64945 -0.61728,2.45947 -15.71402,28.90733 -19.72067,34.54851 -2.52809,3.55943 -5.80576,4.32756 -9.75397,2.28587 -3.69177,-1.90909 -5.34371,-5.52674 -4.52382,-9.90688 0.50543,-2.70014 0.18052,-3.36529 -2.38212,-4.8766 -4.4806,-2.64241 -5.82422,-2.18481 -8.80859,3 -1.50375,2.6125 -4.89772,7.99218 -7.54215,11.95484 -3.02597,4.53439 -4.80806,8.29691 -4.80806,10.15122 0,2.27983 -0.75487,3.39177 -3.33675,4.91512 -3.99876,2.35933 -12.80782,15.21733 -13.2956,19.40671 -0.44743,3.84276 -1.05468,4.75262 -3.8919,5.83133 -2.33347,0.88718 -11.10528,12.69458 -10.14461,13.65526 0.28069,0.28068 3.35851,-0.40205 6.8396,-1.51718 3.48109,-1.11513 11.05426,-3.36086 16.82926,-4.99051 11.7908,-3.32727 1.23751,-2.94193 101,-3.68786 120.08503,-0.89788 328.72985,-3.36014 330.5,-3.9003 1.1,-0.33566 13.7,-1.04874 28,-1.58461 14.3,-0.53587 30.05,-1.42783 35,-1.98212 8.96409,-1.00379 25.93025,-0.29274 47.5,1.99072 5.225,0.55314 21.425,2.13004 36,3.50423 27.42548,2.58579 45.28506,4.93243 47.32388,6.21807 0.64686,0.4079 6.12612,1.00773 12.17612,1.33295 13.15405,0.70709 23.58602,3.6135 29.71354,8.27838 4.0387,3.07466 4.30353,3.58418 4.58179,8.81525 0.28217,5.3049 0.14057,5.67001 -3.1824,8.20457 -1.91275,1.45892 -3.78279,3.66539 -4.15564,4.90326 -0.86911,2.88541 -6.14178,8.4943 -9.77206,10.39516 -1.54813,0.81063 -6.94813,2.09534 -12,2.85493 -5.05188,0.75959 -14.58523,2.80147 -21.18523,4.53751 -31.69688,8.33743 -35.95471,9.06041 -55.5,9.42399 -18.23051,0.33912 -25.48689,-0.10981 -50.5,-3.12426 -16.34189,-1.96945 -29.03657,-2.03127 -43,-0.20941 -5.54267,0.72317 -27.82325,1.27313 -58,1.43164 -63.38472,0.33294 -92.10664,-1.76522 -96.49162,-7.04879 -1.87955,-2.26472 -4.36665,-1.87744 -14.3844,2.2399 l -9.12398,3.75 -54,-0.028 c -37.71489,-0.0196 -58.29452,-0.43856 -68.24025,-1.38934 l -14.24025,-1.36132 -3.75975,2.48312 c -7.66413,5.06174 -19.65956,7.29827 -33.98808,6.33701 -15.92152,-1.06812 -20.82833,-0.73974 -28.76702,1.92519 -9.40447,3.15697 -10.16677,3.29192 -90.50465,16.02117 -9.53212,1.51034 -20.9341,4.06311 -27,6.045 -23.15242,7.56451 -24.43775,7.67609 -92,7.98621 -33.275,0.15274 -62.075,-0.0588 -64,-0.46998 z m 151.8493,-48.02046 c 2.81725,-0.53428 10.85249,-1.71034 17.85608,-2.61346 17.80147,-2.29552 19.14958,-3.2761 4.60797,-3.35173 -8.53632,-0.0444 -14.6768,-0.66036 -20.5,-2.05638 -11.68917,-2.8023 -12.62565,-2.70049 -14.40847,1.56639 -2.17899,5.21506 -1.12898,7.4266 3.52602,7.4266 2.08787,0 6.10114,-0.43714 8.9184,-0.97142 z M 596.5,489 c -0.78398,-1.2685 -4.53713,-1.2685 -6.5,0 -1.09674,0.70877 -0.34157,0.97349 2.80902,0.98469 2.62138,0.009 4.06696,-0.37634 3.69098,-0.98469 z M 372.66354,386.69194 c 7.01091,-8.82604 9.57617,-12.54509 12.36036,-17.91973 2.20476,-4.2561 2.29553,-4.88135 0.90981,-6.26707 -1.38572,-1.38572 -1.95045,-0.96392 -5.66052,4.22779 -2.26668,3.17189 -6.12228,9.86708 -8.568,14.8782 -2.44572,5.01112 -4.95491,9.42517 -5.57598,9.80901 -0.62107,0.38384 -1.12921,1.10721 -1.12921,1.60749 0,2.01377 3.00383,-0.46959 7.66354,-6.33569 z M 522.88275,344.25 c 2.27494,-2.29252 3.52545,-5.95437 7.51715,-22.01219 2.63354,-10.59421 5.16155,-23.41921 5.6178,-28.5 1.05042,-11.6973 2.8371,-27.22073 3.64075,-31.63237 0.4143,-2.27432 0.26807,-3.17806 -0.4431,-2.73853 -1.47471,0.91142 -2.03474,4.02501 -3.66419,20.37192 -0.78062,7.83135 -1.65417,14.61883 -1.94121,15.08327 -0.28704,0.46444 -1.87946,0.64519 -3.53871,0.40166 -2.89059,-0.42425 -3.17094,-0.12257 -6.7005,7.21026 -2.02602,4.20917 -4.03341,7.29595 -4.46086,6.85951 -0.42745,-0.43644 -0.11981,-3.94353 0.68365,-7.79353 1.73154,-8.29714 5.33355,-41.58005 5.37641,-49.67857 C 525.01886,242.57874 526.66834,243 490.42857,243 461.14973,243 459,243.11984 459,244.75198 c 0,3.34697 3.87145,21.78776 6.01081,28.63113 2.98561,9.55037 8.45936,20.91838 13.77917,28.61689 5.13919,7.43713 17.03196,20 18.9332,20 2.55189,0 1.1906,3.96398 -2.26693,6.60117 l -3.54376,2.70295 -10.12846,-6.8516 c -5.57066,-3.76839 -13.67273,-10.02432 -18.0046,-13.90207 -4.7488,-4.25097 -9.14739,-7.32272 -11.07778,-7.73616 -1.95918,-0.41961 -6.59316,0.0655 -11.94106,1.25 C 435.95391,305.12893 429.38618,306 426.16562,306 c -5.10052,0 -6.61696,-0.49552 -11.76058,-3.84293 -3.4785,-2.26377 -11.04162,-9.41831 -18.40504,-17.41074 -6.875,-7.4623 -13.04353,-13.60798 -13.70785,-13.65707 -1.77487,-0.13116 -6.22354,8.00129 -8.2975,15.16835 -2.02052,6.98239 -3.44842,23.80669 -2.46527,29.04729 0.57454,3.06258 2.13109,4.42724 14.89369,13.05755 L 400.67516,338 l 8.91242,0.0153 c 9.13465,0.0157 14.16824,1.3092 9.36027,2.40535 -1.34632,0.30694 -4.69785,0.91078 -7.44785,1.34188 -2.75,0.43109 -4.94951,1.22338 -4.8878,1.76063 0.36622,3.18848 4.79346,3.44732 59.21472,3.46209 l 54.32693,0.0147 2.7289,-2.75 z M 485.5,341.75556 c -2.2,-0.55794 -13.45,-0.937 -25,-0.84234 -12.27728,0.10062 -21.60139,-0.23244 -22.44785,-0.80185 -2.7179,-1.82831 2.88254,-2.11678 36.14847,-1.86191 32.52875,0.24922 36.22003,0.64286 34.35323,3.66341 -0.84399,1.36561 -17.49695,1.25198 -23.05385,-0.15731 z M 279,302.875 c 0,-2.9776 -0.14986,-3.09503 -3.17708,-2.48958 -4.30405,0.86081 -4.48948,1.24542 -1.71458,3.55631 C 277.55801,306.81455 279,306.5001 279,302.875 Z m -7.70579,-8.4146 c 1.95473,-6.34806 2.17179,-10.05436 0.64411,-10.99852 -0.58393,-0.36089 -1.50977,-1.8347 -2.05742,-3.27513 -0.60308,-1.58623 -1.26884,-2.17918 -1.68832,-1.50368 -0.38092,0.61341 -1.81758,1.27317 -3.19258,1.46611 -2.40579,0.3376 -2.50265,0.63344 -2.5703,7.85082 -0.0575,6.13887 0.2917,7.90834 1.92432,9.75 3.28186,3.70207 5.04453,2.86657 6.94019,-3.2896 z M 421.36514,283.92742 C 422.81431,282.7875 424,281.1725 424,280.33853 c 0,-1.12268 -0.79872,-0.84424 -3.07673,1.07258 -1.69219,1.42389 -3.49219,2.58889 -4,2.58889 -0.5078,0 -0.92327,0.45 -0.92327,1 0,1.64711 2.55765,1.13579 5.36514,-1.07258 z m 27.5291,-0.82863 c 3.20732,-2.99608 4.1102,-6.09879 1.77474,-6.09879 -0.73206,0 -1.91722,1.09532 -2.63369,2.43405 -0.71646,1.33873 -2.5925,2.96833 -4.16898,3.62132 -3.48842,1.44496 -3.72884,2.94463 -0.47207,2.94463 1.31684,0 3.79184,-1.30554 5.5,-2.90121 z m -7.62026,-2.05232 c 3.19855,-1.602 4.42788,-5.1827 3.06822,-8.9369 -1.78832,-4.93782 -9.22807,-2.08085 -9.3104,3.57533 -0.0415,2.84895 1.77037,7.58032 2.72435,7.1143 0.40912,-0.19986 1.99214,-0.98858 3.51783,-1.75273 z m -23.94151,-2.346 c 2.00073,-2.32092 1.65477,-7.46105 -0.59753,-8.87793 -1.7373,-1.09291 -4.92282,-0.01 -6.98494,2.37514 -2.16947,2.50901 -2.21671,4.69098 -0.16499,7.62022 1.85954,2.65488 4.86986,2.22069 7.74746,-1.11743 z m -0.2283,-22.80464 c 1.60598,-1.60598 1.95756,-2.8372 1.48494,-5.20029 -0.7877,-3.93851 -2.14264,-4.74714 -5.81135,-3.46822 -3.74823,1.30664 -5.24217,4.42099 -3.86203,8.05102 1.28582,3.38198 5.13378,3.67215 8.18844,0.61749 z m 25.58327,1.31851 c 3.38397,-2.15172 3.22949,-9.54151 -0.22719,-10.86797 -2.49392,-0.957 -6.34036,1.32777 -7.05958,4.19336 -1.33844,5.33278 3.06033,9.36201 7.28677,6.67461 z m 351.02034,-3.63065 c 0.11427,-0.0913 0.27444,-5.37543 0.35592,-11.74263 0.17309,-13.52605 -0.56474,-15.71467 -5.07459,-15.05277 -1.79608,0.26361 -4.81174,-0.30643 -7.1145,-1.34483 -3.7456,-1.68903 -4.17359,-1.69806 -6.80508,-0.1436 -2.55702,1.51046 -3.32271,1.52475 -8.5633,0.15975 -4.59595,-1.1971 -6.48546,-1.2652 -9.38071,-0.33811 -1.99404,0.63851 -4.16095,1.29787 -4.81536,1.46524 -0.65441,0.16738 -1.32941,2.24047 -1.5,4.60687 -0.27928,3.87417 -0.68353,4.47776 -4.06016,6.06234 -2.68309,1.25912 -3.75436,2.39769 -3.76531,4.00192 -0.0241,3.52287 -1.48368,5.08802 -4.12832,4.42683 -8.17778,-2.04454 -7.58026,-2.17549 -8.03994,1.76203 -0.27922,2.39168 0.0731,4.04739 1.03071,4.84357 2.07624,1.72626 59.80692,2.9333 61.86064,1.29339 z M 441.41574,211.86366 c -0.46919,-0.75916 -0.98781,-0.59282 -1.60824,0.51584 -0.50366,0.89999 -0.60412,2.14056 -0.22324,2.75684 0.46919,0.75916 0.98781,0.59282 1.60824,-0.51584 0.50366,-0.89999 0.60412,-2.14056 0.22324,-2.75684 z m -9.64488,-2.25864 c 1.70971,-5.2332 0.6502,-5.84 -2.86841,-1.64279 -3.5185,4.19708 -3.75278,6.29768 -0.65327,5.85732 1.61032,-0.22878 2.61062,-1.42589 3.52168,-4.21453 z M 756,212.5 c 1.88435,-1.07719 6.60473,-1.43786 19.16821,-1.46456 C 792.51479,210.99856 795,210.67501 795,208.45355 c 0,-0.9987 2.81798,-1.46898 11.25,-1.87747 23.91518,-1.15856 30.75,-1.74639 30.75,-2.6447 0,-0.51226 -2.5875,-0.95643 -5.75,-0.98705 -3.1625,-0.0306 -13.4,-0.47202 -22.75,-0.98089 -9.35,-0.50887 -24.93995,-1.04633 -34.64434,-1.19433 -15.15696,-0.23117 -17.91705,-0.51581 -19.57874,-2.01911 -2.2943,-2.07559 -2.93093,-2.1824 -2.98016,-0.5 -0.0201,0.6875 -0.29888,4.23374 -0.61947,7.88053 -0.73803,8.3952 0.0757,9.36894 5.32271,6.36947 z m -556.39583,-8.22917 c -1.01652,-1.01651 -1.85525,0.51389 -1.02122,1.86338 0.63003,1.01942 0.86558,1.02021 1.2043,0.004 0.2316,-0.69479 0.14921,-1.53513 -0.18308,-1.86742 z M 660.8,197.8 c 0.84707,-0.84707 1.20004,-6.65572 1.20014,-19.75 1.2e-4,-16.82125 0.2268,-19.28461 2.43233,-26.43257 1.651,-5.3508 3.45359,-8.9364 5.61228,-11.1636 4.03217,-4.16014 3.18284,-5.8523 -2.60968,-5.1994 -5.81233,0.65513 -9.87969,4.12078 -12.61123,10.74557 -2.06498,5.00817 -2.29905,7.40615 -2.61764,26.81589 -0.2992,18.22855 -0.11887,21.66844 1.24502,23.75 1.71373,2.6155 5.35577,3.22712 7.34878,1.23411 z m 94.96386,-6.8 c 3.56302,-1.72146 6.20047,-2.00153 18.93783,-2.01101 17.36405,-0.0129 22.378,-0.61775 21.61451,-2.60737 C 795.88577,185.25994 797.77053,185 806.33399,185 c 5.9533,0 10.81719,-0.4356 11.16601,-1 0.33992,-0.55 4.75398,-1.00689 9.80902,-1.01531 5.05504,-0.008 9.86598,-0.45153 10.69098,-0.98469 1.60879,-1.03968 1.6266,-1.03599 -8,-1.65727 -2.475,-0.15973 -20.85706,-0.54531 -40.84902,-0.85684 -26.88382,-0.41892 -36.71384,-0.26365 -37.75,0.59629 -0.77054,0.63949 -1.40098,2.40136 -1.40098,3.91526 0,2.58138 1.02508,9.00256 1.43717,9.00256 0.10294,0 2.04996,-0.9 4.32669,-2 z M 756,169 c 3.42847,-1.74907 5.90136,-2.00077 19.71016,-2.00616 12.22771,-0.005 16.45262,-0.35178 18.72775,-1.53818 1.78534,-0.931 4.04111,-1.28972 5.75,-0.91439 1.7275,0.37943 2.81209,0.20131 2.81209,-0.46181 0,-0.66893 2.63973,-1.07946 6.94098,-1.07946 3.81754,0 7.2191,-0.45 7.55902,-1 0.33992,-0.55 4.64148,-1 9.55902,-1 9.22779,0 12.19671,-1.50005 4.69098,-2.37012 -2.3375,-0.27097 -12.8,-1.16782 -23.25,-1.993 -13.10771,-1.03506 -21.14322,-2.16963 -25.91092,-3.65849 -3.801,-1.18699 -8.076,-1.93468 -9.5,-1.66155 -8.03983,1.5421 -19.78376,5.01633 -21.01559,6.21708 -1.35392,1.31977 -2.44792,11.05122 -1.42791,12.70164 0.66441,1.07503 0.95817,1.00724 5.35442,-1.23556 z m -58.01494,-0.95384 c 1.36678,-1.05016 2.16833,-2.22611 1.78121,-2.61323 -0.85038,-0.85038 -5.76627,2.21029 -5.76627,3.59012 0,1.45309 1.20775,1.15703 3.98506,-0.97689 z M 898.25,160.26779 c -2.3375,-0.21053 -6.1625,-0.21053 -8.5,0 -2.3375,0.21054 -0.425,0.3828 4.25,0.3828 4.675,0 6.5875,-0.17226 4.25,-0.3828 z m -93.42896,-32.83237 c 3.82825,-0.83983 1.86075,-2.89306 -3.40019,-3.54834 -2.70647,-0.33711 -6.29606,-0.9384 -7.97686,-1.3362 -2.23556,-0.5291 -3.40944,-0.29743 -4.37245,0.86292 -1.5808,1.90475 -4.4852,2.00281 -10.63146,0.35893 -4.38729,-1.17342 -4.67007,-1.11928 -6.44503,1.23383 -1.02102,1.3536 -1.48184,2.69337 -1.02404,2.97727 1.02518,0.63573 30.63932,0.15596 33.85003,-0.54841 z"
     style="fill:#cfcfcf" />
  <path
     inkscape:connector-curvature="0"
     id="path837"
     d="m 150.5,542.87257 c -3.85,-0.34509 -9.68993,-1.59359 -12.97762,-2.77445 C 131.93815,538.09239 125,532.84622 125,530.62952 c 0,-0.53798 1.12323,0.0771 2.49606,1.36678 2.45216,2.30369 5.00187,2.10163 2.68727,-0.21297 C 128.70997,530.30997 128.6286,527 130.06574,527 c 0.58616,0 1.90885,0.45122 2.93931,1.0027 1.28488,0.68765 2.08399,0.66225 2.54324,-0.0808 0.36832,-0.59596 2.53313,-0.98674 4.81069,-0.86841 2.27756,0.11833 27.87852,0.15471 56.89102,0.0809 45.75313,-0.11649 52.75,-0.32986 52.75,-1.60862 0,-1.63357 4.86988,-4.47819 6.59991,-3.85517 1.75118,0.63063 3.52615,-2.24714 3.61002,-5.85296 0.0425,-1.82465 -0.26463,-7.59255 -0.6824,-12.81755 -0.59024,-7.3822 -0.40796,-10.82975 0.81765,-15.46496 1.17088,-4.42817 1.27982,-6.14877 0.42288,-6.67839 -0.86952,-0.53739 -0.85995,-1.35956 0.0388,-3.33209 0.65623,-1.44027 1.19314,-3.3608 1.19314,-4.26786 0,-1.71112 3.90571,-8.05699 7.41967,-12.05522 1.6053,-1.82653 2.12897,-1.99707 2.55022,-0.83051 0.44223,1.22463 0.92746,1.14494 2.92698,-0.4807 l 2.39686,-1.9487 -1.9981,-2.22079 c -3.89718,-4.33151 -3.9133,-5.05924 -0.0962,-4.34314 3.31561,0.62201 3.68338,0.39335 7.41708,-4.61159 2.16068,-2.89633 4.93997,-6.9089 6.17621,-8.91683 1.23624,-2.00792 2.91361,-3.9063 3.72748,-4.21861 2.29468,-0.88056 1.83646,-1.90005 -3.23685,-7.20171 -2.59414,-2.71089 -3.60004,-4.20041 -2.23534,-3.31004 1.36471,0.89037 3.92424,1.93578 5.68784,2.32313 3.07863,0.67618 3.39723,0.4335 7.98534,-6.08264 2.62832,-3.7328 6.18373,-8.25317 7.90089,-10.04526 l 3.12213,-3.25834 -3.62213,-3.83979 c -4.88215,-5.17554 -8.88738,-7.89129 -19.4911,-13.21596 -5.72822,-2.87644 -9.87754,-5.70822 -11.50058,-7.84881 l -2.53915,-3.3488 3.92265,1.63899 c 2.15745,0.90144 5.28691,2.74268 6.95435,4.09164 8.6061,6.96236 21.67158,15.46698 23.76161,15.46698 1.30356,0 2.8315,0.4614 3.39543,1.02533 0.70045,0.70045 1.87371,-0.70727 3.70276,-4.44269 1.47259,-3.00741 3.12619,-5.74537 3.67467,-6.08435 0.54848,-0.33898 0.99724,-1.32365 0.99724,-2.18815 0,-1.23789 -0.74358,-1.45116 -3.5,-1.00385 -3.23632,0.52518 -3.5,0.37514 -3.5,-1.99161 0,-2.19305 0.22086,-2.37627 1.54238,-1.27951 1.16431,0.96629 1.82489,0.99756 2.69488,0.12757 1.11266,-1.11266 -0.63215,-2.99354 -12.23726,-13.19158 l -2.5,-2.19688 2.5,1.63346 c 2.24911,1.46952 10.70822,5.59226 11.47433,5.59226 1.21159,0 3.51677,-8.76401 2.96544,-11.27423 -0.74109,-3.37417 3.14439,-13.03429 4.99184,-12.41079 0.58762,0.19831 1.58793,-0.3448 2.22293,-1.2069 1.51249,-2.05344 -1.42409,-6.35577 -5.48681,-8.0386 -1.58629,-0.65707 -3.86499,-2.5213 -5.06377,-4.14274 -1.19879,-1.62144 -9.70009,-7.95647 -18.89178,-14.07783 -19.00671,-12.65784 -17.68644,-11.70798 -17.09529,-12.29913 0.24762,-0.24762 8.98512,5.12124 19.41666,11.93079 10.43155,6.80956 21.0764,13.74667 23.65523,15.41581 6.56325,4.24803 8.85537,4.64333 12.1045,2.08756 2.92462,-2.3005 3.63809,-4.27857 1.20672,-3.34557 -2.85594,1.09593 -1.47646,-1.22994 3.84853,-6.48878 4.59517,-4.53809 6.3163,-5.61368 9.71801,-6.07308 1.04297,-0.14085 2.84638,-12.46429 3.45018,-23.57651 0.59725,-10.99163 3.32925,-25.33883 5.90304,-31 4.03898,-8.88392 4.58799,-10.62092 4.04313,-12.79182 -1.10489,-4.40226 12.34978,-22.10212 22.34564,-29.39606 2.40283,-1.75334 5.88853,-4.75273 7.74601,-6.66531 2.11276,-2.17544 4.04521,-3.30983 5.16134,-3.02982 4.01031,1.00611 6.07375,-15.22736 2.40224,-18.89887 -0.82802,-0.82802 -6.28261,-0.40622 -20.86957,1.61383 L 361.5,204.0668 295.98978,204.0334 230.47956,204 l -2.79622,2.5928 c -2.10399,1.95093 -2.72035,3.34942 -2.48978,5.64915 0.42786,4.26741 3.06061,5.74299 5.80895,3.25578 1.27022,-1.14953 2.39567,-1.52496 2.80854,-0.93688 0.37892,0.53973 4.28895,3.82782 8.68895,7.30685 4.4,3.47904 8,6.84455 8,7.47891 0,0.63437 -1.02701,1.29909 -2.28225,1.47717 -2.27996,0.32345 -2.27919,0.32795 0.77288,4.47811 3.00354,4.08419 5.67932,11.3615 4.58123,12.45959 -0.30778,0.30777 -1.38529,-0.18765 -2.39447,-1.10094 C 250.16821,245.74724 247.91545,245 246.17126,245 c -3.8627,0 -4.08934,1.69241 -1.14613,8.55863 2.48073,5.78731 1.8581,7.08634 -0.85713,1.78828 -3.08834,-6.02609 -15.99259,-17.95332 -20.83457,-19.25713 -7.30869,-1.96802 -32.13666,-3.05984 -69.9245,-3.07495 -28.08349,-0.0112 -38.16178,-0.3399 -41.5,-1.35338 -3.93207,-1.19378 -48.804067,-28.55341 -53.139372,-32.40047 -0.951744,-0.84456 -1.952429,-2.93628 -2.223745,-4.64827 C 52.514749,169.17691 49.701891,147.20588 48.01767,128 46.884238,115.075 45.069687,94.417372 43.985333,82.09416 41.964172,59.124523 42.110876,57 45.718153,57 c 0.810294,0 2.735936,0.74588 4.279204,1.65751 2.696124,1.59264 2.921488,1.563287 5.758331,-0.75 1.623815,-1.32413 3.428985,-3.64501 4.011488,-5.15751 L 60.826272,50 140.66314,49.767974 C 184.57341,49.64036 301.275,49.680308 400,49.856747 l 179.5,0.320798 6.91354,-2.179464 c 3.80244,-1.198705 8.75244,-3.341409 11,-4.761564 2.24755,-1.420154 6.78646,-3.925082 10.08646,-5.566506 12.81426,-6.373828 17.39124,-5.538668 24.69751,4.506543 3.83407,5.271369 5.61316,6.88451 8.10723,7.351006 1.75739,0.328706 14.22026,0.456975 27.69526,0.285044 L 692.5,49.5 l 6.77082,2.908868 c 5.38609,2.313963 6.8859,3.43879 7.33352,5.5 0.30949,1.425122 0.736,3.153632 0.9478,3.841132 0.28424,0.922635 4.07512,1.25 14.47497,1.25 12.3174,0 15.62354,0.379857 26.28138,3.01958 6.70533,1.660769 13.22989,3.462912 14.49901,4.004762 3.4108,1.456229 7.04944,10.33922 8.22905,20.08954 0.55801,4.612365 1.73695,10.740008 2.61987,13.616978 1.03138,3.36071 1.3741,6.67683 0.95859,9.2753 -0.52673,3.29399 -0.32464,4.16804 1.08917,4.71056 0.95474,0.36637 14.34938,0.0726 29.76586,-0.65277 15.41648,-0.7254 29.46729,-1.26379 31.22403,-1.19643 1.75674,0.0674 3.46056,-0.30869 3.78626,-0.83569 0.3257,-0.52699 0.59505,-8.81057 0.59856,-18.407941 0.005,-13.111125 0.33032,-17.718618 1.30925,-18.531052 2.03913,-1.69233 20.80903,-1.575761 35.00681,0.217408 C 889.85263,79.883641 892,79.843425 892,78.036724 c 0,-1.718202 -13.72317,-7.810375 -20.5,-9.100631 -11.71158,-2.229795 -4.38467,-2.220909 9.74772,0.01182 24.45882,3.864172 26.86407,5.51204 28.5385,19.552084 0.59034,4.95 1.95426,11.025 3.03092,13.500003 1.61148,3.70439 1.81952,5.56082 1.17668,10.5 -0.4295,3.3 -1.27881,7.26679 -1.88736,8.8151 -0.65423,1.66452 -1.10646,9.73666 -1.10646,19.75 0,9.31419 -0.3375,16.99757 -0.75,17.07417 -0.4125,0.0766 -8.175,0.22041 -17.25,0.31958 -9.075,0.0992 -17.5858,0.54009 -18.91289,0.97982 -5.32999,1.76607 1.35851,3.05973 18.41289,3.56133 l 17,0.5 0.33412,2.93344 c 0.18377,1.61339 -0.24655,5.55089 -0.95627,8.75 L 907.58745,181 h -13.92539 c -23.50437,0 -72.9038,-1.98499 -77.66206,-3.12065 -2.475,-0.59071 -8.56806,-1.01372 -13.54013,-0.94002 -6.13732,0.091 -10.22107,-0.35943 -12.71788,-1.40267 -4.79564,-2.00374 -7.74199,-1.97333 -7.74199,0.0799 0,1.17474 -0.61495,1.46441 -2.25,1.05982 -11.91481,-2.94827 -12.06717,-2.96312 -13.28689,-1.29506 C 765.81213,176.2716 764.66917,177 763.92319,177 761.71859,177 754,173.80092 754,172.8872 c 0,-0.4626 1.21652,-1.63897 2.70337,-2.61415 2.3625,-1.54948 6.42892,-1.86462 32.25,-2.49929 41.89595,-1.02978 47.73616,-1.47851 48.32041,-3.7127 0.28615,-1.09423 1.99432,-2.18104 4.34874,-2.76685 l 3.87748,-0.96477 -4,-1.21459 c -2.2,-0.66802 -9.51633,-1.60152 -16.2585,-2.07444 -10.5556,-0.74041 -13.17588,-1.28914 -18.86228,-3.95013 -4.91755,-2.3012 -8.04331,-3.09223 -12.24149,-3.09792 C 791.03698,149.98816 785.575,149.0916 782,148 c -7.73223,-2.36097 -10.12143,-2.45418 -15.46657,-0.60341 -2.21839,0.76813 -6.05843,1.97137 -8.53343,2.67388 -2.475,0.70251 -4.9275,1.64904 -5.45,2.10341 -0.5225,0.45437 -2.67583,0.82612 -4.78518,0.82612 -2.10935,0 -4.83234,0.65336 -6.05108,1.45191 -2.71258,1.77735 -9.04659,2.31414 -10.87242,0.92141 -1.54565,-1.17902 -8.52339,-3.34243 -14.34132,-4.44646 -2.2,-0.41748 -6.7,-1.45578 -10,-2.30734 -7.91276,-2.04186 -7.69812,-2.10284 -5.89647,1.67527 1.48249,3.1088 1.44778,3.50393 -0.61495,7 -1.20237,2.03786 -2.87464,3.70521 -3.71616,3.70521 -0.84151,0 -3.27336,1.575 -5.4041,3.5 -4.71171,4.25675 -6.17905,4.34312 -9.93723,0.58494 -2.95962,-2.95962 -3.07903,-3.99057 -1.34185,-11.58494 0.67413,-2.94704 8.27244,-8.67868 10.54779,-7.95651 2.28279,0.72453 6.3902,-0.45358 5.21363,-1.4954 -0.46786,-0.41428 -3.10066,-1.3481 -5.85066,-2.07516 -5.39125,-1.42537 -8.56873,-3.08422 -12.5,-6.52583 -2.1709,-1.9005 -3.22733,-2.10321 -8.02513,-1.53991 -7.40513,0.86942 -12.25547,4.72525 -15.21183,12.09281 -1.98424,4.94493 -2.24443,7.66982 -2.57816,27 -0.43883,25.41735 0.66067,33.94105 4.934,38.25 1.5,1.5125 3.77439,2.78656 5.0542,2.83124 6.38569,0.22295 7.88263,0.77917 12.49904,4.64425 3.82098,3.1991 8.81718,5.62945 21.4061,10.41275 l 16.42178,6.23965 15.7474,0.061 c 10.01899,0.0388 15.63041,0.42483 15.4258,1.06106 -0.17689,0.55 -2.98822,2.03101 -6.24741,3.29113 C 727.534,243.22902 722,246.08153 722,247.22691 c 0,0.41397 2.44713,2.37747 5.43807,4.36334 l 5.43808,3.61068 41.04635,0.55139 41.04635,0.55139 1.39531,-3.31846 c 1.2932,-3.07564 1.44562,-3.15993 2.08296,-1.15186 0.59167,1.8642 1.42965,2.16661 6.00364,2.16661 4.66754,0 5.38953,-0.27445 5.91895,-2.25 1.44609,-5.39607 1.0871,-5.75 -5.8322,-5.75 -8.12942,0 -16.65085,-3.01781 -19.16788,-6.78818 -1.39475,-2.08924 -1.76353,-4.38434 -1.60636,-9.99699 0.1122,-4.00684 0.6772,-8.16934 1.25555,-9.25 0.57835,-1.08066 0.69821,-1.98808 0.26636,-2.01649 -15.74935,-1.03615 -20.89452,-0.74329 -19.74068,1.12366 0.90883,1.47052 -2.84403,1.01602 -4.98563,-0.6038 -2.45895,-1.85986 -8.5018,-1.8969 -11.11276,-0.0681 -1.71341,1.20011 -2.27238,1.20011 -3.91364,0 -1.0531,-0.77006 -3.60216,-1.4001 -5.66458,-1.4001 -4.33571,0 -5.54997,-1.18841 -3.20493,-3.13669 1.29176,-1.0732 9.82715,-1.49854 40.1101,-1.99877 l 38.46915,-0.63547 2.1289,-2.56177 2.12889,-2.56178 35,-0.27005 35,-0.27005 0.30149,4.09437 c 0.18967,2.57576 -0.23066,4.62652 -1.13325,5.52912 -1.12398,1.12397 -1.5313,5.97003 -1.8805,22.37292 -0.41164,19.33582 -0.63102,21.38024 -2.86675,26.71474 -3.01344,7.19018 -9.27388,13.5537 -14.53486,14.77418 -2.13737,0.49585 -6.81113,0.91714 -10.38613,0.93622 -3.575,0.0191 -8.70902,0.70481 -11.40893,1.52385 -3.691,1.11971 -10.2216,1.48918 -26.32193,1.48918 -21.26848,0 -21.44301,0.0176 -25.85975,2.60597 l -4.44674,2.60596 -32.47839,-1.16679 c -17.86312,-0.64174 -32.92971,-0.88787 -33.48133,-0.54695 -0.55161,0.34091 -1.00293,3.69658 -1.00293,7.45704 0,5.77203 0.55749,8.01111 3.57852,14.37253 1.96819,4.14444 3.42021,8.57865 3.22671,9.8538 -0.33408,2.20162 -0.55218,2.11015 -4.32852,-1.81528 -2.18719,-2.27355 -5.34515,-6.09855 -7.01768,-8.5 -3.53579,-5.07674 -5.65294,-5.69948 -22.20903,-6.53256 L 707,300.81795 v -5.94109 C 707,288.10958 704.86557,282 702.50137,282 698.84812,282 687.46965,274.22324 679.5,266.27942 675.01067,261.80464 670.16915,259 666.93387,259 c -1.19099,0 -4.25084,-0.64176 -6.79966,-1.42613 C 657.5854,256.78949 651,255.16422 645.5,253.96214 c -5.5,-1.20207 -11.18449,-2.61795 -12.63219,-3.14639 -1.44771,-0.52844 -8.48094,-1.11546 -15.62941,-1.30449 -8.19878,-0.2168 -13.74725,-0.81209 -15.02879,-1.61243 -1.64153,-1.02515 -2.86464,-1.02466 -6.3706,0.003 -6.96356,2.04034 -8.51778,3.4708 -9.27781,8.53903 -0.73764,4.91893 -1.82109,5.89218 -7.75009,6.96176 -2.73811,0.49396 -4.87438,0.10823 -8.28846,-1.49658 -2.52976,-1.18913 -4.81873,-1.94289 -5.08659,-1.67503 -0.26787,0.26786 -2.04232,4.26305 -3.94324,8.87821 -3.11471,7.56203 -3.45803,9.34436 -3.47452,18.03757 -0.0161,8.51004 -0.38291,10.51264 -3.1135,17 -4.26838,10.14086 -4.57412,11.89102 -2.36013,13.50993 2.32972,1.70354 1.96903,1.6854 -4.4618,-0.22435 -2.90408,-0.86242 -5.43566,-1.41251 -5.62574,-1.22243 -1.14879,1.14878 -2.43668,19.32828 -1.86683,26.35146 l 0.67564,8.3269 -3.08394,3.08395 -3.08395,3.08394 L 469.79903,356.7779 404.5,356.5 393.61554,352.1216 c -9.99561,-4.02086 -11.37551,-4.32708 -16.89766,-3.7499 -7.01017,0.73271 -8.71788,1.83985 -8.71788,5.65197 0,2.12424 0.83788,3.27314 3.55716,4.87755 4.41959,2.60762 5.65842,2.62303 7.94284,0.0988 2.30576,-2.54784 6.67473,-2.5694 8.95999,-0.0442 1.72953,1.91111 1.69096,1.94296 -1.68822,1.3946 -3.25974,-0.52898 -3.61199,-0.29875 -6.13821,4.01192 -2.10327,3.58895 -3.50167,4.79436 -6.49799,5.60118 -2.09988,0.56544 -4.58467,1.87528 -5.52177,2.91076 -1.47912,1.63441 -1.54944,2.49569 -0.5333,6.53117 1.1339,4.50311 1.05712,4.83217 -2.455,10.52226 -6.38272,10.34083 -4.81151,10.66262 5.53088,1.13275 5.55685,-5.12029 9.14515,-9.63054 13.68743,-17.20415 3.38591,-5.64552 6.15619,-9.87567 6.15619,-9.40034 0,0.96909 -7.95571,15.97659 -14.76329,27.84919 -2.46144,4.29282 -5.51236,8.48461 -6.77983,9.31508 -2.05671,1.34761 -2.62156,1.34599 -5.25358,-0.0151 -3.09152,-1.59869 -4.16688,-3.9824 -4.18965,-9.28704 -0.0134,-3.1161 -2.71122,-5.98806 -7.10433,-7.56284 -2.33269,-0.83619 -3.20816,0.0197 -7.92197,7.74475 -2.34927,3.85 -5.78248,9.24399 -7.62937,11.98665 -1.84689,2.74266 -3.35798,6.2186 -3.35798,7.72432 0,2.02632 -0.77427,3.13806 -2.97981,4.27859 -3.75853,1.94361 -13.2287,15.83944 -13.97662,20.50826 -0.38759,2.41949 -1.29043,3.81133 -2.92044,4.50218 -1.29767,0.55 -4.55624,4.24218 -7.24127,8.20484 -4.69065,6.92265 -5.74205,9.28922 -4.13186,9.30034 0.75799,0.005 15.29287,-4.40523 27.25,-8.26872 6.24426,-2.0176 9.31318,-2.13288 78,-2.93014 97.36331,-1.1301 154.25262,-1.55195 241.52671,-1.79098 49.86464,-0.13658 81.19872,-0.65723 96,-1.59517 24.1124,-1.52798 63.08631,-3.39906 85.01297,-4.08135 8.67796,-0.27003 20.13488,0.16284 30,1.13346 8.77817,0.86369 27.88532,2.65762 42.46032,3.98652 26.64049,2.42899 43.51361,4.63004 49.9934,6.52148 1.92137,0.56085 6.89912,1.01972 11.06166,1.01972 7.66327,0 20.69143,2.7833 26.08601,5.57295 1.55757,0.80545 4.41301,2.85265 6.34543,4.54934 5.1667,4.53643 4.8126,7.60378 -1.4865,12.87771 -2.75,2.30243 -5,4.80368 -5,5.55832 0,1.94133 -5.76347,8.268 -9.10714,9.99708 -1.54563,0.79928 -6.31633,1.94026 -10.60155,2.5355 -4.28522,0.59525 -18.59131,3.80794 -31.79131,7.13931 -17.86158,4.50785 -26.55768,6.21214 -34,6.66342 -11.30283,0.68537 -41.19416,-0.31484 -52.5,-1.75674 -26.98165,-3.44111 -31.57477,-3.61674 -47.82033,-1.82854 -20.63267,2.27111 -113.8827,2.45182 -135.17967,0.26197 -14.05683,-1.44538 -17.39883,-2.294 -22.03498,-5.59523 -3.76973,-2.68428 -4.90372,-2.54356 -14.30302,1.77491 l -8.162,3.75 H 566 c -32.175,0 -63.75477,-0.40158 -70.17727,-0.89241 l -11.67728,-0.89241 -4.46028,2.95438 c -3.26564,2.16306 -7.13434,3.445 -14.44398,4.78619 -8.86003,1.62565 -11.2231,1.69495 -20.99572,0.61577 -11.59726,-1.28067 -17.46875,-0.75169 -26.25201,2.36509 -5.77206,2.04825 -25.17154,5.68405 -50.56105,9.47603 -11.03718,1.64842 -22.06218,3.44345 -24.5,3.98896 -2.43783,0.5455 -10.81923,1.93566 -18.62534,3.08923 -7.97698,1.17882 -18.05008,3.41717 -23,5.11084 -21.0931,7.21725 -20.68508,7.17985 -85.30707,7.81938 -32.175,0.31842 -61.65,0.29661 -65.5,-0.0485 z M 303,496.61054 c 5.225,-0.78708 13.775,-1.9714 19,-2.63183 9.91138,-1.25277 21.87578,-3.52115 22.64868,-4.29406 0.24707,-0.24706 -8.46032,-0.68064 -19.34974,-0.9635 -14.08362,-0.36584 -21.48329,-0.99255 -25.63383,-2.17107 -3.20919,-0.91123 -7.70919,-1.52027 -10,-1.35343 -3.90151,0.28415 -4.25649,0.56768 -5.60902,4.48005 -1.17082,3.38675 -1.2109,4.68812 -0.21189,6.8807 1.37493,3.01764 -0.48958,3.01246 19.1558,0.0531 z m 299.25689,-6.77315 c 2.61629,-0.55334 4.50223,-1.41812 4.19098,-1.92173 -0.95493,-1.54512 -17.79702,-1.11333 -20.00674,0.51292 -1.60166,1.17874 -1.6788,1.51466 -0.44113,1.92077 0.825,0.27071 2.175,0.73167 3,1.02437 1.58655,0.56288 5.44654,0.11555 13.25689,-1.53633 z M 359.81955,368.23978 c 0.36516,-2.55943 -0.63027,-2.82988 -3.2812,-0.89148 -1.06886,0.78157 -1.53033,1.85566 -1.09789,2.55536 1.17149,1.89551 4.02601,0.8109 4.37909,-1.66388 z m 131.38083,-19.49592 c 28.45653,-0.16641 42.04647,-0.59006 42.79008,-1.33394 0.77505,-0.77532 0.78886,-2.43245 0.0478,-5.73914 -1.14721,-5.11907 -0.0415,-22.42258 2.43907,-38.17078 2.72948,-17.32818 5.688,-44.70511 5.08901,-47.09166 -1.58791,-6.32676 -4.71696,-0.2215 -10.65328,20.78619 -3.8763,13.71764 -6.42543,20.34613 -8.2745,21.51615 -0.47378,0.2998 -0.5721,-1.64996 -0.21847,-4.3328 1.70289,-12.9194 4.31837,-44.68111 3.84171,-46.65286 C 525.25775,243.57159 521.97258,241 517.6707,241 c -3.83733,0 -3.9192,-0.0679 -2.27363,-1.88627 1.62908,-1.80011 1.55624,-1.97862 -1.59501,-3.90852 -1.81613,-1.11224 -5.25933,-2.54282 -7.65156,-3.17907 -2.54,-0.67555 -8.35474,-4.11492 -13.97697,-8.26725 -5.5204,-4.07714 -11.13039,-7.40592 -13.1505,-7.80308 -1.93767,-0.38095 -4.75729,-1.02482 -6.26582,-1.43082 -2.29696,-0.6182 -2.88081,-0.36509 -3.59189,1.55715 -0.49847,1.34747 -0.43389,3.39537 0.15636,4.95914 1.21077,3.2077 0.21926,6.38027 -1.757,5.62192 -2.45301,-0.94132 -3.60836,1.73899 -2.91864,6.77102 0.51655,3.76868 1.13816,4.91343 3.06604,5.64641 1.32996,0.50565 11.95132,1.02078 23.60302,1.14473 l 21.1849,0.22536 -27,0.52464 -27,0.52464 -0.31996,2.78665 c -0.17598,1.53266 0.38652,6.89946 1.25,11.92622 1.88142,10.95274 1.97488,13.08772 0.45884,10.48169 -1.45459,-2.50038 -5.15642,-3.71783 -8.54356,-2.80979 -2.73858,0.73417 -2.83358,0.96633 -2.53226,6.189 0.20935,3.6285 -0.17347,6.08254 -1.15548,7.40721 -1.40834,1.89978 -1.44815,1.87429 -0.97102,-0.62166 0.62841,-3.2873 -2.18463,-8.8637 -4.46224,-8.84567 -3.87273,0.0307 -6.39419,1.40584 -8.00066,4.36345 l -1.69624,3.1229 -0.33573,-2.80799 c -0.29723,-2.48597 -0.69336,-2.77267 -3.45432,-2.5 -2.60456,0.25722 -3.54046,1.12263 -5.67798,5.25027 -1.40767,2.71826 -3.16559,5.13283 -3.9065,5.36571 -1.06245,0.33394 -1.11527,-0.01 -0.25,-1.62655 1.61843,-3.02405 1.33707,-6.66354 -0.71063,-9.19234 -1.47238,-1.81831 -2.39973,-2.10244 -4.99876,-1.5316 -5.70695,1.25346 -7.7771,6.98231 -4.67355,12.93338 1.24153,2.38065 1.29398,3.48169 0.29716,6.23834 -1.08166,2.9913 -0.96736,3.67628 1.07427,6.43774 1.2566,1.69964 1.9693,3.39239 1.58378,3.76165 -0.38553,0.36926 -7.10707,-6.03474 -14.93677,-14.23113 -7.8297,-8.19638 -14.71126,-14.60867 -15.29235,-14.24954 -1.91434,1.18312 -6.2335,9.43714 -8.29377,15.84957 -1.3898,4.32564 -2.21547,10.41341 -2.63236,19.40874 -0.66853,14.42495 -0.90262,13.69776 6.18881,19.22539 1.96042,1.5281 2.30203,2.0921 0.99128,1.63655 -5.34813,-1.85873 -5.5,-1.82261 -5.5,1.30819 0,3.22936 1.37632,4.22362 5.8466,4.22362 1.47566,0 4.41211,0.92674 6.52545,2.05942 3.59261,1.92552 6.97726,1.83483 3.52961,-0.0946 -0.86992,-0.48683 -2.66617,-1.852 -3.99167,-3.0337 l -2.40999,-2.14855 3,1.76892 c 1.65,0.9729 5.54761,3.75686 8.66136,6.18658 3.11374,2.42971 6.48874,4.3308 7.5,4.22463 1.01125,-0.10617 2.73864,-0.12526 3.83864,-0.0424 1.85153,0.13941 1.82498,0.24764 -0.35761,1.45793 l -2.35761,1.30734 2.67009,2.10029 c 2.5607,2.01425 6.79224,3.70699 11.04513,4.41838 1.1,0.184 9.2,0.21056 18,0.059 8.8,-0.15154 34.76517,-0.38526 57.70038,-0.51939 z m -1.96521,-7.45154 C 485.03177,340.48441 488.07454,339 493.93402,339 c 7.59347,0 12.68356,0.99302 10.89664,2.12582 -1.34947,0.85548 -11.44987,0.96331 -15.59549,0.1665 z m -3.83013,-16.19325 c -8.66621,-5.72499 -15.3819,-10.86709 -22.71627,-17.3935 -8.69786,-7.73968 -10.12319,-8.05262 -23.49989,-5.15954 -13.76439,2.97693 -20.97561,2.07591 -25.26171,-3.15638 -0.96941,-1.18341 0.0444,-0.88382 3.16069,0.93406 5.52577,3.22341 8.54571,3.31613 22.12668,0.67932 5.657,-1.09834 11.32031,-1.99834 12.58512,-2 3.65828,-0.005 8.17983,2.81086 15.70034,9.77695 6.98697,6.4719 23.44249,18.22002 25.52066,18.22002 0.60355,0 0.81926,0.45 0.47934,1 -0.96466,1.56085 -1.78708,1.26613 -8.09496,-2.90093 z m 253.24814,-45.28281 c -1.08085,-1.73072 -1.22742,-1.70879 -2.87382,0.43 -2.45113,3.18419 -2.20179,3.73946 1.1167,2.48687 2.47876,-0.93563 2.73195,-1.35592 1.75712,-2.91687 z m -319.63207,-23.8557 c 2.72676,-5.095 -0.66377,-11.76903 -5.37783,-10.58588 -6.42386,1.61229 -8.56864,7.79086 -4.21556,12.14395 2.13903,2.13903 2.79558,2.29949 5.52111,1.34936 1.70136,-0.5931 3.53389,-1.90144 4.07228,-2.90743 z m 25.13895,1.34756 c 3.32854,-2.918 3.02641,-9.14826 -0.55976,-11.54281 C 439.5561,243.06493 434,246.96258 434,252.5 c 0,6.5907 5.2777,9.08831 10.16006,4.80812 z M 450,238.27677 c 1.91593,-0.75482 -2.96101,-1.99452 -8.49134,-2.15846 -2.82314,-0.0837 -5.53047,-1.17835 -9.25,-3.74009 -5.76983,-3.97383 -6.20387,-4.80199 -3.3244,-6.34304 2.90925,-1.55698 6.37944,-1.25829 11.65533,1.00322 4.64384,1.99059 4.87249,1.99645 9.74681,0.25 5.34596,-1.91543 7.77694,-4.77692 9.85629,-11.60173 1.04378,-3.42585 0.8909,-4.36573 -1.50456,-9.25 C 456.7021,202.38724 455.47751,201 453.88889,201 c -2.02873,0 -2.05318,0.10982 -0.50077,2.25 4.18985,5.77624 4.45046,9.52358 0.78925,11.34889 -1.26771,0.63202 -3.51372,2.27584 -4.99114,3.65293 -5.92821,5.52563 -10.52847,5.92719 -13.6324,1.19 -2.93453,-4.47867 -1.79306,-11.40911 2.66258,-16.16572 1.86304,-1.98889 1.9086,-2.2909 0.43115,-2.85785 -3.21365,-1.23319 -6.53506,0.6442 -10.92107,6.17301 l -4.43808,5.59445 0.48725,9.31532 c 0.54287,10.37873 0.0109,13.71237 -2.60549,16.3288 -1.70528,1.70528 -1.17615,1.76361 12.77543,1.40843 8.00492,-0.20379 15.2294,-0.63646 16.0544,-0.96149 z m -7.8471,-22.713 C 443.46077,212.6933 442.68506,210 440.55044,210 c -1.68193,0 -3.08518,4.1641 -2.18967,6.49776 0.85742,2.2344 2.537,1.82072 3.79213,-0.93399 z m -241.48477,-9.14131 c 0.33295,-0.86765 -0.11464,-2.29754 -0.99464,-3.17754 -1.46667,-1.46667 -1.65365,-1.46021 -2.24373,0.0775 C 196.64994,205.35462 197.53799,208 199,208 c 0.58452,0 1.33518,-0.70989 1.66813,-1.57754 z m 616.13349,-78.09792 19.30161,-0.63939 -0.30161,-3.09257 L 835.5,121.5 l -6.46049,0.30751 c -3.55327,0.16913 -10.51014,-0.21883 -15.45969,-0.86212 -5.96423,-0.77517 -14.53145,-0.9256 -25.40323,-0.44604 l -16.40402,0.72359 -3.92386,3.80797 c -3.33056,3.2322 -3.65357,3.88937 -2.13628,4.34629 1.70839,0.51448 7.19168,0.4015 51.08919,-1.05266 z M 205.73079,487.58793 c -2.63152,-2.63152 -3.11303,-7.19847 -1.05286,-9.98591 3.56467,-4.82302 8.51635,-5.81024 12.68721,-2.52944 3.70306,2.91283 3.52847,6.99771 -0.44187,10.33853 -1.69219,1.42389 -3.60469,2.59503 -4.25,2.60254 -0.6453,0.008 -2.11869,0.26746 -3.27419,0.57765 -1.23471,0.33146 -2.74716,-0.0822 -3.66829,-1.00337 z m 31.6667,-57.27434 c -2.34604,-0.46199 -9.09114,-6.95327 -8.17604,-7.86837 0.89884,-0.89884 7.98468,3.0453 10.70286,5.95746 2.43102,2.6045 2.13439,2.82883 -2.52682,1.91091 z m 25.01008,-20.92335 c -2.25083,-0.79852 -5.36802,-2.7833 -6.92709,-4.41062 -5.94561,-6.20588 1.06314,-4.56081 8.54267,2.0051 4.85948,4.26589 4.62258,4.61862 -1.61558,2.40552 z M 294.5,363.43399 c -2.75,-1.32454 -5.47831,-2.41405 -6.06291,-2.42112 -1.00956,-0.0122 -4.42948,-3.39184 -7.40539,-7.31811 -1.28559,-1.69614 -1.19192,-1.7285 1.55001,-0.53542 4.19773,1.82653 9.31958,5.24584 13.91829,9.29174 4.67668,4.11451 4.59011,4.15705 -2,0.98291 z m -25.62756,-18.09771 c -1.24448,-1.5086 -1.16266,-1.55194 0.87756,-0.46482 2.32696,1.23991 2.89993,2.12854 1.37244,2.12854 -0.48265,0 -1.49515,-0.74867 -2.25,-1.66372 z m 17.69899,-53.90771 c -2.42282,-2.42282 -1.94377,-6.1385 1.0438,-8.09603 2.34341,-1.53546 2.88909,-1.56037 5.25,-0.23963 3.64506,2.0391 3.86884,5.18451 0.55434,7.7917 -3.20966,2.52471 -4.7454,2.6467 -6.84814,0.54396 z m 16.90117,-0.45885 c -4.12033,-4.55291 2.94421,-11.61745 7.49712,-7.49712 2.65507,2.4028 2.56729,4.67428 -0.28417,7.35309 -2.88591,2.71117 -4.85415,2.75047 -7.21295,0.14403 z m 0.34628,-16.9153 c -1.94743,-1.57693 -2.13359,-2.25738 -1.28092,-4.68194 0.59605,-1.69484 2.10623,-3.22671 3.75144,-3.8053 2.28895,-0.80498 3.1288,-0.59342 4.97553,1.2533 2.05979,2.0598 2.11289,2.41305 0.72841,4.84598 -2.1268,3.73739 -5.34646,4.67794 -8.17446,2.38796 z M 286.2,273.8 c -1.82645,-1.82645 -1.43547,-5.27693 0.83028,-7.3274 4.36864,-3.95357 10.70039,2.53222 6.91953,7.08787 -1.45049,1.74774 -6.09796,1.89138 -7.74981,0.23953 z m 43.35032,-6.15877 C 324.07272,262.16363 328.09673,253 335.97971,253 c 2.81973,0 7.02029,4.33342 7.02029,7.24232 0,3.07646 -4.7974,8.53014 -8.19968,9.32139 -2.07841,0.48336 -3.28656,0.041 -5.25,-1.92248 z M 304.22251,257.4433 c -4.52744,-3.17114 -1.30464,-9.92799 4.42065,-9.26826 2.057,0.23704 3.09008,1.0972 3.81808,3.17905 0.87794,2.5106 0.66283,3.14244 -1.78736,5.25 -3.28905,2.82912 -3.56004,2.86438 -6.45137,0.83921 z m -18.27236,-1.53644 c -1.6144,-3.01655 -0.36563,-6.76448 2.49291,-7.48192 5.63944,-1.41541 9.0837,2.59599 6.11682,7.12402 -2.08172,3.1771 -6.99171,3.3812 -8.60973,0.3579 z m 534.53461,-4.95487 c -0.75863,-2.39025 0.73762,-4.55062 2.42811,-3.50584 1.51408,0.93575 1.35647,3.08543 -0.32877,4.48405 -1.13371,0.9409 -1.55211,0.74594 -2.09934,-0.97821 z m -498.2565,-10.23856 c -4.40387,-2.0131 -3.87027,-7.2291 1.00655,-9.8391 4.60192,-2.46287 9.02556,4.87451 5.01519,8.31858 -2.8117,2.41466 -3.6195,2.61864 -6.02174,1.52052 z M 286.2,239.8 c -2.06526,-2.06526 -1.42842,-6.60423 1.16502,-8.30352 3.70575,-2.4281 8.63498,0.18939 8.63498,4.58531 0,0.50501 -0.9,1.81821 -2,2.91821 -2.23745,2.23745 -5.97882,2.62118 -7.8,0.8 z m 17.04508,0.0451 c -3.38552,-3.38552 -0.029,-9.15766 5.0295,-8.64908 4.19842,0.4221 5.66692,3.03083 3.69422,6.56263 -1.70374,3.0503 -6.59099,4.21918 -8.72372,2.08645 z m -32.90714,-15.90071 c -5.05946,-1.90686 -2.82361,-10.06265 2.94834,-10.75475 3.16643,-0.37968 6.234,3.59576 5.22578,6.77238 -0.89039,2.80538 -5.42948,5.01679 -8.17412,3.98237 z m 16.23349,-1.5158 c -2.42282,-2.42282 -1.94377,-6.1385 1.0438,-8.09603 2.34341,-1.53546 2.88909,-1.56037 5.25,-0.23963 3.3438,1.87057 3.85018,5.19168 1.19626,7.8456 -2.45908,2.45908 -5.333,2.64712 -7.49006,0.49006 z m 17,0 C 301.43121,220.28836 301.59772,217.40228 304,215 c 2.49115,-2.49115 5.18862,-2.55405 7.34501,-0.17126 2.19936,2.43026 2.08834,4.73791 -0.34501,7.17126 -2.40228,2.40228 -5.28836,2.56879 -7.42857,0.42857 z m 16.80977,-0.96953 c -1.32562,-2.02315 -1.43914,-3.03646 -0.55706,-4.97242 2.30058,-5.04921 10.17586,-3.9707 10.17586,1.39358 0,5.72568 -6.60252,8.18226 -9.6188,3.57884 z M 859.9265,201.9181 c -23.41543,-0.32005 -43.13899,-0.93139 -43.83014,-1.35854 -0.69114,-0.42715 -5.70133,-0.71428 -11.13376,-0.63806 -9.53334,0.13375 -9.93483,0.0505 -11.53487,-2.39146 -1.90606,-2.90901 -7.13875,-3.45135 -11.47348,-1.18915 -1.50226,0.784 -3.34679,1.01523 -4.5,0.56413 -1.07484,-0.42045 -3.40263,-0.79608 -5.17287,-0.83473 -2.56448,-0.056 -3.09286,0.25741 -2.59986,1.54214 0.5227,1.36215 0.091,1.50562 -2.78139,0.92429 C 763.31576,197.8113 755,194.31266 755,193.53006 c 0,-0.25283 1.0125,-1.03803 2.25,-1.74488 1.6155,-0.92276 10.99201,-1.49029 33.25,-2.01251 41.25508,-0.96793 46.16213,-1.37265 46.81285,-3.86102 0.49083,-1.87693 1.61996,-1.92895 36.34686,-1.67438 L 909.5,184.5 909.34782,189 c -0.28322,8.37446 -1.60529,12.30107 -4.35333,12.92953 -1.37197,0.31376 -21.65257,0.30861 -45.06799,-0.0114 z m 1.886,-135.601214 c 0.72187,-0.288871 1.58438,-0.253344 1.91667,0.07895 0.33229,0.332292 -0.25834,0.568641 -1.3125,0.52522 -1.16495,-0.04798 -1.4019,-0.284941 -0.60417,-0.604167 z M 846,64.9607 c -4.125,-0.405605 -11.775,-1.072987 -17,-1.48307 -11.34494,-0.890406 -13.86265,-1.814576 -9.5,-3.487146 2.4449,-0.937337 5.95555,-0.658888 18.97313,1.504863 8.78523,1.460259 16.66023,3.057501 17.5,3.549426 1.78273,1.044287 1.47596,1.041701 -9.97313,-0.08407 z M 233.5,47 c -11.78187,-0.490911 -17.01803,-1.945625 -16.16933,-4.492176 0.39723,-1.19191 159.67148,-1.953848 159.66558,-0.763809 -0.005,1.037754 -7.95357,4.221138 -12.10228,4.847021 C 360.31705,47.281522 248.60167,47.629236 233.5,47 Z m 22.81819,-11.495203 c -2.29999,-0.689439 -5.28777,-1.042107 -6.6395,-0.783707 -1.35173,0.2584 -3.56965,-0.258766 -4.92871,-1.149257 -2.279,-1.493252 -2.92871,-1.491108 -8.3605,0.0276 -10.84394,3.031913 -11.37015,2.971371 -16.70336,-1.921756 -4.5162,-4.143539 -4.79446,-4.686716 -4.5,-8.784154 L 215.5,18.526011 394.75,18.336789 c 167.12636,-0.176424 179.24822,-0.07585 179.22369,1.486994 -0.0145,0.92192 -0.86516,4.826217 -1.89042,8.676217 l -1.86411,7 -5.85958,-0.299848 C 558.39536,34.894949 553,33.372773 553,31.995311 c 0,-1.704254 -4.05173,-1.767161 -4.95631,-0.07695 -1.33773,2.499571 -10.85277,4.484925 -14.62357,3.051271 -1.59462,-0.606274 -4.30417,-0.838763 -6.02123,-0.516641 -2.21004,0.414606 -3.51733,0.109223 -4.47568,-1.04552 -2.54538,-3.066988 -5.2404,-3.341265 -7.62546,-0.776058 -2.82388,3.037165 -9.3781,3.288238 -12.19903,0.467308 -2.96389,-2.963888 -5.69055,-3.436093 -7.7702,-1.345649 -3.45438,3.472298 -6.98999,4.284619 -15.72602,3.613114 -5.01881,-0.385776 -9.01377,-0.235408 -10.11471,0.380711 -1.17084,0.655234 -2.91928,0.687855 -4.90371,0.09149 -1.69625,-0.509756 -5.09223,-0.94443 -7.54664,-0.965941 -3.40304,-0.02983 -4.99432,-0.612888 -6.70225,-2.455778 -2.6684,-2.879252 -4.90366,-3.091506 -6.24102,-0.592628 -1.61594,3.019417 -8.45602,4.528532 -14.23833,3.141378 -2.70777,-0.649584 -5.78567,-0.955525 -6.83978,-0.679869 -1.10499,0.288962 -3.29025,-0.512283 -5.16059,-1.892178 -3.78312,-2.791097 -5.41932,-2.995139 -6.63261,-0.827115 -0.48209,0.86144 -2.64195,1.966605 -4.79969,2.455921 -3.38967,0.768683 -4.41198,0.551847 -7.51771,-1.594524 -3.5895,-2.480702 -6.13132,-2.463587 -8.40546,0.0566 -2.2294,2.470597 -8.32176,3.649936 -13.7243,2.656703 -5.43466,-0.99914 -10.38193,-0.577278 -12.46178,1.062638 -0.75001,0.591368 -1.98389,0.508221 -3.35608,-0.226155 -1.19351,-0.638744 -4.25977,-1.177079 -6.81393,-1.196301 -3.1649,-0.02382 -5.32672,-0.655284 -6.78787,-1.982736 -1.58787,-1.442574 -2.62538,-1.703804 -4,-1.007137 -4.32239,2.190615 -9.08453,3.553921 -12.35604,3.53729 -5.52445,-0.02808 -14.22611,-1.977419 -17.68278,-3.961272 -2.99767,-1.720428 -3.26419,-1.725243 -5.06936,-0.09159 C 307.19992,32.22406 305.80935,33 305.15769,33 c -0.65166,0 -2.0614,0.54743 -3.13277,1.216512 -1.62779,1.016572 -2.44068,0.852217 -4.94594,-1 -3.71051,-2.743296 -8.48383,-2.848889 -11.27405,-0.2494 -1.83046,1.70533 -3.38858,1.941972 -11.70819,1.778197 -5.48272,-0.10793 -10.45412,0.283056 -11.59674,0.912049 -1.47897,0.814144 -3.08943,0.774399 -6.18181,-0.152561 z"
     style="fill:#afafaf" />
  <path
     inkscape:connector-curvature="0"
     id="path835"
     d="M 144.8784,540.46371 C 137.57368,538.17292 135.68443,534 141.95203,534 c 1.59661,0 3.08531,-0.65493 3.4096,-1.5 0.50131,-1.3064 7.20722,-1.5 51.95776,-1.5 35.5956,0 52.42653,-0.34796 54.78139,-1.13253 1.86957,-0.62289 4.99319,-2.64789 6.94138,-4.5 1.94819,-1.85211 4.20113,-3.36747 5.00652,-3.36747 2.78522,0 4.00562,-7.20358 3.3034,-19.49863 C 266.83257,493.40526 266.391,491 265.24061,491 c -0.91555,0 -1.22965,-0.58617 -0.8476,-1.58179 0.33385,-0.86998 0.61388,-2.10748 0.6223,-2.75 0.009,-0.67764 0.4368,-0.53831 1.01901,0.33179 0.86874,1.29833 1.2028,1.23902 2.48468,-0.44113 2.10115,-2.75395 1.8693,-4.47317 -0.519,-3.84862 -1.1,0.28766 -2,0.22433 -2,-0.14072 0,-0.91909 7.912,-15.44009 10.29633,-18.897 1.55685,-2.2572 2.45392,-2.70105 4.44773,-2.20063 2.30276,0.57796 2.37114,0.50044 0.87674,-0.99396 -1.81569,-1.81569 -2.16949,-6.02079 -0.58877,-6.99774 0.56762,-0.3508 3.97834,-4.65197 7.57937,-9.55815 6.01029,-8.18863 6.76639,-8.86709 9.21797,-8.27145 2.63608,0.64048 2.64686,0.62202 0.83298,-1.42646 -1.01071,-1.14143 -1.68571,-2.6933 -1.5,-3.44859 0.18571,-0.7553 3.48765,-5.72702 7.33765,-11.04829 l 7,-9.67501 4,0.59198 4,0.59198 -2.75,-2.57036 c -1.5125,-1.41369 -2.75,-2.79638 -2.75,-3.07265 0,-0.27626 1.05852,-1.56081 2.35227,-2.85456 1.29375,-1.29375 2.53942,-2.91371 2.76815,-3.59991 0.22874,-0.6862 1.08272,-1.34829 1.89773,-1.47131 2.71301,-0.40949 3.98185,-1.76059 3.98185,-4.24001 0,-1.35 0.5625,-3.3726 1.25,-4.49467 1.10562,-1.80449 0.87358,-2.35156 -2.00901,-4.73644 -3.89463,-3.22216 -4.16753,-4.64566 -0.72501,-3.78164 2.07153,0.51992 2.68981,0.17427 3.5,-1.9567 0.54121,-1.42349 0.98402,-3.9247 0.98402,-5.55824 0,-2.70087 -0.18905,-2.86891 -2.08565,-1.85388 -3.72363,1.99282 -3.60683,1.49364 3.22143,-13.76835 1.76044,-3.93481 2.1005,-4.18023 4.99101,-3.60213 2.90786,0.58157 3.05603,0.47041 2.36925,-1.7775 -0.40293,-1.31882 -1.33873,-3.09101 -2.07955,-3.93818 -1.16744,-1.33504 -0.58523,-2.12942 4.36828,-5.96031 3.14337,-2.43099 7.91997,-6.80034 10.61465,-9.70967 2.69468,-2.90934 5.71179,-5.2897 6.70469,-5.2897 1.29871,0 1.99578,-1.05224 2.48423,-3.75 0.37342,-2.0625 1.2659,-4.91118 1.98328,-6.3304 0.76275,-1.50896 1.35665,-6.49161 1.43033,-12 C 362.17632,291.88312 362.19088,292 360.39301,292 c -0.88933,0 -1.38907,-0.56789 -1.11902,-1.27163 0.26839,-0.6994 1.27329,-4.80148 2.23312,-9.11572 3.921,-17.62414 14.38495,-35.49538 26.77514,-45.72888 C 398.94262,227.07899 407,218.91437 407,216.91689 407,215.8626 407.4133,215 407.91844,215 c 1.5434,0 5.02423,-6.47727 4.59515,-8.55083 -0.22184,-1.07204 -0.68518,-3.6987 -1.02964,-5.83701 l -0.62629,-3.88784 -7.83714,0.65359 c -4.31043,0.35948 -15.52977,1.77151 -24.93188,3.13784 C 361.25404,202.96219 359.99684,203 295.47551,203 h -65.51839 l -3.97856,2.63289 c -4.22151,2.79366 -4.89779,5.08571 -2.67862,9.07848 1.3294,2.39186 9.08014,9.27071 14.96449,13.28109 3.81516,2.60017 6.56142,6.51502 5.39119,7.68526 -0.37441,0.3744 -2.26535,-0.0749 -4.2021,-0.9985 C 235.52587,232.80626 232,232.48086 232,233.99135 c 0,0.54524 1.575,3.05471 3.5,5.57659 5.15562,6.75423 4.2759,7.24426 -2.47068,1.37627 -9.28134,-8.07266 -9.12212,-8.05242 -68.02932,-8.6487 -36.39221,-0.36837 -51.52029,-0.858 -54.15221,-1.75268 C 106.9531,229.21889 63.031567,202.0995 59.25,198.68373 58.0125,197.56593 57,195.67508 57,194.48184 57,193.2886 55.657015,183.57955 54.015589,172.90616 50.955086,153.00521 42.436178,61.911679 43.400556,59.398551 44.168401,57.397579 47.314461,57.672914 50.272871,60 c 1.398423,1.1 2.76152,2 3.029103,2 C 54.500316,62 60,56.050197 60,54.753778 60,53.959686 60.822933,52.565231 61.828741,51.654988 63.520514,50.123954 83.094171,50 323.16981,50 c 217.00477,0 260.25887,-0.224676 264.07003,-1.371668 2.50674,-0.754417 8.62984,-3.721832 13.60688,-6.594255 17.95491,-10.36239 22.87536,-10.200382 31.19873,1.027236 L 637.18931,50 l 27.15535,0.05232 27.15534,0.05232 7,2.832186 c 4.76332,1.927229 7.09232,3.428259 7.28893,4.697676 1.06768,6.893368 -0.24249,6.36549 15.7989,6.36549 14.70261,0 16.56087,0.293321 38.7454,6.115846 5.48179,1.438745 7.98791,7.483183 10.20793,24.620217 1.49757,11.560225 1.5419,14.014815 0.35012,19.386835 -1.174,5.29188 -1.85515,6.45605 -4.87791,8.33699 -1.93235,1.20242 -4.27143,2.46543 -5.19796,2.80668 -0.92652,0.34125 -2.18342,1.55255 -2.79312,2.69178 -0.90668,1.69415 -0.78778,2.19441 0.65298,2.74728 2.55948,0.98217 96.56,-1.5409 97.63985,-2.62075 0.54651,-0.54651 0.53467,-2.04309 -0.0296,-3.74738 -0.75994,-2.29514 -1.59378,-2.88598 -4.3625,-3.09113 -1.88265,-0.1395 -5.38978,-0.51272 -7.79363,-0.82937 -6.45042,-0.84969 -3.62421,-2.81771 4.22726,-2.94364 7.55766,-0.12122 12.64338,-1.95677 12.64338,-4.5633 0,-1.23119 -0.50027,-1.65532 -1.5,-1.27169 -1.29538,0.49709 -1.5,-1.63953 -1.5,-15.663048 V 79.736654 l 4.25,0.735436 c 2.3375,0.40449 6.275,0.803891 8.75,0.887558 5.32345,0.179958 7,1.065983 7,3.699361 C 878,86.126558 878.45,87 879,87 c 0.55,0 1,-0.9 1,-2 0,-1.518864 0.66156,-1.996316 2.75,-1.984687 3.44754,0.0192 4.91748,0.951114 5.38432,3.413574 0.44539,2.349327 2.39738,1.769704 2.28628,-0.678887 -0.10205,-2.249118 4.1191,-2.391916 4.97241,-0.168213 C 895.72686,86.451771 896,95.676771 896,106.08179 896,118.02726 896.36857,125 897,125 c 0.5637,0 1,2.82477 1,6.47432 0,6.10735 -0.16163,6.5579 -2.8515,7.94889 -3.6026,1.86298 -6.14453,5.69582 -6.16215,9.29161 -0.0244,4.9836 -1.0734,7.24591 -3.34764,7.21988 -1.17629,-0.0135 -7.53871,0.66875 -14.13871,1.51603 -12.27923,1.57634 -24.16479,1.12642 -37.38649,-1.41526 C 831.15094,155.46596 826.58734,155 823.97219,155 c -3.67117,0 -6.88776,-1.07115 -14.11352,-4.69993 -7.99453,-4.01485 -10.34458,-4.73809 -16.12249,-4.96177 -3.7201,-0.14401 -9.94736,-1.20994 -13.83835,-2.36873 -7.72438,-2.30042 -6.29674,-2.47006 -21.89783,2.60209 -3.025,0.98348 -7.75,2.10195 -10.5,2.4855 -2.75,0.38355 -6.4625,1.30126 -8.25,2.03934 -2.72072,1.12343 -3.77928,1.12254 -6.5,-0.005 -4.40605,-1.82672 -15.5102,-4.92442 -25.46212,-7.10311 -4.51667,-0.98879 -9.51247,-2.72373 -11.10177,-3.85541 -1.58931,-1.13169 -5.0112,-2.53306 -7.60421,-3.11417 -2.593,-0.5811 -5.94906,-1.96926 -7.45791,-3.0848 -2.39162,-1.7682 -3.61578,-1.93886 -9.54799,-1.33109 -6.43005,0.65878 -7.10281,0.97792 -12.22104,5.79735 -8.109,7.6356 -9.36545,12.97385 -9.31983,39.59701 0.0449,26.21073 0.88014,30.39334 7.83705,39.24585 5.49718,6.99503 5.76726,7.13067 16.62782,8.35066 3.42435,0.38467 11.99191,2.9724 19.95823,6.02814 15.83042,6.0723 21.51542,7.35429 32.97543,7.43614 l 8.06634,0.0576 -5.37824,2.4424 C 726.22063,242.3292 722.99353,243 718.37176,243 714.86729,243 712,243.44085 712,243.97968 c 0,0.53882 1.9125,1.94358 4.25,3.1217 2.3375,1.17811 6.90342,3.76691 10.14649,5.75288 l 5.8965,3.61085 34.6035,0.7968 c 22.96351,0.52877 42.3403,0.41424 57.60351,-0.34048 l 23,-1.13728 7,-4.46574 c 21.66779,-13.82325 25.5,-16.47612 25.5,-17.65252 0,-0.93328 -1.60547,-1.23782 -5.75,-1.09072 -3.1625,0.11224 -5.75,0.27968 -5.75,0.37207 0,0.0924 -1.70154,0.34681 -3.7812,0.56537 -2.24298,0.23572 -3.5411,0.009 -3.19098,-0.55762 1.16541,-1.88568 -2.39354,-0.88818 -10.67155,2.99102 -11.20063,5.2488 -15.4913,6.30678 -27.35627,6.74545 -8.70652,0.3219 -10.42361,0.10701 -13.27493,-1.66133 -4.15881,-2.57922 -5.51378,-6.11678 -4.96534,-12.96353 0.38619,-4.82115 0.86158,-5.79134 4.21887,-8.60995 2.237,-1.87808 3.34733,-3.4462 2.71627,-3.83621 -0.58704,-0.36282 -12.56764,-0.57243 -26.62355,-0.46582 -14.0559,0.10661 -25.78878,-0.0387 -26.07306,-0.32303 -0.28428,-0.28428 17.82481,-0.81171 40.24243,-1.17205 69.32982,-1.11444 95.5152,-1.66166 102.00931,-2.13181 5.47359,-0.39627 6.25,-0.23355 6.25,1.3099 0,0.9693 -0.52492,2.28729 -1.16649,2.92886 -0.80206,0.80206 -1.10591,5.78501 -0.9726,15.95 0.10663,8.13093 -0.21702,17.97195 -0.71923,21.86894 -1.22227,9.4846 -5.39596,17.87729 -10.78551,21.68815 -3.66539,2.59173 -5.33952,3.02133 -14.5,3.72088 -5.69589,0.43498 -12.15617,1.27843 -14.35617,1.87434 -2.27071,0.61507 -13.29495,1.09665 -25.5,1.11393 -19.74988,0.028 -21.7442,0.19218 -24.5,2.01727 -1.67055,1.10636 -4.69168,1.98974 -6.81739,1.99341 -3.16178,0.005 -3.73115,-0.29396 -3.31525,-1.74341 0.27618,-0.9625 0.64401,-4.225 0.81739,-7.25 l 0.31525,-5.5 -10,-0.62564 c -5.5,-0.3441 -21.07366,-0.97632 -34.60813,-1.40492 l -24.60812,-0.77928 -1.78487,4.90492 c -0.98168,2.69771 -2.91048,5.87362 -4.28622,7.05758 -1.63547,1.40749 -2.27858,2.73318 -1.85781,3.82968 0.55092,1.43567 1.57911,1.57683 7.14434,0.98084 L 743,284.76701 v 8.49565 c 0,7.02851 0.44946,9.4774 2.60263,14.18054 3.20078,6.99144 2.52769,8.34168 -1.08515,2.17684 -3.43007,-5.85298 -8.6015,-10.35758 -12.79374,-11.14404 -4.2265,-0.7929 -19.0907,-11.7771 -23.93151,-17.68468 -2.72916,-3.33057 -4.62204,-4.66429 -7.21758,-5.08549 -4.77927,-0.77557 -11.77763,-5.72004 -19.57465,-13.82986 -6.34789,-6.60256 -6.69891,-6.80774 -15,-8.76821 -4.675,-1.1041 -14.35,-3.39118 -21.5,-5.0824 -12.94538,-3.06204 -29.5815,-5.15671 -41,-5.16234 -12.79555,-0.006 -19.0047,3.18733 -20.15251,10.36537 -0.94442,5.90609 -6.53957,7.55512 -13.83325,4.07701 -4.49893,-2.14539 -5.07932,-1.58795 -9.5732,9.1946 -2.99269,7.18061 -3.37083,9.17787 -3.69191,19.5 -0.36793,11.82849 -0.64205,13.10865 -5.08626,23.7533 l -2.61079,6.2533 -3.52604,-0.63464 c -1.93932,-0.34905 -3.78,-0.77546 -4.09039,-0.94758 -0.3104,-0.17212 -0.12994,-3.52217 0.40101,-7.44456 0.78191,-5.77627 1.41179,-7.42412 3.31436,-8.67073 2.63,-1.72324 3.16419,-6.67213 1.29804,-12.02538 -0.76926,-2.20669 -0.65256,-6.06579 0.43539,-14.39786 1.27531,-9.76687 1.28822,-11.73828 0.091,-13.88449 -0.76745,-1.37575 -1.9074,-3.73886 -2.53322,-5.25136 -3.20774,-7.75252 -7.98668,-0.14163 -14.4448,23.00463 C 527.31135,283.58958 525.19138,290 524.78638,290 c -0.40501,0 -0.52884,-1.2375 -0.27517,-2.75 0.25366,-1.5125 1.17248,-10.75831 2.04181,-20.54625 1.56156,-17.58177 1.5557,-17.84771 -0.4862,-22.06573 C 524.93007,242.28981 524,239.69525 524,238.87233 c 0,-2.49935 -13.04166,-11.06366 -18.76033,-12.31969 -1.67727,-0.36839 -7.80395,-3.94313 -13.61483,-7.94387 -10.48777,-7.22073 -20.67199,-11.57213 -24.05006,-10.27584 -1.0693,0.41033 -1.57478,1.88626 -1.57478,4.59817 0,2.19663 -0.90586,6.41499 -2.01301,9.37413 -1.66621,4.45334 -2.96335,6.03478 -7.52919,9.17939 -5.35634,3.68906 -5.70387,3.78161 -11.99409,3.19422 -5.00091,-0.46699 -7.26764,-1.23504 -9.94147,-3.36855 -4.97092,-3.96638 -2.27062,-5.25692 5.09876,-2.43682 l 5.4319,2.07867 5.22355,-1.98067 c 2.87295,-1.08937 5.75874,-2.32578 6.41286,-2.74758 1.6729,-1.07874 7.31069,-13.94156 7.31069,-16.6796 0,-2.37088 -4.96051,-9.34303 -7.83426,-11.01128 -2.5809,-1.49826 -19.16195,-1.23525 -22.96698,0.3643 -3.02422,1.27132 -10.2093,9.41558 -13.04545,14.78695 C 419.51899,214.8856 419,218.735 419,222.23848 c 0,7.03895 -2.35712,11.85751 -9.19445,18.79583 -3.08809,3.13369 -3.50412,4.18439 -3.67028,9.26938 -0.16051,4.91187 0.16866,6.09115 2.29321,8.21569 1.36433,1.36434 3.15489,2.48062 3.97901,2.48062 3.1041,0 6.54999,-2.39062 8.07342,-5.60102 1.45122,-3.05821 1.4393,-3.62666 -0.14907,-7.11144 -0.94951,-2.08315 -1.87511,-4.05006 -2.0569,-4.37092 C 417.34847,242.28139 427.21873,241 440.74102,241 H 455.75 l 0.54851,2.75 c 0.30168,1.5125 0.87178,5.61309 1.26689,9.11242 0.69732,6.17597 0.6556,6.34447 -1.42351,5.75 -1.17804,-0.33683 -3.02489,-0.86235 -4.10412,-1.16782 -1.07922,-0.30547 -2.94506,-0.0294 -4.14631,0.61349 -2.01797,1.07998 -2.12781,0.98913 -1.44428,-1.1946 1.76027,-5.62367 1.68166,-7.42998 -0.44079,-10.12824 C 444.42566,244.72568 442.96448,244 440.49885,244 c -5.51687,0 -8.87593,4.90149 -7.81968,11.41036 0.80488,4.95994 -1.35085,7.81956 -7.04235,9.3418 -3.62782,0.9703 -4.63682,1.69176 -4.63682,3.31543 0,1.88661 -0.14286,1.93241 -1.57143,0.50384 -1.76768,-1.76769 -5.1197,-2.01956 -8.71012,-0.65449 -3.08977,1.17473 -5.72615,6.69798 -4.99473,10.46405 0.39874,2.05317 0.0878,3.14498 -1.0821,3.79969 C 403.73873,282.68597 403,283.97702 403,285.04969 403,286.12236 402.58851,287 402.08557,287 c -0.50294,0 -4.92666,-4.275 -9.8305,-9.5 -4.90384,-5.225 -9.62874,-9.5 -10.49979,-9.5 -2.11641,0 -7.17907,8.40291 -9.75964,16.19888 -1.14717,3.46562 -2.5077,11.02353 -3.02341,16.79536 -0.51571,5.77183 -1.30344,10.61616 -1.7505,10.76518 -0.44706,0.14902 -0.62194,4.63565 -0.38862,9.97028 0.61095,13.96881 1.41346,14.85749 14.24625,15.77598 9.12237,0.65292 12.00376,1.62027 11.5856,3.88955 -0.0907,0.49237 2.08504,1.54288 4.83504,2.33446 6.3557,1.82947 7.31167,2.74098 5.65567,5.39265 -0.71183,1.13983 -1.1029,2.26376 -0.86904,2.49762 0.23386,0.23387 4.42526,0.66026 9.31421,0.94755 9.29974,0.54648 12.67801,1.82243 7.96021,3.00652 -5.63268,1.41372 -13.58689,-0.29105 -28.69748,-6.15051 -8.19805,-3.17898 -8.95943,-3.29741 -15,-2.33309 -7.36551,1.17583 -8.98022,2.39955 -9.20249,6.97419 -0.14034,2.88853 0.3539,3.61065 3.83892,5.60892 4.04729,2.32067 8.5,3.07158 8.5,1.43345 0,-0.49116 0.675,-1.15203 1.5,-1.46862 2.24594,-0.86184 1.81505,0.83377 -1.08889,4.2849 -1.96787,2.33868 -3.41487,3.07673 -6.03212,3.07673 -1.89378,0 -5.00377,0.65204 -6.91111,1.44897 -3.90474,1.63151 -4.32682,0.94042 -2.44638,-4.00551 0.72973,-1.91935 0.68941,-3.08687 -0.14119,-4.08767 -1.48313,-1.78707 -3.99986,-0.99129 -9.8258,3.10687 -4.51545,3.17632 -4.55451,3.25361 -4.55451,9.01158 0,4.52553 0.399,6.05263 1.80723,6.91677 1.52608,0.93646 2.38172,0.44541 5.5,-3.15649 4.26355,-4.92479 5.19277,-5.22361 5.19277,-1.6699 0,1.41054 0.95396,4.78217 2.11992,7.4925 2.02586,4.70923 2.04362,5.04434 0.40043,7.55216 l -1.71948,2.62427 -1.1653,-2.36677 C 360.99465,388.56505 358.31401,386.375 355.67858,385 l -4.79169,-2.5 -2.5095,3 c -5.51241,6.58984 -15.34597,23.08733 -15.36143,25.77144 -0.0116,2.01072 -0.73468,3.09891 -2.63438,3.96447 C 326.70259,416.91217 316,433.066 316,436.94259 c 0,2.34293 -0.53123,3.15264 -2.37137,3.61448 -3.02378,0.75892 -14.1117,16.74168 -13.22231,19.05939 0.33579,0.87508 1.16925,1.38701 1.85211,1.13764 0.68286,-0.24938 5.96657,-1.90781 11.74157,-3.68541 5.775,-1.7776 13.425,-4.17041 17,-5.31735 7.34407,-2.35615 22.34994,-2.58236 273,-4.11533 65.725,-0.40198 126.925,-1.18053 136,-1.73011 20.95834,-1.26924 74.94096,-4.02824 90,-4.59982 6.325,-0.24007 16.45,0.0279 22.5,0.5954 6.05,0.56754 22.475,2.14009 36.5,3.49454 14.025,1.35446 29.1,2.77279 33.5,3.15186 4.4,0.37906 12.95,1.56746 19,2.64088 6.05,1.07342 15.95,2.35369 22,2.84505 10.97408,0.89129 23.21055,3.74616 26.34534,6.14659 4.67651,3.58099 8.67523,7.59677 8.84086,8.87857 0.10241,0.79257 -2.48509,3.64576 -5.75,6.34043 -3.26491,2.69468 -5.9362,5.6439 -5.9362,6.55384 0,1.76616 -5.16915,7.12669 -8.52682,8.84251 -1.11475,0.56965 -5.38975,1.50495 -9.5,2.07845 -7.51895,1.04911 -20.38894,3.98734 -37.97318,8.66932 -5.225,1.3912 -13.1,3.18743 -17.5,3.9916 -10.19912,1.86407 -36.61304,1.86991 -54,0.0119 -7.15,-0.76405 -17.95,-1.92281 -24,-2.57502 -11.69041,-1.26027 -28.83511,-0.84374 -42,1.02039 -10.27598,1.45506 -117.26603,0.70461 -129.31619,-0.90705 -7.65153,-1.02336 -11.00702,-2.27559 -18.38021,-6.8593 -2.62428,-1.63145 -2.98533,-1.55659 -13.5,2.79883 L 621.5,503.5 l -50,0.32447 c -41.34917,0.26834 -53.13501,0.0281 -68.11971,-1.38824 -16.22444,-1.53357 -18.42097,-1.55486 -21,-0.20356 -9.08433,4.7598 -11.34204,5.71455 -15.88029,6.71554 -2.94856,0.65035 -12.79546,0.99489 -24,0.83976 -18.27955,-0.2531 -19.28439,-0.16359 -26.5,2.36076 -8.55403,2.99259 -16.77271,4.60632 -47.60962,9.34811 -48.25082,7.41953 -56.30643,8.88637 -66.51848,12.11229 -24.14849,7.62837 -24.44582,7.65425 -91.8719,7.99668 -50.67266,0.25734 -61.25071,0.0718 -65.1216,-1.1421 z m 139.64506,-18.1222 c -0.96159,-7.69633 -3.33476,-12.51259 -5.97899,-12.13413 -3.20225,0.45833 -3.24177,6.48306 -0.0834,12.71578 1.86083,3.67217 3.15321,5.07684 4.67101,5.07684 1.96724,0 2.05419,-0.35363 1.39139,-5.65849 z M 898.8851,505.09217 c 1.11096,-0.70358 0.97552,-1.09639 -0.68426,-1.98468 -2.64177,-1.41384 -4.89451,-1.41215 -5.76994,0.004 -1.3627,2.20489 3.66419,3.74732 6.4542,1.98037 z M 305.5,497.61532 c 6.05,-0.88382 17.525,-2.55066 25.5,-3.70408 16.32462,-2.36104 22,-3.60497 22,-4.82198 0,-1.52484 -7.93699,-2.1338 -26.31172,-2.01876 -13.15495,0.0824 -19.84869,-0.30092 -24.18828,-1.38503 -3.3,-0.8244 -8.52863,-1.79091 -11.61917,-2.1478 l -5.61917,-0.64889 -1.63083,4.07585 c -1.90078,4.75053 -2.07171,8.34306 -0.53369,11.21689 1.24736,2.3307 2.85009,2.29019 22.40286,-0.5662 z m 295.50037,-6.01121 c 8.21765,-1.76486 10.17796,-2.5678 9.7103,-3.97732 -0.50436,-1.52011 -23.02158,-2.06595 -25.71701,-0.6234 -2.65407,1.42042 -2.52885,3.84594 0.25634,4.96545 3.30611,1.32889 8.41533,1.21058 15.75037,-0.36473 z M 200.96123,207.07244 c 1.44396,-2.69807 0.22908,-5.24196 -2.32829,-4.87531 -2.46295,0.35311 -3.32838,3.25998 -1.59307,5.35091 1.62372,1.95646 2.6889,1.82727 3.92136,-0.4756 z M 890.67124,116.4375 c 0.16294,-0.51562 -0.1277,-1.60874 -0.64586,-2.42914 -1.26195,-1.99807 -3.33622,0.018 -2.43496,2.36669 0.66594,1.73539 2.54018,1.77338 3.08082,0.0624 z m -20.11739,-1.52463 c 1.03052,-1.66742 -1.28721,-3.57951 -2.66672,-2.2 C 866.73321,113.86679 867.45541,116 869,116 c 0.48508,0 1.18431,-0.48921 1.55385,-1.08713 z M 879.98469,99.25 C 879.97432,91.294201 879.65635,87.984366 879,89 c -1.7899,2.769672 -1.20716,22 0.66667,22 0.18333,0 0.32644,-5.2875 0.31802,-11.75 z M 209.36163,484.5 c -0.31659,-0.825 -1.21659,-1.5 -2,-1.5 -2.53627,0 -2.70613,-3.00439 -0.31383,-5.55088 2.74031,-2.91693 6.96382,-3.19875 9.29721,-0.62038 2.25975,2.49699 2.07801,4.42522 -0.65946,6.99695 -2.68671,2.52403 -5.49905,2.82391 -6.32392,0.67431 z M 364,400.09878 c 0,-1.15669 6.95055,-5.28193 8.19853,-4.86594 1.8393,0.6131 -3.3183,5.76716 -5.77111,5.76716 C 365.09234,401 364,400.59445 364,400.09878 Z M 534,353 c 0.5887,-1.1 1.50453,-2 2.03518,-2 1.58768,0 1.08981,2.73806 -0.61697,3.39301 C 533.00365,355.31956 532.84304,355.1618 534,353 Z M 288.04616,289.55562 c -2.70069,-3.25413 1.76872,-7.16931 4.76443,-4.1736 1.27355,1.27355 1.40397,2.05494 0.56528,3.38674 -1.46016,2.31867 -3.77482,2.66039 -5.32971,0.78686 z m 16.62051,0.77771 c -1.15384,-1.15383 -0.72573,-4.03942 0.78534,-5.2935 1.90448,-1.58058 5.54799,-0.38037 5.54799,1.82756 0,3.14467 -4.30092,5.49836 -6.33333,3.46594 z M 288.16251,273.1216 c -0.73562,-0.46628 -1.18562,-1.92189 -1,-3.23469 0.47702,-3.37372 5.36066,-3.96462 6.3742,-0.77124 0.50295,1.58464 0.1824,2.61656 -1.10529,3.55813 -2.11305,1.54511 -2.47744,1.58333 -4.26891,0.4478 z m 16.87736,-0.57356 C 302.95751,270.03895 304.19486,267.5 307.5,267.5 c 3.56259,0 4.72172,3.13349 1.91761,5.1839 -2.28513,1.67093 -2.89392,1.65204 -4.37774,-0.13586 z m 25.57504,-7.59385 c -3.1568,-3.75164 -3.17201,-3.97624 -0.49928,-7.37407 1.62278,-2.06302 2.83246,-2.6186 5.19262,-2.38485 2.95266,0.29242 3.0804,0.49872 3.16164,5.10609 0.0975,5.52678 -0.19117,6.18628 -3.10498,7.09478 -1.62459,0.50652 -2.76032,-0.0774 -4.75,-2.44195 z M 305.2,255.8 c -2.98558,-2.98558 0.32571,-7.65938 4.02418,-5.68002 C 312.17201,251.69761 310.8432,257 307.5,257 c -0.605,0 -1.64,-0.54 -2.3,-1.2 z m -17.83837,-1.3 c -0.95038,-2.47663 0.4201,-4.5 3.04797,-4.5 2.94837,0 3.948,1.29794 3.08756,4.00895 -0.75649,2.38347 -5.2707,2.74476 -6.13553,0.49105 z m 35.20782,-16.07341 c -1.95904,-1.95904 -1.99971,-3.82462 -0.11744,-5.38676 2.20588,-1.83072 5.54799,-0.32931 5.54799,2.49237 0,3.25531 -3.30704,5.0179 -5.43055,2.89439 z m -34.90278,-0.0933 c -1.51322,-1.51321 -0.60076,-5.21947 1.44484,-5.86872 2.81295,-0.8928 5.31668,1.61093 4.42388,4.42388 -0.64925,2.0456 -4.35551,2.95806 -5.86872,1.44484 z m 16.6428,-0.96925 C 303.48222,235.2083 305.2587,232.5 307.5,232.5 c 0.98011,0 2.24019,0.72633 2.80016,1.61408 1.52773,2.42194 0.1156,4.88592 -2.80016,4.88592 -1.45016,0 -2.83531,-0.71022 -3.19053,-1.63592 z m -33.92543,-16.80567 c -1.06518,-2.77582 0.0723,-5.05841 2.52067,-5.05841 3.15441,0 4.9413,2.77569 3.16486,4.91618 -1.64171,1.97813 -4.94928,2.06088 -5.68553,0.14223 z m 17.28263,0.77492 c -1.05008,-1.05007 -0.77771,-5.14667 0.39017,-5.86846 1.8581,-1.14837 5.94316,0.46979 5.94316,2.35418 0,3.18727 -4.28349,5.56412 -6.33333,3.51428 z M 304.36163,220.5 c -1.40923,-3.67237 2.65128,-6.91566 5.31869,-4.24825 2.22293,2.22293 0.82519,5.74825 -2.27909,5.74825 -1.3552,0 -2.72302,-0.675 -3.0396,-1.5 z m 17.60885,-0.0356 c -1.81696,-2.1893 -0.0625,-4.96443 3.13851,-4.96443 1.99001,0 2.39101,0.50313 2.39101,3 0,2.28 -0.501,3.07158 -2.08751,3.29826 -1.14812,0.16404 -2.69703,-0.43618 -3.44201,-1.33383 z m 120.99434,-3.39869 c 2.63626,-4.92591 -0.17816,-10.66262 -4.04602,-8.2471 -1.57639,0.98447 -1.9188,0.9265 -1.9188,-0.32486 0,-1.8211 5.67855,-5.4863 8.5,-5.4863 2.41939,0 8.5,3.56097 8.5,4.97782 0,0.55809 -0.65766,1.0147 -1.46146,1.0147 -0.85781,0 -1.90445,1.64515 -2.53396,3.98299 -1.05443,3.91584 -3.31519,6.01701 -6.47402,6.01701 -1.27291,0 -1.38883,-0.39631 -0.56574,-1.93426 z M 435.63837,212.5 c 0.31659,-0.825 0.75246,-1.5 0.96862,-1.5 0.21615,0 0.39301,0.675 0.39301,1.5 0,0.825 -0.43588,1.5 -0.96862,1.5 -0.53273,0 -0.70959,-0.675 -0.39301,-1.5 z m 407.63996,-12.555 c -8.92191,-0.30525 -16.4948,-0.82814 -16.82865,-1.16198 -0.33384,-0.33384 2.3738,-0.9262 6.01699,-1.31635 16.97699,-1.81808 -3.34821,-3.46568 -46.63344,-3.78018 -14.11672,-0.10257 -26.00422,-0.52399 -26.41666,-0.93649 -0.41245,-0.4125 5.9626,-0.77321 14.16676,-0.80157 8.20417,-0.0284 26.16667,-0.28712 39.91667,-0.57501 13.75,-0.2879 40.66646,-0.60219 59.81435,-0.69844 L 908.12871,190.5 907.51104,194 c -1.24154,7.03507 0.79082,6.50126 -24.74927,6.5006 -12.79397,-3.3e-4 -30.56152,-0.25035 -39.48344,-0.5556 z M 821.75,198.33772 c 0.6875,-0.27741 1.8125,-0.27741 2.5,0 0.6875,0.27741 0.125,0.50439 -1.25,0.50439 -1.375,0 -1.9375,-0.22698 -1.25,-0.50439 z m 21.75,-20.03421 c -8.61302,-0.45694 -10.5,-1.04344 -10.5,-3.26355 0,-1.05706 -0.42626,-2.18537 -0.94725,-2.50736 -0.52099,-0.32199 -17.18684,-0.59088 -37.03522,-0.59753 -19.84838,-0.007 -35.85275,-0.39267 -35.56528,-0.85782 0.85522,-1.38377 86.92122,-2.83328 129.41272,-2.17954 l 19.36497,0.29793 -0.60397,3.65218 c -0.33218,2.0087 -0.60891,4.21468 -0.61496,4.90218 -0.009,0.97518 -6.33178,1.20843 -28.76101,1.06092 -15.8125,-0.104 -31.45,-0.33233 -34.75,-0.50741 z M 682.65499,163.17126 c -2.94574,-3.255 -2.10551,-7.95603 2.1897,-12.25124 3.49361,-3.49361 4.20129,-3.79092 7.75,-3.25589 2.22078,0.33483 4.65057,1.50477 5.63307,2.71234 2.34393,2.88083 2.21462,3.43798 -0.88357,3.80711 -2.09295,0.24936 -2.94481,1.16417 -4.01945,4.31642 -2.17418,6.37752 -7.15297,8.55726 -10.66975,4.67126 z M 910.72255,116.66821 C 910.32515,115.66073 910,112.62323 910,109.91821 910,106.21313 910.36999,105 911.5,105 c 1.60702,0 1.87771,4.70385 0.60424,10.5 -0.54685,2.48897 -0.78221,2.68797 -1.38169,1.16821 z M 240.24377,45.335642 C 237.644,44.287516 240.29839,43 245.05902,43 248.78434,43 250,43.369056 250,44.5 c 0,1.110423 -1.1038,1.479496 -4.25,1.421053 -2.3375,-0.04342 -4.8153,-0.306856 -5.50623,-0.585411 z m 33.4229,-0.0023 C 272.04031,43.706976 273.35327,43 278,43 c 4.88735,0 6.57514,1.181583 3.41821,2.393011 -2.11171,0.810339 -6.91853,0.773332 -7.75154,-0.05968 z m 33,0 c -1.65505,-1.655042 -0.27836,-2.32596 4.58333,-2.233653 2.8875,0.05482 6.375,0.420257 7.75,0.812073 2.27308,0.647732 2.13693,0.773835 -1.5,1.389314 -5.13266,0.868601 -9.98255,0.883046 -10.83333,0.03227 z m 32.90644,-0.228752 c -1.78807,-0.700471 -1.80019,-0.803465 -0.16821,-1.429715 2.57808,-0.9893 12.38523,-0.823457 13.03034,0.220349 1.2179,1.970598 -8.56975,2.890885 -12.86213,1.209366 z M 294.5,28 l -78,-0.5 v -3.985864 -3.985864 l 178.25,-0.01414 C 492.7875,19.506361 572.99749,19.725 572.99442,20 c -0.003,0.275 -0.47422,2.1875 -1.047,4.25 L 570.90599,28 541.203,28.0419 C 524.86635,28.06494 480.225,28.177442 442,28.2919 403.775,28.406353 337.4,28.275 294.5,28 Z"
     style="fill:#929292" />
  <path
     inkscape:connector-curvature="0"
     id="path833"
     d="m 665,237.47973 c -75.77757,-8.08093 -83.07249,-8.70133 -111.5,-9.48255 -21.04107,-0.57824 -30.2936,-1.20623 -33.7135,-2.28822 -4.40267,-1.39291 -38.50301,-20.20437 -52.55873,-28.99402 l -6.27224,-3.92231 -23.72776,0.48859 c -20.6177,0.42454 -26.34923,0.91925 -43.72777,3.77427 l -20,3.28569 -72,0.57941 -72,0.57941 -10,6.0689 c -22.42367,13.60871 -38.77908,22.70606 -42.28591,23.52065 -2.04275,0.47451 -16.35614,0.87347 -31.80754,0.88659 -24.94816,0.0212 -28.69876,-0.18657 -33.5,-1.85571 C 106.68276,228.30439 66.425414,203.63248 60.883622,198.85079 58.306932,196.62751 57.987757,195.33383 54.999185,175 50.588224,144.98844 43.007934,63.027666 44.325633,59.593796 c 0.582554,-1.518111 0.880714,-1.528802 3.406402,-0.122138 1.522381,0.84788 3.979707,2.507248 5.460725,3.687486 2.563394,2.042793 2.815615,2.065388 5.25,0.470318 C 60.52596,62.264497 61,61.161069 61,57.676947 61,55.324626 61.54,52.86 62.2,52.2 63.127134,51.272866 122.08664,51 321.4899,51 c 220.56132,0 258.88815,-0.207916 263.57955,-1.429872 3.01931,-0.78643 11.20135,-4.38643 18.18231,-8 17.43242,-9.023587 20.61571,-8.81836 28.20598,1.818442 2.55469,3.580075 5.50572,6.782444 6.55785,7.116378 1.05213,0.333933 13.96654,0.469429 28.69869,0.301101 L 693.5,50.5 699,53.381145 c 6.27591,3.2876 6.96349,4.062224 6.98469,7.868855 0.0174,3.129428 -1.27146,2.921727 17.10158,2.755889 9.83248,-0.08875 13.54099,0.37281 24.5,3.04926 7.10255,1.734612 13.74356,3.595303 14.75779,4.134869 2.85626,1.51951 5.34581,8.415694 6.7042,18.570916 1.99968,14.949536 0.19789,28.476416 -3.95002,29.654586 -0.87903,0.24968 -18.92324,1.18581 -40.09824,2.08029 -49.47734,2.09003 -52.78508,2.73425 -63.61977,12.39073 -10.58974,9.43819 -11.54095,12.64146 -12.11709,40.80528 -0.54,26.39761 0.60441,33.45026 6.87943,42.39593 4.99218,7.11684 12.11899,11.83735 26.10743,17.29248 5.3625,2.09124 9.75,4.21119 9.75,4.71101 0,1.19047 -1.64636,1.09221 -27,-1.61151 z M 541.82271,211.69672 c 1.15008,-2.41048 1.11286,-3.14611 -0.26566,-5.25 -3.89621,-5.94637 -9.66331,-0.0991 -6.9293,7.02559 1.0173,2.65104 5.62554,1.51382 7.19496,-1.77559 z m -340.8729,-3.13625 c 0.65709,-0.79174 1.04969,-2.70424 0.87245,-4.25 -0.25699,-2.24128 -0.89145,-2.87574 -3.13273,-3.13273 -5.03279,-0.57707 -7.53692,3.83201 -4.1181,7.25083 1.96223,1.96224 4.81046,2.02114 6.37838,0.1319 z"
     style="fill:#cd334d" />
  <path
     inkscape:connector-curvature="0"
     id="path831"
     d="m 665,237.48514 c -49.13749,-5.22768 -73.31036,-7.67758 -87.20759,-8.83844 -8.08917,-0.6757 -14.99292,-1.51388 -15.34166,-1.86262 -0.34874,-0.34874 -0.21239,-1.38758 0.303,-2.30853 0.82681,-1.47744 -0.1971,-11.23269 -1.29585,-12.3461 -0.20112,-0.20381 -2.07392,0.93836 -4.16179,2.53815 C 549.00372,221.02151 545.1026,223 540.8666,223 c -3.56197,0 -4.72844,-0.58045 -7.93015,-3.94615 -6.56612,-6.90242 -6.16646,-14.24253 1.05345,-19.34747 7.52807,-5.32283 18.73054,-4.91928 24.5336,0.88378 3.48623,3.48624 3.49595,3.48891 4.37049,1.20192 1.04574,-2.7347 3.48253,-4.98226 7.73559,-7.1349 2.91052,-1.47312 3.17783,-2.05906 3.81871,-8.37059 0.37902,-3.73262 1.09213,-8.36159 1.5847,-10.28659 1.10327,-4.31165 2.69875,-21.49362 3.48219,-37.5 0.32303,-6.6 1.01542,-14.45135 1.53863,-17.44745 0.5885,-3.37001 0.59556,-5.80318 0.0185,-6.38025 -0.57707,-0.57707 -1.18001,0.54697 -1.58103,2.94745 -0.35652,2.13414 -1.48405,8.60525 -2.50563,14.38025 -2.15136,12.16164 -3.83484,22.95792 -4.92368,31.57584 -0.42221,3.34171 -1.24013,6.92012 -1.81761,7.95201 -1.93527,3.45814 -2.57906,-8.85299 -1.77943,-34.02785 0.41927,-13.2 0.91653,-26.00257 1.10502,-28.45017 0.36363,-4.72187 -0.77571,-7.05335 -3.44238,-7.04431 -2.36401,0.008 -17.30598,12.24933 -19.4616,15.94405 -1.48479,2.54493 -1.81984,5.18173 -1.75951,13.84698 0.041,5.8869 0.34304,14.02478 0.67122,18.08419 l 0.5967,7.38073 -4.78922,7.00927 c -3.46919,5.07734 -4.72632,7.83492 -4.56098,10.00479 0.26433,3.46903 -1.40277,6.29056 -7.68513,13.00691 -4.01923,4.29688 -4.60089,5.5174 -5.25407,11.02468 -0.44486,3.7508 -0.3053,7.80428 0.35391,10.27924 0.97647,3.66614 0.8659,4.30886 -1.07524,6.25 -3.18186,3.18186 -2.82693,6.64625 0.83636,8.16364 5.83725,2.41787 2.83826,4.32958 -4.03892,2.57463 -4.09843,-1.04586 -37.26739,-19.18971 -52.56914,-28.75601 L 461.28387,193 l -19.39193,0.008 c -19.52078,0.008 -29.8273,0.94141 -56.89194,5.15218 -13.83761,2.15288 -17.71143,2.27129 -84.79971,2.5921 l -70.2997,0.33617 -5.2003,3.31329 C 221.84013,206.22404 210.725,212.84164 200,219.10751 L 180.5,230.5 h -34 c -39.83283,0 -31.71764,2.30454 -64.48997,-18.31375 C 63.665125,200.64479 59.38383,197.52759 58.780912,195.27319 56.948502,188.42156 51.990934,151.69431 50.510049,134 49.612445,123.275 48.032742,104.825 46.999599,93 44.470847,64.05678 44.290105,59.771264 45.579253,59.322697 c 0.593589,-0.206543 2.792966,0.986356 4.887505,2.650885 6.512265,5.175298 10.142364,3.770543 11.357904,-4.395217 L 62.5,53.041582 l 133,-0.07941 c 206.32665,-0.123185 199.83352,-0.170015 202.05887,1.457286 1.81784,1.329302 1.94498,2.837827 2.00181,23.75 l 0.0607,22.330542 4.13777,-0.0937 c 3.55304,-0.0804 4.61141,-0.660601 7.48946,-4.105401 C 416.424,90.106353 427.04291,81 429.09098,81 c 3.02754,0 3.95983,-3.393296 3.67675,-13.382475 -0.14725,-5.196231 0.107,-9.823405 0.565,-10.282609 0.458,-0.459204 33.533,-1.059916 73.5,-1.334916 L 579.5,55.5 l 10,-5.576537 c 5.5,-3.067095 13.0563,-7.281225 16.79178,-9.364733 13.20489,-7.365189 17.50105,-6.709401 25.2584,3.85557 3.10367,4.22699 5.81235,6.870872 7.41911,7.241627 1.39189,0.321174 3.11192,1.31748 3.82228,2.214013 1.12452,1.419242 5.19846,1.701223 31.5,2.180297 16.61464,0.302631 30.32093,0.640131 30.45843,0.75 0.1375,0.10987 0.25,1.737474 0.25,3.616899 0,3.26152 -0.21631,3.465286 -4.75,4.474463 -2.6125,0.58153 -11.725,2.653511 -20.25,4.604403 -8.525,1.950892 -20.87278,4.697044 -27.4395,6.102559 -6.81268,1.458158 -16.25948,4.386018 -22,6.818491 -5.53328,2.344655 -13.45243,5.485416 -17.59813,6.97947 -13.90612,5.011583 -21.92163,9.977549 -19.69639,12.202798 1.23762,1.23761 83.37634,-2.592629 101.73402,-4.743997 9.625,-1.12797 17.66453,-2.208889 17.86562,-2.402042 0.20109,-0.193153 -0.14842,-1.825757 -0.77669,-3.628009 -0.97116,-2.785885 -0.86234,-3.655002 0.72633,-5.801047 5.48253,-7.406022 15.47421,-9.462842 20.49765,-4.219506 C 735.32695,82.906928 736,84.626022 736,87.668076 v 4.058637 l 6.25,1.261151 c 3.4375,0.693632 9.77417,2.144702 14.08149,3.224598 4.30732,1.079896 8.90973,1.692826 10.22758,1.362068 1.97883,-0.496655 2.51013,-0.147011 3.05095,2.00782 0.83827,3.33991 -0.20493,13.43446 -1.7355,16.7937 -0.64792,1.42203 -1.89724,2.78979 -2.77628,3.03947 -0.87903,0.24968 -18.92324,1.18581 -40.09824,2.08029 -49.31703,2.08326 -52.9009,2.77344 -63.3756,12.20496 -8.12923,7.31964 -9.25411,9.11619 -11.77078,18.79923 -2.58787,9.95694 -2.57758,39.57343 0.0177,51.04378 3.30044,14.58675 12.03084,22.90132 32.37865,30.83645 5.3625,2.09124 9.75,4.21119 9.75,4.71101 0,1.18969 -1.63536,1.09241 -27,-1.6061 z M 541.82271,211.69672 c 1.15008,-2.41048 1.11286,-3.14611 -0.26566,-5.25 -3.89621,-5.94637 -9.66331,-0.0991 -6.9293,7.02559 1.0173,2.65104 5.62554,1.51382 7.19496,-1.77559 z M 202.01205,207.5 c 1.23242,-3.38672 -0.57799,-6.5 -3.77983,-6.5 -3.21584,0 -5.23222,1.59106 -5.23222,4.12857 0,4.55723 7.4986,6.53041 9.01205,2.37143 z m 340.67106,-68.6875 c -0.31922,-0.79773 -0.55618,-0.56078 -0.60416,0.60417 -0.0434,1.05416 0.19293,1.64479 0.52522,1.3125 0.33229,-0.3323 0.36781,-1.1948 0.0789,-1.91667 z M 301.34013,115.02022 c 2.83793,-1.68793 7.05188,-4.2955 9.36433,-5.79459 2.31245,-1.4991 6.81245,-4.35313 10,-6.3423 8.01405,-5.001119 24.17154,-15.29972 40.79554,-26.002607 7.7,-4.957426 15.8,-9.85184 18,-10.876475 l 4,-1.862974 -3.48028,-0.07064 c -3.82506,-0.07764 -5.0354,0.59823 -33.01972,18.43851 -9.625,6.136033 -24.025,15.229206 -32,20.207056 -21.83129,13.62668 -24.53459,15.53717 -26.33962,18.61484 -2.79869,4.77192 -1.87139,5.02467 2.92975,0.79854 2.52457,-2.22222 6.91207,-5.42143 9.75,-7.10936 z M 113,114.85826 c 5.225,-3.33549 12.425,-7.98398 16,-10.32998 3.575,-2.346 9.65,-6.154081 13.5,-8.462398 3.85,-2.308317 9.56414,-5.854952 12.69808,-7.881411 22.51333,-14.557476 34.6929,-21.963542 37.09282,-22.555134 1.53499,-0.378384 2.55718,-1.066127 2.27153,-1.528318 -0.73201,-1.184429 -8.27318,0.347082 -10.34111,2.100145 -0.94673,0.802571 -6.44632,4.3194 -12.22132,7.815175 -5.775,3.495775 -15.78609,9.872189 -22.24686,14.169808 C 143.29237,92.483766 137.74093,96 137.41662,96 c -0.32432,0 -2.46323,1.301491 -4.75314,2.892202 -2.28992,1.590708 -9.45883,6.152748 -15.93092,10.137848 C 105.63967,115.86035 99,121.56437 99,124.26376 c 0,0.6568 1.0125,0.17377 2.25,-1.0734 1.2375,-1.24717 6.525,-4.99661 11.75,-8.3321 z m 64,-0.80986 c 3.025,-1.74233 11.35,-6.93596 18.5,-11.54141 7.15,-4.605441 16.375,-10.487093 20.5,-13.070334 13.99932,-8.766936 26.4863,-16.742186 30.54038,-19.505689 2.22221,-1.51479 5.59721,-3.432236 7.5,-4.260992 L 257.5,64.163148 254,64.08571 c -3.97387,-0.08792 -1.93876,-1.265203 -43.76096,25.315046 -45.24499,28.755614 -46.22032,29.419824 -47.27516,32.194234 -1.45915,3.83786 -1.32257,3.82244 3.78612,-0.42733 2.6125,-2.17327 7.225,-5.37694 10.25,-7.11926 z m 67,-2.63293 C 258.05877,102.63069 274.01803,92.550502 298.88342,76.75 308.18798,70.8375 316.71906,66 317.84138,66 c 2.21855,0 3.716,-1.537488 2.33109,-2.39341 -2.38431,-1.473583 -17.36546,6.047642 -27.85575,13.98486 C 290.56592,78.916153 288.88823,80 288.58853,80 c -0.2997,0 -8.76723,5.237196 -18.81672,11.638213 -10.0495,6.401017 -23.5342,14.991687 -29.96602,19.090377 C 228.86508,117.70058 225,121.20714 225,124.16098 c 0,0.67725 1.4625,-0.15602 3.25,-1.8517 1.7875,-1.69568 8.875,-6.59789 15.75,-10.89381 z M 766.05359,89 c -0.0981,-0.275 -0.35835,-2.75 -0.57827,-5.5 l -0.39985,-5 0.9928,3.972182 c 0.54604,2.184701 0.80626,4.659701 0.57827,5.5 -0.228,0.8403 -0.49482,1.302818 -0.59295,1.027818 z"
     style="fill:#b12941" />
  <path
     inkscape:connector-curvature="0"
     id="path829"
     d="m 660.80707,236.95273 c -23.26564,-2.52603 -42.40081,-5.19946 -47.07159,-6.5765 -0.97049,-0.28612 -1.51458,-0.92463 -1.2091,-1.41891 0.59091,-0.95611 -0.63372,-1.31787 -9.85557,-2.91141 -3.20605,-0.55401 -7.93105,-2.10186 -10.5,-3.43968 -5.72544,-2.9816 -10.98769,-4.0031 -12.81397,-2.48742 -1.85267,1.53758 -1.70423,3.90669 0.33836,5.40026 1.4554,1.06422 0.96853,1.3395 -3.44186,1.94609 -9.13871,1.25689 -9.07589,1.34911 -9.15078,-13.43271 l -0.0653,-12.88604 3.14163,-2.6435 c 2.99448,-2.51969 3.49712,-2.61107 10.73135,-1.95089 4.17435,0.38094 8.28532,1.05422 9.13549,1.49618 0.85017,0.44196 6.70017,2.60457 13,4.80581 26.7054,9.3312 37.57305,13.20899 39.45424,14.07808 3.58856,1.65787 9.58803,2.23974 11.00115,1.06696 1.05005,-0.87147 1.85608,-0.43489 3.6321,1.96731 C 659.0847,222.60584 673.32149,232 675.37015,232 677.26034,232 692,238.26879 692,239.07269 c 0,1.21994 -1.15285,1.14159 -31.19293,-2.11996 z m -53.99457,-7.63584 c 0.72187,-0.28887 1.58438,-0.25335 1.91667,0.0789 0.33229,0.33229 -0.25834,0.56864 -1.3125,0.52522 -1.16495,-0.048 -1.4019,-0.28494 -0.60417,-0.60416 z m -90.33109,-5.31562 C 514.67242,223.31515 495.33558,212.59152 475,200.99692 c -4.125,-2.35192 -9.3,-5.54752 -11.5,-7.10133 l -4,-2.82511 -200.23887,0.21476 c -169.528633,0.18182 -200.320139,0.003 -200.768804,-1.16604 -1.053967,-2.74619 -6.463553,-40.35674 -5.928982,-41.22169 0.315008,-0.5097 59.621376,-0.87964 139.350356,-0.86925 76.34107,0.01 139.54093,-0.26549 140.44412,-0.61208 2.04917,-0.78634 2.11337,-2.78024 0.14218,-4.41618 -2.02701,-1.68227 -1.88943,-4.33759 0.32874,-6.34501 2.4971,-2.25985 6.47717,-2.07943 8.7166,0.39511 1.90171,2.10137 1.89069,2.19988 -1.02932,9.1999 -0.69142,1.65751 3.33202,1.75327 76.12699,1.81183 85.3861,0.0687 96.09019,0.27137 97.66807,1.84925 1.14942,1.14942 0.17371,1.35817 -5.81108,1.24323 -2.92668,-0.0562 -2.9389,-0.0368 -0.5,0.79436 1.375,0.46858 7.86457,0.89683 14.42126,0.95165 12.57572,0.10515 16.08229,1.26698 14.92062,4.94364 -1.19072,3.76862 -2.11707,5.90573 -4.61895,10.65604 -1.44836,2.75 -3.79778,7.475 -5.22093,10.5 -4.77754,10.15502 -5.01192,10.47949 -8.03837,11.12816 -1.63,0.34937 -13.39957,0.68845 -26.15461,0.75353 -13.70414,0.0699 -23.43525,0.51353 -23.78809,1.08445 -0.86766,1.40389 6.46155,6.43792 18.47907,12.69224 17.4726,9.09334 32.24678,18.4506 31,19.63394 -0.275,0.26101 -1.40836,0.13004 -2.51859,-0.29105 z M 335.76166,159.31292 c -0.95609,-0.25029 -2.75609,-0.25937 -4,-0.0202 -1.24391,0.23919 -0.46166,0.44398 1.73834,0.45508 2.2,0.0111 3.21775,-0.18461 2.26166,-0.4349 z m 15.50737,-0.96886 c -0.67703,-0.27392 -2.02703,-0.29059 -3,-0.0371 -0.97297,0.25354 -0.41903,0.47766 1.23097,0.49804 1.65,0.0204 2.44606,-0.18706 1.76903,-0.46099 z m 128.49263,-5.03114 c -0.95609,-0.25029 -2.75609,-0.25937 -4,-0.0202 -1.24391,0.23919 -0.46166,0.44398 1.73834,0.45508 2.2,0.0111 3.21775,-0.18461 2.26166,-0.4349 z m 24.67323,-1.27803 c -0.59706,-0.59706 -3.43816,-0.64542 -7.45,-0.12681 l -6.48489,0.83831 7.45,0.12681 c 4.78713,0.0815 7.10504,-0.21816 6.48489,-0.83831 z M 538.5,221.04051 c -1.1,-0.45799 -3.25439,-2.15922 -4.78754,-3.78051 -8.02083,-8.48197 -1.06284,-19.62589 12.28754,-19.67971 6.26143,-0.0252 11.18181,2.32857 12.94165,6.191 1.64954,3.62034 -4.07895,11.89705 -10.74551,15.52544 -5.25167,2.85832 -6.48608,3.08032 -9.69614,1.74378 z m 2.18555,-7.21482 C 541.9585,212.62981 543,210.75275 543,209.65443 c 0,-4.39351 -5.88302,-7.37141 -8.8,-4.45443 -1.67377,1.67377 -1.49671,5.93137 0.3567,8.57749 1.95032,2.78448 3.2057,2.79435 6.12885,0.0482 z M 191.5,212.80505 c -2.91291,-1.6518 -3.46762,-2.83274 -3.48469,-7.41869 -0.0118,-3.16166 0.61793,-4.74687 2.72102,-6.84997 2.33766,-2.33765 3.3209,-2.65792 6.74844,-2.19819 6.62338,0.88838 11.07658,8.29118 7.01523,11.6618 -1.27007,1.05406 -1.5,0.83282 -1.5,-1.4433 0,-4.23386 -1.7289,-6.5567 -4.8802,-6.5567 -3.07623,0 -6.1198,2.67276 -6.1198,5.3742 0,0.94419 1.16547,2.88218 2.58994,4.30665 2.02529,2.02529 2.29781,2.7751 1.25,3.43923 -1.69588,1.0749 -1.91718,1.05884 -4.33994,-0.31503 z M 650,142.09878 c 0,-1.21662 -6.43534,-4.94142 -9.79328,-5.66839 -4.37135,-0.94636 -7.27794,-2.53666 -14.88699,-8.14517 -6.67404,-4.91933 -9.30394,-7.53194 -11.81973,-11.74202 -0.60272,-1.00863 -2.78775,-1.87806 -5.5,-2.18846 -5.79535,-0.66325 -10,-2.26988 -10,-3.82107 0,-0.67303 -0.9,-2.03818 -2,-3.03367 -1.1,-0.99549 -2,-2.2482 -2,-2.78381 0,-1.10339 17.04903,-0.21187 26.20805,1.37047 3.13943,0.54237 8.82765,1.08047 12.64049,1.19576 6.29309,0.1903 7.12692,-0.0206 9.04128,-2.28639 1.95472,-2.31361 2.20621,-2.37101 3.44101,-0.78534 1.88878,2.42546 6.2932,3.97975 12.66917,4.47085 3.025,0.233 7.525,0.6294 10,0.8809 2.475,0.2515 6.75,0.56533 9.5,0.69741 l 5,0.24015 v -4.31361 c 0,-3.25147 0.49246,-4.60573 2,-5.5 2.08289,-1.235562 54.54855,-1.716653 74.85496,-0.68639 l 9.85497,0.5 -0.68468,7.87593 c -0.83224,9.57351 -1.16396,10.52005 -3.88555,11.08732 -2.08632,0.43486 -44.63867,2.38683 -67.6397,3.10278 -8.07714,0.25142 -14.30208,1.09457 -20.91432,2.83278 -9.3097,2.44731 -9.49885,2.55886 -17.02212,10.038 -7.35634,7.3132 -9.06356,8.56805 -9.06356,6.66197 z m -357.98548,-4.5838 c -3.73694,-3.85554 -3.62665,-5.20664 0.27973,-3.42677 4.16165,1.89617 8.56498,0.31587 20.45891,-7.34246 9.76733,-6.28905 15.22689,-9.74554 23.7229,-15.01917 3.89504,-2.41772 18.1539,-11.52255 25.02394,-15.978747 3.85,-2.497271 11.01315,-7.053974 15.9181,-10.126006 9.53382,-5.971145 12.56479,-9.362816 12.57531,-14.071827 0.008,-3.655992 1.51539,-2.264451 2.34176,2.162014 1.04578,5.601833 -0.49582,6.907618 -32.58517,27.600636 -4.8125,3.10337 -8.75,6.23425 -8.75,6.95752 0,0.72326 -2.08407,1.87242 -4.63127,2.5537 -2.72893,0.72987 -5.98083,2.58823 -7.91678,4.52418 -1.80703,1.80703 -5.09882,3.82879 -7.31508,4.4928 -3.57299,1.07049 -7.37921,4.38618 -8.33842,7.26379 -0.33345,1.00037 -2.61502,1.67337 -6.1661,1.81885 -1.0272,0.0421 -3.58622,1.79508 -5.68669,3.89556 -2.10048,2.10047 -5.64754,4.4225 -7.88236,5.16006 -2.23481,0.73755 -4.0633,1.71898 -4.0633,2.18095 0,2.02325 -3.88748,0.55125 -6.98548,-2.64508 z M 166.75,137.51636 C 164.09204,135.17694 163.15212,133 164.8,133 c 0.44,0 1.29586,0.49586 1.90191,1.10191 0.75966,0.75966 2.45841,0.81259 5.46941,0.1704 3.90846,-0.83359 9.72098,-4.25712 40.32868,-23.75328 2.75,-1.75167 11.65045,-7.42254 19.77879,-12.601939 8.12833,-5.1794 17.20574,-10.879116 20.17202,-12.666035 C 260.08586,80.651618 264,76.473536 264,72.923077 264,71.315385 264.40122,70 264.89159,70 c 1.67218,0 2.20538,5.215911 1.08494,10.613056 C 264.9046,85.776505 264.72517,86 261.65161,86 258.42844,86 255.62967,87.443549 251,91.493883 c -1.375,1.202939 -4.075,2.793828 -6,3.53531 -1.925,0.741482 -4.85,2.345356 -6.5,3.564164 -1.65,1.218808 -5.925,3.912223 -9.5,5.985373 -6.81077,3.94957 -21.94955,13.5978 -33.0133,21.04 -3.58232,2.4097 -6.87181,4.38127 -7.30999,4.38127 -0.43818,0 -2.9072,1.61406 -5.4867,3.5868 -4.61669,3.53072 -10.35059,6.44356 -12.56213,6.3816 -0.62034,-0.0174 -2.36538,-1.1208 -3.87788,-2.45204 z m -61.28472,0.50747 c -1.11909,-0.44006 -2.65021,-1.54173 -3.40249,-2.44817 -1.24254,-1.49717 -1.00571,-1.59017 2.58673,-1.01571 5.1521,0.82385 8.11743,-0.47326 22.64534,-9.90562 C 133.77901,120.44445 139.27711,117 139.51287,117 c 0.23576,0 2.35431,-1.30077 4.70789,-2.8906 5.12355,-3.46092 13.50257,-8.81374 32.27924,-20.621129 C 200.1554,78.61298 201,77.892687 201,72.5942 c 0,-2.947585 1.53929,-4.237175 2.39522,-2.006669 1.27325,3.318041 0.51522,7.365459 -1.92192,10.261826 -1.38968,1.651544 -8.47718,6.724582 -15.75,11.273418 -25.97037,16.243355 -29.63829,18.812165 -31.21502,21.861215 -1.23696,2.39202 -2.22672,3.02334 -4.78396,3.05145 -3.9083,0.043 -6.88586,1.60941 -9.57239,5.03592 -1.10883,1.41424 -3.75447,3.0922 -5.87921,3.72878 -2.12474,0.63659 -5.64281,2.65546 -7.81794,4.48639 -6.26965,5.27751 -17.09592,9.26836 -20.9895,7.7373 z m 123.62843,-0.93012 c -2.7624,-2.7624 -2.77329,-4.52778 -0.0188,-3.05364 3.91813,2.09691 9.20795,-0.0284 24.92514,-10.0142 8.525,-5.41631 24.275,-15.36255 35,-22.10277 31.27712,-19.656368 33.38401,-21.05972 35.74503,-23.808941 1.23477,-1.437787 2.24727,-3.851659 2.25,-5.364159 0.007,-3.777574 1.61172,-3.46626 2.398,0.465159 0.52353,2.617665 0.0146,4.150817 -2.73882,8.25 -1.86002,2.769163 -3.64903,5.809356 -3.97557,6.755986 -0.41489,1.202726 -1.59403,1.683539 -3.91472,1.596295 -4.58789,-0.172476 -7.67635,1.728717 -9.362,5.763051 C 308.15893,98.555396 307.51526,99 304.4514,99 c -4.2704,0 -8.04565,2.31469 -10.02819,6.1485 -1.17475,2.27171 -2.15358,2.8515 -4.81403,2.8515 -3.67777,0 -8.14116,2.95003 -9.11746,6.02609 -0.41815,1.31747 -1.51862,1.97515 -3.30911,1.97765 -3.66093,0.005 -8.94365,3.40097 -10.9911,7.06535 -1.25248,2.24162 -2.26181,2.92367 -3.88881,2.62788 -3.03617,-0.55199 -9.53036,3.29761 -11.10727,6.58412 -0.98984,2.06298 -2.02712,2.71891 -4.29966,2.71891 -1.6473,0 -4.22579,0.63642 -5.72998,1.41427 -1.5042,0.77785 -4.36468,1.72002 -6.35663,2.09371 -2.9174,0.54731 -4.02891,0.27227 -5.71545,-1.41427 z M 434.5,117.73024 c -12.65,-0.42337 -23.95114,-1.17326 -25.11364,-1.66643 -3.49187,-1.48136 -2.92886,-8.11871 1.04057,-12.26727 5.98223,-6.25218 16.08625,-15.548205 20.8412,-19.174584 l 4.76814,-3.636428 72.6224,-0.0189 c 39.94232,-0.01039 72.84015,0.198857 73.1063,0.465001 0.80038,0.800384 -4.76109,6.926181 -8.23296,9.068368 -1.78279,1.1 -4.43555,3.419395 -5.89502,5.154212 -1.72226,2.047187 -3.28829,2.98823 -4.46205,2.681284 -2.21672,-0.579685 -17.1091,11.045057 -18.88032,14.737657 -1.02127,2.12912 -2.31956,2.70419 -8.5,3.765 -8.78441,1.50776 -67.4589,2.0245 -101.29462,0.89209 z M 716.25,93.016677 C 710.78399,89.67437 712.3171,83.919286 719.68426,80.124963 723.2718,78.277265 729.73659,78.73659 732,81 c 2.74681,2.746809 2.68993,7 -0.0936,7 -1.247,0 -2.30343,0.802306 -2.61246,1.984048 -0.29818,1.140241 -1.85322,2.370003 -3.65638,2.891548 -1.72565,0.499126 -3.81254,1.182195 -4.63754,1.517931 -0.825,0.335737 -2.9625,-0.283846 -4.75,-1.37685 z M 615.58372,47.525595 c -2.20209,-4.089022 -1.24534,-6.001732 3.52634,-7.049768 5.3562,-1.176419 7.57975,3.015559 4.27493,8.059356 -2.35131,3.58856 -5.54778,3.174894 -7.80127,-1.009588 z"
     style="fill:#9a2336" />
  <path
     inkscape:connector-curvature="0"
     id="path827"
     d="m 657.5,235.60118 c -23.99723,-2.93395 -26.29961,-3.38765 -29.88955,-5.88999 C 625.4712,228.22003 622.91026,227 621.91947,227 c -0.99079,0 -2.04534,-0.39465 -2.34345,-0.877 -0.29812,-0.48236 -2.51181,-1.37301 -4.91933,-1.97923 -2.40753,-0.60622 -4.94528,-1.78657 -5.63945,-2.62299 C 608.32307,220.68435 606.65948,220 605.32038,220 c -4.31075,0 -11.72385,-2.25821 -15.30251,-4.66152 -1.91518,-1.28616 -4.16518,-2.34099 -5,-2.34406 -4.24884,-0.0156 -9.16578,-2.25324 -10.04756,-4.57251 -0.51394,-1.35177 -2.1269,-2.91115 -3.58435,-3.46527 -2.56737,-0.97611 -2.59425,-1.069 -0.86295,-2.98207 2.41251,-2.66578 11.43485,-2.68121 18.09364,-0.0309 C 608.20942,209.74178 621.92636,215 622.67636,215 c 0.4864,0 4.67559,1.59894 9.30932,3.5532 7.39258,3.1178 13.54461,4.52946 25.76948,5.91316 1.79034,0.20264 5.56693,1.79089 8.39243,3.52944 2.8255,1.73854 9.01068,4.52268 13.74484,6.18696 16.6767,5.86267 14.88566,5.97612 -22.39243,1.41842 z M 537.44113,218.5318 c -1.66698,-1.26084 -1.70653,-1.47268 -0.28002,-1.5 C 539.01989,216.99622 544,211.55386 544,209.55813 544,207.26217 539.91413,203 537.71313,203 c -1.86911,0 -1.95533,-0.17972 -0.67742,-1.41207 3.84504,-3.70792 14.64999,-3.3609 18.58672,0.59695 1.56836,1.57676 1.48987,2.05625 -1.22327,7.47267 -4.4206,8.82516 -11.86935,12.72314 -16.95803,8.87425 z M 380.61012,170.27594 c -0.1237,-0.12323 -37.33713,-0.26021 -82.69652,-0.3044 -45.35938,-0.0442 -83.08211,-0.45765 -83.82829,-0.91881 -2.31586,-1.43128 18.30427,-1.97333 96.91469,-2.54762 41.525,-0.30336 92.15,-0.97305 112.5,-1.4882 52.57347,-1.33086 101.21266,-1.29085 102.06234,0.084 0.3742,0.60547 -0.22098,2.00222 -1.32264,3.10388 -1.9634,1.9634 -3.40113,2.0059 -72.70385,2.14913 -38.88545,0.0804 -70.80204,0.0453 -70.92573,-0.0779 z M 208,168.96862 C 208,168.43588 208.675,168 209.5,168 c 0.825,0 1.5,0.17686 1.5,0.39301 0,0.21616 -0.675,0.65203 -1.5,0.96862 -0.825,0.31658 -1.5,0.13972 -1.5,-0.39301 z m 126.54811,-26.53554 c -1.34891,-2.0587 -1.43851,-2.86022 -0.45252,-4.04826 1.82084,-2.19398 5.34254,-1.32128 5.73117,1.42022 0.31764,2.24066 -1.29413,5.19496 -2.83419,5.19496 -0.4194,0 -1.51941,-1.15512 -2.44446,-2.56692 z m 317.09354,-5.85724 c -0.8736,-1.33328 -2.47254,-2.70478 -3.5532,-3.04777 -1.18021,-0.37458 -2.08934,-1.6962 -2.27664,-3.30958 -0.28372,-2.44403 -1.39272,-3.09746 -12.31181,-7.25424 -6.6,-2.51255 -13.8,-5.70674 -16,-7.09821 -2.2,-1.39146 -6.7,-3.78238 -10,-5.31316 -3.3,-1.53078 -5.41175,-3.00249 -4.69279,-3.27047 1.17669,-0.43857 18.09058,1.13991 39.69279,3.7043 4.4,0.52233 15.875,1.64662 25.5,2.49843 9.625,0.85181 20.773,2.05657 24.77334,2.67725 5.02957,0.78037 14.59282,0.8837 31,0.33493 13.04966,-0.43647 27.32666,-0.87078 31.72666,-0.96514 4.4,-0.0944 8.7875,-0.52585 9.75,-0.95886 1.35328,-0.60882 1.75,-0.32303 1.75,1.26067 0,1.12639 -0.3375,2.25402 -0.75,2.50585 -0.4125,0.25183 -7.725,0.77136 -16.25,1.15451 -8.525,0.38315 -17.975,0.84075 -21,1.01689 -3.025,0.17613 -13.825,0.60185 -24,0.94604 -13.78853,0.46643 -20.53739,1.15023 -26.5,2.68502 -11.89544,3.06192 -12.79043,3.52068 -18.38616,9.42442 -2.8324,2.9883 -5.53997,5.43328 -6.01682,5.43328 -0.47685,0 -1.58177,-1.09087 -2.45537,-2.42416 z M 432.75,109.22793 c -12.74978,-0.185 -18.75,-0.6224 -18.75,-1.36683 0,-1.60089 17.1479,-17.771416 19.5,-18.388562 1.1,-0.28862 29.89388,-0.400513 63.9864,-0.248651 57.00091,0.253906 62.01228,0.410562 62.30823,1.947774 0.33824,1.75681 -5.03476,7.538056 -13.27626,14.285009 l -4.83312,3.95667 -45.09263,0.0433 c -24.80094,0.0238 -53.53012,-0.0791 -63.84262,-0.22874 z M 714.473,88.914924 c -1.54722,-4.87485 8.56962,-10.441489 14.13161,-7.775701 3.71934,1.782634 3.94969,3.697008 0.86434,7.183383 l -2.49792,2.822606 -3.46728,-2.142894 C 719.9525,86.807525 718,87.005019 718,89.559017 c 0,2.215465 -2.78058,1.707683 -3.527,-0.644093 z M 617,46.5 c -1.55758,-1.876765 0.26262,-4.5 3.12244,-4.5 2.13794,0 2.55104,2.926519 0.67756,4.8 -1.5709,1.570896 -2.29472,1.513752 -3.8,-0.3 z"
     style="fill:#7a1d2d" />
</svg>
