<?xml version="1.0" encoding="UTF-8" standalone="no"?>
<!-- Created with Inkscape (http://www.inkscape.org/) -->

<svg
   xmlns:dc="http://purl.org/dc/elements/1.1/"
   xmlns:cc="http://creativecommons.org/ns#"
   xmlns:rdf="http://www.w3.org/1999/02/22-rdf-syntax-ns#"
   xmlns:svg="http://www.w3.org/2000/svg"
   xmlns="http://www.w3.org/2000/svg"
   xmlns:sodipodi="http://sodipodi.sourceforge.net/DTD/sodipodi-0.dtd"
   xmlns:inkscape="http://www.inkscape.org/namespaces/inkscape"
   version="1.1"
   id="svg6101"
   width="1000"
   height="600"
   viewBox="0 0 1000 600"
   sodipodi:docname="p11.svg"
   inkscape:version="0.92.3 (2405546, 2018-03-11)">
  <metadata
     id="metadata6107">
    <rdf:RDF>
      <cc:Work
         rdf:about="">
        <dc:format>image/svg+xml</dc:format>
        <dc:type
           rdf:resource="http://purl.org/dc/dcmitype/StillImage" />
        <dc:title></dc:title>
      </cc:Work>
    </rdf:RDF>
  </metadata>
  <defs
     id="defs6105" />
  <sodipodi:namedview
     pagecolor="#ffffff"
     bordercolor="#666666"
     borderopacity="1"
     objecttolerance="10"
     gridtolerance="10"
     guidetolerance="10"
     inkscape:pageopacity="0"
     inkscape:pageshadow="2"
     inkscape:window-width="1858"
     inkscape:window-height="1057"
     id="namedview6103"
     showgrid="false"
     inkscape:zoom="0.81175858"
     inkscape:cx="458.53034"
     inkscape:cy="226.39147"
     inkscape:window-x="54"
     inkscape:window-y="-8"
     inkscape:window-maximized="1"
     inkscape:current-layer="svg6101" />
  <path
     inkscape:connector-curvature="0"
     id="path6666"
     d="m 141.11698,542.93197 c -11.09106,-3.03179 -15.58996,-5.97313 -20.74312,-13.56165 -2.07022,-3.0486 -5.50716,-15.63702 -4.53477,-16.60941 0.45005,-0.45005 2.05246,0.15254 3.56091,1.33909 3.36129,2.64399 4.078,2.00901 5.98022,-5.29824 0.81585,-3.13403 2.35437,-6.95903 3.41892,-8.5 1.06456,-1.54097 4.31786,-6.62676 7.22958,-11.30176 2.91171,-4.675 10.24737,-15.475 16.30147,-24 20.1652,-28.39535 37.04512,-52.11294 68.43749,-96.15998 17.11408,-24.01299 32.72073,-46.84554 34.68144,-50.73898 2.82612,-5.61194 3.75617,-8.92748 4.48772,-15.99841 0.89775,-8.67736 0.3829,-23.78698 -0.83619,-24.54043 -0.33324,-0.20595 -2.28358,0.20231 -4.33409,0.90724 -4.66068,1.60227 -5.12689,1.1004 -7.17282,-7.72147 -0.85902,-3.70402 -3.10754,-9.77509 -4.99672,-13.49127 -4.40553,-8.66606 -14.4027,-18.67148 -20.09702,-20.11362 -2.2,-0.55717 -12.55,-1.50468 -23,-2.10558 -10.45,-0.6009 -20.8,-1.37929 -23,-1.72975 -2.2,-0.35047 -17.275,-0.69537 -33.5,-0.76645 -34.13248,-0.14953 -29.73155,0.94044 -50.5,-12.50722 -7.7,-4.98579 -14.954299,-9.47483 -16.120664,-9.97565 -3.038039,-1.30449 -17.157376,-10.89027 -17.964587,-12.19637 -1.92332,-3.112 -8.37625,-42.26584 -8.399666,-50.96588 -0.0083,-3.0821 -1.3978,-21.5321 -3.087789,-41 C 45.237306,86.428281 43.774806,67.8 43.677294,64.5 L 43.5,58.5 46.633906,58.1953 c 1.797157,-0.174732 4.85077,-1.774272 7.158964,-3.75 4.184606,-3.581867 6.743779,-4.335256 7.457175,-2.1953 0.331685,0.994949 34.474481,1.18858 167.333335,0.948983 111.83993,-0.201691 167.41157,0.03413 168.41662,0.714692 1.25536,0.850052 1.51482,4.746205 1.59086,23.889016 0.05,12.580319 0.41478,23.397429 0.81069,24.038009 0.52074,0.84257 1.26665,0.87206 2.69691,0.10661 1.0874,-0.58196 2.82468,-0.78909 3.86063,-0.46029 1.32169,0.41948 2.42905,-0.19251 3.71223,-2.051608 C 413.73543,93.547258 425.06756,83 427.32977,83 c 4.63726,0 6.0287,-2.161207 5.78258,-8.981597 -0.12427,-3.443588 0.0673,-8.607796 0.42562,-11.476018 l 0.65157,-5.21495 103.15523,-0.497858 c 56.73538,-0.273822 118.17934,-0.234995 136.54215,0.08628 l 33.38692,0.58414 0.84229,2.280911 c 0.68186,1.846478 0.41771,2.465144 -1.38692,3.248189 -1.22607,0.532003 -16.45275,4.119669 -33.83707,7.972591 -30.92016,6.852899 -32.05024,7.190541 -51.94125,15.51887 C 600.2499,95.188032 592,99.32613 592,101.04215 c 0,1.30904 5.05621,1.2504 46,-0.53349 30.63236,-1.334618 56.1599,-3.1932 71.71501,-5.221344 3.68365,-0.480291 4.09335,-0.776877 3.25,-2.352702 -1.16289,-2.172867 -1.23879,-6.95516 -0.13792,-8.689085 4.00322,-6.305241 15.71774,-8.487844 20.16251,-3.7566 1.71276,1.823151 2.36125,3.722479 2.42431,7.100414 0.0837,4.482032 0.19838,4.646408 4.08609,5.855546 6.50188,2.022182 20.66097,4.564743 25.39246,4.559748 L 769.28491,98 768.65228,92.25 c -0.34795,-3.1625 -0.92094,-7.4375 -1.2733,-9.5 -0.56399,-3.301222 -0.40031,-3.75 1.36773,-3.75 3.24795,0 4.36609,2.39819 5.22184,11.199793 0.44385,4.565114 1.5325,9.973257 2.41923,12.018087 0.88672,2.04484 1.61222,6.27514 1.61222,9.40067 v 5.68279 l 10.25,-0.5831 c 5.6375,-0.3207 10.925,-0.84286 11.75,-1.16035 1.27128,-0.48925 1.45539,-3.29937 1.20742,-18.429825 l -0.29258,-17.852561 3.79258,-0.626746 c 2.08592,-0.344711 6.51508,-0.631699 9.84258,-0.637752 3.3275,-0.0061 6.54296,-0.503962 7.14546,-1.106464 0.63961,-0.639613 4.66199,-1.056898 9.66631,-1.002793 7.54292,0.08155 8.69665,-0.142391 9.61975,-1.867217 0.9062,-1.693244 2.30527,-1.998973 10.28369,-2.247207 L 860.5,71.5 846.65045,69.731909 c -7.61725,-0.972451 -14.81725,-2.308608 -16,-2.96924 C 828.05501,65.312972 817.7222,63.95226 805.5,63.450646 c -4.95,-0.203154 -9.3375,-0.387658 -9.75,-0.410009 -1.48971,-0.08072 -0.63332,-1.57993 2.00096,-3.502915 2.42205,-1.768061 4.12626,-1.937334 17.21857,-1.710254 12.15069,0.210747 19.28006,1.071881 43.53047,5.257902 15.95,2.753233 31.7,5.708813 35,6.567957 3.3,0.859143 7.2375,1.578196 8.75,1.597895 1.5125,0.0197 2.75,0.386706 2.75,0.815572 0,0.428865 1.06791,2.051782 2.37312,3.606481 1.30522,1.554699 2.69391,4.851725 3.08598,7.326725 0.39207,2.475 1.80968,8.700025 3.15026,13.833388 2.63784,10.100912 2.56766,15.387832 -0.32615,24.569002 -1.21019,3.83957 -1.44251,8.10087 -1.07163,19.65563 0.28898,9.00297 0.0797,15.45692 -0.53683,16.55868 -0.55571,0.993 -1.16176,9.92297 -1.34679,19.84438 -0.45491,24.39391 -0.45655,24.18191 0.24189,31.36107 0.48648,5.00045 0.29744,6.56839 -0.90426,7.5 -1.2525,0.97099 -1.58047,4.86601 -1.86742,22.17785 -0.34284,20.68364 -0.39159,21.09503 -3.23582,27.30822 -4.07466,8.90104 -9.50912,13.46775 -17.85735,15.00598 -3.53958,0.65219 -8.63371,1.18831 -11.3203,1.19138 -2.68658,0.003 -6.4597,0.42032 -8.3847,0.92724 -1.925,0.50691 -13.4,1.11571 -25.5,1.35287 -20.68272,0.40539 -22.22768,0.56721 -25.80248,2.7025 l -3.80248,2.27129 -32.46512,-0.87974 C 761.5741,287.89588 746.52271,287.65 745.9824,287.83333 745.44208,288.01667 745,290.79569 745,294.00895 c 0,4.78227 0.73205,7.35262 4.03478,14.16666 2.23277,4.60657 3.90759,9.44093 3.75,10.82439 -0.26612,2.33618 -0.67794,2.51061 -6.28478,2.66198 -3.3,0.0891 -12.00463,0.64488 -19.34362,1.23508 C 712.7554,324.05519 710,323.55464 710,319.78042 c 0,-2.8543 -3.05679,-13.94927 -4.27881,-15.53042 -0.74988,-0.97027 -12.08528,-1.25 -50.65251,-1.25 -38.18554,0 -50.07569,-0.28934 -51.36817,-1.25 -1.47887,-1.09921 -1.71303,-4.08491 -1.94113,-24.75 L 601.5,253.5 H 597 c -4.4762,0 -4.5068,0.0238 -5.78562,4.5 -0.7071,2.475 -1.61747,5.62367 -2.02305,6.99705 -0.63102,2.13676 -1.54832,2.61031 -6.35741,3.28193 -5.34734,0.7468 -7.95956,0.27118 -15.05989,-2.74205 -1.59067,-0.67505 -1.74744,0.62736 -2,16.6153 L 565.5,299.5 l -3.55953,0.29901 c -3.38565,0.2844 -3.71109,0.65077 -6.66233,7.5 -3.10467,7.20532 -3.02514,9.70099 0.30912,9.70099 1.51251,0 3.90233,3.84374 2.96969,4.77638 -0.3328,0.3328 -3.40676,-0.41066 -6.83102,-1.65214 -3.42426,-1.24148 -6.63799,-2.33981 -7.14163,-2.44074 -1.5411,-0.30883 -2.53613,6.33518 -2.44361,16.3165 0.14377,15.50962 -0.0414,17.38209 -1.97835,20 -3.52949,4.77044 -5.02518,4.88574 -63.66234,4.90788 -66.26993,0.025 -70.50303,-0.27342 -83.86767,-5.913 -9.0101,-3.80206 -10.36284,-4.10647 -15.56514,-3.50268 -3.13361,0.3637 -6.27002,1.01512 -6.96982,1.44762 -2.18441,1.35004 -0.78266,5.35101 2.55586,7.29508 3.13043,1.82289 3.18024,1.81784 6.88955,-0.69937 4.51131,-3.06146 4.84146,-3.07921 9.03756,-0.48588 6.4659,3.99615 6.029,6.47472 -4.28109,24.2871 -13.33633,23.04072 -14.81476,24.51651 -21.23451,21.19673 -3.69177,-1.90909 -5.34371,-5.52674 -4.52382,-9.90688 0.50543,-2.70014 0.18052,-3.36529 -2.38212,-4.8766 -4.45482,-2.62721 -5.70972,-2.19589 -8.72823,3 -1.51771,2.6125 -4.93547,7.99218 -7.59502,11.95484 -3.0564,4.55396 -4.83555,8.28891 -4.83555,10.15122 0,2.28846 -0.75618,3.39254 -3.38636,4.94439 -3.93054,2.31907 -12.8549,15.44141 -13.10355,19.26738 -0.21973,3.3809 -1.21863,4.87086 -3.96578,5.91532 -2.26232,0.86014 -11.12574,12.76875 -10.19577,13.69872 0.27112,0.27112 3.34111,-0.41944 6.8222,-1.53457 3.48109,-1.11513 11.05426,-3.36086 16.82926,-4.99051 11.7908,-3.32727 1.23751,-2.94193 101,-3.68786 120.08503,-0.89788 328.72985,-3.36014 330.5,-3.9003 1.1,-0.33566 13.7,-1.04874 28,-1.58461 14.3,-0.53587 30.05,-1.42783 35,-1.98212 8.96409,-1.00379 25.93025,-0.29274 47.5,1.99072 5.225,0.55314 21.425,2.13004 36,3.50423 27.42548,2.58579 45.28506,4.93243 47.32388,6.21807 0.64686,0.4079 6.12612,1.00773 12.17612,1.33295 13.15405,0.70709 23.58602,3.6135 29.71354,8.27838 4.0387,3.07466 4.30353,3.58418 4.58179,8.81525 0.28217,5.3049 0.14057,5.67001 -3.1824,8.20457 -1.91275,1.45892 -3.78279,3.66539 -4.15564,4.90326 -0.86911,2.88541 -6.14178,8.4943 -9.77206,10.39516 -1.54813,0.81063 -6.94813,2.09534 -12,2.85493 -5.05188,0.75959 -14.58523,2.80147 -21.18523,4.53751 -31.69688,8.33743 -35.95471,9.06041 -55.5,9.42399 -18.23051,0.33912 -25.48689,-0.10981 -50.5,-3.12426 -16.34189,-1.96945 -29.03657,-2.03127 -43,-0.20941 -5.54267,0.72317 -27.82325,1.27313 -58,1.43164 -63.38472,0.33294 -92.10664,-1.76522 -96.49162,-7.04879 -1.87955,-2.26472 -4.36665,-1.87744 -14.3844,2.2399 l -9.12398,3.75 -54,-0.028 c -37.71489,-0.0196 -58.29452,-0.43856 -68.24025,-1.38934 l -14.24025,-1.36132 -3.75975,2.48312 c -7.66413,5.06174 -19.65956,7.29827 -33.98808,6.33701 -15.92152,-1.06812 -20.82833,-0.73974 -28.76702,1.92519 -8.10405,2.72044 -14.6,3.96593 -50.00465,9.5876 -49.66956,7.8867 -60.12319,9.81217 -67.5,12.43297 -4.125,1.46552 -12.675,3.79439 -19,5.17529 -11.45253,2.50035 -11.75388,2.51231 -73,2.89918 -59.23363,0.37416 -61.77208,0.31411 -68.88302,-1.62971 z M 300.5,495.57295 c 4.95,-0.78046 13.26122,-1.95467 18.46938,-2.60936 14.55121,-1.82916 15.08222,-2.82861 1.54088,-2.9002 -8.4782,-0.0448 -14.80307,-0.69785 -21.59549,-2.22967 -5.28315,-1.19146 -10.32225,-1.89133 -11.19799,-1.55528 -1.78636,0.68549 -3.89158,7.10248 -3.04978,9.29616 0.69111,1.801 4.40224,1.80061 15.833,-0.002 z M 596.5,489 c -0.78398,-1.2685 -4.53713,-1.2685 -6.5,0 -1.09674,0.70877 -0.34157,0.97349 2.80902,0.98469 2.62138,0.009 4.06696,-0.37634 3.69098,-0.98469 z M 371.66165,388 C 375.78069,383.19349 383,373.24253 383,372.37144 c 0,-0.39268 0.63994,-1.42439 1.42209,-2.2927 2.25338,-2.5016 2.91048,-6.55784 1.28137,-7.90988 -1.16449,-0.96645 -2.08025,-0.22138 -5.00758,4.0742 -1.97036,2.89132 -5.84461,9.60962 -8.60946,14.92956 -2.76484,5.31994 -5.49036,9.959 -6.05671,10.30902 -0.56634,0.35001 -1.02971,1.08535 -1.02971,1.63408 0,1.40886 3.13037,-0.99506 6.66165,-5.11572 z m 150.81077,-43.25 c 4.55442,-3.9658 12.13908,-35.67204 15.01083,-62.75 0.90412,-8.525 1.89034,-16.9625 2.1916,-18.75 0.62006,-3.67919 -1.08968,-4.50395 -2.07302,-1 -0.61039,2.17502 -3.54196,28.40094 -3.58207,32.04531 -0.0166,1.50881 -0.57921,1.69036 -3.52545,1.13764 l -3.50569,-0.65767 -3.46906,7.61236 c -1.90799,4.1868 -3.93043,7.61236 -4.49431,7.61236 -1.375,0 -1.3275,-0.59037 0.90656,-11.26745 C 521.87105,289.46449 525,260.23603 525,251.38906 525,242.71325 526.18455,243 490.34501,243 c -29.18688,0 -31.3448,0.12049 -31.34198,1.75 0.0144,8.34576 7.4758,35.29678 12.59307,45.48709 5.61919,11.1898 22.54192,31.76291 26.12708,31.76291 0.70225,0 1.27682,0.86738 1.27682,1.92752 0,2.43613 -5.80246,7.0699 -7.91568,6.32137 -3.39126,-1.20124 -20.94856,-13.91567 -27.8489,-20.16728 -8.6923,-7.8751 -10.74456,-8.40641 -22.88459,-5.9246 -4.86796,0.99516 -11.36856,1.81695 -14.44579,1.82619 -8.10394,0.0243 -14.50514,-4.52144 -29.90504,-21.23687 -6.875,-7.4623 -13.04353,-13.60798 -13.70785,-13.65707 -1.77487,-0.13116 -6.22354,8.00129 -8.2975,15.16835 -2.02317,6.99156 -3.44799,23.80894 -2.46231,29.06307 0.57937,3.08832 2.0928,4.40892 14.96418,13.05756 L 400.81615,338 l 8.84193,0.0153 c 9.07582,0.0157 14.08374,1.31239 9.28977,2.40535 -1.34632,0.30694 -4.69785,0.91078 -7.44785,1.34188 -2.75,0.43109 -4.94951,1.22338 -4.8878,1.76063 0.36614,3.18772 4.79627,3.44732 59.08204,3.46209 l 54.19423,0.0147 2.58395,-2.25 z M 485.5,341.75556 c -2.2,-0.55794 -13.45,-0.937 -25,-0.84234 -12.27728,0.10062 -21.60139,-0.23244 -22.44785,-0.80185 -2.7179,-1.82831 2.88254,-2.11678 36.14847,-1.86191 32.52875,0.24922 36.22003,0.64286 34.35323,3.66341 -0.84399,1.36561 -17.49695,1.25198 -23.05385,-0.15731 z M 421.36514,283.92742 C 422.81431,282.7875 424,281.1725 424,280.33853 c 0,-1.12268 -0.79872,-0.84424 -3.07673,1.07258 -1.69219,1.42389 -3.49219,2.58889 -4,2.58889 -0.5078,0 -0.92327,0.45 -0.92327,1 0,1.64711 2.55765,1.13579 5.36514,-1.07258 z m 27.71178,-0.8505 c 2.86851,-2.8685 3.8883,-6.07692 1.93155,-6.07692 -0.54534,0 -1.55784,0.93742 -2.25,2.08316 -0.69216,1.14574 -2.94597,2.95489 -5.00847,4.02033 -4.5533,2.35212 -4.6798,2.89651 -0.67308,2.89651 2.06748,0 4.0359,-0.95897 6,-2.92308 z m -7.8767,-1.99684 c 3.67299,-1.84416 4.99043,-5.86859 3.1014,-9.47393 -1.21668,-2.32213 -1.90137,-2.67692 -4.13004,-2.14014 -4.79477,1.15483 -6.35449,5.29251 -4.16543,11.05017 0.55339,1.45551 1.34089,2.48287 1.75,2.28302 0.40912,-0.19986 1.95895,-0.97346 3.44407,-1.71912 z M 417.25,278.80232 c 2.2402,-2.59081 2.21792,-5.00289 -0.0723,-7.83125 -1.68193,-2.0771 -2.04613,-2.14324 -4.72674,-0.85846 -3.99338,1.91398 -5.3073,5.93144 -3.06107,9.35962 1.96854,3.00437 4.89907,2.7546 7.86015,-0.66991 z m -0.14583,-22.90649 c 1.60598,-1.60598 1.95756,-2.8372 1.48494,-5.20029 -0.7877,-3.93851 -2.14264,-4.74714 -5.81135,-3.46822 -3.74823,1.30664 -5.24217,4.42099 -3.86203,8.05102 1.28582,3.38198 5.13378,3.67215 8.18844,0.61749 z m 26.06709,0.44918 c 2.17624,-1.96947 2.37961,-6.20939 0.42599,-8.88112 -1.16379,-1.59158 -1.88474,-1.74887 -4.23218,-0.92332 -3.55387,1.24983 -5.19229,5.34848 -3.56538,8.91914 1.35154,2.96631 4.63619,3.36078 7.37157,0.8853 z m 350.46609,-2.56724 c 0.42349,-0.68524 0.8318,-5.52806 0.90734,-10.76183 0.0755,-5.23377 0.47445,-10.56069 0.88646,-11.8376 1.19979,-3.71841 -1.64983,-6.09282 -6.5271,-5.43864 -2.62574,0.35218 -5.27842,-0.0557 -7.82213,-1.20276 -3.63565,-1.63945 -3.99379,-1.64079 -6.46105,-0.0242 -2.71649,1.77992 -8.77602,1.41936 -11.30844,-0.67288 -1.42489,-1.17721 -9.16428,-0.16604 -11.3889,1.488 -2.05658,1.52909 -3.11451,5.73707 -1.83114,7.28345 1.14559,1.38034 0.20649,2.4419 -4.76472,5.38604 -1.80039,1.06625 -3.31404,2.8742 -3.5,4.18048 -0.39286,2.75968 -3.1777,3.50796 -6.47931,1.74099 -2.90244,-1.55333 -3.88232,-0.67736 -4.75775,4.25318 -0.44409,2.50116 -0.24362,3.93603 0.62871,4.5 1.13523,0.73394 9.2994,1.06872 50.96435,2.08981 7.68883,0.18843 10.89952,-0.0874 11.45368,-0.98406 z M 743.5,224.65623 c 0,-5.98154 0.37265,-8.09057 1.58777,-8.98608 2.61977,-1.93071 2.68181,-3.92087 0.23465,-7.52696 -3.03076,-4.46609 -3.09555,-7.15813 -0.15375,-6.38883 1.77095,0.46311 2.04288,0.2393 1.48275,-1.22037 -0.37726,-0.98312 -0.2204,-2.34841 0.34858,-3.03399 1.29804,-1.56404 0.24958,-4.5 -1.60699,-4.5 C 744.62686,193 744,192.325 744,191.5 c 0,-2.88859 2.71096,-1.46529 4.28557,2.25 1.0032,2.36705 1.55816,6.44324 1.50482,11.05294 -0.10397,8.98516 0.70699,10.01545 6.16455,7.83177 3.20322,-1.28168 7.64663,-1.63471 20.57508,-1.63471 15.07058,0 16.63221,-0.1666 18.14727,-1.93607 1.4721,-1.71929 2.71986,-1.89291 11.14334,-1.55055 7.16181,0.29108 9.99257,0.0304 11.555,-1.06393 C 818.80144,205.45078 822.1748,205 828.22251,205 833.4075,205 837,204.59071 837,204 c 0,-0.55165 -2.80217,-1.03509 -6.25,-1.07826 -3.4375,-0.043 -13.45,-0.48178 -22.25,-0.97497 -8.8,-0.49319 -24.02665,-1.02047 -33.837,-1.17174 -17.12606,-0.26407 -17.90967,-0.36471 -19.66029,-2.52503 -1.00281,-1.2375 -2.35116,-2.25 -2.99634,-2.25 -2.22919,0 -0.33704,-2.50788 3.57137,-4.73355 3.60915,-2.05525 5.21294,-2.23486 20.09047,-2.25 C 792.61146,188.99921 795,188.67507 795,186.39301 795,185.28721 797.2558,185 805.94098,185 c 6.2153,0 11.20793,-0.43192 11.55902,-1 0.33992,-0.55 4.75398,-1.00689 9.80902,-1.01531 5.05504,-0.008 9.86598,-0.45153 10.69098,-0.98469 1.60863,-1.03958 1.63451,-1.03421 -8,-1.65838 -2.475,-0.16035 -21.22414,-0.5469 -41.66476,-0.859 -26.98885,-0.41209 -37.35504,-0.2596 -37.8597,0.55695 C 749.42435,181.74044 744,176.07874 744,173.28068 c 0,-2.70379 3.72514,-4.67476 5.75055,-3.04261 0.86948,0.70065 2.75434,0.36083 6.18539,-1.11516 C 760.25957,167.26293 762.78835,167 776.35359,167 792.61074,167 795,166.66595 795,164.39301 795,163.28721 797.2558,163 805.94098,163 c 6.2153,0 11.20793,-0.43192 11.55902,-1 0.33992,-0.55 4.64148,-1 9.55902,-1 9.22872,0 12.19508,-1.49942 4.69098,-2.37118 -2.3375,-0.27155 -11.675,-1.01547 -20.75,-1.65316 -15.03329,-1.05637 -19.62375,-1.88594 -33.73806,-6.09699 -2.35384,-0.70227 -4.40188,-0.57464 -7.5,0.46742 -2.34407,0.78842 -6.73694,1.95286 -9.76194,2.58763 -3.025,0.63478 -6.19152,1.69687 -7.03672,2.36021 -2.93219,2.3013 -6.08937,7.70566 -5.77714,9.88916 0.27063,1.89262 -0.16826,2.20337 -3.18614,2.25594 l -3.5,0.061 -0.26395,32.32601 c -0.24844,30.42571 -0.16026,32.30603 1.5,31.98608 1.50582,-0.29018 1.76395,-1.4837 1.76395,-8.15586 z m 0.0829,-25.52202 c -0.43077,-0.697 -0.51316,-1.53733 -0.18309,-1.86741 0.89497,-0.89496 1.87077,0.4213 1.38739,1.87145 -0.33872,1.01617 -0.57427,1.01538 -1.2043,-0.004 z m 4.6671,-8.85445 C 746.74873,189.74359 746.56585,187 748.03138,187 c 1.03152,0 2.5471,2.80238 1.84216,3.40622 -0.20545,0.17599 -0.93604,0.11908 -1.62354,-0.12646 z m -4.00945,-8.26619 c -1.95194,-3.12554 -1.5597,-4.25201 1.00945,-2.89905 2.618,1.37868 3.82417,2.95645 3.125,4.08773 -0.87701,1.41903 -2.86239,0.84822 -4.13445,-1.18868 z m -180.67336,43.75258 c 1.04471,-1.04472 1.25931,-17.05283 0.25806,-19.25033 -1.89255,-4.1537 0.56609,-8.16929 6.81055,-11.12339 3.79619,-1.79589 5.3642,-3.11024 5.3642,-4.49644 0,-1.07732 0.675,-2.21778 1.5,-2.53436 1.6225,-0.62261 2.06728,-4.893 0.60383,-5.79746 -0.4929,-0.30463 -0.75726,-2.24368 -0.58748,-4.30902 0.16978,-2.06533 0.6076,-8.93015 0.97294,-15.25515 0.36533,-6.325 0.91847,-12.175 1.22921,-13 0.31073,-0.825 0.71649,-4.2 0.90168,-7.5 0.1852,-3.3 0.78112,-10.95 1.32429,-17 1.43424,-15.97519 1.73781,-34.907594 0.56923,-35.5 -0.54247,-0.275 -1.07637,0.175 -1.18645,1 -0.11008,0.825 -0.48132,3.6375 -0.82497,6.25 -0.65094,4.94849 -2.79472,6.82069 -2.29013,2 0.23271,-2.223243 -0.15893,-2.813279 -2.04462,-3.080358 -1.28285,-0.181696 -3.08285,0.326539 -4,1.129411 -0.91714,0.802873 -3.24253,2.258661 -5.16753,3.235087 -5.69057,2.88645 -18.41205,13.20053 -20.37015,16.51533 -1.54224,2.61081 -2.23448,2.97664 -4.63487,2.44943 -3.63688,-0.7988 -3.76002,-0.29032 -3.85159,15.90358 -0.0768,13.57993 0.22694,15.36499 2.31889,13.62883 2.50542,-2.07932 4.53772,-0.0758 4.53772,4.47344 0,3.69176 -0.78214,5.29039 -5.6025,11.45101 -5.04782,6.45134 -5.45676,7.32776 -4.13049,8.85224 2.04978,2.35611 1.37922,3.6236 -6.60288,12.48085 -4.61184,5.11749 -7.52624,7.5943 -8.49746,7.22161 -1.27551,-0.48945 -1.39209,1.13168 -0.85023,11.82294 0.69808,13.77349 1.51703,16.93417 4.88569,18.8558 3.20535,1.82846 37.73047,3.21153 39.36506,1.57695 z m -27.17863,-4.67092 c -7.60381,-4.63667 -9.84469,-13.6513 -4.63856,-18.66001 4.8969,-4.7112 10.72538,-6.73107 17.12062,-5.93321 4.81358,0.60054 6.17282,1.27329 9.37938,4.64226 2.0625,2.16697 3.75,4.62602 3.75,5.46456 0,2.81033 -5.13765,8.29882 -11.57257,12.36284 -7.14298,4.5112 -9.53094,4.87241 -14.03887,2.12356 z m 33.69039,-59.67856 c 0.048,-1.16495 0.28494,-1.4019 0.60416,-0.60417 0.28887,0.72187 0.25335,1.58437 -0.0789,1.91667 -0.33229,0.33229 -0.56864,-0.25834 -0.52522,-1.3125 z M 570,151.5 c 0,-0.825 0.45,-1.5 1,-1.5 0.55,0 1,0.675 1,1.5 0,0.825 -0.45,1.5 -1,1.5 -0.55,0 -1,-0.675 -1,-1.5 z m 1.58295,-3.36579 c -0.43077,-0.697 -0.51316,-1.53733 -0.18309,-1.86741 0.89497,-0.89496 1.87077,0.4213 1.38739,1.87145 -0.33872,1.01617 -0.57427,1.01538 -1.2043,-0.004 z m 0.22955,-5.81732 c 0.72187,-0.28887 1.58438,-0.25335 1.91667,0.0789 0.33229,0.33229 -0.25834,0.56864 -1.3125,0.52522 -1.16495,-0.048 -1.4019,-0.28494 -0.60417,-0.60416 z M 570,137 c 0,-0.55 0.64468,-1 1.43261,-1 0.78794,0 1.73264,-0.9453 2.09934,-2.10066 0.43669,-1.37589 1.0058,-1.76159 1.64949,-1.1179 C 576.54118,134.14118 574.01083,138 571.75945,138 570.79175,138 570,137.55 570,137 Z m 0.36009,-7.05045 c 0.36502,-1.82508 1.33332,-4.05828 2.15179,-4.96267 2.07892,-2.29719 2.04976,-4.69789 -0.0361,-2.96682 -1.96616,1.63177 -2.8875,0.6993 -1.65272,-1.67268 0.52893,-1.01606 1.45046,-3.08488 2.04785,-4.59738 0.71523,-1.81085 1.82063,-2.75 3.23681,-2.75 2.06558,0 2.12378,0.28679 1.47129,7.25 -0.37365,3.9875 -0.91212,8.0375 -1.1966,9 C 575.653,131.71804 574,131.42895 574,128.83333 c 0,-2.77481 -1.23241,-1.6161 -1.38502,1.30219 -0.0632,1.20936 -0.74578,2.40887 -1.51677,2.66558 -1.0964,0.36507 -1.2572,-0.25613 -0.73812,-2.85155 z m 7.18262,-18.88045 c -0.31644,-0.512 -0.11799,-1.21356 0.44098,-1.55902 0.55897,-0.34546 1.01631,0.0734 1.01631,0.9309 0,1.75653 -0.60006,2.01516 -1.45729,0.62812 z m -2.62305,-1.3191 c -0.0442,-0.1375 -0.19966,-2.6125 -0.3455,-5.5 -0.27226,-5.390496 1.04194,-7.431915 1.60942,-2.5 0.17796,1.54669 0.86338,2.64061 1.56642,2.5 1.87888,-0.37578 1.50465,1.49535 -0.75,3.75 -1.1,1.1 -2.03615,1.8875 -2.08034,1.75 z M 746.1038,220.7038 c -1.28349,-1.28349 -2.58505,-0.2915 -1.63484,1.24598 0.36808,0.59556 1.12735,0.79971 1.68727,0.45366 0.683,-0.42212 0.66575,-0.98146 -0.0524,-1.69964 z m -304.68806,-8.84014 c -0.46919,-0.75916 -0.98781,-0.59282 -1.60824,0.51584 -0.50366,0.89999 -0.60412,2.14056 -0.22324,2.75684 0.46919,0.75916 0.98781,0.59282 1.60824,-0.51584 0.50366,-0.89999 0.60412,-2.14056 0.22324,-2.75684 z m -9.55871,-2.13609 c 1.92614,-5.07617 0.62137,-5.9466 -2.93967,-1.9611 -3.54214,3.96433 -3.83793,6.50557 -0.70456,6.05308 1.50399,-0.21719 2.67132,-1.52794 3.64423,-4.09198 z M 200.66417,204.56722 C 200.3334,203.70525 199.59865,203 199.03138,203 c -1.1505,0 -1.41332,3.28473 -0.34805,4.35 1.09781,1.0978 2.63907,-1.06745 1.98084,-2.78278 z M 660.8,197.8 c 0.84494,-0.84494 1.2,-6.55586 1.2,-19.30136 0,-16.17716 0.25665,-18.98414 2.41437,-26.4059 1.49692,-5.14887 3.39689,-9.33008 5,-11.00336 C 673.2305,137.10619 672.7419,136 667.16639,136 c -4.19688,0 -5.36856,0.49399 -8.89462,3.75 -6.03745,5.57508 -6.65962,8.93338 -6.34479,34.24731 0.14705,11.82352 0.68947,22.28602 1.20538,23.25 1.08049,2.01892 5.85711,2.36322 7.66764,0.55269 z m 37.33922,-29.71392 c 1.29843,-1.05266 2.03732,-2.23861 1.64199,-2.63546 -0.86035,-0.86363 -5.78121,2.17716 -5.78121,3.57243 0,1.51311 1.54983,1.16228 4.13922,-0.93697 z M 896.7277,160.2702 c -2.07477,-0.21647 -5.22477,-0.21284 -7,0.008 -1.77524,0.22091 -0.0777,0.39803 3.7723,0.39359 3.85,-0.004 5.30246,-0.18518 3.2277,-0.40166 z M 806.45,126.89374 c 1.60338,-1.50843 -0.55037,-2.52099 -8.12207,-3.8185 -5.56361,-0.95339 -7.67136,-0.96181 -9.39837,-0.0375 -1.48812,0.79642 -4.46739,0.97065 -8.98522,0.52547 -6.23553,-0.61443 -6.87901,-0.49453 -8.30992,1.54838 -0.85306,1.21791 -1.36945,2.50817 -1.14753,2.86724 0.60634,0.98107 34.86564,-0.0526 35.96311,-1.08505 z m -515.68131,-3.79475 c 1.17965,-1.59555 7.67677,-6.38866 14.43806,-10.65134 6.76129,-4.26268 14.54325,-9.18187 17.29325,-10.93154 2.75,-1.749659 9.5,-6.036899 15,-9.527194 C 343,88.49862 350.425,83.768043 354,81.476523 372.20231,69.80912 378.78264,66 380.73598,66 c 2.40923,0 3.82709,-1.533972 2.29377,-2.481615 -1.70691,-1.054924 -7.98646,1.212554 -13.37953,4.831201 -5.18153,3.47671 -21.60564,13.900632 -57.65022,36.588974 -18.39864,11.58106 -25,16.80239 -25,19.77367 0,2.11047 1.48589,1.47441 3.76869,-1.61324 z M 133.2653,101.5 C 182.12211,70.468559 189.40863,66 191.15229,66 c 0.95132,0 2.00779,-0.45 2.34771,-1 1.34002,-2.1682 -5.3854,-0.851549 -9.57856,1.875217 C 181.48965,68.456586 171.4,74.827476 161.5,81.03275 151.6,87.238025 139.225,95.083604 134,98.467372 128.775,101.85114 119.62002,107.72577 113.6556,111.52212 103.53774,117.96212 99,121.90337 99,124.25122 c 0,0.53983 1.6875,-0.53336 3.75,-2.38486 2.0625,-1.8515 15.79438,-11.01636 30.5153,-20.36636 z m 32.4988,20.49874 c 1.50474,-1.6507 9.9359,-7.48355 18.7359,-12.96189 8.8,-5.47834 22.19793,-13.915276 29.77319,-18.748738 7.57525,-4.833461 16.57525,-10.555431 20,-12.715488 3.42474,-2.160056 8.57,-5.453499 11.43391,-7.318762 2.8639,-1.865262 6.81292,-3.834776 8.7756,-4.376696 4.54136,-1.25393 3.69637,-2.932467 -0.94883,-1.884804 -3.77802,0.852081 -5.88983,2.04564 -24.28803,13.727145 -16.78092,10.654651 -48.13305,30.607493 -57.27492,36.450403 -4.141,2.64666 -8.32894,6.16616 -9.30654,7.8211 -2.29793,3.89009 -0.44359,3.89471 3.09972,0.008 z m 62.14676,0.59614 c 1.24272,-1.32281 6.05722,-4.81031 10.69888,-7.75 C 243.25139,111.9052 252.63837,105.9 259.46967,101.5 266.30098,97.1 274.50243,91.860647 277.69511,89.856992 280.8878,87.853338 290.25,81.884068 298.5,76.591947 c 8.25,-5.29212 16.125,-9.877852 17.5,-10.190515 4.40765,-1.00226 5.13835,-1.368557 4.56871,-2.29026 -0.65293,-1.056456 -6.05141,0.0064 -9.55427,1.881099 -2.28325,1.221957 -32.31131,20.081304 -52.51444,32.982081 -27.30932,17.438458 -31.70356,20.518598 -33.08575,23.191478 -1.79208,3.46549 -0.5556,3.67798 2.49661,0.42905 z M 729.5,95 c 0.33992,-0.55 -0.28197,-1 -1.38197,-1 -1.1,0 -2.27811,0.45 -2.61803,1 -0.33992,0.55 0.28197,1 1.38197,1 1.1,0 2.27811,-0.45 2.61803,-1 z M 865.26903,72.344063 c -0.67703,-0.273923 -2.02703,-0.290597 -3,-0.03705 -0.97297,0.253544 -0.41903,0.477663 1.23097,0.498042 1.65,0.02038 2.44606,-0.187065 1.76903,-0.460988 z M 584.55,53.188797 c 3.20083,-2.733184 30.49887,-18.119238 33.09641,-18.6542 5.32151,-1.095965 9.32767,1.414132 14.85359,9.306651 2.75,3.927752 5.7875,7.400604 6.75,7.717448 C 644.90499,53.420253 638.50506,54 612.3,54 596.515,54 584.0275,53.634959 584.55,53.188797 Z M 225.28269,48 c -4.54811,-0.315084 -7.75033,-1.054748 -8.65857,-2 -1.0705,-1.114132 -1.52909,-4.972808 -1.78269,-15 L 214.5,17.5 222,17.218513 c 5.35407,-0.200946 7.83494,-0.72529 8.67062,-1.832575 1.04146,-1.379941 1.28094,-1.344966 2.17038,0.316968 0.95487,1.784182 2.83299,1.855895 41.82938,1.597188 C 297.12667,17.151116 316.175,16.939982 317,16.830908 c 0.825,-0.109074 7.86646,0.13865 15.64769,0.550497 14.04485,0.743371 14.1597,0.731986 15.79949,-1.566295 1.47515,-2.067533 1.78018,-2.144694 2.85231,-0.721542 0.94393,1.252977 4.11363,1.744241 14.83054,2.298544 14.12555,0.730605 15.55926,0.428626 17.2068,-3.624255 0.36484,-0.89751 1.04816,-0.646864 2.33928,0.858073 1.611,1.877788 3.25096,2.197638 14.05016,2.740282 l 12.22627,0.614352 3.51276,-3.08424 3.51276,-3.084241 0.92817,2.441276 c 0.89219,2.346649 1.38682,2.464789 12.76097,3.047886 l 11.8328,0.60661 4.16348,-2.953927 c 4.99502,-3.543897 5.11152,-3.558761 5.51697,-0.703928 0.30411,2.141294 0.87516,2.280351 11.81955,2.878206 11.91487,0.650869 13.64316,0.314097 17.79199,-3.46693 l 2.29199,-2.088797 2.20801,2.624401 c 2.06499,2.454406 2.87655,2.652942 12.529,3.065016 10.02175,0.42784 10.44217,0.358471 14.5,-2.392443 5.14448,-3.487577 6.05588,-3.532491 7.49706,-0.369453 1.07989,2.370111 1.5948,2.508232 9.91051,2.658444 11.89703,0.214903 11.96264,0.203114 17.36433,-3.120583 4.9063,-3.018876 5.76349,-2.874975 7.22049,1.212139 0.52736,1.479337 1.93046,1.75 9.0719,1.75 5.71994,0 8.57828,0.390687 8.85133,1.209826 0.2218,0.665404 -0.18367,3.702904 -0.90105,6.75 -0.71737,3.047096 -1.31135,7.257258 -1.31994,9.355915 -0.0334,8.157607 1.93814,7.716243 -34.3083,7.680545 C 520.99329,41.978841 477.925,42.09774 443,42.260507 l -63.5,0.295939 -7,2.885396 -7,2.885396 -66.5,0.08638 C 262.425,48.461129 229.25221,48.275 225.28269,48 Z m 448.10593,0.180222 c 0.27865,-0.450878 3.04558,-1.682787 6.14871,-2.737575 5.56732,-1.892388 5.66075,-1.892244 7.05237,0.01091 C 687.36536,46.514342 688,47.746251 688,48.19113 688,48.636008 684.59844,49 680.44098,49 c -4.15746,0 -7.33102,-0.3689 -7.05236,-0.819778 z"
     style="fill:#cfd0d1" />
  <path
     inkscape:connector-curvature="0"
     id="path6664"
     d="m 152,543.21741 c -8.67514,-0.44572 -20.09797,-4.65074 -24.46817,-9.00732 -3.39623,-3.38564 -3.53849,-3.73804 -1.62676,-4.02964 2.49528,-0.38062 2.44448,0.0617 0.59493,-5.18045 -4.32912,-12.27002 -0.326,-20.85884 29.36336,-63 7.94349,-11.275 25.99638,-36.7 40.11754,-56.5 50.74695,-71.15487 56.26057,-79.10617 59.98122,-86.5 7.9982,-15.89438 8.0671,-36.67987 0.19993,-60.31417 C 252.85201,248.74194 250.02588,245 245.82569,245 c -3.48572,0 -3.66189,1.88342 -0.80056,8.55863 2.48073,5.78731 1.8581,7.08634 -0.85713,1.78828 -3.01716,-5.88718 -15.95779,-17.91599 -20.70121,-19.24256 C 221.28505,235.4942 211.625,234.53112 202,233.96417 c -22.331,-1.31537 -24.73726,-1.67652 -22.89228,-3.43577 0.76575,-0.73017 12.45113,-7.67277 25.96751,-15.42799 L 229.65046,201 l 65.42477,-0.002 65.42477,-0.002 28,-4.04114 c 15.4,-2.22263 29.35,-4.43116 31,-4.90786 3.91778,-1.13186 15.77195,-1.06343 -186.58753,-1.07723 -134.978013,-0.009 -172.925477,-0.2796 -174.138334,-1.24082 -1.097018,-0.86941 -2.365469,-6.86012 -4.334931,-20.47324 C 52.907933,158.67139 51.874989,149.79159 52.143774,149.5228 52.565027,149.10155 450.95932,148.68756 491,149.06676 c 10.0917,0.0956 13.58794,0.40308 11.5,1.01146 -3.64492,1.06204 -100.71353,5.70886 -145,6.94137 -33.58973,0.93481 -44.67811,1.60562 -49.2433,2.97906 -3.81633,1.14814 15.95603,1.13795 36.7433,-0.0189 9.075,-0.50506 30.45,-1.37287 47.5,-1.92847 17.05,-0.55559 37.075,-1.22624 44.5,-1.49033 7.425,-0.26409 23.625,-0.76417 36,-1.1113 12.375,-0.34712 31.05,-0.98759 41.5,-1.42327 12.36658,-0.51557 19.43402,-0.44314 20.24315,0.20748 2.41557,1.94236 -1.29178,15.40264 -5.53134,20.08269 -0.9415,1.03931 -2.61364,4.60662 -3.71589,7.92736 -1.91229,5.76117 -2.20999,6.09977 -6.5,7.39289 -3.27542,0.98729 -10.96704,1.33475 -28.33334,1.27992 -13.11058,-0.0414 -24.07413,0.16146 -24.36345,0.45078 -0.6769,0.67689 10.54967,7.88666 22.70087,14.57863 5.225,2.87754 14.225,8.11513 20,11.63909 16.68461,10.1811 14.99744,9.71297 36.76588,10.20119 14.95118,0.33532 19.6204,0.13785 20.84891,-0.88172 1.31879,-1.09449 1.5248,-3.27171 1.23413,-13.04261 l -0.34892,-11.7288 2.93709,-3.06666 c 2.8884,-3.01582 6.8489,-4.03096 8.06291,-2.06666 0.33992,0.55 2.27898,1.0029 4.30902,1.00644 4.00014,0.007 20.9379,5.32217 47.55612,14.92344 17.9362,6.46964 24.63486,8.14147 24.63486,6.14827 0,-0.64761 -0.69339,-2.51834 -1.54087,-4.15718 -2.17407,-4.20419 -0.9666,-5.39772 2.98808,-2.95359 1.84745,1.14178 5.01317,2.03262 7.22319,2.03262 3.15334,0 5.21425,0.96364 10.38197,4.8544 4.89316,3.68405 10.18455,6.25305 21.94763,10.65568 l 15.5,5.80128 15.94023,0.46864 c 13.70001,0.40277 15.68073,0.65838 14.09382,1.81876 -1.01553,0.74257 -4.18022,2.02858 -7.03265,2.85781 -2.85242,0.82922 -6.34062,2.41572 -7.75154,3.52555 -1.41093,1.10984 -3.39434,2.03617 -4.40759,2.05852 -1.44211,0.0318 -1.08203,0.69926 1.65773,3.07279 7.35439,6.37132 5.80219,6.1627 49.73198,6.68397 42.62763,0.50583 43.26802,0.44527 43.26802,-4.0911 0,-1.12685 0.65354,-2.77097 1.45231,-3.6536 1.30624,-1.44338 0.82847,-1.83196 -4.75,-3.86335 -8.45604,-3.07925 -10.18753,-5.60358 -9.92049,-14.46303 0.11331,-3.75929 0.67957,-7.71991 1.25834,-8.80137 0.57878,-1.08145 0.81434,-2.35135 0.52347,-2.82199 -0.43183,-0.69872 -8.84166,-0.7265 -22.06363,-0.0729 -1.1,0.0544 -4.29689,-0.20609 -7.10419,-0.57882 -3.15815,-0.41931 -5.90052,-0.25151 -7.19285,0.44013 -1.38373,0.74055 -2.86733,0.80025 -4.39581,0.17688 -1.26893,-0.51751 -4.05868,-1.22698 -6.19943,-1.5766 -3.64266,-0.5949 -3.78476,-0.74328 -2.21565,-2.31367 1.4882,-1.48941 6.01314,-1.74941 40.26339,-2.31345 l 38.58675,-0.63547 2.1289,-2.56784 2.12889,-2.56785 35,-0.24233 35,-0.24234 0.30149,4.07273 c 0.18833,2.54409 -0.23269,4.6069 -1.12172,5.49594 -1.10735,1.10734 -1.52864,6.07284 -1.89818,22.37292 -0.43637,19.24748 -0.67024,21.41906 -2.87828,26.72627 -2.99072,7.18847 -9.24199,13.5504 -14.51718,14.77418 -2.13737,0.49585 -6.81113,0.91714 -10.38613,0.93622 -3.575,0.0191 -8.70902,0.70481 -11.40893,1.52385 -3.691,1.11971 -10.2216,1.48918 -26.32193,1.48918 -21.26848,0 -21.44301,0.0176 -25.85975,2.60597 l -4.44674,2.60596 -32.47839,-1.16679 c -17.86312,-0.64174 -32.92971,-0.88787 -33.48133,-0.54695 -0.55161,0.34091 -1.00293,3.75452 -1.00293,7.58579 0,5.97059 0.50011,7.95903 3.5,13.91602 3.38151,6.71478 4.50747,12 2.55646,12 -0.96938,0 -4.48928,-4.08835 -10.33152,-12 -3.85482,-5.22026 -5.92181,-5.83335 -22.47494,-6.66628 L 707,300.8179 l -0.0997,-6.15897 c -0.0548,-3.38744 -0.40256,-7.24139 -0.77274,-8.56434 -0.6969,-2.49054 -1.03046,-2.73559 -7.52203,-5.52601 C 694.02274,278.59869 684.95018,271.77277 680,266.57036 676.07534,262.44573 670.14812,259 666.97774,259 c -1.15607,0 -4.2115,-0.64496 -6.78984,-1.43324 -2.57835,-0.78828 -9.1879,-2.40482 -14.6879,-3.59232 -5.5,-1.18749 -11.01656,-2.55973 -12.25902,-3.04943 -1.24246,-0.48969 -7.99246,-1.13511 -15,-1.43426 -7.00754,-0.29915 -13.96363,-1.03039 -15.45799,-1.62498 -3.35499,-1.33493 -11.8935,0.46342 -14.07366,2.96414 -0.8008,0.91855 -1.74463,3.24509 -2.09738,5.17009 -0.91123,4.97259 -1.64704,5.77312 -6.2588,6.80932 -3.00612,0.67543 -5.13061,0.53956 -7.9754,-0.51005 -2.13276,-0.7869 -4.60768,-1.66357 -5.49981,-1.94817 -1.24375,-0.39677 -2.39639,1.30944 -4.94218,7.31573 -2.91573,6.87906 -3.37186,9.16493 -3.74486,18.76684 -0.3613,9.30095 -0.86947,11.98888 -3.40301,18 -3.83113,9.08979 -4.29512,11.25023 -2.80244,13.0488 1.0554,1.27168 0.51602,1.26168 -3.98096,-0.0738 -2.86097,-0.84961 -5.35728,-1.38923 -5.54736,-1.19915 -1.14879,1.14878 -2.43668,19.32828 -1.86683,26.35146 l 0.67564,8.3269 -3.08394,3.08395 -3.08395,3.08394 L 469.79903,356.7779 404.5,356.5 393.61554,352.1216 c -9.99561,-4.02086 -11.37551,-4.32708 -16.89766,-3.7499 -7.01017,0.73271 -8.71788,1.83985 -8.71788,5.65197 0,2.12424 0.83788,3.27314 3.55716,4.87755 4.41959,2.60762 5.65842,2.62303 7.94284,0.0988 2.30576,-2.54784 6.67473,-2.5694 8.95999,-0.0442 1.72823,1.90967 1.69062,1.94344 -1.59501,1.43202 -3.12128,-0.48582 -3.57003,-0.19414 -6.19627,4.02756 -2.16458,3.47958 -3.71666,4.78973 -6.59119,5.56376 -5.87991,1.58329 -7.14249,3.57946 -5.91228,9.3475 0.98255,4.60689 0.86867,5.079 -2.56855,10.64773 -6.19806,10.04165 -4.17068,10.15481 6.41122,0.35783 6.03926,-5.59129 13.59765,-16.11178 17.12212,-23.83219 1.00432,-2.2 1.83593,-3.363 1.84801,-2.58443 0.0533,3.43508 -18.29211,35.58888 -21.50724,37.69552 -4.74499,3.10903 -9.4708,-1.46269 -9.4708,-9.162 0,-2.89923 -0.62768,-3.83609 -4.11731,-6.14542 l -4.1173,-2.7247 -2.6327,3.10052 C 344.1123,392.592 334,409.74444 334,412.34749 c 0,1.87484 -0.83205,3.03142 -2.97981,4.14207 -3.75853,1.94361 -13.2287,15.83944 -13.97662,20.50826 -0.38759,2.41949 -1.29043,3.81133 -2.92044,4.50218 -1.29767,0.55 -4.55624,4.24218 -7.24127,8.20484 -4.69065,6.92265 -5.74205,9.28922 -4.13186,9.30034 0.75799,0.005 15.29287,-4.40523 27.25,-8.26872 6.24426,-2.0176 9.31318,-2.13288 78,-2.93014 97.36331,-1.1301 154.25262,-1.55195 241.52671,-1.79098 49.86464,-0.13658 81.19872,-0.65723 96,-1.59517 24.1124,-1.52798 63.08631,-3.39906 85.01297,-4.08135 8.67796,-0.27003 20.13488,0.16284 30,1.13346 8.77817,0.86369 27.88532,2.65762 42.46032,3.98652 26.64049,2.42899 43.51361,4.63004 49.9934,6.52148 1.92137,0.56085 6.89912,1.01972 11.06166,1.01972 7.66327,0 20.69143,2.7833 26.08601,5.57295 1.55757,0.80545 4.41301,2.85265 6.34543,4.54934 5.1667,4.53643 4.8126,7.60378 -1.4865,12.87771 -2.75,2.30243 -5,4.80368 -5,5.55832 0,1.94133 -5.76347,8.268 -9.10714,9.99708 -1.54563,0.79928 -6.31633,1.94026 -10.60155,2.5355 -4.28522,0.59525 -18.59131,3.80794 -31.79131,7.13931 -17.86158,4.50785 -26.55768,6.21214 -34,6.66342 -11.30283,0.68537 -41.19416,-0.31484 -52.5,-1.75674 -26.98165,-3.44111 -31.57477,-3.61674 -47.82033,-1.82854 -20.63267,2.27111 -113.8827,2.45182 -135.17967,0.26197 -14.05683,-1.44538 -17.39883,-2.294 -22.03498,-5.59523 -3.76973,-2.68428 -4.90372,-2.54356 -14.30302,1.77491 L 624.5,504.5 H 566 c -32.175,0 -63.75477,-0.40158 -70.17727,-0.89241 l -11.67728,-0.89241 -4.46028,2.95438 c -3.26564,2.16306 -7.13434,3.445 -14.44398,4.78619 -8.86003,1.62565 -11.2231,1.69495 -20.99572,0.61577 -11.59726,-1.28067 -17.46875,-0.75169 -26.25201,2.36509 -5.77206,2.04825 -25.17154,5.68405 -50.56105,9.47603 -11.03718,1.64842 -22.06218,3.44345 -24.5,3.98896 -2.43783,0.5455 -10.81923,1.93566 -18.62534,3.08923 -7.97698,1.17882 -18.05008,3.41717 -23,5.11084 -21.0931,7.21725 -20.68508,7.17985 -85.30707,7.81938 -32.175,0.31842 -60.975,0.45179 -64,0.29636 z m 151,-46.60687 c 5.225,-0.78708 13.775,-1.9714 19,-2.63183 9.91138,-1.25277 21.87578,-3.52115 22.64868,-4.29406 0.24707,-0.24706 -8.46032,-0.68064 -19.34974,-0.9635 -14.08362,-0.36584 -21.48329,-0.99255 -25.63383,-2.17107 -3.20919,-0.91123 -7.70919,-1.52027 -10,-1.35343 -3.90151,0.28415 -4.25649,0.56768 -5.60902,4.48005 -1.17082,3.38675 -1.2109,4.68812 -0.21189,6.8807 1.37493,3.01764 -0.48958,3.01246 19.1558,0.0531 z m 299.25689,-6.77315 c 2.61629,-0.55334 4.50223,-1.41812 4.19098,-1.92173 -0.95493,-1.54512 -17.79702,-1.11333 -20.00674,0.51292 -1.60166,1.17874 -1.6788,1.51466 -0.44113,1.92077 0.825,0.27071 2.175,0.73167 3,1.02437 1.58655,0.56288 5.44654,0.11555 13.25689,-1.53633 z M 360.29832,367.96724 c 0.60683,-2.32053 -1.08443,-2.57534 -3.81944,-0.57545 -1.62366,1.18725 -1.70573,1.62994 -0.55845,3.01233 1.55244,1.87058 3.54091,0.76373 4.37789,-2.43688 z m 118.47647,-19.1011 c 38.19247,-0.13041 53.71832,-0.50622 54.84146,-1.32749 1.32356,-0.9678 1.39051,-1.79982 0.43146,-5.36148 -1.24376,-4.61897 -0.10408,-22.39739 2.44732,-38.17717 2.23606,-13.82941 5.73649,-46.9543 5.1291,-48.53712 -1.84968,-4.8202 -5.45701,2.51907 -11.07722,22.53712 -3.52636,12.56018 -6.80626,21 -8.16107,21 -0.31543,0 -0.28715,-2.1375 0.0629,-4.75 1.62848,-12.15537 4.27486,-44.24534 3.83749,-46.5333 -0.26903,-1.40731 -1.49191,-3.5008 -2.71753,-4.65221 -2.17703,-2.04521 -2.95254,-2.08736 -33.64852,-1.82898 L 458.5,241.5 l -0.29516,3.00602 c -0.16234,1.65331 0.36574,6.81447 1.17351,11.46925 0.80778,4.65477 1.25463,8.80956 0.99302,9.23286 -0.26162,0.4233 -1.51379,0.0894 -2.78261,-0.74193 -1.26882,-0.83136 -2.93286,-1.31395 -3.69786,-1.07241 -0.76499,0.24154 -2.63831,0.71281 -4.16293,1.04727 -2.3627,0.51831 -2.62111,0.89009 -1.75,2.51778 1.46339,2.73437 1.26051,8.33276 -0.38345,10.58101 -1.32306,1.8094 -1.37631,1.76949 -0.90796,-0.68053 0.62841,-3.2873 -2.18463,-8.8637 -4.46224,-8.84567 -3.87273,0.0307 -6.39419,1.40584 -8.00066,4.36345 l -1.69624,3.1229 -0.33013,-2.75 c -0.27426,-2.28455 -0.81591,-2.75 -3.20024,-2.75 -2.42934,0 -3.30218,0.79624 -5.68358,5.18477 -1.54741,2.85162 -3.41967,5.37868 -4.16058,5.6157 -1.06275,0.33997 -1.11552,-0.002 -0.25,-1.61903 1.61843,-3.02405 1.33707,-6.66354 -0.71063,-9.19234 -1.47238,-1.81831 -2.39973,-2.10244 -4.99876,-1.5316 -5.70695,1.25346 -7.7771,6.98231 -4.67355,12.93338 1.23255,2.36343 1.29054,3.49121 0.31781,6.18123 -1.05371,2.91399 -0.92813,3.66998 1.09785,6.60912 3.32538,4.82422 10.28927,8.8186 15.37619,8.81955 2.30351,4.3e-4 9.04199,-0.96592 14.97439,-2.14744 14.00571,-2.78944 16.2238,-2.18044 26.38983,7.24563 7.28912,6.75856 20.19596,16.25153 25.16276,18.5072 1.51274,0.687 2.01259,1.36765 1.31913,1.79624 -1.399,0.86462 -3.94259,-0.45012 -12.15791,-6.28422 -10.13269,-7.19573 -11.42703,-8.21018 -18.97032,-14.86819 -8.23793,-7.27112 -9.65051,-7.52174 -24.67244,-4.37736 -16.55566,3.46543 -21.84568,0.89535 -41.89439,-20.35371 C 388.44747,275.08352 382.32904,269 381.86635,269 c -1.55653,0 -6.24193,8.44303 -8.6016,15.5 -2.41356,7.2181 -4.23542,27.4964 -2.93563,32.67516 0.34082,1.35794 2.31869,3.71126 4.39527,5.22961 l 3.77561,2.76062 -3.32044,-0.67762 c -3.27519,-0.66839 -3.31607,-0.63205 -3,2.6673 0.3042,3.17536 0.55548,3.37197 4.95696,3.87831 2.55009,0.29335 5.25009,1.01586 6,1.60556 0.74991,0.58971 2.48848,1.33677 3.86348,1.66014 2.19142,0.51537 2.00627,0.15103 -1.5,-2.9518 -3.94413,-3.4903 -3.95314,-3.51396 -0.64536,-1.69351 1.84504,1.01543 4.15981,2.85873 5.14392,4.09623 0.9841,1.2375 2.10354,2.25 2.48763,2.25 0.38409,0 1.86894,0.92079 3.29967,2.0462 1.43072,1.12541 3.5267,1.97559 4.65773,1.88931 1.13102,-0.0863 2.95641,-0.0911 4.05641,-0.0108 1.85064,0.13522 1.82394,0.24376 -0.35761,1.45347 l -2.35761,1.30734 2.67009,2.10029 c 2.43888,1.91843 5.71757,3.275 11.04513,4.56998 1.1,0.26738 3.8,0.30751 6,0.0892 2.2,-0.21833 27.97365,-0.47882 57.27479,-0.57886 z m 10.46038,-7.57382 C 485.03177,340.48441 488.07454,339 493.93402,339 c 7.1139,0 12.21941,0.94273 11.49073,2.12175 -0.54154,0.87624 -11.89576,0.99587 -16.18958,0.17057 z m 248.94045,-59.11261 c 1.41105,-0.57239 1.47131,-0.95778 0.38165,-2.4408 -1.31622,-1.79136 -1.97882,-1.45491 -3.96059,2.01109 -0.775,1.35543 0.82369,1.54738 3.57894,0.42971 z M 770.5,282 c -0.33992,-0.55 -1.04148,-1 -1.55902,-1 -0.51754,0 -0.94098,0.45 -0.94098,1 0,0.55 0.70156,1 1.55902,1 0.85746,0 1.2809,-0.45 0.94098,-1 z M 419.02111,255.96056 c 2.72676,-5.095 -0.66377,-11.76903 -5.37783,-10.58588 -6.42386,1.61229 -8.56864,7.79086 -4.21556,12.14395 2.13903,2.13903 2.79558,2.29949 5.52111,1.34936 1.70136,-0.5931 3.53389,-1.90144 4.07228,-2.90743 z m 22.36589,3.0824 c 3.02206,-1.14898 5.95789,-6.38096 5.09902,-9.08702 C 444.00719,242.14585 434,244.18484 434,252.5 c 0,2.16667 0.7619,4.2619 2,5.5 2.32189,2.32189 2.12396,2.28357 5.387,1.04296 z M 830.17139,250 c 0.37607,-3.94342 0.33428,-4 -2.95398,-4 -2.16256,0 -3.09739,0.38517 -2.65848,1.09535 1.17323,1.89832 -1.68892,5.99817 -3.7342,5.34902 C 819.82113,252.12584 819,252.34555 819,252.93261 819,253.55723 821.23792,254 824.39496,254 h 5.39497 z M 450,238.27677 c 1.92535,-0.75853 -2.9732,-1.99551 -8.54768,-2.15846 -2.97273,-0.0869 -5.42085,-1.11422 -9.2182,-3.86831 -2.84378,-2.0625 -5.03814,-4.2 -4.87636,-4.75 0.16177,-0.55 1.91195,-1.40819 3.88928,-1.90709 2.88873,-0.72885 4.61118,-0.47 8.76602,1.31736 5.11918,2.20221 5.22157,2.20628 10.24281,0.40709 5.43175,-1.94629 7.84779,-4.77409 9.93667,-11.63017 1.04952,-3.44471 0.89588,-4.33773 -1.59143,-9.25 C 456.70485,202.6922 455.24921,201 453.924,201 c -2.46675,0 -2.4275,0.83514 0.16916,3.59916 3.00686,3.20066 3.05594,8.45698 0.0931,9.96849 -1.27258,0.6492 -3.52258,2.30708 -5,3.68417 -5.79172,5.3984 -9.16329,5.95499 -12.73398,2.10216 -3.82706,-4.12947 -3.0167,-11.97407 1.76416,-17.07788 1.86304,-1.98889 1.9086,-2.2909 0.43115,-2.85785 -3.25791,-1.25018 -6.74294,0.69148 -10.91182,6.07942 l -4.21467,5.44713 0.3312,10.39986 c 0.33593,10.54847 -0.92912,15.84762 -4.03001,16.88125 -0.6709,0.22364 5.50713,0.23453 13.72896,0.0242 8.22183,-0.21032 15.62378,-0.64833 16.44878,-0.97336 z m 65.81312,0.44841 c 1.39179,-1.67701 -3.63383,-5.12907 -9.81312,-6.74055 -2.6715,-0.69669 -7.75066,-3.62511 -12.5,-7.20694 -8.27697,-6.2423 -10.95399,-7.68233 -18.36792,-9.88056 -3.99867,-1.1856 -4.48662,-1.13275 -5.77207,0.6252 -0.77228,1.05616 -1.09438,2.60819 -0.71579,3.44898 0.37859,0.84078 0.72602,2.87869 0.77207,4.52869 0.0679,2.4331 -0.32439,3 -2.07593,3 -3.19095,0 -3.50901,0.74791 -2.75031,6.46727 0.52779,3.97868 1.18571,5.40108 2.79992,6.05335 1.16052,0.46893 12.29243,0.88113 24.73759,0.91599 17.18038,0.0481 22.88225,-0.2435 23.68556,-1.21143 z m 98.65587,-8.67501 c 0.83368,-1.34892 -1.86929,-2.51855 -10.46899,-4.53014 -4.125,-0.9649 -9.47432,-2.88183 -11.88739,-4.25986 -2.95314,-1.68645 -6.05871,-2.54713 -9.5,-2.63284 L 577.5,218.5 l -0.30647,3.6846 c -0.42399,5.09758 1.0851,5.67741 18.04928,6.93495 7.84146,0.58128 14.44469,1.24218 14.67386,1.46866 0.79264,0.78336 3.96756,0.40812 4.55232,-0.53804 z M 442.1529,215.56377 C 443.46077,212.6933 442.68506,210 440.55044,210 c -1.68193,0 -3.08518,4.1641 -2.18967,6.49776 0.85742,2.2344 2.537,1.82072 3.79213,-0.93399 z m 96.26229,5.01482 C 533.76729,218.55489 531,214.44333 531,209.56131 c 0,-3.4055 0.59518,-4.73258 3.25,-7.24652 4.14609,-3.9261 9.29045,-5.57182 14.70863,-4.70541 4.48478,0.71714 9.49887,4.20104 10.25985,7.12877 0.6802,2.61694 -5.15726,10.30555 -10.63828,14.01185 -5.37906,3.63735 -5.82607,3.71776 -10.16501,1.82859 z M 188.97525,209.4349 c -2.718,-7.14888 0.75061,-12.4349 8.15961,-12.4349 4.67791,0 7.86514,2.76911 7.86514,6.83333 0,4.17586 -1.06865,4.52691 -2.88972,0.94928 -1.99829,-3.92579 -3.64362,-4.52309 -5.07776,-1.84338 -0.80515,1.50443 -0.80264,2.6218 0.009,4.13891 1.71085,3.19676 0.47178,4.92186 -3.53519,4.92186 -2.89714,0 -3.73686,-0.47534 -4.53138,-2.5651 z m 462.1037,-5.01823 c 0.048,-1.16495 0.28494,-1.4019 0.60416,-0.60417 0.28887,0.72187 0.25335,1.58437 -0.0789,1.91667 -0.33229,0.33229 -0.56864,-0.25834 -0.52522,-1.3125 z M 864,201.94251 c -21.175,-0.36834 -45.1862,-1.02825 -53.35821,-1.46646 -13.97596,-0.74943 -14.9931,-0.94221 -17.12989,-3.24664 -2.02684,-2.18586 -2.79657,-2.37683 -7.14179,-1.77189 -2.67856,0.37291 -8.02011,0.63905 -11.87011,0.59143 -4.81949,-0.0596 -6.54177,0.21384 -5.52896,0.87786 0.80907,0.53044 1.13907,1.29641 0.73333,1.70215 -0.40574,0.40574 -1.23504,0.24037 -1.84289,-0.36748 -0.60786,-0.60786 -1.64641,-0.89751 -2.30789,-0.64367 C 764.34121,198.08304 755,194.50088 755,193.57072 c 0,-0.27519 1.0125,-1.07869 2.25,-1.78554 1.61205,-0.92079 10.8978,-1.49079 32.75,-2.01034 41.44445,-0.98537 46.67073,-1.40772 47.30224,-3.8226 0.47505,-1.81661 2.06837,-1.9139 35.64839,-2.17692 21.26157,-0.16653 35.52615,0.10006 36.10024,0.67468 1.26121,1.26237 1.22071,9.26412 -0.0509,10.05 -0.55,0.33992 -1,1.95261 -1,3.58377 0,2.26339 -0.60747,3.19669 -2.5651,3.94098 -1.4108,0.53639 -2.6483,0.888 -2.75,0.78136 -0.10169,-0.10664 -17.5099,-0.49526 -38.6849,-0.8636 z m -19,-22.06072 c -12.925,-0.44612 -25.975,-1.35121 -29,-2.0113 -3.025,-0.6601 -9.1,-1.09642 -13.5,-0.9696 -5.46485,0.1575 -9.17818,-0.26561 -11.71788,-1.33516 C 785.81071,173.4721 781,173.49239 781,175.60699 c 0,1.14191 -0.50647,1.39571 -1.75,0.87695 -5.91272,-2.46655 -16.17097,-2.78313 -14.73188,-0.45462 0.77076,1.24712 0.77855,1.24795 -5.33662,-0.56806 -5.7926,-1.72022 -6.3099,-2.6758 -2.72138,-5.02708 2.03293,-1.33203 7.63299,-1.77253 32.25,-2.5368 C 830.7062,166.59355 837,166.1492 837,164.48805 c 0,-1.69418 1.42077,-2.60878 5.41271,-3.48435 l 3.08729,-0.67715 -4,-1.20759 c -2.2,-0.66417 -9.175,-1.61471 -15.5,-2.11232 -12.48688,-0.98239 -15.38556,-1.6322 -21.73863,-4.8733 -2.82615,-1.44179 -6.05854,-2.1382 -9.97153,-2.14835 -3.28243,-0.008 -9.18851,-1.07072 -13.63766,-2.45276 -7.10905,-2.20827 -8.19163,-2.30933 -11.5,-1.07354 -8.18972,3.05914 -20.44556,6.54131 -23.0228,6.54131 -1.51092,0 -3.62063,0.66069 -4.68825,1.4682 -2.08446,1.5766 -9.98432,2.07995 -10.84283,0.69085 -0.46759,-0.75658 -9.12878,-3.26562 -15.5983,-4.51864 -1.375,-0.26631 -5.2,-1.17832 -8.5,-2.02669 -7.92474,-2.03729 -7.78755,-2.07045 -5.97054,1.44325 1.45994,2.82322 1.44279,3.3565 -0.22432,6.9742 -1.03452,2.24496 -2.51946,3.92825 -3.47841,3.94303 -0.92031,0.0142 -2.94531,1.08394 -4.5,2.37723 -5.21072,4.33457 -7.17697,4.97671 -9.8586,3.21964 -3.20014,-2.09681 -4.63063,-4.9814 -3.99233,-8.05055 0.28831,-1.38629 0.7353,-3.53302 0.99332,-4.77052 0.71174,-3.41367 7.31892,-8.17015 11.40924,-8.21346 4.57811,-0.0485 5.12583,-2.12557 0.7757,-2.94166 C 687.45197,141.80656 676,136.19331 676,134.92195 676,134.41488 673.34914,134 670.10919,134 c -5.14327,0 -6.50743,0.44483 -10.75,3.50539 -6.94591,5.01073 -6.68929,4.98858 -12.38704,1.06923 -2.895,-1.99141 -6.42511,-3.57462 -7.97041,-3.57462 -4.79234,0 -15.89989,-8.28647 -24.65095,-18.39015 -1.25426,-1.44813 -3.75272,-2.75739 -6,-3.14417 -4.32435,-0.74427 -13.34589,-6.29666 -13.34886,-8.21568 -0.002,-1.60979 2.17162,-1.57435 16.06165,0.2618 13.7509,1.81776 50.64125,5.37655 64.18642,6.19203 l 9.75,0.587 v -2.45429 c 0,-1.34985 0.59554,-3.26873 1.32342,-4.26416 1.15714,-1.58249 1.59688,-1.6391 3.5,-0.45058 2.99132,1.86811 2.75864,4.51529 -0.46806,5.32515 -2.04971,0.51444 -2.37611,0.93251 -1.45094,1.85841 0.82413,0.82478 6.05472,1.19464 16.89464,1.19464 14.39855,0 15.67657,-0.14516 15.4071,-1.75 -0.16161,-0.9625 0.17589,-1.75 0.75,-1.75 0.57411,0 1.04384,-0.675 1.04384,-1.5 0,-0.825 0.40186,-1.5 0.89301,-1.5 1.52842,0 2.20025,-3.18271 0.98174,-4.65091 -0.63786,-0.76858 -0.82873,-1.72405 -0.42416,-2.12326 0.91191,-0.899804 22.08034,-0.775769 37.75347,0.22122 l 11.70406,0.74451 1.1273,3.41576 c 0.62002,1.87867 0.97819,5.54807 0.79594,8.15422 L 774.5,117.5 l 7.5,0.28252 c 4.125,0.15539 15.375,-0.1969 25,-0.78288 9.625,-0.58597 21.1,-1.16311 25.5,-1.28252 l 8,-0.21712 0.5,-18.669625 c 0.275,-10.268294 0.7545,-18.922797 1.06556,-19.232229 1.26212,-1.255514 23.25576,-0.811935 35.32939,0.712541 C 889.89135,79.888545 892,79.845672 892,78.013739 c 0,-1.864891 -14.84987,-7.952862 -23.47555,-9.624222 -14.60239,-2.829441 -7.85662,-2.776099 9.72938,0.07694 27.99507,4.541732 29.82335,5.7033 31.53239,20.033548 0.59034,4.95 1.95426,11.025 3.03092,13.499995 1.61148,3.70439 1.81952,5.56082 1.17668,10.5 -0.4295,3.3 -1.27881,7.26679 -1.88736,8.8151 -0.65423,1.66452 -1.10646,9.73666 -1.10646,19.75 0,9.31419 -0.3375,16.99321 -0.75,17.06448 -0.4125,0.0713 -8.75173,0.2205 -18.53163,0.33163 -17.12951,0.19464 -21.908,1.01252 -18.5555,3.17592 0.73542,0.47458 8.90522,0.96772 18.15512,1.09587 9.24989,0.12815 17.23739,0.49221 17.75,0.80902 1.28895,0.79661 1.16527,5.89611 -0.29538,12.1787 L 907.54523,181 888.02261,180.84647 C 877.28518,180.76202 857.925,180.32792 845,179.88179 Z m -27.69816,-51.55453 18.80184,-0.6362 -0.30184,-3.07681 L 835.5,121.53743 823,121.10911 c -6.875,-0.23557 -21.27025,-0.34721 -31.98944,-0.24809 l -19.48945,0.18023 -3.66375,3.72937 c -2.52337,2.56857 -3.3048,3.98423 -2.51055,4.54814 0.63425,0.45031 8.35319,0.55459 17.15319,0.23172 8.8,-0.32286 24.46083,-0.87331 34.80184,-1.22322 z M 333.49331,144.58422 C 330.47766,141.56857 330.35269,139.64731 333,137 c 2.49115,-2.49115 5.18862,-2.55405 7.34501,-0.17126 2.88704,3.19014 2.03011,6.88434 -2.1017,9.06032 -1.94845,1.02614 -2.59725,0.84791 -4.75,-1.30484 z m -166.57555,-7.3664 -3.12421,-2.79148 5.85322,0.0288 c 5.57079,0.0274 6.38403,-0.31292 16.85323,-7.05259 6.05,-3.89476 24.725,-15.74528 41.5,-26.33449 C 244.775,90.478842 259.7375,80.499482 261.25,78.891695 262.98261,77.049928 264,74.864407 264,72.984223 264,71.342901 264.39754,70 264.88342,70 c 1.84026,0 1.82354,5.408224 -0.0297,9.597691 -1.51373,3.422036 -2.85742,4.752686 -6.36688,6.305088 -2.44653,1.082215 -5.60669,3.126122 -7.02258,4.542014 -1.41589,1.415892 -4.16042,3.237052 -6.09895,4.047021 -3.29924,1.378509 -18.97562,11.105176 -53.3924,33.128196 -7.98988,5.11265 -16.19294,9.99179 -18.22902,10.84251 -3.62261,1.51363 -3.76893,1.48695 -6.82617,-1.2447 z m 125.82176,0.0322 -2.63467,-2.75 5.69757,-0.0342 c 5.68638,-0.0342 5.76341,-0.0762 39.19758,-21.37268 18.425,-11.73614 37.49622,-23.870732 42.38049,-26.965762 8.92937,-5.658296 14.56207,-11.79322 13.05969,-14.224117 -0.47691,-0.77166 -0.32961,-0.952906 0.40531,-0.498703 1.80123,1.113219 1.3594,5.499005 -0.86927,8.628893 -1.11308,1.563178 -9.55058,7.64745 -18.75,13.520605 C 362.0268,99.427161 353.375,105.23039 352,106.45007 c -1.375,1.21968 -5.09005,3.45172 -8.25566,4.96008 -3.16561,1.50837 -6.19966,3.5721 -6.74232,4.58608 -0.54267,1.01398 -2.58494,2.37108 -4.53839,3.01577 -1.95345,0.6447 -5.53252,2.68415 -7.95349,4.53212 -2.42096,1.84797 -6.33864,4.33004 -8.70595,5.51571 -2.3673,1.18567 -5.65419,3.39849 -7.30419,4.91738 C 306.29258,136.00922 297.68454,140 295.50895,140 c -0.0741,0 -1.32037,-1.2375 -2.76943,-2.75 z m -189.29157,-1.03327 c -1.98736,-1.66262 -1.87705,-1.71683 3.5,-1.72004 5.54903,-0.003 5.57518,-0.018 48.02243,-27.01516 43.1192,-27.424504 47.54047,-30.812021 46.31768,-35.487986 C 201.00133,70.897095 201.23347,70 201.80391,70 c 0.57045,0 1.33394,1.35113 1.69664,3.002512 1.24723,5.678609 -1.94932,8.765552 -22.25264,21.489603 C 170.93656,100.95422 160.025,108.09475 157,110.35996 c -3.025,2.26522 -7.525,5.07213 -10,6.23757 -2.475,1.16545 -5.4,3.13535 -6.5,4.37754 -1.1,1.2422 -4.36002,3.30512 -7.24449,4.58427 -2.88447,1.27915 -6.25947,3.38473 -7.5,4.67907 -2.86914,2.99358 -13.61529,7.77189 -17.38056,7.72832 -1.58122,-0.0183 -3.79837,-0.8058 -4.927,-1.75 z m 125.2783,0.0333 c -1.4904,-1.64687 -1.24907,-1.75205 4.09501,-1.78478 L 238.5,134.43044 280,108.11988 C 302.825,93.649078 322.7375,80.49513 324.25,78.888887 325.98324,77.048224 327,74.865088 327,72.984223 327,71.342901 327.39754,70 327.88342,70 c 1.39787,0 2.03541,5.27348 0.90543,7.489357 -1.99962,3.921251 -8.19967,9.47694 -13.4341,12.037904 -2.91878,1.428026 -6.11035,3.617873 -7.09239,4.866326 -0.98203,1.248454 -2.98242,2.570319 -4.4453,2.93748 -1.46288,0.36716 -4.60767,2.235866 -6.98842,4.152683 -2.38075,1.91681 -6.57864,4.55214 -9.32864,5.8563 -2.75,1.30415 -5.85561,3.33435 -6.90135,4.51155 -1.04575,1.1772 -4.19575,3.25589 -7,4.61931 -2.80426,1.36342 -7.20531,3.95272 -9.78011,5.75401 -20.39782,14.26999 -31.02641,18.51783 -35.09229,14.02508 z M 422.7976,117 c -13.2194,-0.52035 -16.29588,-1.48976 -13.89781,-4.37926 0.95676,-1.15281 0.93712,-1.92279 -0.0924,-3.62225 -1.21729,-2.00946 -0.72701,-2.7114 7.11276,-10.183519 4.6311,-4.413914 11.07051,-10.230926 14.3098,-12.926693 l 5.88962,-4.901396 72.19021,0.256559 c 60.78149,0.216013 72.1902,0.475859 72.1902,1.644211 0,0.763208 -2.12644,3.189986 -4.72542,5.39284 -3.87046,3.280529 -4.99115,3.784661 -6.19406,2.786334 -1.19204,-0.989306 -1.7128,-0.827876 -2.76512,0.85716 C 566.10233,93.065794 565.22215,94 564.85945,94 c -0.3627,0 -2.18319,1.4625 -4.04555,3.25 -1.86235,1.7875 -6.63235,5.83952 -10.6,9.0045 -4.42581,3.53045 -7.2139,6.49276 -7.2139,7.66468 0,1.64273 -1.0151,2.00438 -7.25,2.58294 -8.79168,0.81583 -95.19909,1.1967 -112.9524,0.49788 z m 273.40679,-5.81094 c -1.98952,-1.53093 -2.20581,-2.32798 -1.62219,-5.97776 0.60465,-3.78125 0.46706,-4.2113 -1.3474,-4.2113 -1.11145,0 -2.30872,0.75025 -2.66059,1.66722 -0.48233,1.25691 -0.92292,1.38407 -1.79033,0.51666 -1.59132,-1.59132 -0.62791,-2.26098 4.18065,-2.90595 3.35063,-0.449412 4.49811,-0.15846 6.08259,1.54227 2.37873,2.55327 2.44202,3.1798 0.32121,3.1798 -1.32637,0 -1.53128,0.74844 -1.09516,4 0.29509,2.2 0.46684,3.98999 0.38167,3.97776 -0.0852,-0.0122 -1.18786,-0.81714 -2.45045,-1.7887 z M 705,112 c 0,-0.55 1.15156,-1 2.55902,-1 1.45136,0 2.2915,0.43284 1.94098,1 -0.33992,0.55 -1.49148,1 -2.55902,1 C 705.87344,113 705,112.55 705,112 Z m -3,-7.39301 c 0,-2.02851 2.65241,-2.72249 5.48049,-1.43392 C 710.71537,104.64697 709.73922,106 705.44098,106 703.16646,106 702,105.52778 702,104.60699 Z M 714,105 c 0,-0.55 0.45,-1 1,-1 0.55,0 1,0.45 1,1 0,0.55 -0.45,1 -1,1 -0.55,0 -1,-0.45 -1,-1 z m 3.9963,-2.50394 C 716.70659,101.12323 716.11007,100 716.6707,100 c 1.27732,0 4.8243,3.83833 4.16045,4.50219 -0.26946,0.26946 -1.54515,-0.6333 -2.83485,-2.00613 z m -6.43743,-1.02786 c -1.897,-1.43483 -1.89132,-1.4682 0.25,-1.4682 1.281,0 2.19113,0.62305 2.19113,1.5 0,1.80955 -0.007,1.80946 -2.44113,-0.0318 z M 715.25,92.496701 c -3.23466,-2.314738 -2.9315,-6.469601 0.72787,-9.975502 4.0997,-3.927763 12.72841,-4.814917 15.90778,-1.635547 4.22485,4.224847 1.74932,10.408282 -4.59645,11.481096 -2.08406,0.352331 -5.1392,0.887981 -6.7892,1.190332 -1.91984,0.351799 -3.81012,-0.02999 -5.25,-1.060379 z M 845,64.923004 c -4.125,-0.431032 -11.55,-1.100334 -16.5,-1.487337 -10.81338,-0.845418 -13.32292,-1.792049 -9.05377,-3.415202 3.06851,-1.166668 15.69543,0.227239 30.90351,3.411492 11.91501,2.494753 9.8265,3.076852 -5.34974,1.491047 z M 53.961673,63.453819 c -1.063809,-1.281811 -0.938387,-2.008487 0.733534,-4.25 2.313726,-3.101969 5.174778,-4.01658 6.419653,-2.052212 3.077771,4.856611 -3.525011,10.673897 -7.153187,6.302212 z M 615.57143,49.428571 c -2.94442,-2.94442 -1.30912,-7.775622 2.99785,-8.856602 4.94473,-1.241049 7.01527,3.080072 3.81571,7.963214 -1.84938,2.822505 -4.53262,3.17433 -6.81356,0.893388 z M 235,47.240207 c -8.5605,-0.193388 -12.33236,-0.699709 -14.75639,-1.980843 -1.79101,-0.946577 -3.10353,-2.17967 -2.91672,-2.740207 0.22595,-0.677978 27.03033,-1.104857 80.06911,-1.275157 49.65028,-0.159419 79.50998,0.09911 79.14772,0.685263 -0.31995,0.517694 -3.07163,1.87285 -6.11483,3.011458 -5.33689,1.996787 -7.63228,2.078869 -64.73099,2.314738 C 273.13905,47.389957 241.325,47.383093 235,47.240207 Z M 222.65629,33.747196 c -1.23905,-1.239042 -3.49219,-3.06488 -5.00699,-4.057417 -2.45089,-1.605885 -2.72089,-2.3199 -2.45175,-6.483833 L 215.5,18.526726 394.75,18.337147 c 167.1265,-0.176758 179.24822,-0.07621 179.22369,1.486636 -0.0145,0.92192 -0.86454,4.826217 -1.88905,8.676217 -1.79237,6.735519 -1.97085,6.989327 -4.7237,6.717523 -1.57351,-0.155362 -4.4031,-0.261867 -6.28797,-0.236679 -2.15987,0.02886 -4.88082,-0.961683 -7.35882,-2.67894 -3.54846,-2.459085 -4.04762,-2.566341 -5.11976,-1.100101 -0.65338,0.89355 -3.50369,2.382073 -6.33403,3.307829 -4.26258,1.39422 -5.76588,1.478636 -8.75632,0.491701 -1.98564,-0.65532 -4.65709,-0.928753 -5.93655,-0.607628 -1.47164,0.369359 -3.19722,-0.09193 -4.69689,-1.255593 -3.61114,-2.802049 -5.18464,-3.04559 -7.3706,-1.140799 -1.1,0.958514 -3.88783,2.027611 -6.19518,2.375772 -3.58573,0.541057 -4.58756,0.269386 -6.89603,-1.870033 -3.10983,-2.882093 -5.90842,-3.219582 -7.22275,-0.871009 -1.75829,3.141899 -7.94422,4.403059 -15.35964,3.131456 -5.42523,-0.930324 -7.21415,-0.893941 -9.23546,0.187832 -2.00222,1.071556 -3.64534,1.11302 -8.1619,0.205966 -3.11024,-0.624627 -6.08058,-0.872659 -6.60074,-0.551183 -0.52016,0.321476 -2.75633,-0.670237 -4.96927,-2.203808 -3.31971,-2.300556 -4.31527,-2.576104 -5.69128,-1.575204 -3.13665,2.281568 -8.66592,4.450019 -11.16775,4.379724 -7.29795,-0.205054 -14.75882,-1.682452 -16.88486,-3.34353 -2.82894,-2.210261 -3.92504,-2.308811 -6.0364,-0.542732 -0.86831,0.72631 -3.24482,1.802615 -5.28113,2.391788 -3.28179,0.94953 -4.07069,0.799509 -6.94428,-1.320564 -3.90339,-2.879829 -5.21855,-2.971743 -7.56437,-0.528659 -2.26994,2.364053 -6.55195,3.431565 -12.28896,3.063654 -4.14618,-0.265891 -7.61954,-0.223377 -16.25,0.198903 -5.44556,0.266446 -13.81477,-1.333314 -15.43108,-2.949627 -1.2162,-1.216193 -1.91038,-1.287779 -3.40946,-0.351592 C 342.87418,32.47101 340.98603,33 339.71357,33 c -1.27246,0 -2.76748,0.45391 -3.32226,1.008689 -0.55478,0.554779 -2.78228,1.045859 -4.95,1.091289 C 327.1022,35.190915 315.79158,33.022716 315,31.94825 c -1.21707,-1.652014 -5.21876,-2.06445 -6.82166,-0.703077 -0.92309,0.783991 -3.14681,2.006616 -4.9416,2.716945 -2.99586,1.185676 -3.57386,1.076257 -7.05375,-1.335306 -4.71765,-3.269335 -6.60327,-3.292404 -10.36536,-0.126812 -3.18922,2.68355 -8.55739,3.309841 -13.20948,1.541117 -1.78071,-0.677022 -4.00435,-0.518691 -7.56476,0.538637 -3.92019,1.164174 -5.92483,1.259987 -9.00558,0.430428 -2.17958,-0.586901 -5.01171,-0.803852 -6.29363,-0.482112 -1.5247,0.382677 -3.22243,-0.116419 -4.90914,-1.44319 l -2.5784,-2.02817 -7.37832,2.445604 c -9.10348,3.017421 -9.4427,3.024218 -12.22203,0.244882 z"
     style="fill:#aeb0af" />
  <path
     inkscape:connector-curvature="0"
     id="path6662"
     d="m 144.76957,540.43688 c -3.18877,-1.0017 -6.53744,-3.25019 -10.27505,-6.89927 -11.74907,-11.47076 -11.46415,-19.96679 1.35941,-40.53761 6.90955,-11.0839 14.05752,-21.3127 57.65164,-82.5 14.89063,-20.9 33.08548,-46.55 40.433,-57 7.34752,-10.45 14.59329,-20.60032 16.10171,-22.55626 1.50841,-1.95594 4.57691,-7.20456 6.81886,-11.66359 7.60908,-15.1337 7.99558,-36.44097 1.05527,-58.17608 -3.44399,-10.78562 -3.97695,-11.89734 -8.8044,-18.36524 C 245.5216,237.93102 237.88033,233 234.01841,233 c -2.1084,0 -2.7777,2.4127 -0.97789,3.52504 1.25645,0.77653 6.2389,8.52888 5.77784,8.98993 -0.1793,0.1793 -2.73987,-1.88172 -5.69015,-4.58005 -2.95027,-2.69833 -6.99855,-5.3987 -8.99617,-6.00082 -1.99762,-0.60212 -12.07656,-1.62112 -22.39763,-2.26443 -10.32108,-0.64332 -18.78349,-1.55037 -18.80535,-2.01567 -0.0219,-0.4653 7.62688,-5.26627 16.99722,-10.66883 9.37034,-5.40255 18.28275,-10.70059 19.80535,-11.77341 1.5226,-1.07283 4.66294,-2.90935 6.97853,-4.08118 4.16932,-2.10991 4.84845,-2.13056 70,-2.12891 l 65.78984,0.002 24,-3.42258 C 421.24314,193.62613 427.99849,193 446.7116,193 h 16.82845 l 10.47997,6.13139 c 5.76399,3.37226 18.6713,11.01524 28.68291,16.98439 10.0116,5.96914 20.1366,11.29902 22.5,11.84416 5.50736,1.27034 41.36026,1.3442 43.70369,0.09 1.18067,-0.63188 3.25477,-0.50472 6.19356,0.37973 2.43014,0.73136 10.26425,1.83113 17.40913,2.44392 7.14488,0.61278 18.16569,1.55473 24.49069,2.0932 6.71384,0.57158 12.95666,0.61673 15,0.10847 1.925,-0.47882 2.89598,-0.91664 2.15773,-0.97294 -0.73825,-0.0563 -2.49666,-1.0104 -3.90759,-2.12024 -1.41092,-1.10983 -5.0819,-2.7489 -8.15772,-3.64239 -3.07583,-0.89348 -6.56073,-2.25824 -7.74422,-3.03279 -1.1835,-0.77455 -5.79888,-2.27936 -10.25641,-3.34401 -4.45753,-1.06465 -10.45637,-3.12746 -13.33076,-4.58402 -2.87438,-1.45657 -7.24217,-3.15019 -9.70619,-3.7636 -3.93789,-0.98034 -4.5613,-1.51475 -5.15152,-4.41606 C 575.03716,202.9415 574.61869,202.59852 572,204 c -2.75921,1.47668 -3.87804,0.44946 -1.78746,-1.64111 0.94032,-0.94032 3.83173,-1.74896 7.05399,-1.97277 4.78513,-0.33237 7.3017,0.34646 20.34698,5.4885 C 634.5926,220.45061 651.40385,226 658.58111,226 c 2.14969,0 2.37498,-0.32677 1.80127,-2.6126 -0.64056,-2.55221 -0.60054,-2.57666 1.73095,-1.05792 1.31457,0.85631 5.98031,1.86874 10.38667,2.25383 6.14265,0.53684 11.24067,1.94047 21.95823,6.04574 15.83625,6.06593 21.52185,7.34676 32.97543,7.42856 l 8.06634,0.0576 -5.37824,2.4424 C 726.22063,242.3292 722.99353,243 718.37176,243 714.86729,243 712,243.44085 712,243.97968 c 0,0.53882 1.9125,1.94358 4.25,3.1217 2.3375,1.17811 6.91588,3.77476 10.17418,5.77032 l 5.92418,3.6283 34.57582,0.77365 c 22.63954,0.50656 42.51589,0.383 57.57582,-0.35793 l 23,-1.13157 7.27064,-4.64207 c 26.21338,-16.73643 30.69391,-20.36265 23.11329,-18.70624 -1.86116,0.40667 -5.63393,0.82247 -8.38393,0.92399 -2.75,0.10153 -5.53484,0.52156 -6.18854,0.93341 -0.67878,0.42766 -1.56763,0.0714 -2.07243,-0.83061 -0.76995,-1.37582 -2.07582,-1.05492 -10.12973,2.48927 -12.39753,5.45563 -15.8809,6.30594 -27.6093,6.73956 -8.70652,0.3219 -10.42361,0.10701 -13.27493,-1.66133 -4.20991,-2.61092 -5.54458,-6.17977 -4.87296,-13.03013 0.47082,-4.80225 1.00678,-5.89454 4.22467,-8.60995 2.2237,-1.87646 3.25635,-3.37515 2.60358,-3.77858 -0.59503,-0.36775 -12.57961,-0.58135 -26.6324,-0.47467 -14.05279,0.10668 -25.77992,-0.0354 -26.06028,-0.31579 -0.28036,-0.28036 17.60771,-0.80595 39.75128,-1.16798 79.17178,-1.29437 97.34104,-1.67256 103.01104,-2.14414 5.15155,-0.42845 5.75,-0.28034 5.75,1.42311 0,1.04573 -0.50186,2.06862 -1.11524,2.27308 -0.76391,0.25464 -1.07388,5.24256 -0.98397,15.83333 0.16693,19.6617 -0.90277,28.04362 -4.5365,35.54702 -4.39062,9.06634 -8.45426,11.41282 -21.48778,12.40777 -5.70708,0.43567 -12.17651,1.27969 -14.37651,1.8756 -2.27071,0.61507 -13.29495,1.09665 -25.5,1.11393 -19.74988,0.028 -21.7442,0.19218 -24.5,2.01727 -3.45854,2.2905 -12.50027,2.92297 -10.72187,0.75 0.56266,-0.6875 1.18026,-3.95 1.37245,-7.25 l 0.34942,-6 -10,-0.62564 c -5.5,-0.3441 -21.07366,-0.97632 -34.60813,-1.40492 l -24.60812,-0.77928 -1.78487,4.90492 c -0.98168,2.69771 -2.91048,5.87362 -4.28622,7.05758 -1.63547,1.40749 -2.27858,2.73318 -1.85781,3.82968 0.55092,1.43567 1.57911,1.57683 7.14434,0.98084 L 743,284.76701 v 8.64974 c 0,7.29549 0.40033,9.43975 2.55695,13.69564 3.34459,6.60023 2.5904,8.70155 -0.95299,2.65522 C 741.20676,303.97072 735.68217,299 732.63657,299 c -3.26347,0 -18.77054,-11.11413 -23.75529,-17.02574 -3.04893,-3.61586 -5.32459,-5.28497 -8.29175,-6.0817 -5.33256,-1.43189 -12.62529,-6.65739 -20.08953,-14.39486 -5.62991,-5.83601 -6.46261,-6.32688 -13.5,-7.95831 -4.125,-0.95627 -8.85,-2.11468 -10.5,-2.57424 -14.66844,-4.08546 -29.3828,-6.95979 -35.77842,-6.98901 -2.87187,-0.0131 -6.84894,-0.40216 -8.83793,-0.86454 -2.00627,-0.4664 -4.30842,-0.45339 -5.17079,0.0292 -0.90665,0.50738 -2.63714,0.45827 -4.15245,-0.11785 -3.38606,-1.28738 -13.05132,1.15014 -16.16707,4.07723 -1.23991,1.16484 -2.5512,3.87469 -2.91397,6.02188 -1.01261,5.99363 -6.63625,7.67822 -13.96513,4.18332 -4.49893,-2.14539 -5.07932,-1.58795 -9.5732,9.1946 -2.99269,7.18061 -3.37083,9.17787 -3.69191,19.5 -0.36827,11.83943 -0.63979,13.10471 -5.10768,23.80246 -2.21083,5.29354 -2.95312,6.21621 -4.63683,5.76366 -1.10254,-0.29635 -2.85674,-0.54496 -3.89822,-0.55247 -1.743,-0.0126 -1.84193,-0.59024 -1.24388,-7.26365 0.54496,-6.08102 1.05183,-7.57853 3.1436,-9.28756 2.74928,-2.24623 3.30487,-6.83758 1.4658,-12.11314 -0.73289,-2.10239 -0.63094,-6.22125 0.35509,-14.34538 C 547.67945,260.86079 547.58525,257 545.96092,257 c -0.4432,0 -1.32561,-1.575 -1.96092,-3.5 -2.97377,-9.01062 -7.87963,-1.48245 -14.50259,22.25463 C 527.31135,283.58958 525.19138,290 524.78638,290 c -0.40501,0 -0.53487,-1.2375 -0.28858,-2.75 0.2463,-1.5125 1.1748,-10.7383 2.06335,-20.50178 1.60287,-17.61261 1.59916,-17.78561 -0.47281,-22.06573 -1.14859,-2.37267 -2.08834,-4.99706 -2.08834,-5.832 0,-1.33322 -4.75435,-5.00242 -13.0904,-10.10259 -1.42472,-0.87167 -4.34972,-2.0594 -6.5,-2.6394 -2.15028,-0.58 -7.89593,-3.99356 -12.76812,-7.5857 -6.37945,-4.7034 -10.79102,-7.11814 -15.76395,-8.62862 -8.53622,-2.5928 -9.87753,-2.1804 -9.87753,3.03692 0,2.19663 -0.90586,6.41499 -2.01301,9.37413 -1.66551,4.45147 -2.96379,6.03508 -7.52063,9.1735 -5.39626,3.71655 -5.64065,3.7796 -12.08833,3.11902 -4.98675,-0.51091 -7.39683,-1.3254 -9.95003,-3.36265 -4.8836,-3.89672 -2.11208,-5.15713 5.193,-2.36163 l 5.4319,2.07867 5.22355,-1.98067 c 2.87295,-1.08937 5.75874,-2.32578 6.41286,-2.74758 1.65858,-1.0695 7.31069,-13.93077 7.31069,-16.63532 0,-3.8163 -5.96697,-10.50259 -10.44998,-11.70974 -4.72642,-1.27269 -17.87849,-0.27522 -21.55002,1.63438 -1.375,0.71515 -4.8625,4.41788 -7.75,8.22828 -5.12828,6.76737 -5.25,7.0842 -5.25,13.66518 0,7.62982 -2.05467,12.12211 -8.73286,19.09333 -3.44139,3.59239 -3.85574,4.58889 -4.06612,9.77884 -0.20211,4.98619 0.10471,6.1178 2.23691,8.25 3.99026,3.99026 9.1677,2.6184 11.92283,-3.15918 1.52379,-3.1954 1.5197,-3.69592 -0.0584,-7.15274 -0.93328,-2.04431 -1.8456,-3.97944 -2.02739,-4.3003 C 417.34847,242.28139 427.21873,241 440.74102,241 H 455.75 l 0.54851,2.75 c 0.30168,1.5125 0.85352,5.45 1.22631,8.75 l 0.6778,6 h -6.14956 c -5.6968,0 -6.10231,-0.14725 -5.50782,-2 1.65733,-5.16513 1.55005,-7.10914 -0.53885,-9.76475 C 444.42566,244.72568 442.96448,244 440.49885,244 c -5.47672,0 -8.87616,4.90007 -7.83794,11.29788 0.78965,4.86603 -1.56362,7.99383 -7.13558,9.4841 -2.78765,0.74559 -4.52533,1.77957 -4.52533,2.69274 0,1.20583 -0.45214,1.27639 -2.42347,0.37819 -1.33844,-0.60983 -3.9812,-0.81197 -5.90273,-0.45149 -4.56477,0.85635 -7.12871,4.70514 -6.8939,10.34858 0.0973,2.3375 -0.27457,4.25 -0.82629,4.25 -0.55171,0 -1.48517,1.2375 -2.07436,2.75 l -1.07125,2.75 -9.25371,-9.75 c -5.08955,-5.3625 -9.95775,-9.75 -10.81823,-9.75 -2.14173,0 -6.9356,8.07972 -9.66909,16.29654 -1.24355,3.73809 -2.62302,11.02184 -3.06548,16.18611 -0.44247,5.16426 -1.17797,9.98082 -1.63445,10.70346 -0.45648,0.72264 -0.6776,5.57593 -0.49137,10.78508 0.48458,13.55506 1.4464,14.59173 14.43867,15.56236 8.46738,0.63259 10.00661,1.02665 11.21524,2.87125 0.7705,1.17593 3.47896,2.75162 6.01882,3.50155 4.99984,1.47628 6.39453,3.25256 4.42097,5.63055 -0.6899,0.83129 -1.00294,1.76287 -0.69563,2.07017 0.30731,0.30731 4.52293,0.75794 9.36806,1.00139 9.20119,0.46234 12.68899,1.76844 7.91925,2.96557 -5.63268,1.41372 -13.58689,-0.29105 -28.69748,-6.15051 -8.19805,-3.17898 -8.95943,-3.29741 -15,-2.33309 -7.36551,1.17583 -8.98022,2.39955 -9.20249,6.97419 -0.14034,2.88853 0.3539,3.61065 3.83892,5.60892 4.04729,2.32067 8.5,3.07158 8.5,1.43345 0,-0.49116 0.675,-1.15203 1.5,-1.46862 2.24594,-0.86184 1.81505,0.83377 -1.08889,4.2849 -2.1256,2.52614 -3.33354,3.0774 -6.75,3.08047 -2.3822,0.002 -5.55051,0.85087 -7.41111,1.9853 -1.7875,1.08986 -3.25,1.81975 -3.25,1.62199 0,-0.19777 0.67743,-2.27962 1.5054,-4.62633 1.14249,-3.23816 1.22899,-4.59982 0.35882,-5.64831 -1.51384,-1.82406 -4.22118,-0.91562 -10.16057,3.40936 l -4.79634,3.49263 0.29634,5.5273 c 0.21654,4.03867 0.78308,5.8245 2.10358,6.63081 1.52401,0.93057 2.38596,0.43503 5.5,-3.16197 2.03102,-2.34602 4.03027,-4.25852 4.44277,-4.25 0.4125,0.009 0.75,1.35344 0.75,2.98873 0,1.63529 0.97353,4.97706 2.16339,7.42616 2.08866,4.29909 2.10249,4.54585 0.40043,7.14353 l -1.76295,2.69061 -1.1653,-2.36677 C 360.99465,388.56505 358.31401,386.375 355.67858,385 l -4.79169,-2.5 -2.5095,3 c -5.51241,6.58984 -15.34597,23.08733 -15.36143,25.77144 -0.0116,2.01072 -0.73468,3.09891 -2.63438,3.96447 C 326.70259,416.91217 316,433.066 316,436.94259 c 0,2.36729 -0.52723,3.15163 -2.44142,3.63206 -3.07987,0.773 -14.0613,16.6729 -13.15196,19.0426 0.33563,0.87464 1.16895,1.38622 1.85181,1.13685 0.68286,-0.24938 5.96657,-1.90781 11.74157,-3.68541 5.775,-1.7776 13.425,-4.17041 17,-5.31735 7.34407,-2.35615 22.34994,-2.58236 273,-4.11533 65.725,-0.40198 126.925,-1.18053 136,-1.73011 20.95834,-1.26924 74.94096,-4.02824 90,-4.59982 6.325,-0.24007 16.45,0.0279 22.5,0.5954 6.05,0.56754 22.475,2.14009 36.5,3.49454 14.025,1.35446 29.1,2.77279 33.5,3.15186 4.4,0.37906 12.95,1.56746 19,2.64088 6.05,1.07342 15.95,2.35369 22,2.84505 10.97408,0.89129 23.21055,3.74616 26.34534,6.14659 4.67651,3.58099 8.67523,7.59677 8.84086,8.87857 0.10241,0.79257 -2.48509,3.64576 -5.75,6.34043 -3.26491,2.69468 -5.9362,5.6439 -5.9362,6.55384 0,1.76616 -5.16915,7.12669 -8.52682,8.84251 -1.11475,0.56965 -5.38975,1.50495 -9.5,2.07845 -7.51895,1.04911 -20.38894,3.98734 -37.97318,8.66932 -5.225,1.3912 -13.1,3.18743 -17.5,3.9916 -10.19912,1.86407 -36.61304,1.86991 -54,0.0119 -7.15,-0.76405 -17.95,-1.92281 -24,-2.57502 -11.69041,-1.26027 -28.83511,-0.84374 -42,1.02039 -10.27598,1.45506 -117.26603,0.70461 -129.31619,-0.90705 -7.65153,-1.02336 -11.00702,-2.27559 -18.38021,-6.8593 -2.62428,-1.63145 -2.98533,-1.55659 -13.5,2.79883 L 621.5,503.5 l -50,0.32447 c -41.34917,0.26834 -53.13501,0.0281 -68.11971,-1.38824 -16.22444,-1.53357 -18.42097,-1.55486 -21,-0.20356 -9.08433,4.7598 -11.34204,5.71455 -15.88029,6.71554 -2.94856,0.65035 -12.79546,0.99489 -24,0.83976 -18.27955,-0.2531 -19.28439,-0.16359 -26.5,2.36076 -8.55403,2.99259 -16.77271,4.60632 -47.60962,9.34811 -48.1871,7.40973 -56.29925,8.88378 -66.39038,12.06376 -24.5652,7.74114 -23.56971,7.65381 -91.5,8.02708 -51.84396,0.28488 -61.71003,0.11215 -65.73043,-1.1508 z M 284.52346,522.34151 C 283.82142,516.72252 281.30111,510 279.89658,510 c -4.58633,0 -5.1735,5.5466 -1.37973,13.03324 1.81315,3.5781 3.10353,4.96676 4.61522,4.96676 1.96724,0 2.05419,-0.35363 1.39139,-5.65849 z M 898.8851,505.09217 c 1.11096,-0.70358 0.97552,-1.09639 -0.68426,-1.98468 -2.64177,-1.41384 -4.89451,-1.41215 -5.76994,0.004 -1.3627,2.20489 3.66419,3.74732 6.4542,1.98037 z M 305.5,497.61532 c 6.05,-0.88382 17.525,-2.55066 25.5,-3.70408 16.32462,-2.36104 22,-3.60497 22,-4.82198 0,-1.52484 -7.93699,-2.1338 -26.31172,-2.01876 -13.10105,0.082 -19.86647,-0.30315 -24.18828,-1.37713 -3.3,-0.82006 -8.34361,-1.77454 -11.20803,-2.12107 -4.78628,-0.57903 -5.34019,-0.42835 -6.84004,1.86073 -2.20564,3.36623 -2.95384,9.76063 -1.46712,12.53859 1.37717,2.57326 2.59329,2.55402 22.51519,-0.3563 z m 295.50037,-6.01121 c 8.21765,-1.76486 10.17796,-2.5678 9.7103,-3.97732 -0.50436,-1.52011 -23.02158,-2.06595 -25.71701,-0.6234 -2.65407,1.42042 -2.52885,3.84594 0.25634,4.96545 3.30611,1.32889 8.41533,1.21058 15.75037,-0.36473 z M 364,400.09878 c 0,-1.15669 6.95055,-5.28193 8.19853,-4.86594 1.8393,0.6131 -3.3183,5.76716 -5.77111,5.76716 C 365.09234,401 364,400.59445 364,400.09878 Z M 533.69502,353.05823 C 533.99106,351.9262 534.88877,351 535.68996,351 c 1.99924,0 1.21882,3.39389 -0.87305,3.79674 -1.23787,0.2384 -1.52322,-0.2038 -1.12189,-1.73851 z m 5.70055,-133.53395 c -4.76269,-2.00256 -7.68644,-6.34444 -7.02343,-10.43007 1.12306,-6.92064 9.77695,-12.03781 16.94542,-10.02008 7.21993,2.03222 9.28775,4.34869 6.18244,6.92587 -0.825,0.68469 -1.5,2.4556 -1.5,3.93535 0,2.94738 -3.56341,6.86104 -8.51962,9.35703 -2.53943,1.27888 -3.50706,1.31576 -6.08481,0.2319 z m -96.43075,-2.45854 c 2.51122,-4.69226 -0.17746,-10.68295 -3.7759,-8.41311 -0.90389,0.57016 -1.98508,2.11906 -2.40264,3.44201 -0.54565,1.72872 -0.62152,1.42079 -0.26974,-1.09464 0.90218,-6.45093 7.48691,-9.60926 13.35597,-6.4061 3.78834,2.06756 5.23722,4.4061 2.72988,4.4061 -0.88218,0 -1.84785,1.19914 -2.21458,2.75 -0.83699,3.53953 -4.21342,7.25 -6.59731,7.25 -1.52991,0 -1.67676,-0.34401 -0.82568,-1.93426 z M 193.2,207.8 c -0.66,-0.66 -1.2,-1.92 -1.2,-2.8 0,-1.55494 1.81712,-4 2.97273,-4 0.315,0 0.57272,1.8 0.57272,4 0,4.23895 -0.41321,4.73224 -2.34545,2.8 z m 650.6158,-7.81753 c -8.62631,-0.28464 -16.01381,-0.84714 -16.41666,-1.25 -0.40286,-0.40286 0.35503,-0.73936 1.68419,-0.74778 1.32917,-0.008 3.02721,-0.40217 3.77343,-0.875 1.14235,-0.72383 1.14235,-0.99467 0,-1.71383 -1.54508,-0.97269 -8.53024,-1.22113 -46.04239,-1.63756 -14.6771,-0.16293 -27.0146,-0.6252 -27.41667,-1.02727 -0.40207,-0.40207 5.75647,-0.76094 13.68563,-0.79749 7.92917,-0.0366 26.11667,-0.29437 40.41667,-0.57293 14.3,-0.27856 41.42319,-0.58616 60.27375,-0.68354 L 908.0475,190.5 907.39562,195 c -0.35853,2.475 -0.84837,4.71665 -1.08852,4.98144 -0.58632,0.64647 -42.90937,0.64717 -62.4913,0.001 z M 839,196.61663 c 0,-0.21085 -0.9,-0.61872 -2,-0.90638 -1.1,-0.28766 -2,-0.11514 -2,0.38337 0,0.49851 0.9,0.90638 2,0.90638 1.1,0 2,-0.17252 2,-0.38337 z m -17.25,1.72109 c 0.6875,-0.27741 1.8125,-0.27741 2.5,0 0.6875,0.27741 0.125,0.50439 -1.25,0.50439 -1.375,0 -1.9375,-0.22698 -1.25,-0.50439 z m 19.25942,-20.26788 c -6.4674,-0.492 -7.53927,-0.84303 -7.84706,-2.56984 -0.19607,-1.1 -0.69303,-2.35772 -1.10436,-2.79493 -0.41132,-0.43721 -17.02421,-0.80707 -36.91751,-0.8219 -19.89331,-0.0148 -35.94381,-0.39239 -35.66778,-0.83902 0.86686,-1.40261 78.9206,-2.65211 129.39226,-2.07134 l 19.36497,0.22283 -0.60397,3.65218 c -0.33218,2.0087 -0.60891,4.21468 -0.61496,4.90218 -0.009,0.9754 -6.43658,1.21042 -29.26101,1.06984 -16.0875,-0.0991 -32.62076,-0.43659 -36.74058,-0.75 z m -601.65348,-9.30293 c -0.26069,-0.4218 6.86508,-0.77869 15.83504,-0.79308 8.96996,-0.0144 22.15902,-0.23632 29.30902,-0.49317 7.15,-0.25686 55.075,-0.91809 106.5,-1.46941 51.425,-0.55132 102.6125,-1.27271 113.75,-1.6031 17.74258,-0.52631 20.25,-0.41188 20.25,0.92415 0,0.83866 -0.74622,2.27106 -1.65827,3.18311 -1.53172,1.53172 -12.4126,1.63385 -142.58504,1.33833 -77.50973,-0.17596 -141.14006,-0.66503 -141.40075,-1.08683 z M 225.75,168.33772 c 0.6875,-0.27741 1.8125,-0.27741 2.5,0 0.6875,0.27741 0.125,0.50439 -1.25,0.50439 -1.375,0 -1.9375,-0.22698 -1.25,-0.50439 z m 457.47251,-4.89442 c -3.64325,-2.55183 -3.05957,-8.23965 1.27685,-12.44268 2.99754,-2.90533 4.10891,-3.35764 7.75,-3.15413 3.00768,0.16811 4.75587,0.88323 5.9784,2.44555 2.3269,2.97361 2.2068,3.70796 -0.60644,3.70796 -1.70371,0 -2.73367,0.85702 -3.62971,3.02025 -1.16209,2.80554 -6.24947,7.97975 -7.84583,7.97975 -0.38542,0 -1.7009,-0.70052 -2.92327,-1.5567 z M 851,158.30454 c -2.475,-0.19033 -8.8287,-1.01171 -14.11933,-1.8253 C 831.59004,155.66566 825.43951,155 823.21283,155 c -2.27906,0 -6.16045,-1.05518 -8.88067,-2.41426 -12.11086,-6.05088 -16.69204,-7.62491 -21.75159,-7.47357 -2.79431,0.0836 -8.38283,-0.83835 -12.41893,-2.04875 -6.84233,-2.05198 -7.65344,-2.10046 -12,-0.71713 -15.30843,4.87202 -18.24677,5.6571 -21.29291,5.68915 -1.8528,0.0195 -4.49373,0.67854 -5.86873,1.46456 -3.31885,1.89723 -7.51571,1.86342 -10.48859,-0.0845 -1.33003,-0.87147 -5.0267,-2.18338 -8.21482,-2.91535 -17.46012,-4.00875 -22.57531,-5.46707 -25.75339,-7.34218 -1.92994,-1.13869 -5.7698,-2.74174 -8.53304,-3.56233 -2.76323,-0.82059 -6.02389,-2.1923 -7.24591,-3.04823 -1.71219,-1.19927 -3.64681,-1.41026 -8.43396,-0.9198 -5.98548,0.61323 -6.19177,0.55867 -5.65457,-1.49559 0.66601,-2.54682 0.16944,-2.62045 -3.80643,-0.56445 -1.76489,0.91267 -2.81933,2.12022 -2.52382,2.89031 C 660.98476,134.12385 657.45975,138 655.30544,138 653.31645,138 647,133.30098 647,131.8213 c 0,-0.69634 1.41358,-0.85088 4,-0.43729 2.37282,0.37943 4,0.24234 4,-0.33701 0,-1.3736 -3.42383,-3.047 -6.23426,-3.047 -1.30116,0 -2.79324,-0.41877 -3.31574,-0.93059 -0.5225,-0.51183 -5.45,-2.49226 -10.95,-4.40097 -5.5,-1.9087 -15.4,-6.20067 -22,-9.53769 -14.2557,-7.20782 -14.58681,-7.12985 15.54605,-3.66102 63.699,7.33288 76.5796,8.00616 125.95395,6.58373 15.26218,-0.43969 15.50481,-0.41353 15.81372,1.70549 0.24826,1.70305 -0.85181,2.80982 -5.27279,5.30486 -5.39193,3.04302 -8.15238,5.99141 -6.83908,7.30471 1.50486,1.50486 97.04086,-0.77318 98.66065,-2.35255 0.48294,-0.47089 0.44428,-2.08965 -0.0879,-3.67847 -0.81597,-2.43628 -1.50353,-2.85477 -4.8625,-2.95965 -2.15168,-0.0672 -5.63325,-0.46107 -7.73684,-0.87531 -5.71104,-1.1246 -2.95703,-2.90667 4.68132,-3.02918 7.55766,-0.12122 12.64338,-1.95677 12.64338,-4.5633 0,-1.23119 -0.50027,-1.65532 -1.5,-1.27169 -1.29538,0.49709 -1.5,-1.63953 -1.5,-15.66305 V 79.736662 l 4.25,0.735436 c 2.3375,0.40449 6.275,0.803891 8.75,0.887558 5.32345,0.179958 7,1.065983 7,3.699361 C 878,86.126558 878.45,87 879,87 c 0.55,0 1,-0.9 1,-2 0,-1.518864 0.66156,-1.996316 2.75,-1.984687 3.39368,0.0189 4.90898,0.944094 5.38432,3.287508 0.49026,2.417018 2.38662,2.131883 2.28628,-0.343765 -0.0975,-2.406648 4.05765,-2.761086 4.95499,-0.42266 0.32427,0.845017 0.63705,10.070017 0.69507,20.500004 0.0594,10.67754 0.50396,18.9636 1.01742,18.9636 0.50156,0 0.91192,2.94841 0.91192,6.55202 0,6.28998 -0.11293,6.59138 -2.82358,7.53632 -3.15382,1.09943 -6.16649,6.69377 -6.19173,11.49768 -0.008,1.60269 -0.34801,3.43689 -0.75464,4.07599 -0.70936,1.11492 -25.64985,4.5269 -30.43223,4.16328 -1.2638,-0.0961 -4.32282,-0.33043 -6.79782,-0.52075 z M 677.69664,126.3633 c -0.66995,-0.66995 -7.62204,0.94839 -7.1758,1.67042 0.26462,0.42816 2.0553,0.29535 3.97929,-0.29514 1.92399,-0.59049 3.36242,-1.20937 3.19651,-1.37528 z M 693.5,123 c -0.33992,-0.55 -1.04148,-1 -1.55902,-1 -0.51754,0 -0.94098,0.45 -0.94098,1 0,0.55 0.70156,1 1.55902,1 0.85746,0 1.2809,-0.45 0.94098,-1 z m 7,0 c -0.33992,-0.55 -1.04148,-1 -1.55902,-1 -0.51754,0 -0.94098,0.45 -0.94098,1 0,0.55 0.70156,1 1.55902,1 0.85746,0 1.2809,-0.45 0.94098,-1 z m 190.17124,-6.5625 c 0.16294,-0.51562 -0.1277,-1.60874 -0.64586,-2.42914 -1.26195,-1.99807 -3.33622,0.018 -2.43496,2.36669 0.66594,1.73539 2.54018,1.77338 3.08082,0.0624 z m -20.11739,-1.52463 c 1.03052,-1.66742 -1.28721,-3.57951 -2.66672,-2.2 C 866.73321,113.86679 867.45541,116 869,116 c 0.48508,0 1.18431,-0.48921 1.55385,-1.08713 z M 879.98469,99.25 C 879.97432,91.294201 879.65635,87.984366 879,89 c -1.7899,2.769672 -1.20716,22 0.66667,22 0.18333,0 0.32644,-5.2875 0.31802,-11.75 z m -545.53766,43.69146 c -2.32041,-2.56402 -0.91277,-5.44146 2.66196,-5.44146 2.7486,0 3.8557,3.6327 1.84533,6.05504 -1.59596,1.92302 -2.29822,1.82742 -4.50729,-0.61358 z M 910.72528,116 c -1.3072,-4.68214 -0.86224,-11 0.77472,-11 1.61121,0 1.87921,4.74278 0.59331,10.5 l -0.67006,3 z m -140.56739,-5 c 0,-1.375 0.22698,-1.9375 0.50439,-1.25 0.27741,0.6875 0.27741,1.8125 0,2.5 -0.27741,0.6875 -0.50439,0.125 -0.50439,-1.25 z m -345.82921,-2 c -5.04423,-0.275 -9.51917,-0.84994 -9.94431,-1.27764 -0.42514,-0.42771 1.00195,-2.21728 3.17132,-3.97683 2.16937,-1.75956 6.46,-5.572119 9.53472,-8.472361 L 432.68083,90 h 63.74292 c 50.54812,0 63.65735,0.25875 63.32956,1.25 -0.22734,0.6875 -4.80509,4.9625 -10.17279,9.5 l -9.75944,8.25 -26.16054,0.0247 c -14.3883,0.0136 -38.31054,0.12607 -53.16054,0.25 -14.85,0.1239 -31.12709,3e-4 -36.17132,-0.2747 z M 714.95041,90.440253 c -4.38227,-5.280318 8.19721,-13.107534 15.11533,-9.405069 C 733.66293,82.96034 731.68074,91 727.60891,91 726.92238,91 725.3825,89.875 724.18695,88.5 721.06316,84.907329 718,85.154879 718,89 c 0,3.313807 -1.07379,3.820937 -3.04959,1.440253 z M 56.113216,63.069972 C 55.089352,62.437188 55.048714,61.777494 55.931939,60.127174 57.339455,57.497206 60,57.333954 60,59.877555 c 0,2.436061 -2.194353,4.238396 -3.886784,3.192417 z M 616.37011,46.522119 C 615.60584,44.530455 617.70554,42 620.12244,42 c 2.67921,0 2.31982,2.480198 -0.64045,4.419844 -2.25095,1.474878 -2.581,1.485725 -3.11188,0.102275 z M 240.24377,45.335642 C 237.644,44.287516 240.29839,43 245.05902,43 248.78434,43 250,43.369056 250,44.5 c 0,1.110423 -1.1038,1.479496 -4.25,1.421053 -2.3375,-0.04342 -4.8153,-0.306856 -5.50623,-0.585411 z m 33.46995,0.04475 C 272.03335,43.700014 273.31834,43 278.08333,43 c 3.61923,0 4.96494,0.360026 4.67228,1.25 -0.44736,1.360416 -7.88236,2.289916 -9.04189,1.130388 z M 300.5,45 c -0.33992,-0.55 -0.14148,-1 0.44098,-1 0.58246,0 1.05902,0.45 1.05902,1 0,0.55 -0.19844,1 -0.44098,1 -0.24254,0 -0.7191,-0.45 -1.05902,-1 z m 6.19509,0.361755 C 305.0876,43.754268 306.26285,43 310.375,43 c 5.51372,0 10.73256,1.016944 10.13992,1.975864 -0.5879,0.951231 -12.91041,1.295313 -13.81983,0.385891 z m 32.35706,-0.284453 c -1.15359,-0.748869 -0.93688,-1.068128 1.06628,-1.570889 C 343.70527,42.606173 352.5,43.311926 352.5,44.5 c 0,1.303618 -11.56425,1.80006 -13.44785,0.577302 z M 294.5,28 l -78,-0.5 v -3.985864 -3.985864 l 178.25,-0.01414 C 492.7875,19.506361 572.99749,19.725 572.99442,20 c -0.003,0.275 -0.47422,2.1875 -1.047,4.25 L 570.90599,28 540.703,28.038689 c -16.61165,0.02128 -61.253,0.133779 -99.203,0.25 C 403.55,28.40491 337.4,28.275 294.5,28 Z"
     style="fill:#919292" />
  <path
     inkscape:connector-curvature="0"
     id="path6660"
     d="m 141.19605,535.10276 c -12.13435,-4.19113 -17.05524,-14.7475 -12.66934,-27.17846 2.21877,-6.28866 11.95607,-21.75974 27.33069,-43.4243 14.98491,-21.1154 58.33914,-82.11483 82.44487,-116 8.60788,-12.1 17.2848,-25.375 19.28204,-29.5 7.6776,-15.8569 8.00524,-36.33381 0.93846,-58.6509 -4.79487,-15.14231 -8.80733,-20.9537 -22.15368,-32.08597 -10.79313,-9.00262 -16.1607,-15.75785 -14.97533,-18.84687 0.31506,-0.82104 2.94285,-2.59618 5.83954,-3.94476 l 5.2667,-2.45196 66.0878,-0.01 66.0878,-0.01 23.81133,-3.46685 c 13.09622,-1.90677 24.19421,-3.23021 24.66219,-2.94099 1.46724,0.90681 0.88301,14.60558 -0.92196,21.61759 -2.03658,7.91181 -5.41301,12.33694 -17.49129,22.92403 -15.65262,13.72014 -24.22288,28.6477 -28.34228,49.36622 -1.31226,6.6 -2.38827,14.25 -2.39113,17 -0.006,5.37189 -2.45932,20.76659 -3.63051,22.77778 -1.40684,2.41586 -8.91915,11.3551 -15.3337,18.24629 -10.70632,11.50184 -15.03299,22.6889 -17.54753,45.371 -0.32895,2.9673 -1.52331,7.20865 -2.65413,9.42524 -1.13082,2.21659 -12.44192,19.5888 -25.13579,38.60492 -12.69386,19.01613 -24.44774,37.72477 -26.11973,41.57477 -2.8753,6.62079 -3.06818,7.89545 -3.56053,23.52971 l -0.52054,16.52971 -3.8672,4.71631 c -3.22967,3.9388 -4.93681,5.04668 -10.35534,6.72029 -6.14061,1.89664 -9.22759,2.00223 -57.6328,1.97133 -46.9328,-0.0299 -51.58145,-0.18351 -56.44861,-1.86459 z m 73.62786,-56.43865 c 0.39322,-2.02757 -2.53171,-3.35631 -4.04875,-1.83927 -0.7872,0.7872 -0.72677,1.52854 0.21731,2.66608 1.56159,1.8816 3.38238,1.48868 3.83144,-0.82681 z M 292.8,289.8 c 3.20225,-3.20225 -0.17694,-7.86055 -4.32961,-5.96846 -2.37151,1.08053 -3.42554,4.87997 -1.80372,6.50179 1.08654,1.08655 4.83982,0.76018 6.13333,-0.53333 z m 17,0 c 3.18734,-3.18734 -0.76293,-7.96057 -4.8,-5.8 -1.91616,1.0255 -2.7379,4.92876 -1.33333,6.33333 1.08654,1.08655 4.83982,0.76018 6.13333,-0.53333 z m -17,-17 c 2.16489,-2.16489 1.43839,-5.70206 -1.31299,-6.39262 -3.08755,-0.77492 -5.48701,1.03187 -5.48701,4.13173 0,3.241 4.3677,4.69319 6.8,2.26089 z m 17.15432,-0.24496 c 1.91068,-2.30222 0.88952,-6.0063 -1.75936,-6.3818 -1.26778,-0.17972 -2.95528,0.21288 -3.75,0.87244 -1.48536,1.23274 -1.96426,5.10168 -0.77829,6.28765 1.18597,1.18597 5.05491,0.70707 6.28765,-0.77829 z m 26.88259,-10.9467 c 0.40674,-2.11204 -1.4806,-3.6823 -3.49623,-2.90883 -1.41845,0.54431 -1.82143,3.4864 -0.63944,4.66839 1.24053,1.24053 3.76473,0.16659 4.13567,-1.75956 z M 292.8,255.8 c 3.55202,-3.55202 -0.57026,-9.05007 -4.64539,-6.19574 -2.05294,1.43793 -2.90875,5.30827 -1.48794,6.72907 1.08654,1.08655 4.83982,0.76018 6.13333,-0.53333 z m 17.15432,-0.24496 c 1.91068,-2.30222 0.88952,-6.0063 -1.75936,-6.3818 -2.96624,-0.4205 -5.19496,1.45253 -5.19496,4.36587 0,3.38638 4.68889,4.7456 6.95432,2.01593 z M 292.8,238.8 c 3.39429,-3.39429 -0.59738,-9.04917 -4.8,-6.8 -2.25955,1.20928 -2.80135,6.50998 -0.75,7.33772 2.21828,0.89509 4.3209,0.69138 5.55,-0.53772 z m 17,0 c 1.66069,-1.66069 1.50254,-5.30403 -0.29499,-6.79585 -3.1626,-2.62472 -8.76245,4.40508 -5.83834,7.32918 1.08654,1.08655 4.83982,0.76018 6.13333,-0.53333 z m 17.15432,-0.24496 c 1.58283,-1.90719 0.97345,-5.58269 -1.14578,-6.91087 -1.99319,-1.24919 -5.80854,1.58238 -5.80854,4.31082 0,3.64945 4.64278,5.38528 6.95432,2.60005 z m -50.52425,-17.75866 c 1.31522,-1.87774 1.34291,-2.50625 0.18722,-4.25 -1.81186,-2.73383 -4.34341,-3.10421 -6.69169,-0.97905 -2.3993,2.17133 -2.47781,5.01166 -0.1756,6.35257 2.78834,1.62406 5.01829,1.249 6.68007,-1.12352 z M 292.8,221.8 c 1.64482,-1.64482 1.50859,-5.299 -0.25201,-6.76017 -3.31213,-2.74883 -8.46631,2.25668 -6.39464,6.21017 1.05155,2.00673 4.87365,2.323 6.64665,0.55 z m 17.862,-1.40636 c 1.22209,-1.85032 1.15913,-2.39296 -0.51793,-4.46404 -1.68801,-2.08461 -2.21228,-2.21955 -4.5266,-1.16508 C 303.88835,215.55237 303,216.745 303,218.27856 c 0,4.83157 4.96297,6.20158 7.662,2.11508 z M 326.8,221.8 c 1.64482,-1.64482 1.50859,-5.299 -0.25201,-6.76017 -2.07248,-1.72 -5.43645,-0.33241 -6.15733,2.53981 -1.06572,4.24616 3.42592,7.20378 6.40934,4.22036 z"
     style="fill:#b12a41" />
  <path
     inkscape:connector-curvature="0"
     id="path6658"
     d="m 141.32659,535.06542 c -4.92961,-1.77466 -11.23326,-7.19837 -11.29728,-9.72026 -0.0195,-0.76981 1.28661,-0.97834 3.91757,-0.62546 2.73732,0.36715 4.40307,0.0732 5.43545,-0.95917 1.27733,-1.27733 9.05384,-1.50792 54.80311,-1.62502 29.32301,-0.075 53.98956,-0.15047 54.81456,-0.16759 0.825,-0.0171 2.73183,-1.11544 4.23741,-2.44073 l 2.73741,-2.4096 -1.56913,-8.80879 c -1.77194,-9.94728 -1.42316,-16.10512 1.40516,-24.8088 2.25112,-6.92743 11.05191,-22.67856 14.9968,-26.84041 l 2.69235,-2.8404 -5,-4.57706 -5,-4.57706 4.58786,2.66747 c 2.52332,1.4671 5.05742,2.66746 5.63134,2.66746 1.50579,0 7.14406,-5.99382 7.91083,-8.40969 0.68773,-2.16683 3.62959,-6.68588 6.63026,-10.18485 2.485,-2.89767 1.58475,-4.44096 -5.5619,-9.53473 -11.41358,-8.13502 -16.63352,-11.05234 -20.76817,-11.60692 -3.47999,-0.46676 -4.66366,-1.2997 -7.76791,-5.46624 -2.25687,-3.02918 -6.61286,-6.81022 -11.35087,-9.85266 -7.33551,-4.71037 -9.49906,-6.59062 -8.60846,-7.48122 0.22178,-0.22179 4.42935,2.34238 9.35013,5.69816 4.92079,3.35578 10.97189,6.97346 13.44689,8.03929 2.475,1.06584 5.84234,3.30923 7.48298,4.9853 3.37611,3.44904 22.33511,16.30366 25.55157,17.32452 2.55188,0.80994 5.17424,-1.32384 7.40542,-6.02571 0.86987,-1.8331 3.40136,-5.63511 5.62555,-8.44892 2.80445,-3.5479 3.85664,-5.70621 3.43282,-7.04155 -0.86564,-2.72739 -14.81198,-11.7923 -19.27062,-12.52561 -5.56147,-0.9147 -7.64217,-2.2264 -9.75499,-6.14966 -1.36607,-2.53665 -5.19667,-5.70168 -13.44163,-11.10618 -13.96673,-9.15504 -13.70587,-8.93856 -12.37477,-10.26966 0.74177,-0.74177 1.91801,-0.33201 3.95,1.37604 4.61209,3.87685 24.65611,16.68029 26.1133,16.68029 0.72878,0 3.2275,1.7095 5.55271,3.79888 5.25113,4.71854 19.33262,14.20112 21.08847,14.20112 0.71568,0 1.79185,-1.0125 2.39151,-2.25 1.28971,-2.66159 2.4827,-16.97398 1.60539,-19.26019 -0.57388,-1.49553 -8.0166,-6.77747 -14.97206,-10.62537 -1.71289,-0.9476 -4.77097,-2.0337 -6.79572,-2.41355 -2.79016,-0.52343 -4.52426,-1.79453 -7.16317,-5.2506 -1.91498,-2.50798 -7.18191,-7.05071 -11.70428,-10.09496 -5.06328,-3.40836 -7.60601,-5.66196 -6.61798,-5.86546 0.88248,-0.18176 5.15748,2.09883 9.5,5.06799 4.34253,2.96915 10.05422,6.20878 12.69267,7.19917 2.63844,0.99039 5.23245,2.61406 5.76447,3.60815 1.37501,2.56923 17.57831,13.88482 19.88229,13.88482 2.05002,0 2.52675,-1.0376 3.57678,-7.7847 0.36675,-2.35659 1.69817,-5.5104 2.95872,-7.00848 2.19453,-2.60806 5.52057,-9.45243 5.52057,-11.36033 0,-0.50009 -0.7875,-1.18211 -1.75,-1.51559 -0.9625,-0.33348 -4.675,-3.4315 -8.25,-6.88448 -3.575,-3.45298 -12.64125,-10.33414 -20.14721,-15.29146 -7.50597,-4.95732 -13.94503,-9.49518 -14.30902,-10.08414 -1.86877,-3.02373 3.80687,-0.10394 16.66517,8.57328 7.86008,5.30425 17.08582,10.92569 20.50164,12.49208 3.41582,1.56639 6.66582,3.6986 7.22222,4.73825 1.46641,2.74001 3.84023,3.32039 6.48715,1.58606 3.5228,-2.30823 15.36994,-16.75019 16.01153,-19.51846 0.31129,-1.34312 0.76165,-6.26703 1.0008,-10.94203 0.84766,-16.57026 1.80595,-23.4745 3.69449,-26.61803 1.03028,-1.71492 1.87323,-4.36271 1.87323,-5.88398 0,-3.78073 2.00773,-10.47174 4.05026,-13.49799 0.92804,-1.375 2.03525,-3.61816 2.46045,-4.98479 0.42521,-1.36664 2.43644,-4.74164 4.46941,-7.5 2.03297,-2.75837 4.18541,-5.91521 4.78321,-7.01521 1.76019,-3.23891 11.33569,-12.97044 16.73667,-17.00938 2.75,-2.05649 6.53707,-5.52933 8.41572,-7.71742 3.00522,-3.50023 3.4398,-4.71712 3.6161,-10.12577 0.11021,-3.38109 -0.22535,-6.6869 -0.74569,-7.34625 -0.68923,-0.87336 0.5009,-1.60895 4.3839,-2.70955 2.93148,-0.8309 6.67997,-1.64143 8.32997,-1.80118 l 3,-0.29045 0.32969,6.5 c 0.19085,3.76275 -0.39847,9.73752 -1.39941,14.18797 -1.99032,8.84943 -5.1591,13.09713 -18.25289,24.4678 -15.07029,13.08705 -23.85254,28.50521 -27.82186,48.84423 -1.28805,6.6 -2.34558,14.25 -2.35008,17 -0.009,5.37717 -2.46424,20.76991 -3.6335,22.77778 -1.53248,2.6316 -9.01998,11.53707 -14.90043,17.72222 -10.92065,11.48652 -15.10304,21.6945 -17.54753,42.82839 -0.52983,4.58061 -1.86657,10.0989 -2.97054,12.26286 -1.10397,2.16396 -12.70225,20.01619 -25.77394,39.67161 -13.0717,19.65543 -24.84528,38.43714 -26.16352,41.73714 -2.07266,5.18857 -2.47248,8.23544 -2.95639,22.52971 l -0.5596,16.52971 -3.8672,4.71631 c -3.22967,3.9388 -4.93681,5.04668 -10.35534,6.72029 -6.14129,1.89685 -9.22217,2.00205 -57.6328,1.9679 -47.31304,-0.0334 -51.53224,-0.1756 -56.31807,-1.8985 z M 318.7823,389.1545 c 0.28658,-0.86063 -0.19425,-1.221 -1.33427,-1 -0.98026,0.19002 -1.98391,0.95098 -2.23033,1.691 -0.28658,0.86063 0.19425,1.221 1.33427,1 0.98026,-0.19002 1.98391,-0.95098 2.23033,-1.691 z M 205.73616,488.75 C 204.05216,487.47123 202,482.94613 202,480.51163 c 0,-0.747 1.165,-2.74271 2.58889,-4.4349 2.23405,-2.65501 3.2521,-3.07673 7.42742,-3.07673 4.03607,0 5.18226,0.43699 6.91111,2.63486 1.13992,1.44917 2.07258,3.2922 2.07258,4.09563 0,3.03214 -4.07748,7.10791 -8.67967,8.67603 -5.56339,1.89564 -4.60594,1.84569 -6.58417,0.34348 z M 215,479.5 c 0.99319,-1.19672 0.99319,-1.80328 0,-3 -2.49896,-3.01106 -6.06097,-0.70723 -4.63837,3 0.31658,0.825 1.20962,1.5 1.98454,1.5 0.77492,0 1.96914,-0.675 2.65383,-1.5 z m 44.5,-36.07259 c -1.65,-0.85815 -3.9,-2.35561 -5,-3.32768 -3.70468,-3.27383 -11.29555,-7.07699 -16.24299,-8.13803 -4.16379,-0.89297 -5.28243,-1.65936 -7.33504,-5.02525 -1.4594,-2.39314 -5.19628,-5.82187 -9.40253,-8.62716 -3.83931,-2.56057 -6.39824,-4.84969 -5.68651,-5.08693 0.71173,-0.23725 4.35622,1.60485 8.09888,4.09355 3.74265,2.48869 8.73,5.1017 11.08299,5.80667 2.61645,0.78391 4.46597,1.9999 4.76166,3.1306 0.45137,1.72603 7.84553,7.47411 15.91836,12.37461 3.30495,2.00623 8.30423,6.37945 7.2774,6.36605 -0.25972,-0.003 -1.82222,-0.70828 -3.47222,-1.56643 z M 285,292.5 c -1.59557,-1.92255 0.0323,-1.94278 2.55887,-0.0318 1.63076,1.23344 1.68089,1.47328 0.31357,1.5 C 286.97729,293.9857 285.68469,293.325 285,292.5 Z m 9.06361,-1 c 0,-0.55 0.66069,-1.87351 1.46819,-2.94113 0.80751,-1.06762 1.4682,-1.49113 1.4682,-0.94113 0,0.55 -0.66069,1.87351 -1.4682,2.94113 -0.8075,1.06762 -1.46819,1.49113 -1.46819,0.94113 z m 17.61782,-2.13655 c 0.95014,-1.45011 1.90306,-2.10998 2.11759,-1.46638 0.43828,1.31482 -1.56265,4.10293 -2.94452,4.10293 -0.49533,0 -0.12321,-1.18645 0.82693,-2.63655 z M 301,274.5 c -1.58383,-1.9084 -0.0985,-1.88905 2.44113,0.0318 1.55395,1.17535 1.62824,1.4682 0.37244,1.4682 -0.86277,0 -2.12888,-0.675 -2.81357,-1.5 z m 11.01531,-1.19098 C 312.02373,272.86406 312.46684,271.825 313,271 c 0.8354,-1.29269 0.97149,-1.26629 0.98469,0.19098 0.008,0.93004 -0.43469,1.9691 -0.98469,2.30902 -0.55,0.33992 -0.99311,0.25398 -0.98469,-0.19098 z m 16.8859,-5.41478 C 322.94915,261.52255 326.65616,253 335.37967,253 c 3.64353,0 4.86033,0.48965 6.54775,2.63486 1.13992,1.44917 2.07258,3.64186 2.07258,4.87264 0,2.5484 -8.00765,10.4925 -10.57645,10.4925 -0.89162,0 -2.92667,-1.39759 -4.52234,-3.10576 z M 337,262.5 c 0.99319,-1.19672 0.99319,-1.80328 0,-3 -0.68469,-0.825 -1.80969,-1.5 -2.5,-1.5 -1.91499,0 -3.61065,2.54807 -2.91026,4.37325 0.78257,2.03935 3.76496,2.10922 5.41026,0.12675 z m -86.17652,-21.09627 c -3.04459,-4.23952 -10.40673,-10.76987 -19.9733,-17.71669 -2.13058,-1.54713 -4.76203,-4.5541 -5.84769,-6.68215 -1.08565,-2.12806 -2.43034,-4.15128 -2.9882,-4.49606 -2.1077,-1.30263 -0.86336,-3.18363 3.51246,-5.30956 6.35626,-3.08812 7.39205,-2.74245 3.57696,1.19372 -2.78935,2.87789 -3.12157,3.70513 -2.18829,5.44897 1.06087,1.98225 1.20954,1.99505 4.14584,0.35701 2.95619,-1.64914 3.10037,-1.6325 4.91538,0.56703 1.02842,1.24631 3.17263,2.82131 4.76491,3.5 3.5641,1.51918 12.25845,11.14819 12.25845,13.57625 0,0.97652 0.66069,2.649 1.4682,3.71662 1.74337,2.30495 1.98741,5.44113 0.42339,5.44113 -0.68296,0 -0.86756,0.9596 -0.48095,2.5 0.8925,3.55599 0.16789,3.13254 -3.58716,-2.09627 z m 74.39167,0.3091 c 1.64361,-0.65038 3.30056,-2.48301 4.19848,-4.64362 1.41503,-3.4049 1.48569,-3.44441 1.53484,-0.85817 0.0608,3.19616 -3.41793,6.8358 -6.38703,6.68258 -1.7416,-0.0899 -1.64018,-0.27308 0.65371,-1.18079 z m -23.75627,-0.77936 c -1.07627,-1.74144 0.14952,-2.11024 1.52106,-0.45764 0.78875,0.95039 0.86462,1.52417 0.20152,1.52417 -0.58488,0 -1.36004,-0.47994 -1.72258,-1.06653 z M 267.55353,224.6628 c -3.32056,-2.42805 -1.1256,-3.34496 2.34435,-0.97931 2.65266,1.80845 2.96873,2.31651 1.44113,2.31651 -1.07621,0 -2.77968,-0.60174 -3.78548,-1.3372 z M 326,225.18146 c 0,-1.20855 1.8972,-2.61759 2.5907,-1.9241 0.2517,0.2517 -0.22824,1.02686 -1.06653,1.72258 C 326.57378,225.76869 326,225.84456 326,225.18146 Z m 3.26739,-8.23596 c -1.30882,-3.5185 -0.92972,-5.00783 0.82745,-3.25066 0.58384,0.58384 0.91384,2.29963 0.73334,3.81289 L 330.5,220.25911 Z"
     style="fill:#a02539" />
  <path
     inkscape:connector-curvature="0"
     id="path6656"
     d="m 141.10777,534.98836 c -6.02649,-2.16763 -6.77192,-2.65721 -5.69185,-3.73836 0.41209,-0.4125 26.92459,-0.98046 58.91667,-1.26213 40.16209,-0.35361 58.95429,-0.86318 60.70947,-1.64619 2.30972,-1.03041 7.95794,-7.90508 7.95794,-9.68592 0,-0.40521 0.99102,-2.07717 2.20227,-3.71547 2.01346,-2.72336 2.09919,-3.36408 1,-7.47386 C 265.54102,504.99411 265,500.72776 265,497.98565 265,494.3624 264.61475,493 263.5902,493 c -2.05576,0 0.22846,-9.06818 3.90435,-15.5 1.57168,-2.75 4.13554,-7.31336 5.69749,-10.14081 1.56194,-2.82744 3.50771,-5.69504 4.32393,-6.37244 0.81622,-0.6774 1.48403,-2.30024 1.48403,-3.60631 0,-1.30607 1.47602,-4.06347 3.28005,-6.12756 1.80403,-2.06408 4.93434,-6.30381 6.95626,-9.42161 2.02191,-3.1178 4.62563,-5.97006 5.78604,-6.33836 1.57814,-0.50089 2.03774,-1.35701 1.82374,-3.39719 -0.32851,-3.13183 5.9805,-12.80234 12.90391,-19.77924 2.3375,-2.35556 4.25,-5.08563 4.25,-6.06683 0,-0.9812 1.92421,-4.02627 4.27602,-6.76683 2.6772,-3.11973 4.73932,-6.7854 5.51514,-9.8038 C 325.07813,384.67191 324.78033,383 322.6015,383 c -0.70426,0 -1.80127,-1.14302 -2.4378,-2.54005 -0.92768,-2.03605 -0.85539,-3.00086 0.36432,-4.86237 0.83691,-1.27728 3.01533,-6.77176 4.84094,-12.20995 2.91587,-8.6859 3.60017,-9.89035 5.6303,-9.91001 3.54219,-0.0343 4.84359,-2.8888 2.49847,-5.48013 -2.05368,-2.26929 -1.9933,-2.37373 3.00227,-5.19329 7.98979,-4.50953 19.5,-17.88241 19.5,-22.65561 0,-1.5919 0.89042,-4.9073 1.97871,-7.36756 1.0883,-2.46027 2.24894,-7.80497 2.5792,-11.87712 L 361.1584,293.5 359.10143,296 c -1.88624,2.29251 -2.05516,2.33401 -2.0353,0.5 0.0119,-1.1 0.67013,-3.8 1.46271,-6 0.79257,-2.2 1.44782,-5.1285 1.4561,-6.50778 0.0367,-6.11294 9.84083,-29.54453 14.30611,-34.1912 0.68763,-0.71556 3.03632,-3.50402 5.21933,-6.19658 2.183,-2.69256 6.32083,-6.63289 9.19516,-8.75628 2.87434,-2.1234 7.32803,-6.10789 9.8971,-8.85444 2.56908,-2.74655 5.23198,-4.99372 5.91757,-4.99372 1.32977,0 2.44374,-3.05344 2.46614,-6.75979 0.008,-1.24288 0.91365,-3.03039 2.01365,-3.97224 C 412.1674,207.55596 411.0377,200 407.46482,200 406.65917,200 406,199.37607 406,198.6135 c 0,-1.34053 5.67947,-2.85668 7.25,-1.93541 1.38415,0.81194 0.72186,14.75378 -1.02284,21.53166 -2.03658,7.91181 -5.41301,12.33694 -17.49129,22.92403 -15.74246,13.79889 -24.36676,28.80044 -28.38034,49.36622 -1.28805,6.6 -2.34558,14.25 -2.35008,17 -0.009,5.37717 -2.46424,20.76991 -3.6335,22.77778 -1.53248,2.6316 -9.01998,11.53707 -14.90043,17.72222 -10.92065,11.48652 -15.10304,21.6945 -17.54753,42.82839 -0.52983,4.58061 -1.86657,10.0989 -2.97054,12.26286 -1.10397,2.16396 -12.70225,20.01619 -25.77394,39.67161 -13.0717,19.65543 -24.84528,38.43714 -26.16352,41.73714 -2.07266,5.18857 -2.47248,8.23544 -2.95639,22.52971 l -0.5596,16.52971 -3.8672,4.71631 c -3.22967,3.9388 -4.93681,5.04668 -10.35534,6.72029 -6.14129,1.89685 -9.22217,2.00205 -57.6328,1.9679 -48.04071,-0.0339 -51.47191,-0.15378 -56.53689,-1.97556 z M 325.36971,377.75 c 0.94257,-3.51717 0.74461,-4.75 -0.76272,-4.75 -1.75338,0 -2.83676,2.70069 -2.06228,5.14088 0.79999,2.52052 2.09271,2.34165 2.825,-0.39088 z M 206.65499,484.17126 c -2.06558,-2.28244 -2.09133,-4.10328 -0.0983,-6.94875 2.05853,-2.93897 3.4433,-2.81475 3.4433,0.30887 0,1.39227 0.68073,2.79261 1.51273,3.11188 1.97404,0.75751 4.73313,-1.56017 4.0321,-3.38703 -0.71203,-1.85553 1.50477,-1.1247 2.79557,0.92164 0.71734,1.13722 0.38017,2.40581 -1.24665,4.69048 -2.63204,3.69636 -7.70024,4.32894 -10.43876,1.30291 z M 330.63486,265.92742 c -2.98216,-2.34577 -3.36534,-5.43951 -1.07816,-8.70491 1.73569,-2.47805 7.18496,-3.08085 9.2433,-1.02251 1.9014,1.9014 1.43943,7.56057 -0.8,9.8 -2.53348,2.53348 -4.07134,2.51833 -7.36514,-0.0726 z M 337,262.5 c 0.99319,-1.19672 0.99319,-1.80328 0,-3 -0.68469,-0.825 -1.80969,-1.5 -2.5,-1.5 -1.91499,0 -3.61065,2.54807 -2.91026,4.37325 0.78257,2.03935 3.76496,2.10922 5.41026,0.12675 z M 237.5,229.00141 C 227.30002,220.53404 225,218.32818 225,217.01314 c 0,-0.74304 1.34772,-0.17112 3.25,1.37917 1.7875,1.45675 4.825,3.7225 6.75,5.03501 6.97691,4.75702 12.09099,10.59745 9.25,10.56379 -0.4125,-0.005 -3.45,-2.25025 -6.75,-4.9897 z M 222.2375,212.8375 C 220.73545,211.33545 220.61001,209 222.03138,209 c 1.20795,0 2.31473,2.46167 1.80045,4.00451 -0.23856,0.71567 -0.76701,0.66031 -1.59433,-0.16701 z"
     style="fill:#7b2837" />
</svg>
