<?xml version="1.0" encoding="UTF-8" standalone="no"?>
<!-- Created with Inkscape (http://www.inkscape.org/) -->

<svg
   xmlns:dc="http://purl.org/dc/elements/1.1/"
   xmlns:cc="http://creativecommons.org/ns#"
   xmlns:rdf="http://www.w3.org/1999/02/22-rdf-syntax-ns#"
   xmlns:svg="http://www.w3.org/2000/svg"
   xmlns="http://www.w3.org/2000/svg"
   xmlns:sodipodi="http://sodipodi.sourceforge.net/DTD/sodipodi-0.dtd"
   xmlns:inkscape="http://www.inkscape.org/namespaces/inkscape"
   version="1.1"
   id="svg890"
   width="1000"
   height="600"
   viewBox="0 0 1000 600"
   sodipodi:docname="P2.svg"
   inkscape:version="0.92.3 (2405546, 2018-03-11)">
  <metadata
     id="metadata896">
    <rdf:RDF>
      <cc:Work
         rdf:about="">
        <dc:format>image/svg+xml</dc:format>
        <dc:type
           rdf:resource="http://purl.org/dc/dcmitype/StillImage" />
        <dc:title></dc:title>
      </cc:Work>
    </rdf:RDF>
  </metadata>
  <defs
     id="defs894" />
  <sodipodi:namedview
     pagecolor="#ffffff"
     bordercolor="#666666"
     borderopacity="1"
     objecttolerance="10"
     gridtolerance="10"
     guidetolerance="10"
     inkscape:pageopacity="0"
     inkscape:pageshadow="2"
     inkscape:window-width="1858"
     inkscape:window-height="1057"
     id="namedview892"
     showgrid="false"
     inkscape:zoom="1.148"
     inkscape:cx="538.25907"
     inkscape:cy="213.94881"
     inkscape:window-x="54"
     inkscape:window-y="-8"
     inkscape:window-maximized="1"
     inkscape:current-layer="svg890" />
  <path
     inkscape:connector-curvature="0"
     id="path1455"
     d="m 146,544.04904 c -6.74822,-1.44159 -14.52434,-4.07705 -17.128,-5.80497 -6.84297,-4.54133 -11.08638,-12.00225 -12.53625,-22.04168 l -0.62065,-4.2976 4.89245,2.59988 c 2.69085,1.42993 5.31995,3.02636 5.84245,3.54761 1.65974,1.65576 7.14292,1.05501 8.98897,-0.98484 0.98124,-1.08426 2.4223,-1.67417 3.28294,-1.34391 1.75938,0.67513 5.22137,-3.25959 5.25585,-5.97353 0.0122,-0.9625 0.40001,-1.75 0.86172,-1.75 0.46172,0 1.30092,-1.0125 1.86489,-2.25 0.92254,-2.02431 12.61664,-19.06658 23.25143,-33.88523 2.22431,-3.09938 4.0442,-6.08178 4.0442,-6.62756 0,-0.54578 0.6851,-1.5609 1.52244,-2.25584 0.83735,-0.69493 4.8974,-6.14466 9.02234,-12.11051 9.07384,-13.12338 22.42716,-30.66155 25.33577,-33.27585 2.78736,-2.50531 2.69447,-3.17607 -1.02672,-7.41427 -3.58653,-4.08484 -2.39098,-5.41148 2.03596,-2.25921 1.60542,1.14316 3.32849,2.07847 3.82904,2.07847 1.04513,0 12.79716,-15.8436 14.46146,-19.49634 0.97558,-2.14117 0.73216,-2.78302 -2.03612,-5.36899 -1.7293,-1.6154 -3.14417,-3.4581 -3.14417,-4.0949 0,-1.22591 0.7924,-0.89437 5.26458,2.20267 1.52051,1.05298 3.17194,1.7667 3.66984,1.58603 C 234.3066,384.33058 248,364.80279 248,363.34386 c 0,-0.70042 -0.86871,-1.73841 -1.93046,-2.30664 -2.05836,-1.1016 -6.55954,-6.88056 -5.88477,-7.55532 0.22162,-0.22162 2.40821,0.92736 4.85909,2.55329 2.45088,1.62594 4.95386,2.95817 5.56217,2.96053 1.19661,0.005 8.9486,-9.92414 10.63056,-13.61563 0.89284,-1.95957 0.51111,-2.76378 -2.85292,-6.01054 -3.13704,-3.02769 -3.55081,-3.82141 -2.15228,-4.12866 0.95226,-0.2092 2.73989,0.32601 3.9725,1.18937 3.26861,2.28942 5.70595,1.93708 6.81711,-0.98549 0.53432,-1.40537 2.37375,-5.46271 4.08761,-9.0163 1.84534,-3.8262 2.89429,-7.30938 2.57215,-8.54123 C 272.97713,315.19655 273.84287,313 275.60699,313 276.37314,313 277,312.70796 277,312.35102 c 0,-1.17627 -7.32827,-7.79994 -11.70435,-10.579 -3.23281,-2.05301 -4.33797,-3.41384 -4.46669,-5.5 -0.0941,-1.52461 -0.25537,-3.67202 -0.35844,-4.77202 -0.10306,-1.1 -0.25109,-4.33218 -0.32895,-7.18261 -0.11472,-4.1995 -0.51379,-5.30075 -2.1038,-5.8054 -1.07922,-0.34253 -2.90799,-0.11663 -4.06392,0.502 -3.14606,1.68373 -4.54722,-0.0857 -6.33435,-7.99939 -3.56771,-15.79832 -15.71702,-31.5656 -26.1395,-33.92364 -8.80316,-1.99168 -48.09108,-4.23605 -78.5,-4.48442 -18.19718,-0.14863 -30.46706,-0.65172 -32.02399,-1.31306 -1.38819,-0.58967 -9.62466,-5.62192 -18.303275,-11.1828 C 83.994124,214.54981 76.57852,210 76.193614,210 75.808709,210 71.688392,207.4125 67.037355,204.25 59.488714,199.11726 58.436743,198.01693 57.237815,194 55.247745,187.3324 50,152.48666 50,145.93992 c 0,-3.118 -1.327092,-20.91753 -2.949092,-39.5545 C 45.428907,87.748437 43.966407,69.35 43.800908,65.5 L 43.5,58.5 46.466501,58.162686 c 1.631576,-0.185522 5.215625,-2.128092 7.964554,-4.316822 4.675507,-3.722694 5.08298,-3.863364 6.314055,-2.179769 1.259479,1.72244 8.47681,1.787962 168.03545,1.525509 110.60473,-0.18193 167.22431,0.06437 168.21944,0.731774 1.25566,0.842135 1.5148,4.731885 1.59086,23.879313 0.05,12.580319 0.41478,23.397429 0.81069,24.038009 0.52074,0.84257 1.26665,0.87206 2.69691,0.10661 1.0874,-0.58196 2.82468,-0.78909 3.86063,-0.46029 1.31907,0.41865 2.43158,-0.19137 3.71223,-2.035543 C 413.70333,93.645261 425.15651,83 427.37138,83 c 4.41053,0 6.01996,-2.256666 5.75475,-8.069026 -0.13366,-2.929263 0.0532,-8.091619 0.41516,-11.471903 l 0.65817,-6.145971 96.15027,-0.569251 c 52.88265,-0.313088 114.30302,-0.313922 136.48972,-0.0019 39.76632,0.559334 40.35108,0.597165 41.15819,2.662701 1.21435,3.107761 -0.34046,3.848756 -14.64584,6.979952 -7.06849,1.547167 -20.54252,4.568554 -29.94229,6.714192 C 654.00975,75.244478 645.76933,77 645.09748,77 643.99856,77 618.82595,87.154618 603.5,93.780399 c -7.05655,3.05072 -11.5,5.924796 -11.5,7.438341 0,0.75532 4.60973,0.90339 15.25,0.48986 67.00276,-2.604076 74.59354,-3.061406 97.9674,-5.90235 7.94664,-0.965863 8.63187,-1.219369 7.75,-2.867156 -1.16493,-2.176691 -1.2421,-6.958197 -0.14031,-8.693565 C 715.02715,80.78034 720.50786,78 725.13852,78 c 7.09005,0 10.37726,3.141953 10.09417,9.648137 -0.20844,4.790577 -0.15162,4.889791 3.52773,6.159525 2.05677,0.709787 5.08958,1.44847 6.73958,1.641518 1.65,0.193049 5.67015,0.845957 8.93366,1.450909 C 757.69717,97.50504 762.37378,98 764.82612,98 h 4.45879 l -0.63263,-5.75 c -0.34795,-3.1625 -0.92094,-7.4375 -1.2733,-9.5 -0.56399,-3.301222 -0.40031,-3.75 1.36773,-3.75 3.25849,0 4.37024,2.410184 5.17266,11.213943 0.4168,4.572897 1.36184,9.43299 2.10009,10.800207 0.73825,1.36722 1.59838,5.41085 1.9114,8.98585 l 0.56914,6.5 10.5,-0.34558 c 5.775,-0.19006 10.8495,-0.67456 11.27666,-1.07665 0.8941,-0.84164 0.92467,-1.61708 0.82824,-21.011004 -0.0395,-7.938279 0.12616,-14.631157 0.36806,-14.873063 0.24191,-0.241905 4.62195,-0.666891 9.73344,-0.944412 5.11148,-0.277522 9.84105,-0.939754 10.51016,-1.471627 0.6691,-0.531874 5.04144,-0.92569 9.71631,-0.875146 7.62153,0.0824 8.61415,-0.121852 9.60691,-1.976845 1.04974,-1.961455 1.73084,-2.042579 13.1333,-1.564266 6.61437,0.277461 11.86881,0.353676 11.67653,0.169366 -0.19229,-0.184309 -7.74781,-1.309168 -16.79006,-2.499685 -9.04225,-1.190517 -17.36725,-2.683199 -18.5,-3.317072 -2.5109,-1.405064 -12.97116,-2.767248 -25.05955,-3.26337 -4.95,-0.203154 -9.3375,-0.387658 -9.75,-0.410009 -1.48971,-0.08072 -0.63332,-1.57993 2.00096,-3.502915 2.42205,-1.768061 4.12626,-1.937334 17.21857,-1.710254 12.15069,0.210747 19.28006,1.071881 43.53047,5.257902 15.95,2.753233 31.7,5.701378 35,6.551434 3.3,0.850056 7.3125,1.617025 8.91667,1.704376 1.61256,0.08781 3.12261,0.829504 3.37728,1.65882 0.25334,0.825 1.25584,2.4 2.22778,3.5 0.97195,1.1 2.07836,4.025 2.4587,6.5 0.38034,2.475 1.79374,8.720282 3.14091,13.878405 2.19932,8.420965 2.34381,10.137445 1.41526,16.813415 -0.56876,4.08926 -1.54252,8.38499 -2.16392,9.54608 -0.76063,1.42125 -0.9784,7.09249 -0.66645,17.3561 0.29008,9.54411 0.0761,15.92956 -0.57213,17.07552 -0.57694,1.01989 -1.13891,9.58001 -1.26903,19.33048 -0.12845,9.625 -0.53038,19.35983 -0.89318,21.63297 -0.41529,2.602 -0.25444,4.38339 0.43424,4.80901 1.61823,1.00013 1.37982,11.07581 -0.29496,12.46576 -1.0805,0.89674 -1.4781,5.86356 -1.79092,22.37244 -0.39402,20.79397 -0.4593,21.34548 -3.25303,27.48162 -3.29422,7.23543 -8.79152,12.68791 -14.26055,14.14429 -2.09367,0.55754 -7.18167,1.23169 -11.30667,1.49812 -4.125,0.26643 -9.975,1.17913 -13,2.02823 -4.12944,1.15911 -10.57902,1.54678 -25.88197,1.55569 -19.12561,0.0111 -20.59729,0.14495 -23.87525,2.17084 -3.45538,2.13554 -3.86088,2.15212 -37.36803,1.52787 L 745,288.05574 v 5.83228 c 0,4.70722 0.78171,7.52429 4.05233,14.60354 2.22878,4.82419 3.91628,9.72462 3.75,10.88985 -0.26546,1.86021 -0.97311,2.12232 -5.80233,2.14915 -3.025,0.0168 -7.525,0.34381 -10,0.72667 -7.47205,1.15584 -22.35163,1.53937 -24.75,0.63794 -1.57188,-0.5908 -2.26229,-1.68194 -2.29078,-3.62042 -0.0224,-1.52611 -1.07479,-5.69975 -2.3386,-9.27475 l -2.29782,-6.5 -50.4114,-0.24244 c -49.98805,-0.24039 -50.4261,-0.26022 -52.1614,-2.36078 -1.54826,-1.87415 -1.75,-4.62919 -1.75,-23.89916 v -21.7808 l -2.58504,-0.64881 c -1.42178,-0.35684 -3.43277,-0.37975 -4.46888,-0.0509 -1.83694,0.58303 -3.91234,5.8205 -3.95582,9.98289 -0.0346,3.31376 -1.5037,4.7892 -3.98457,4.0018 -1.30519,-0.41424 -3.27428,-0.16083 -4.70659,0.60572 -2.10004,1.1239 -3.14984,1.05619 -7.13084,-0.45995 -8.98476,-3.42181 -8.08546,-4.92096 -8.39358,13.99225 L 565.5,299.5 l -3.55953,0.29901 c -3.38565,0.2844 -3.71109,0.65077 -6.66233,7.5 -3.10467,7.20532 -3.02514,9.70099 0.30912,9.70099 1.54752,0 3.89248,3.8536 2.9304,4.81567 -0.35441,0.35441 -3.42837,-0.38322 -6.83102,-1.63918 -3.40265,-1.25596 -6.5987,-2.37197 -7.10234,-2.48003 -1.54033,-0.33047 -2.55604,6.31946 -2.49022,16.30354 0.10661,16.1687 0.0146,17.03866 -2.11953,20.03574 -1.20066,1.68617 -3.60789,3.32374 -5.76765,3.92358 -4.40212,1.22261 -106.74915,1.35449 -121.2069,0.15617 -7.72759,-0.64049 -11.4506,-1.57815 -19.9551,-5.02582 -9.46153,-3.83565 -10.98822,-4.17656 -16.06513,-3.58732 -3.08552,0.35811 -6.1826,1.00497 -6.8824,1.43747 -2.18441,1.35004 -0.78266,5.35101 2.55586,7.29508 3.13043,1.82289 3.18024,1.81784 6.88955,-0.69937 4.51131,-3.06146 4.84146,-3.07921 9.03756,-0.48588 3.72421,2.30169 4.90485,4.88107 3.95904,8.64945 -0.61728,2.45947 -15.71402,28.90733 -19.72067,34.54851 -2.52809,3.55943 -5.80576,4.32756 -9.75397,2.28587 -3.69177,-1.90909 -5.34371,-5.52674 -4.52382,-9.90688 0.50543,-2.70014 0.18052,-3.36529 -2.38212,-4.8766 -4.4806,-2.64241 -5.82422,-2.18481 -8.80859,3 -1.50375,2.6125 -4.89772,7.99218 -7.54215,11.95484 -3.02597,4.53439 -4.80806,8.29691 -4.80806,10.15122 0,2.27983 -0.75487,3.39177 -3.33675,4.91512 -3.99876,2.35933 -12.80782,15.21733 -13.2956,19.40671 -0.44743,3.84276 -1.05468,4.75262 -3.8919,5.83133 -2.33347,0.88718 -11.10528,12.69458 -10.14461,13.65526 0.28069,0.28068 3.35851,-0.40205 6.8396,-1.51718 3.48109,-1.11513 11.05426,-3.36086 16.82926,-4.99051 11.7908,-3.32727 1.23751,-2.94193 101,-3.68786 120.08503,-0.89788 328.72985,-3.36014 330.5,-3.9003 1.1,-0.33566 13.7,-1.04874 28,-1.58461 14.3,-0.53587 30.05,-1.42783 35,-1.98212 8.96409,-1.00379 25.93025,-0.29274 47.5,1.99072 5.225,0.55314 21.425,2.13004 36,3.50423 27.42548,2.58579 45.28506,4.93243 47.32388,6.21807 0.64686,0.4079 6.12612,1.00773 12.17612,1.33295 13.15405,0.70709 23.58602,3.6135 29.71354,8.27838 4.0387,3.07466 4.30353,3.58418 4.58179,8.81525 0.28217,5.3049 0.14057,5.67001 -3.1824,8.20457 -1.91275,1.45892 -3.78279,3.66539 -4.15564,4.90326 -0.86911,2.88541 -6.14178,8.4943 -9.77206,10.39516 -1.54813,0.81063 -6.94813,2.09534 -12,2.85493 -5.05188,0.75959 -14.58523,2.80147 -21.18523,4.53751 -31.69688,8.33743 -35.95471,9.06041 -55.5,9.42399 -18.23051,0.33912 -25.48689,-0.10981 -50.5,-3.12426 -16.34189,-1.96945 -29.03657,-2.03127 -43,-0.20941 -5.54267,0.72317 -27.82325,1.27313 -58,1.43164 -63.38472,0.33294 -92.10664,-1.76522 -96.49162,-7.04879 -1.87955,-2.26472 -4.36665,-1.87744 -14.3844,2.2399 l -9.12398,3.75 -54,-0.028 c -37.71489,-0.0196 -58.29452,-0.43856 -68.24025,-1.38934 l -14.24025,-1.36132 -3.75975,2.48312 c -7.66413,5.06174 -19.65956,7.29827 -33.98808,6.33701 -15.92152,-1.06812 -20.82833,-0.73974 -28.76702,1.92519 -9.40447,3.15697 -10.16677,3.29192 -90.50465,16.02117 -9.53212,1.51034 -20.9341,4.06311 -27,6.045 -23.15242,7.56451 -24.43775,7.67609 -92,7.98621 -33.275,0.15274 -62.075,-0.0588 -64,-0.46998 z m 151.8493,-48.02046 c 2.81725,-0.53428 10.85249,-1.71034 17.85608,-2.61346 17.80147,-2.29552 19.14958,-3.2761 4.60797,-3.35173 -8.53632,-0.0444 -14.6768,-0.66036 -20.5,-2.05638 -11.68917,-2.8023 -12.62565,-2.70049 -14.40847,1.56639 -2.17899,5.21506 -1.12898,7.4266 3.52602,7.4266 2.08787,0 6.10114,-0.43714 8.9184,-0.97142 z M 596.5,489 c -0.78398,-1.2685 -4.53713,-1.2685 -6.5,0 -1.09674,0.70877 -0.34157,0.97349 2.80902,0.98469 2.62138,0.009 4.06696,-0.37634 3.69098,-0.98469 z M 372.66354,386.69194 c 7.01091,-8.82604 9.57617,-12.54509 12.36036,-17.91973 2.20476,-4.2561 2.29553,-4.88135 0.90981,-6.26707 -1.38572,-1.38572 -1.95045,-0.96392 -5.66052,4.22779 -2.26668,3.17189 -6.12228,9.86708 -8.568,14.8782 -2.44572,5.01112 -4.95491,9.42517 -5.57598,9.80901 -0.62107,0.38384 -1.12921,1.10721 -1.12921,1.60749 0,2.01377 3.00383,-0.46959 7.66354,-6.33569 z M 522.88275,344.25 c 2.27494,-2.29252 3.52545,-5.95437 7.51715,-22.01219 2.63354,-10.59421 5.16155,-23.41921 5.6178,-28.5 1.05042,-11.6973 2.8371,-27.22073 3.64075,-31.63237 0.4143,-2.27432 0.26807,-3.17806 -0.4431,-2.73853 -1.47471,0.91142 -2.03474,4.02501 -3.66419,20.37192 -0.78062,7.83135 -1.65417,14.61883 -1.94121,15.08327 -0.28704,0.46444 -1.87946,0.64519 -3.53871,0.40166 -2.89059,-0.42425 -3.17094,-0.12257 -6.7005,7.21026 -2.02602,4.20917 -4.03341,7.29595 -4.46086,6.85951 -0.42745,-0.43644 -0.11981,-3.94353 0.68365,-7.79353 1.73154,-8.29714 5.33355,-41.58005 5.37641,-49.67857 C 525.01886,242.57874 526.66834,243 490.42857,243 461.14973,243 459,243.11984 459,244.75198 c 0,3.34697 3.87145,21.78776 6.01081,28.63113 2.98561,9.55037 8.45936,20.91838 13.77917,28.61689 5.13919,7.43713 17.03196,20 18.9332,20 2.55189,0 1.1906,3.96398 -2.26693,6.60117 l -3.54376,2.70295 -10.12846,-6.8516 c -5.57066,-3.76839 -13.67273,-10.02432 -18.0046,-13.90207 -4.7488,-4.25097 -9.14739,-7.32272 -11.07778,-7.73616 -1.95918,-0.41961 -6.59316,0.0655 -11.94106,1.25 C 435.95391,305.12893 429.38618,306 426.16562,306 c -5.10052,0 -6.61696,-0.49552 -11.76058,-3.84293 -3.4785,-2.26377 -11.04162,-9.41831 -18.40504,-17.41074 -6.875,-7.4623 -13.04353,-13.60798 -13.70785,-13.65707 -1.77487,-0.13116 -6.22354,8.00129 -8.2975,15.16835 -2.02052,6.98239 -3.44842,23.80669 -2.46527,29.04729 0.57454,3.06258 2.13109,4.42724 14.89369,13.05755 L 400.67516,338 l 8.91242,0.0153 c 9.13465,0.0157 14.16824,1.3092 9.36027,2.40535 -1.34632,0.30694 -4.69785,0.91078 -7.44785,1.34188 -2.75,0.43109 -4.94951,1.22338 -4.8878,1.76063 0.36622,3.18848 4.79346,3.44732 59.21472,3.46209 l 54.32693,0.0147 2.7289,-2.75 z M 485.5,341.75556 c -2.2,-0.55794 -13.45,-0.937 -25,-0.84234 -12.27728,0.10062 -21.60139,-0.23244 -22.44785,-0.80185 -2.7179,-1.82831 2.88254,-2.11678 36.14847,-1.86191 32.52875,0.24922 36.22003,0.64286 34.35323,3.66341 -0.84399,1.36561 -17.49695,1.25198 -23.05385,-0.15731 z M 279,302.875 c 0,-2.9776 -0.14986,-3.09503 -3.17708,-2.48958 -4.30405,0.86081 -4.48948,1.24542 -1.71458,3.55631 C 277.55801,306.81455 279,306.5001 279,302.875 Z m -7.70579,-8.4146 c 1.95473,-6.34806 2.17179,-10.05436 0.64411,-10.99852 -0.58393,-0.36089 -1.50977,-1.8347 -2.05742,-3.27513 -0.60308,-1.58623 -1.26884,-2.17918 -1.68832,-1.50368 -0.38092,0.61341 -1.81758,1.27317 -3.19258,1.46611 -2.40579,0.3376 -2.50265,0.63344 -2.5703,7.85082 -0.0575,6.13887 0.2917,7.90834 1.92432,9.75 3.28186,3.70207 5.04453,2.86657 6.94019,-3.2896 z M 421.36514,283.92742 C 422.81431,282.7875 424,281.1725 424,280.33853 c 0,-1.12268 -0.79872,-0.84424 -3.07673,1.07258 -1.69219,1.42389 -3.49219,2.58889 -4,2.58889 -0.5078,0 -0.92327,0.45 -0.92327,1 0,1.64711 2.55765,1.13579 5.36514,-1.07258 z m 27.5291,-0.82863 c 3.20732,-2.99608 4.1102,-6.09879 1.77474,-6.09879 -0.73206,0 -1.91722,1.09532 -2.63369,2.43405 -0.71646,1.33873 -2.5925,2.96833 -4.16898,3.62132 -3.48842,1.44496 -3.72884,2.94463 -0.47207,2.94463 1.31684,0 3.79184,-1.30554 5.5,-2.90121 z m -7.62026,-2.05232 c 3.19855,-1.602 4.42788,-5.1827 3.06822,-8.9369 -1.78832,-4.93782 -9.22807,-2.08085 -9.3104,3.57533 -0.0415,2.84895 1.77037,7.58032 2.72435,7.1143 0.40912,-0.19986 1.99214,-0.98858 3.51783,-1.75273 z m -23.94151,-2.346 c 2.00073,-2.32092 1.65477,-7.46105 -0.59753,-8.87793 -1.7373,-1.09291 -4.92282,-0.01 -6.98494,2.37514 -2.16947,2.50901 -2.21671,4.69098 -0.16499,7.62022 1.85954,2.65488 4.86986,2.22069 7.74746,-1.11743 z m -0.2283,-22.80464 c 1.60598,-1.60598 1.95756,-2.8372 1.48494,-5.20029 -0.7877,-3.93851 -2.14264,-4.74714 -5.81135,-3.46822 -3.74823,1.30664 -5.24217,4.42099 -3.86203,8.05102 1.28582,3.38198 5.13378,3.67215 8.18844,0.61749 z m 25.58327,1.31851 c 3.38397,-2.15172 3.22949,-9.54151 -0.22719,-10.86797 -2.49392,-0.957 -6.34036,1.32777 -7.05958,4.19336 -1.33844,5.33278 3.06033,9.36201 7.28677,6.67461 z m 119.70377,-31.17298 c 2.41208,-0.91707 2.52063,-1.31112 2.50354,-9.08805 -0.01,-4.47117 -0.50316,-9.19451 -1.09629,-10.4963 -1.86327,-4.08943 0.63336,-8.12963 6.83734,-11.06458 3.79619,-1.79589 5.3642,-3.11024 5.3642,-4.49644 0,-1.07732 0.675,-2.21778 1.5,-2.53436 1.6225,-0.62261 2.06728,-4.893 0.60383,-5.79746 -0.4929,-0.30463 -0.75726,-2.24368 -0.58748,-4.30902 0.16978,-2.06533 0.6076,-8.93015 0.97294,-15.25515 0.36533,-6.325 0.91847,-12.175 1.22921,-13 0.31073,-0.825 0.71649,-4.2 0.90168,-7.5 0.1852,-3.3 0.78112,-10.95 1.32429,-17 1.43424,-15.97519 1.73781,-34.907594 0.56923,-35.5 -0.54247,-0.275 -1.07637,0.175 -1.18645,1 -0.11008,0.825 -0.48132,3.6375 -0.82497,6.25 -0.65094,4.94849 -2.79472,6.82069 -2.29013,2 0.23271,-2.223243 -0.15893,-2.813279 -2.04462,-3.080358 -1.28285,-0.181696 -3.08285,0.328374 -4,1.133489 -0.91714,0.805115 -3.46753,2.377858 -5.66753,3.494989 -5.40798,2.74608 -17.33064,12.39592 -19.61926,15.87922 -1.40688,2.1413 -2.64223,2.82266 -5.11765,2.82266 H 538.5 l -0.22388,14 c -0.2472,15.45831 0.007,17.33967 2.10896,15.59537 2.57705,-2.13876 4.61492,-0.19165 4.61492,4.40938 0,3.69176 -0.78214,5.29039 -5.6025,11.45101 -5.04782,6.45134 -5.45676,7.32776 -4.13049,8.85224 2.04978,2.35611 1.37922,3.6236 -6.60288,12.48085 -4.6109,5.11644 -7.52633,7.59427 -8.49715,7.22173 -1.27781,-0.49034 -1.38806,1.20751 -0.81441,12.54188 0.3649,7.20994 1.12017,13.96235 1.67837,15.00534 1.89147,3.53425 5.20372,4.43083 18.46906,4.99932 7.15,0.30641 14.65821,0.64391 16.6849,0.75 2.0267,0.10608 4.81953,-0.23851 6.20631,-0.76576 z m -25.01209,-4.47794 c -7.98259,-3.47424 -11.05352,-13.9095 -5.62912,-19.1282 4.8969,-4.7112 10.72538,-6.73107 17.12062,-5.93321 4.81358,0.60054 6.17282,1.27329 9.37938,4.64226 2.0625,2.16697 3.75,4.62602 3.75,5.46456 0,2.81033 -5.13765,8.29882 -11.57257,12.36284 -6.91832,4.36932 -8.32302,4.64833 -13.04831,2.59175 z m 32.69983,-60.14675 c 0.048,-1.16495 0.28494,-1.4019 0.60416,-0.60417 0.28887,0.72187 0.25335,1.58437 -0.0789,1.91667 -0.33229,0.33229 -0.56864,-0.25834 -0.52522,-1.3125 z M 570,151.5 c 0,-0.825 0.45,-1.5 1,-1.5 0.55,0 1,0.675 1,1.5 0,0.825 -0.45,1.5 -1,1.5 -0.55,0 -1,-0.675 -1,-1.5 z m 1.58295,-3.36579 c -0.43077,-0.697 -0.51316,-1.53733 -0.18309,-1.86741 0.89497,-0.89496 1.87077,0.4213 1.38739,1.87145 -0.33872,1.01617 -0.57427,1.01538 -1.2043,-0.004 z m 0.22955,-5.81732 c 0.72187,-0.28887 1.58438,-0.25335 1.91667,0.0789 0.33229,0.33229 -0.25834,0.56864 -1.3125,0.52522 -1.16495,-0.048 -1.4019,-0.28494 -0.60417,-0.60416 z M 570,137 c 0,-0.55 0.64468,-1 1.43261,-1 0.78794,0 1.73264,-0.9453 2.09934,-2.10066 0.43669,-1.37589 1.0058,-1.76159 1.64949,-1.1179 C 576.54118,134.14118 574.01083,138 571.75945,138 570.79175,138 570,137.55 570,137 Z m 0.36009,-7.05045 c 0.36502,-1.82508 1.33332,-4.05828 2.15179,-4.96267 2.07892,-2.29719 2.04976,-4.69789 -0.0361,-2.96682 -1.96616,1.63177 -2.8875,0.6993 -1.65272,-1.67268 0.52893,-1.01606 1.45046,-3.08488 2.04785,-4.59738 0.71523,-1.81085 1.82063,-2.75 3.23681,-2.75 2.06558,0 2.12378,0.28679 1.47129,7.25 -0.37365,3.9875 -0.91212,8.0375 -1.1966,9 C 575.653,131.71804 574,131.42895 574,128.83333 c 0,-2.77481 -1.23241,-1.6161 -1.38502,1.30219 -0.0632,1.20936 -0.74578,2.40887 -1.51677,2.66558 -1.0964,0.36507 -1.2572,-0.25613 -0.73812,-2.85155 z m 7.18262,-18.88045 c -0.31644,-0.512 -0.11799,-1.21356 0.44098,-1.55902 0.55897,-0.34546 1.01631,0.0734 1.01631,0.9309 0,1.75653 -0.60006,2.01516 -1.45729,0.62812 z m -2.62305,-1.3191 c -0.0442,-0.1375 -0.19966,-2.6125 -0.3455,-5.5 -0.27226,-5.390496 1.04194,-7.431915 1.60942,-2.5 0.17796,1.54669 0.86338,2.64061 1.56642,2.5 1.87888,-0.37578 1.50465,1.49535 -0.75,3.75 -1.1,1.1 -2.03615,1.8875 -2.08034,1.75 z M 441.41574,211.86366 c -0.46919,-0.75916 -0.98781,-0.59282 -1.60824,0.51584 -0.50366,0.89999 -0.60412,2.14056 -0.22324,2.75684 0.46919,0.75916 0.98781,0.59282 1.60824,-0.51584 0.50366,-0.89999 0.60412,-2.14056 0.22324,-2.75684 z m -9.64488,-2.25864 c 1.70971,-5.2332 0.6502,-5.84 -2.86841,-1.64279 -3.5185,4.19708 -3.75278,6.29768 -0.65327,5.85732 1.61032,-0.22878 2.61062,-1.42589 3.52168,-4.21453 z m -231.10669,-5.0378 C 200.3334,203.70525 199.59865,203 199.03138,203 c -1.1505,0 -1.41332,3.28473 -0.34805,4.35 1.09781,1.0978 2.63907,-1.06745 1.98084,-2.78278 z m 90.09248,-81.45194 c 1.17302,-1.58659 6.99515,-5.93169 12.93806,-9.65577 5.94291,-3.72408 13.73029,-8.66293 17.30529,-10.97522 30.34036,-19.624022 56.94412,-35.929981 59.46083,-36.444704 1.67154,-0.341867 2.90252,-1.053129 2.7355,-1.580581 -0.45692,-1.442948 -6.2514,-0.625331 -9.38176,1.323792 -3.11953,1.942379 -19.17512,12.132018 -58.81457,37.326523 -4.125,2.62182 -11.20218,7.07333 -15.72707,9.89224 -4.52489,2.81892 -9.13739,6.40372 -10.25,7.96624 -3.64626,5.1207 -1.98543,7.1779 1.73372,2.14748 z m -188.69204,-0.47029 c 1.01885,-1.29525 9.18361,-6.97741 18.14392,-12.627 C 129.16884,104.36839 143.025,95.58665 151,90.503013 180.15705,71.916949 189.56065,66.25507 192.39464,65.579409 c 1.77274,-0.422643 2.53623,-1.048536 1.9699,-1.614872 -1.56837,-1.568367 -7.92265,0.840804 -15.61038,5.918537 C 174.76437,72.518325 156.65,84.024666 138.5,95.452721 108.35075,114.43604 99,121.1905 99,123.98531 c 0,1.6484 1.08797,1.17257 3.06461,-1.34032 z m 63.69949,-0.64625 c 1.50474,-1.6507 9.9359,-7.48355 18.7359,-12.96189 8.8,-5.47834 22.19793,-13.915276 29.77319,-18.748738 7.57525,-4.833461 16.57525,-10.555431 20,-12.715488 3.42474,-2.160056 8.57,-5.453499 11.43391,-7.318762 2.8639,-1.865262 6.85536,-3.846492 8.86989,-4.402732 2.35979,-0.651568 3.31862,-1.355519 2.69531,-1.978826 -2.14774,-2.147745 -9.1441,1.637819 -41.7723,22.602016 -2.75,1.766924 -12.65,8.071551 -22,14.01028 -9.35,5.93874 -19.71539,12.53404 -23.03421,14.65624 -3.31881,2.1222 -6.83176,5.20868 -7.80653,6.85885 -2.29397,3.88337 -0.43554,3.8828 3.10484,-9.5e-4 z m 61.97344,1.04991 c 1.2561,-2.01132 4.61203,-4.2737 36.49627,-24.603644 10.3036,-6.569753 23.1286,-14.747165 28.5,-18.172026 17.30737,-11.035354 21.70786,-13.560952 24.76619,-14.214191 1.65,-0.352429 2.86675,-1.072332 2.70388,-1.599784 -0.39309,-1.273061 -4.99996,-0.614911 -8.55292,1.221894 -2.60863,1.348605 -30.44111,18.787489 -53.65096,33.615858 -5.225,3.338163 -11.975,7.623153 -15,9.522193 -12.04164,7.55954 -16.24924,10.76235 -17.6193,13.41174 -1.12711,2.17961 -1.1584,2.76931 -0.14693,2.76931 0.70683,0 1.83352,-0.87811 2.50377,-1.95135 z M 729.83385,95.123851 c 1.08714,-0.68914 1.05888,-0.951038 -0.15281,-1.416004 -0.81765,-0.313764 -2.31788,0.0593 -3.33384,0.829033 -1.78015,1.348713 -1.7746,1.400112 0.1528,1.416004 1.1,0.0091 2.60023,-0.363995 3.33385,-0.829033 z M 584.55,53.188797 c 3.20083,-2.733184 30.49887,-18.119238 33.09641,-18.6542 5.32151,-1.095965 9.32767,1.414132 14.85359,9.306651 2.75,3.927752 5.7875,7.400604 6.75,7.717448 C 644.90499,53.420253 638.50506,54 612.3,54 596.515,54 584.0275,53.634959 584.55,53.188797 Z M 225.16761,48 c -5.4055,-0.368604 -7.66639,-0.957411 -8.60335,-2.240577 C 215.2181,43.91587 213.42928,19.732459 214.50975,17.984219 214.84431,17.442898 218.37648,17 222.35902,17 c 4.4529,0 7.72701,-0.481302 8.50326,-1.25 1.01061,-1.00078 1.43554,-0.943265 2.13131,0.288474 0.76389,1.352322 5.80798,1.505849 41.68772,1.268846 C 297.13159,17.159026 316.175,16.946546 317,16.835142 c 0.825,-0.111403 7.89076,0.135649 15.70169,0.549005 13.49652,0.714237 14.2874,0.651458 15.92775,-1.264336 1.40517,-1.641114 1.92541,-1.767627 2.79831,-0.680501 0.74749,0.930933 5.21043,1.536167 14.73519,1.998291 l 13.66293,0.6629 2.60846,-2.80025 2.60846,-2.800251 0.59524,2.25 c 0.55628,2.10276 1.19292,2.265135 9.7286,2.481286 17.74394,0.449334 18.52303,0.371252 20.20114,-2.024579 1.92441,-2.747483 4.03341,-2.839805 4.72198,-0.206707 0.46727,1.786863 1.46546,2.024112 9.36663,2.226259 16.76379,0.428891 17.0964,0.384778 20.30955,-2.693615 l 2.96608,-2.841683 1.00924,2.654519 c 0.9765,2.568392 1.29395,2.661651 9.784,2.874303 15.70498,0.393367 16.08187,0.339193 19.33708,-2.779494 l 3.00939,-2.883183 2.21414,2.682677 c 2.12539,2.57515 2.65504,2.693987 13.21414,2.964846 10.65679,0.273365 11.11215,0.196572 14.59439,-2.46123 4.4262,-3.378275 5.28121,-3.409227 6.72366,-0.243399 1.07846,2.366963 1.60584,2.509748 9.91051,2.683185 12.65904,0.264375 12.79533,0.240466 17.64327,-3.095001 4.57022,-3.144392 5.45951,-2.99555 6.94155,1.161816 0.52736,1.479337 1.93046,1.75 9.0719,1.75 5.86678,0 8.57695,0.381933 8.86992,1.25 0.23203,0.6875 -0.17513,3.5 -0.9048,6.25 -0.72966,2.75 -1.332,7.051492 -1.33853,9.55887 -0.0231,8.866893 9.68755,8.046452 -98.04685,8.283881 l -95.46502,0.21039 -7,2.881436 -7,2.881435 -66.5,0.09199 C 262.425,48.458603 229.20042,48.275 225.16761,48 Z m 448.22101,0.180222 c 0.27865,-0.450878 3.04558,-1.682787 6.14871,-2.737575 5.56732,-1.892388 5.66075,-1.892244 7.05237,0.01091 C 687.36536,46.514342 688,47.746251 688,48.19113 688,48.636008 684.59844,49 680.44098,49 c -4.15746,0 -7.33102,-0.3689 -7.05236,-0.819778 z"
     style="fill:#cfcfd0" />
  <path
     inkscape:connector-curvature="0"
     id="path1453"
     d="m 150.5,542.87257 c -3.85,-0.34509 -9.68993,-1.59359 -12.97762,-2.77445 C 131.93815,538.09239 125,532.84622 125,530.62952 c 0,-0.53798 1.12323,0.0771 2.49606,1.36678 2.45216,2.30369 5.00187,2.10163 2.68727,-0.21297 C 128.70997,530.30997 128.6286,527 130.06574,527 c 0.58616,0 1.90885,0.45122 2.93931,1.0027 1.28488,0.68765 2.08399,0.66225 2.54324,-0.0808 0.36832,-0.59596 2.53313,-0.98674 4.81069,-0.86841 2.27756,0.11833 27.87852,0.15471 56.89102,0.0809 45.75313,-0.11649 52.75,-0.32986 52.75,-1.60862 0,-1.63357 4.86988,-4.47819 6.59991,-3.85517 1.75118,0.63063 3.52615,-2.24714 3.61002,-5.85296 0.0425,-1.82465 -0.26463,-7.59255 -0.6824,-12.81755 -0.59024,-7.3822 -0.40796,-10.82975 0.81765,-15.46496 1.17088,-4.42817 1.27982,-6.14877 0.42288,-6.67839 -0.86952,-0.53739 -0.85995,-1.35956 0.0388,-3.33209 0.65623,-1.44027 1.19314,-3.3608 1.19314,-4.26786 0,-1.71112 3.90571,-8.05699 7.41967,-12.05522 1.6053,-1.82653 2.12897,-1.99707 2.55022,-0.83051 0.44223,1.22463 0.92746,1.14494 2.92698,-0.4807 l 2.39686,-1.9487 -1.9981,-2.22079 c -3.89718,-4.33151 -3.9133,-5.05924 -0.0962,-4.34314 3.31561,0.62201 3.68338,0.39335 7.41708,-4.61159 2.16068,-2.89633 4.93997,-6.9089 6.17621,-8.91683 1.23624,-2.00792 2.91361,-3.9063 3.72748,-4.21861 2.29468,-0.88056 1.83646,-1.90005 -3.23685,-7.20171 -2.59414,-2.71089 -3.60004,-4.20041 -2.23534,-3.31004 1.36471,0.89037 3.92424,1.93578 5.68784,2.32313 3.07863,0.67618 3.39723,0.4335 7.98534,-6.08264 2.62832,-3.7328 6.18373,-8.25317 7.90089,-10.04526 l 3.12213,-3.25834 -3.62213,-3.83979 c -4.88215,-5.17554 -8.88738,-7.89129 -19.4911,-13.21596 -5.72822,-2.87644 -9.87754,-5.70822 -11.50058,-7.84881 l -2.53915,-3.3488 3.92265,1.63899 c 2.15745,0.90144 5.28691,2.74268 6.95435,4.09164 8.6061,6.96236 21.67158,15.46698 23.76161,15.46698 1.30356,0 2.8315,0.4614 3.39543,1.02533 0.70045,0.70045 1.87371,-0.70727 3.70276,-4.44269 1.47259,-3.00741 3.12619,-5.74537 3.67467,-6.08435 0.54848,-0.33898 0.99724,-1.32365 0.99724,-2.18815 0,-1.23789 -0.74358,-1.45116 -3.5,-1.00385 -3.23632,0.52518 -3.5,0.37514 -3.5,-1.99161 0,-2.19305 0.22086,-2.37627 1.54238,-1.27951 1.16431,0.96629 1.82489,0.99756 2.69488,0.12757 1.11266,-1.11266 -0.63215,-2.99354 -12.23726,-13.19158 l -2.5,-2.19688 2.5,1.63346 c 2.24911,1.46952 10.70822,5.59226 11.47433,5.59226 1.21159,0 3.51677,-8.76401 2.96544,-11.27423 -0.74109,-3.37417 3.14439,-13.03429 4.99184,-12.41079 0.58762,0.19831 1.58793,-0.3448 2.22293,-1.2069 1.51249,-2.05344 -1.42409,-6.35577 -5.48681,-8.0386 -1.58629,-0.65707 -3.86499,-2.5213 -5.06377,-4.14274 -1.19879,-1.62144 -9.70009,-7.95647 -18.89178,-14.07783 -19.00671,-12.65784 -17.68644,-11.70798 -17.09529,-12.29913 0.24762,-0.24762 8.98512,5.12124 19.41666,11.93079 10.43155,6.80956 21.0764,13.74667 23.65523,15.41581 6.56325,4.24803 8.85537,4.64333 12.1045,2.08756 2.92462,-2.3005 3.63809,-4.27857 1.20672,-3.34557 -2.85594,1.09593 -1.47646,-1.22994 3.84853,-6.48878 4.59517,-4.53809 6.3163,-5.61368 9.71801,-6.07308 1.04297,-0.14085 2.84638,-12.46429 3.45018,-23.57651 0.59725,-10.99163 3.32925,-25.33883 5.90304,-31 4.03898,-8.88392 4.58799,-10.62092 4.04313,-12.79182 -1.10489,-4.40226 12.34978,-22.10212 22.34564,-29.39606 2.40283,-1.75334 5.88853,-4.75273 7.74601,-6.66531 2.11276,-2.17544 4.04521,-3.30983 5.16134,-3.02982 2.74511,0.6887 5.3583,-8.42316 4.01018,-13.98296 -0.55132,-2.27372 -1.37169,-4.54299 -1.82304,-5.04284 -0.72133,-0.79883 -16.37649,0.86267 -29.40302,3.12057 -2.2,0.38132 -35.03797,0.83924 -72.97326,1.01758 l -68.97326,0.32427 -2.77674,2.66029 c -2.94089,2.81755 -3.43508,5.18747 -1.74156,8.35184 1.23125,2.3006 3.79423,2.54239 4.60319,0.43426 0.59858,-1.55986 2.94735,-2.05819 3.5283,-0.74858 0.18333,0.41327 3.93333,3.60675 8.33333,7.09661 4.4,3.48986 8,6.86422 8,7.49858 0,0.63437 -1.02701,1.29909 -2.28225,1.47717 -2.27996,0.32345 -2.27919,0.32795 0.77288,4.47811 3.00354,4.08419 5.67932,11.3615 4.58123,12.45959 -0.30778,0.30777 -1.38529,-0.18765 -2.39447,-1.10094 C 250.16821,245.74724 247.91545,245 246.17126,245 c -3.8627,0 -4.08934,1.69241 -1.14613,8.55863 2.48073,5.78731 1.8581,7.08634 -0.85713,1.78828 -3.01716,-5.88718 -15.95779,-17.91599 -20.70121,-19.24256 C 221.28505,235.4942 211.625,234.53112 202,233.96417 c -22.331,-1.31537 -24.73726,-1.67652 -22.89228,-3.43577 0.76575,-0.73017 12.45113,-7.67277 25.96751,-15.42799 L 229.65046,201 l 65.92477,-0.0201 c 36.25862,-0.0111 68.62477,-0.42245 71.92477,-0.9142 3.3,-0.49175 15.7277,-2.30562 27.6171,-4.03083 11.88941,-1.72521 22.91441,-3.52514 24.5,-3.99985 2.88032,-0.86233 -52.29521,-1.09005 -256.17987,-1.05728 -80.83599,0.013 -103.40256,-0.2524 -104.638332,-1.23058 -1.128509,-0.89328 -2.365536,-6.70754 -4.359693,-20.49135 C 52.907933,158.67149 51.874989,149.79169 52.143774,149.5229 52.565027,149.10165 450.95932,148.68766 491,149.06686 c 10.0917,0.0956 13.58794,0.40308 11.5,1.01146 -3.64492,1.06204 -100.71353,5.70886 -145,6.94137 -33.58973,0.93481 -44.67811,1.60562 -49.2433,2.97906 -3.81633,1.14814 15.95603,1.13795 36.7433,-0.0189 9.075,-0.50506 30.45,-1.37287 47.5,-1.92847 17.05,-0.55559 37.075,-1.22624 44.5,-1.49033 7.425,-0.26409 23.625,-0.76417 36,-1.1113 12.375,-0.34712 31.05,-0.98759 41.5,-1.42327 12.36658,-0.51557 19.43402,-0.44314 20.24315,0.20748 2.41557,1.94236 -1.29178,15.40264 -5.53134,20.08269 -0.9415,1.03931 -2.61364,4.60662 -3.71589,7.92736 -1.91229,5.76117 -2.20999,6.09977 -6.5,7.39289 -3.27542,0.98729 -10.96704,1.33475 -28.33334,1.27992 -13.11058,-0.0414 -24.07413,0.16146 -24.36345,0.45078 -0.69836,0.69836 10.7836,8.04268 23.20087,14.84018 5.5,3.01083 15.24608,8.68461 21.65796,12.6084 6.41187,3.92378 13.61187,7.55414 16,8.06745 2.38812,0.51331 12.02981,0.99816 21.42597,1.07743 14.25774,0.1203 17.29457,-0.10968 18.35727,-1.39015 0.9178,-1.10588 1.17359,-4.73172 0.91607,-12.98535 L 567.5,202.13444 l 2.93709,-3.06722 c 2.8883,-3.01627 6.8488,-4.03169 8.06291,-2.06722 0.33992,0.55 2.27898,1.0029 4.30902,1.00644 4.07793,0.007 22.41198,5.78101 46.19098,14.54679 16.07799,5.92692 24.48922,8.29089 25.58849,7.19161 0.35181,-0.3518 -0.29782,-2.1565 -1.44362,-4.01043 -3.91193,-6.32965 -5.11423,-14.78858 -5.13009,-36.09349 -0.0129,-17.35008 0.26632,-20.93083 2.21014,-28.34219 l 2.22491,-8.48311 -3.47491,-2.88213 c -3.31604,-2.75034 -6.25723,-4.04475 -12.13286,-5.33962 -3.95168,-0.87088 -18.50805,-12.04729 -20.36334,-15.63503 C 614.90654,115.9186 609.92244,113 606.30277,113 c -2.32746,0 -11.29837,-6.15216 -11.30084,-7.75 -0.002,-1.60982 2.17183,-1.57435 16.06165,0.26197 16.92322,2.23735 65.73398,6.63475 69.79897,6.28824 3.02475,-0.25784 3.638,-0.75192 4.34544,-3.50098 1.02682,-3.99017 2.14678,-4.71913 4.75133,-3.09256 2.60792,1.62867 2.63015,4.40592 0.0407,5.08308 -1.1,0.28766 -2,0.95626 -2,1.48579 0,1.27576 5.97217,2.20701 14,2.18305 4.89985,-0.0146 6.06919,-0.27033 4.75,-1.03869 -0.9625,-0.5606 -1.75022,-1.33442 -1.75049,-1.71959 -5.2e-4,-0.73795 14.55842,-0.58393 16.536,0.17494 0.74232,0.28486 0.98843,-0.41476 0.69179,-1.96655 -0.25325,-1.32478 -0.006,-2.4087 0.54913,-2.4087 1.62315,0 2.36192,-3.12837 1.09832,-4.65091 -0.63786,-0.76858 -0.82817,-1.72405 -0.42291,-2.12326 0.90395,-0.89044 23.41377,-0.746533 37.92349,0.24245 10.62694,0.72434 10.68171,0.74134 12.26775,3.80841 1.12527,2.17602 1.42382,4.51067 1.01655,7.94938 -0.43524,3.67497 -0.22967,5.00169 0.83851,5.41159 0.77831,0.29867 9.42213,0.0344 19.20849,-0.58732 9.78635,-0.62169 24.02179,-1.30327 31.63431,-1.51462 7.61252,-0.21135 14.10684,-0.65017 14.43183,-0.97516 0.32498,-0.32498 0.49959,-8.34656 0.38802,-17.825719 -0.11157,-9.479163 0.16559,-17.789128 0.61591,-18.466591 1.24747,-1.876665 20.60186,-1.853606 35.61825,0.04244 C 889.89135,79.888545 892,79.845672 892,78.013739 c 0,-1.864891 -14.84987,-7.952862 -23.47555,-9.624222 -14.46426,-2.802677 -8.02094,-2.760427 9.69069,0.06354 27.88959,4.446764 29.85979,5.697797 31.57108,20.046939 0.59034,4.95 1.95426,11.025 3.03092,13.500004 1.61148,3.70439 1.81952,5.56082 1.17668,10.5 -0.4295,3.3 -1.27881,7.26679 -1.88736,8.8151 C 911.45321,122.97713 911,131.02296 911,140.95811 911,159.36204 911.12275,159 904.88303,159 c -2.68782,0 -2.85261,0.18832 -1.83259,2.09424 0.72734,1.35905 1.77995,1.92187 2.99841,1.60324 2.87274,-0.75124 4.22775,1.70604 3.60006,6.5286 C 908.29785,179.60637 907.84313,181 905.80726,181 c -1.13617,0 -1.79592,0.53052 -1.55451,1.25 0.23069,0.6875 1.15091,1.25522 2.04494,1.26161 2.83019,0.0202 3.96178,2.0957 3.35398,6.15169 -1.55829,10.39893 -1.93293,11.59749 -3.7758,12.07941 -2.83944,0.74253 -2.24513,3.08196 0.87413,3.44087 2.40201,0.27638 2.79001,0.80336 3.06621,4.16451 0.19407,2.36161 -0.24966,4.48622 -1.14867,5.5 -1.15547,1.303 -1.55578,6.08751 -1.89522,22.65191 -0.39799,19.42198 -0.61225,21.43407 -2.85133,26.77657 -3.01344,7.19018 -9.27388,13.5537 -14.53486,14.77418 -2.13737,0.49585 -6.58613,0.92696 -9.88613,0.95804 -3.3,0.0311 -8.475,0.92712 -11.5,1.99121 -4.76511,1.6762 -8.35699,1.93907 -26.88197,1.96735 -20.40564,0.0312 -21.54716,0.13539 -25,2.28265 -3.56741,2.21852 -3.9818,2.24326 -29.61803,1.76808 -14.3,-0.26506 -29.6,-0.49006 -34,-0.5 l -8,-0.0181 -0.30348,6.47207 c -0.26735,5.70146 0.1286,7.39283 3.32543,14.20515 1.9959,4.2532 3.47198,8.76576 3.28019,10.02793 -0.32934,2.16736 -0.56963,2.06521 -4.32543,-1.83887 -2.18719,-2.27355 -5.34515,-6.09855 -7.01768,-8.5 -3.53579,-5.07674 -5.65294,-5.69948 -22.20903,-6.53256 L 707,300.81793 v -5.94109 C 707,288.10958 704.86557,282 702.50137,282 c -3.64771,0 -15.00352,-7.7571 -23.00137,-15.71213 -4.78294,-4.75733 -7.6625,-6.401 -13,-7.42046 -8.05275,-1.53808 -33.30771,-7.63053 -34.38138,-8.2941 -0.60805,-0.37579 -7.13162,-0.84732 -14.49682,-1.04783 -8.4644,-0.23044 -14.13677,-0.83014 -15.41753,-1.62998 -1.63475,-1.02092 -2.86458,-1.01978 -6.36526,0.006 -6.96356,2.04034 -8.51778,3.4708 -9.27781,8.53903 -0.73764,4.91893 -1.82109,5.89218 -7.75009,6.96176 -2.73811,0.49396 -4.87438,0.10823 -8.28846,-1.49658 -2.52976,-1.18913 -4.81873,-1.94289 -5.08659,-1.67503 -0.26787,0.26786 -2.04232,4.26305 -3.94324,8.87821 -3.11471,7.56203 -3.45803,9.34436 -3.47452,18.03757 -0.0161,8.51004 -0.38291,10.51264 -3.1135,17 -4.26838,10.14086 -4.57412,11.89102 -2.36013,13.50993 2.32972,1.70354 1.96903,1.6854 -4.4618,-0.22435 -2.90408,-0.86242 -5.43566,-1.41251 -5.62574,-1.22243 -1.14879,1.14878 -2.43668,19.32828 -1.86683,26.35146 l 0.67564,8.3269 -3.08394,3.08395 -3.08395,3.08394 L 469.79903,356.7779 404.5,356.5 393.61554,352.1216 c -9.99561,-4.02086 -11.37551,-4.32708 -16.89766,-3.7499 -7.01017,0.73271 -8.71788,1.83985 -8.71788,5.65197 0,2.12424 0.83788,3.27314 3.55716,4.87755 4.41959,2.60762 5.65842,2.62303 7.94284,0.0988 2.30576,-2.54784 6.67473,-2.5694 8.95999,-0.0442 1.72953,1.91111 1.69096,1.94296 -1.68822,1.3946 -3.25974,-0.52898 -3.61199,-0.29875 -6.13821,4.01192 -2.10327,3.58895 -3.50167,4.79436 -6.49799,5.60118 -2.09988,0.56544 -4.58467,1.87528 -5.52177,2.91076 -1.47912,1.63441 -1.54944,2.49569 -0.5333,6.53117 1.1339,4.50311 1.05712,4.83217 -2.455,10.52226 -6.38272,10.34083 -4.81151,10.66262 5.53088,1.13275 5.55685,-5.12029 9.14515,-9.63054 13.68743,-17.20415 3.38591,-5.64552 6.15619,-9.87567 6.15619,-9.40034 0,0.96909 -7.95571,15.97659 -14.76329,27.84919 -2.46144,4.29282 -5.51236,8.48461 -6.77983,9.31508 -2.05671,1.34761 -2.62156,1.34599 -5.25358,-0.0151 -3.09152,-1.59869 -4.16688,-3.9824 -4.18965,-9.28704 -0.0134,-3.1161 -2.71122,-5.98806 -7.10433,-7.56284 -2.33269,-0.83619 -3.20816,0.0197 -7.92197,7.74475 -2.34927,3.85 -5.78248,9.24399 -7.62937,11.98665 -1.84689,2.74266 -3.35798,6.2186 -3.35798,7.72432 0,2.02632 -0.77427,3.13806 -2.97981,4.27859 -3.75853,1.94361 -13.2287,15.83944 -13.97662,20.50826 -0.38759,2.41949 -1.29043,3.81133 -2.92044,4.50218 -1.29767,0.55 -4.55624,4.24218 -7.24127,8.20484 -4.69065,6.92265 -5.74205,9.28922 -4.13186,9.30034 0.75799,0.005 15.29287,-4.40523 27.25,-8.26872 6.24426,-2.0176 9.31318,-2.13288 78,-2.93014 97.36331,-1.1301 154.25262,-1.55195 241.52671,-1.79098 49.86464,-0.13658 81.19872,-0.65723 96,-1.59517 24.1124,-1.52798 63.08631,-3.39906 85.01297,-4.08135 8.67796,-0.27003 20.13488,0.16284 30,1.13346 8.77817,0.86369 27.88532,2.65762 42.46032,3.98652 26.64049,2.42899 43.51361,4.63004 49.9934,6.52148 1.92137,0.56085 6.89912,1.01972 11.06166,1.01972 7.66327,0 20.69143,2.7833 26.08601,5.57295 1.55757,0.80545 4.41301,2.85265 6.34543,4.54934 5.1667,4.53643 4.8126,7.60378 -1.4865,12.87771 -2.75,2.30243 -5,4.80368 -5,5.55832 0,1.94133 -5.76347,8.268 -9.10714,9.99708 -1.54563,0.79928 -6.31633,1.94026 -10.60155,2.5355 -4.28522,0.59525 -18.59131,3.80794 -31.79131,7.13931 -17.86158,4.50785 -26.55768,6.21214 -34,6.66342 -11.30283,0.68537 -41.19416,-0.31484 -52.5,-1.75674 -26.98165,-3.44111 -31.57477,-3.61674 -47.82033,-1.82854 -20.63267,2.27111 -113.8827,2.45182 -135.17967,0.26197 -14.05683,-1.44538 -17.39883,-2.294 -22.03498,-5.59523 -3.76973,-2.68428 -4.90372,-2.54356 -14.30302,1.77491 l -8.162,3.75 H 566 c -32.175,0 -63.75477,-0.40158 -70.17727,-0.89241 l -11.67728,-0.89241 -4.46028,2.95438 c -3.26564,2.16306 -7.13434,3.445 -14.44398,4.78619 -8.86003,1.62565 -11.2231,1.69495 -20.99572,0.61577 -11.59726,-1.28067 -17.46875,-0.75169 -26.25201,2.36509 -5.77206,2.04825 -25.17154,5.68405 -50.56105,9.47603 -11.03718,1.64842 -22.06218,3.44345 -24.5,3.98896 -2.43783,0.5455 -10.81923,1.93566 -18.62534,3.08923 -7.97698,1.17882 -18.05008,3.41717 -23,5.11084 -21.0931,7.21725 -20.68508,7.17985 -85.30707,7.81938 -32.175,0.31842 -61.65,0.29661 -65.5,-0.0485 z M 303,496.61054 c 5.225,-0.78708 13.775,-1.9714 19,-2.63183 9.91138,-1.25277 21.87578,-3.52115 22.64868,-4.29406 0.24707,-0.24706 -8.46032,-0.68064 -19.34974,-0.9635 -14.08362,-0.36584 -21.48329,-0.99255 -25.63383,-2.17107 -3.20919,-0.91123 -7.70919,-1.52027 -10,-1.35343 -3.90151,0.28415 -4.25649,0.56768 -5.60902,4.48005 -1.17082,3.38675 -1.2109,4.68812 -0.21189,6.8807 1.37493,3.01764 -0.48958,3.01246 19.1558,0.0531 z m 299.25689,-6.77315 c 2.61629,-0.55334 4.50223,-1.41812 4.19098,-1.92173 -0.95493,-1.54512 -17.79702,-1.11333 -20.00674,0.51292 -1.60166,1.17874 -1.6788,1.51466 -0.44113,1.92077 0.825,0.27071 2.175,0.73167 3,1.02437 1.58655,0.56288 5.44654,0.11555 13.25689,-1.53633 z M 359.81955,368.23978 c 0.36516,-2.55943 -0.63027,-2.82988 -3.2812,-0.89148 -1.06886,0.78157 -1.53033,1.85566 -1.09789,2.55536 1.17149,1.89551 4.02601,0.8109 4.37909,-1.66388 z m 131.38083,-19.49592 c 28.45653,-0.16641 42.04647,-0.59006 42.79008,-1.33394 0.77505,-0.77532 0.78886,-2.43245 0.0478,-5.73914 -1.14721,-5.11907 -0.0415,-22.42258 2.43907,-38.17078 2.72948,-17.32818 5.688,-44.70511 5.08901,-47.09166 -1.58791,-6.32676 -4.71696,-0.2215 -10.65328,20.78619 -3.8763,13.71764 -6.42543,20.34613 -8.2745,21.51615 -0.47378,0.2998 -0.5721,-1.64996 -0.21847,-4.3328 1.70289,-12.9194 4.31837,-44.68111 3.84171,-46.65286 C 525.25775,243.57159 521.97258,241 517.6707,241 c -3.74339,0 -3.88529,-0.1054 -2.38047,-1.7682 1.48658,-1.64265 1.37332,-1.92106 -1.59502,-3.92092 -1.75736,-1.18399 -5.22021,-2.67865 -7.69521,-3.32147 -2.76851,-0.71906 -8.00207,-3.79201 -13.60157,-7.98633 -6.76794,-5.06955 -10.59913,-7.19897 -14.94231,-8.30514 -7.96061,-2.02749 -8.60882,-1.62598 -8.25124,5.11093 0.27622,5.20418 0.13502,5.60071 -2.20488,6.19189 -2.30317,0.58189 -2.475,1.02007 -2.18249,5.56543 0.17463,2.7136 0.75872,5.38381 1.29797,5.93381 0.56622,0.5775 10.57198,1.21125 23.68249,1.5 l 22.70203,0.5 -27,0.5 -27,0.5 -0.31996,2.78665 c -0.17598,1.53266 0.38652,6.89946 1.25,11.92622 1.88142,10.95274 1.97488,13.08772 0.45884,10.48169 -1.45459,-2.50038 -5.15642,-3.71783 -8.54356,-2.80979 -2.73858,0.73417 -2.83358,0.96633 -2.53226,6.189 0.20935,3.6285 -0.17347,6.08254 -1.15548,7.40721 -1.40834,1.89978 -1.44815,1.87429 -0.97102,-0.62166 0.62841,-3.2873 -2.18463,-8.8637 -4.46224,-8.84567 -3.87273,0.0307 -6.39419,1.40584 -8.00066,4.36345 l -1.69624,3.1229 -0.33573,-2.80799 c -0.29723,-2.48597 -0.69336,-2.77267 -3.45432,-2.5 -2.60456,0.25722 -3.54046,1.12263 -5.67798,5.25027 -1.40767,2.71826 -3.16559,5.13283 -3.9065,5.36571 -1.06245,0.33394 -1.11527,-0.01 -0.25,-1.62655 1.61843,-3.02405 1.33707,-6.66354 -0.71063,-9.19234 -1.47238,-1.81831 -2.39973,-2.10244 -4.99876,-1.5316 -5.70695,1.25346 -7.7771,6.98231 -4.67355,12.93338 1.24153,2.38065 1.29398,3.48169 0.29716,6.23834 -1.08166,2.9913 -0.96736,3.67628 1.07427,6.43774 1.2566,1.69964 1.9693,3.39239 1.58378,3.76165 -0.38553,0.36926 -7.10707,-6.03474 -14.93677,-14.23113 -7.8297,-8.19638 -14.71126,-14.60867 -15.29235,-14.24954 -1.91434,1.18312 -6.2335,9.43714 -8.29377,15.84957 -1.3898,4.32564 -2.21547,10.41341 -2.63236,19.40874 -0.66853,14.42495 -0.90262,13.69776 6.18881,19.22539 1.96042,1.5281 2.30203,2.0921 0.99128,1.63655 -5.34813,-1.85873 -5.5,-1.82261 -5.5,1.30819 0,3.22936 1.37632,4.22362 5.8466,4.22362 1.47566,0 4.41211,0.92674 6.52545,2.05942 3.59261,1.92552 6.97726,1.83483 3.52961,-0.0946 -0.86992,-0.48683 -2.66617,-1.852 -3.99167,-3.0337 l -2.40999,-2.14855 3,1.76892 c 1.65,0.9729 5.54761,3.75686 8.66136,6.18658 3.11374,2.42971 6.48874,4.3308 7.5,4.22463 1.01125,-0.10617 2.73864,-0.12526 3.83864,-0.0424 1.85153,0.13941 1.82498,0.24764 -0.35761,1.45793 l -2.35761,1.30734 2.67009,2.10029 c 2.5607,2.01425 6.79224,3.70699 11.04513,4.41838 1.1,0.184 9.2,0.21056 18,0.059 8.8,-0.15154 34.76517,-0.38526 57.70038,-0.51939 z m -1.96521,-7.45154 C 485.03177,340.48441 488.07454,339 493.93402,339 c 7.59347,0 12.68356,0.99302 10.89664,2.12582 -1.34947,0.85548 -11.44987,0.96331 -15.59549,0.1665 z m -3.83013,-16.19325 c -8.66621,-5.72499 -15.3819,-10.86709 -22.71627,-17.3935 -8.69786,-7.73968 -10.12319,-8.05262 -23.49989,-5.15954 -13.76439,2.97693 -20.97561,2.07591 -25.26171,-3.15638 -0.96941,-1.18341 0.0444,-0.88382 3.16069,0.93406 5.52577,3.22341 8.54571,3.31613 22.12668,0.67932 5.657,-1.09834 11.32031,-1.99834 12.58512,-2 3.65828,-0.005 8.17983,2.81086 15.70034,9.77695 6.98697,6.4719 23.44249,18.22002 25.52066,18.22002 0.60355,0 0.81926,0.45 0.47934,1 -0.96466,1.56085 -1.78708,1.26613 -8.09496,-2.90093 z m -66.38393,-69.13851 c 2.72676,-5.095 -0.66377,-11.76903 -5.37783,-10.58588 -6.42386,1.61229 -8.56864,7.79086 -4.21556,12.14395 2.13903,2.13903 2.79558,2.29949 5.52111,1.34936 1.70136,-0.5931 3.53389,-1.90144 4.07228,-2.90743 z m 25.13895,1.34756 c 3.32854,-2.918 3.02641,-9.14826 -0.55976,-11.54281 C 439.5561,243.06493 434,246.96258 434,252.5 c 0,6.5907 5.2777,9.08831 10.16006,4.80812 z M 450,238.27677 c 1.91593,-0.75482 -2.96101,-1.99452 -8.49134,-2.15846 -2.82314,-0.0837 -5.53047,-1.17835 -9.25,-3.74009 -5.76983,-3.97383 -6.20387,-4.80199 -3.3244,-6.34304 2.90925,-1.55698 6.37944,-1.25829 11.65533,1.00322 4.64384,1.99059 4.87249,1.99645 9.74681,0.25 5.34596,-1.91543 7.77694,-4.77692 9.85629,-11.60173 1.04378,-3.42585 0.8909,-4.36573 -1.50456,-9.25 C 456.73429,202.45288 455.46616,201 453.94277,201 h -2.07896 l 2.17686,3.05711 c 3.05197,4.28611 3.11718,8.99457 0.14556,10.51054 -1.27258,0.6492 -3.52258,2.30708 -5,3.68417 -5.92821,5.52563 -10.52847,5.92719 -13.6324,1.19 -2.93453,-4.47867 -1.79306,-11.40911 2.66258,-16.16572 1.86304,-1.98889 1.9086,-2.2909 0.43115,-2.85785 -3.21365,-1.23319 -6.53506,0.6442 -10.92107,6.17301 l -4.43808,5.59445 0.48725,9.31532 c 0.54287,10.37873 0.0109,13.71237 -2.60549,16.3288 -1.70528,1.70528 -1.17615,1.76361 12.77543,1.40843 8.00492,-0.20379 15.2294,-0.63646 16.0544,-0.96149 z m 165,-8.24159 c 0,-1.48274 -2.81188,-2.64668 -11,-4.55333 -4.125,-0.96052 -9.47432,-2.86708 -11.88739,-4.2368 -2.93838,-1.6679 -6.0759,-2.53244 -9.5,-2.61772 L 577.5,218.5 l -0.30647,3.6846 c -0.42399,5.09758 1.0851,5.67741 18.04928,6.93495 7.84146,0.58128 14.44469,1.24218 14.67386,1.46866 0.84869,0.83876 5.08333,0.37806 5.08333,-0.55303 z M 442.1529,215.56377 C 443.46077,212.6933 442.68506,210 440.55044,210 c -1.68193,0 -3.08518,4.1641 -2.18967,6.49776 0.85742,2.2344 2.537,1.82072 3.79213,-0.93399 z M 205.73079,487.58793 c -2.63152,-2.63152 -3.11303,-7.19847 -1.05286,-9.98591 3.56467,-4.82302 8.51635,-5.81024 12.68721,-2.52944 3.70306,2.91283 3.52847,6.99771 -0.44187,10.33853 -1.69219,1.42389 -3.60469,2.59503 -4.25,2.60254 -0.6453,0.008 -2.11869,0.26746 -3.27419,0.57765 -1.23471,0.33146 -2.74716,-0.0822 -3.66829,-1.00337 z m 31.6667,-57.27434 c -2.34604,-0.46199 -9.09114,-6.95327 -8.17604,-7.86837 0.89884,-0.89884 7.98468,3.0453 10.70286,5.95746 2.43102,2.6045 2.13439,2.82883 -2.52682,1.91091 z m 25.01008,-20.92335 c -2.25083,-0.79852 -5.36802,-2.7833 -6.92709,-4.41062 -5.94561,-6.20588 1.06314,-4.56081 8.54267,2.0051 4.85948,4.26589 4.62258,4.61862 -1.61558,2.40552 z M 294.5,363.43399 c -2.75,-1.32454 -5.47831,-2.41405 -6.06291,-2.42112 -1.00956,-0.0122 -4.42948,-3.39184 -7.40539,-7.31811 -1.28559,-1.69614 -1.19192,-1.7285 1.55001,-0.53542 4.19773,1.82653 9.31958,5.24584 13.91829,9.29174 4.67668,4.11451 4.59011,4.15705 -2,0.98291 z m -25.62756,-18.09771 c -1.24448,-1.5086 -1.16266,-1.55194 0.87756,-0.46482 2.32696,1.23991 2.89993,2.12854 1.37244,2.12854 -0.48265,0 -1.49515,-0.74867 -2.25,-1.66372 z m 17.69899,-53.90771 c -2.42282,-2.42282 -1.94377,-6.1385 1.0438,-8.09603 2.34341,-1.53546 2.88909,-1.56037 5.25,-0.23963 3.64506,2.0391 3.86884,5.18451 0.55434,7.7917 -3.20966,2.52471 -4.7454,2.6467 -6.84814,0.54396 z m 16.90117,-0.45885 c -4.12033,-4.55291 2.94421,-11.61745 7.49712,-7.49712 2.65507,2.4028 2.56729,4.67428 -0.28417,7.35309 -2.88591,2.71117 -4.85415,2.75047 -7.21295,0.14403 z m 0.34628,-16.9153 c -1.94743,-1.57693 -2.13359,-2.25738 -1.28092,-4.68194 0.59605,-1.69484 2.10623,-3.22671 3.75144,-3.8053 2.28895,-0.80498 3.1288,-0.59342 4.97553,1.2533 2.05979,2.0598 2.11289,2.41305 0.72841,4.84598 -2.1268,3.73739 -5.34646,4.67794 -8.17446,2.38796 z M 286.2,273.8 c -1.82645,-1.82645 -1.43547,-5.27693 0.83028,-7.3274 4.36864,-3.95357 10.70039,2.53222 6.91953,7.08787 -1.45049,1.74774 -6.09796,1.89138 -7.74981,0.23953 z m 43.35032,-6.15877 C 324.07272,262.16363 328.09673,253 335.97971,253 c 2.81973,0 7.02029,4.33342 7.02029,7.24232 0,3.07646 -4.7974,8.53014 -8.19968,9.32139 -2.07841,0.48336 -3.28656,0.041 -5.25,-1.92248 z M 304.22251,257.4433 c -4.52744,-3.17114 -1.30464,-9.92799 4.42065,-9.26826 2.057,0.23704 3.09008,1.0972 3.81808,3.17905 0.87794,2.5106 0.66283,3.14244 -1.78736,5.25 -3.28905,2.82912 -3.56004,2.86438 -6.45137,0.83921 z m -18.27236,-1.53644 c -1.6144,-3.01655 -0.36563,-6.76448 2.49291,-7.48192 5.63944,-1.41541 9.0837,2.59599 6.11682,7.12402 -2.08172,3.1771 -6.99171,3.3812 -8.60973,0.3579 z m 36.27811,-15.19343 c -4.40387,-2.0131 -3.87027,-7.2291 1.00655,-9.8391 4.60192,-2.46287 9.02556,4.87451 5.01519,8.31858 -2.8117,2.41466 -3.6195,2.61864 -6.02174,1.52052 z M 286.2,239.8 c -2.06526,-2.06526 -1.42842,-6.60423 1.16502,-8.30352 3.70575,-2.4281 8.63498,0.18939 8.63498,4.58531 0,0.50501 -0.9,1.81821 -2,2.91821 -2.23745,2.23745 -5.97882,2.62118 -7.8,0.8 z m 17.04508,0.0451 c -3.38552,-3.38552 -0.029,-9.15766 5.0295,-8.64908 4.19842,0.4221 5.66692,3.03083 3.69422,6.56263 -1.70374,3.0503 -6.59099,4.21918 -8.72372,2.08645 z m -32.90714,-15.90071 c -5.05946,-1.90686 -2.82361,-10.06265 2.94834,-10.75475 3.16643,-0.37968 6.234,3.59576 5.22578,6.77238 -0.89039,2.80538 -5.42948,5.01679 -8.17412,3.98237 z m 16.23349,-1.5158 c -2.42282,-2.42282 -1.94377,-6.1385 1.0438,-8.09603 2.34341,-1.53546 2.88909,-1.56037 5.25,-0.23963 3.3438,1.87057 3.85018,5.19168 1.19626,7.8456 -2.45908,2.45908 -5.333,2.64712 -7.49006,0.49006 z m 17,0 C 301.43121,220.28836 301.59772,217.40228 304,215 c 2.49115,-2.49115 5.18862,-2.55405 7.34501,-0.17126 2.19936,2.43026 2.08834,4.73791 -0.34501,7.17126 -2.40228,2.40228 -5.28836,2.56879 -7.42857,0.42857 z m 16.80977,-0.96953 c -1.32562,-2.02315 -1.43914,-3.03646 -0.55706,-4.97242 2.30058,-5.04921 10.17586,-3.9707 10.17586,1.39358 0,5.72568 -6.60252,8.18226 -9.6188,3.57884 z m 218.03399,-0.88045 C 533.76729,218.55489 531,214.44333 531,209.56131 c 0,-3.4055 0.59518,-4.73258 3.25,-7.24652 4.14609,-3.9261 9.29045,-5.57182 14.70863,-4.70541 4.48478,0.71714 9.49887,4.20104 10.25985,7.12877 0.6802,2.61694 -5.15726,10.30555 -10.63828,14.01185 -5.37906,3.63735 -5.82607,3.71776 -10.16501,1.82859 z M 188.97525,209.4349 c -2.718,-7.14888 0.75061,-12.4349 8.15961,-12.4349 4.67791,0 7.86514,2.76911 7.86514,6.83333 0,4.17586 -1.06865,4.52691 -2.88972,0.94928 -1.99829,-3.92579 -3.64362,-4.52309 -5.07776,-1.84338 -0.80515,1.50443 -0.80264,2.6218 0.009,4.13891 1.71085,3.19676 0.47178,4.92186 -3.53519,4.92186 -2.89714,0 -3.73686,-0.47534 -4.53138,-2.5651 z M 333.49331,144.58422 C 330.47766,141.56857 330.35269,139.64731 333,137 c 2.49115,-2.49115 5.18862,-2.55405 7.34501,-0.17126 2.88704,3.19014 2.03011,6.88434 -2.1017,9.06032 -1.94845,1.02614 -2.59725,0.84791 -4.75,-1.30484 z m -166.57555,-7.3664 -3.12421,-2.79148 5.85322,0.0288 c 5.57079,0.0274 6.38403,-0.31292 16.85323,-7.05259 6.05,-3.89476 24.725,-15.74528 41.5,-26.33449 C 244.775,90.478842 259.7375,80.499482 261.25,78.891695 262.98261,77.049928 264,74.864407 264,72.984223 264,71.342901 264.39754,70 264.88342,70 c 1.84026,0 1.82354,5.408224 -0.0297,9.597691 -1.51373,3.422036 -2.85742,4.752686 -6.36688,6.305088 -2.44653,1.082215 -5.60669,3.126122 -7.02258,4.542014 -1.41589,1.415892 -4.16042,3.237052 -6.09895,4.047021 -3.29924,1.378509 -18.97562,11.105176 -53.3924,33.128196 -7.98988,5.11265 -16.19294,9.99179 -18.22902,10.84251 -3.62261,1.51363 -3.76893,1.48695 -6.82617,-1.2447 z m 125.82176,0.0322 -2.63467,-2.75 5.69757,-0.0342 c 5.68638,-0.0342 5.76341,-0.0762 39.19758,-21.37268 18.425,-11.73614 37.49622,-23.870732 42.38049,-26.965762 8.92937,-5.658296 14.56207,-11.79322 13.05969,-14.224117 -0.47691,-0.77166 -0.32961,-0.952906 0.40531,-0.498703 1.80123,1.113219 1.3594,5.499005 -0.86927,8.628893 -1.11308,1.563178 -9.55058,7.64745 -18.75,13.520605 C 362.0268,99.427161 353.375,105.23039 352,106.45007 c -1.375,1.21968 -5.09005,3.45172 -8.25566,4.96008 -3.16561,1.50837 -6.19966,3.5721 -6.74232,4.58608 -0.54267,1.01398 -2.58494,2.37108 -4.53839,3.01577 -1.95345,0.6447 -5.53252,2.68415 -7.95349,4.53212 -2.42096,1.84797 -6.33864,4.33004 -8.70595,5.51571 -2.3673,1.18567 -5.65419,3.39849 -7.30419,4.91738 C 306.29258,136.00922 297.68454,140 295.50895,140 c -0.0741,0 -1.32037,-1.2375 -2.76943,-2.75 z m -189.29157,-1.03327 c -1.98736,-1.66262 -1.87705,-1.71683 3.5,-1.72004 5.54903,-0.003 5.57518,-0.018 48.02243,-27.01516 43.1192,-27.424504 47.54047,-30.812021 46.31768,-35.487986 C 201.00133,70.897095 201.23347,70 201.80391,70 c 0.57045,0 1.33394,1.35113 1.69664,3.002512 1.24723,5.678609 -1.94932,8.765552 -22.25264,21.489603 C 170.93656,100.95422 160.025,108.09475 157,110.35996 c -3.025,2.26522 -7.525,5.07213 -10,6.23757 -2.475,1.16545 -5.4,3.13535 -6.5,4.37754 -1.1,1.2422 -4.36002,3.30512 -7.24449,4.58427 -2.88447,1.27915 -6.25947,3.38473 -7.5,4.67907 -2.86914,2.99358 -13.61529,7.77189 -17.38056,7.72832 -1.58122,-0.0183 -3.79837,-0.8058 -4.927,-1.75 z m 125.2783,0.0333 c -1.4904,-1.64687 -1.24907,-1.75205 4.09501,-1.78478 L 238.5,134.43044 280,108.11988 C 302.825,93.649078 322.7375,80.49513 324.25,78.888887 325.98324,77.048224 327,74.865088 327,72.984223 327,71.342901 327.39754,70 327.88342,70 c 1.39787,0 2.03541,5.27348 0.90543,7.489357 -1.99962,3.921251 -8.19967,9.47694 -13.4341,12.037904 -2.91878,1.428026 -6.11035,3.617873 -7.09239,4.866326 -0.98203,1.248454 -2.98242,2.570319 -4.4453,2.93748 -1.46288,0.36716 -4.60767,2.235866 -6.98842,4.152683 -2.38075,1.91681 -6.57864,4.55214 -9.32864,5.8563 -2.75,1.30415 -5.85561,3.33435 -6.90135,4.51155 -1.04575,1.1772 -4.19575,3.25589 -7,4.61931 -2.80426,1.36342 -7.20531,3.95272 -9.78011,5.75401 -20.39782,14.26999 -31.02641,18.51783 -35.09229,14.02508 z M 422.7976,117 c -13.2194,-0.52035 -16.29588,-1.48976 -13.89781,-4.37926 0.95676,-1.15281 0.93712,-1.92279 -0.0924,-3.62225 -1.21729,-2.00946 -0.72701,-2.7114 7.11276,-10.183519 4.6311,-4.413914 11.07051,-10.230926 14.3098,-12.926693 l 5.88962,-4.901396 72.19021,0.256559 c 60.78149,0.216013 72.1902,0.475859 72.1902,1.644211 0,0.763208 -2.12644,3.189986 -4.72542,5.39284 -3.87046,3.280529 -4.99115,3.784661 -6.19406,2.786334 -1.19204,-0.989306 -1.7128,-0.827876 -2.76512,0.85716 C 566.10233,93.065794 565.22215,94 564.85945,94 c -0.3627,0 -2.18319,1.4625 -4.04555,3.25 -1.86235,1.7875 -6.63235,5.83952 -10.6,9.0045 -4.42581,3.53045 -7.2139,6.49276 -7.2139,7.66468 0,1.64273 -1.0151,2.00438 -7.25,2.58294 -8.79168,0.81583 -95.19909,1.1967 -112.9524,0.49788 z m 272.91908,-5.92496 c -1.39765,-1.41549 -1.64034,-2.70023 -1.12219,-5.94056 C 695.18616,101.43436 695.04331,101 693.2348,101 c -1.11145,0 -2.30872,0.75025 -2.66059,1.66722 -0.48233,1.25691 -0.92292,1.38407 -1.79033,0.51666 -1.59132,-1.59132 -0.62791,-2.26098 4.18065,-2.90595 3.35063,-0.449412 4.49811,-0.15846 6.08259,1.54227 2.34502,2.51709 2.43941,3.1798 0.45288,3.1798 -2.56849,0 -1.93463,5.88975 0.75,6.96884 2.23453,0.89817 2.23281,0.90441 -0.25,0.90834 -1.375,0.002 -3.30249,-0.80879 -4.28332,-1.80214 z M 702,104.60699 c 0,-2.02851 2.65241,-2.72249 5.48049,-1.43392 C 710.71537,104.64697 709.73922,106 705.44098,106 703.16646,106 702,105.52778 702,104.60699 Z M 714,105 c 0,-0.55 0.45,-1 1,-1 0.55,0 1,0.45 1,1 0,0.55 -0.45,1 -1,1 -0.55,0 -1,-0.45 -1,-1 z m 3.9963,-2.50394 C 716.70659,101.12323 716.11007,100 716.6707,100 c 1.27732,0 4.8243,3.83833 4.16045,4.50219 -0.26946,0.26946 -1.54515,-0.6333 -2.83485,-2.00613 z m -6.43743,-1.02786 c -1.897,-1.43483 -1.89132,-1.4682 0.25,-1.4682 1.281,0 2.19113,0.62305 2.19113,1.5 0,1.80955 -0.007,1.80946 -2.44113,-0.0318 z M 715.25,92.496701 c -3.23466,-2.314738 -2.9315,-6.469601 0.72787,-9.975502 4.0997,-3.927763 12.72841,-4.814917 15.90778,-1.635547 4.22485,4.224847 1.74932,10.408282 -4.59645,11.481096 -2.08406,0.352331 -5.1392,0.887981 -6.7892,1.190332 -1.91984,0.351799 -3.81012,-0.02999 -5.25,-1.060379 z M 845,64.923004 c -4.125,-0.431032 -11.55,-1.100334 -16.5,-1.487337 -10.81338,-0.845418 -13.32292,-1.792049 -9.05377,-3.415202 3.06851,-1.166668 15.69543,0.227239 30.90351,3.411492 11.91501,2.494753 9.8265,3.076852 -5.34974,1.491047 z M 53.961673,63.453819 c -1.063851,-1.281863 -0.938122,-2.008397 0.735476,-4.25 2.730187,-3.656789 6.687217,-3.701073 7.107142,-0.07954 0.549212,4.736538 -4.974211,7.785758 -7.842618,4.329539 z M 615.57143,49.428571 c -2.94442,-2.94442 -1.30912,-7.775622 2.99785,-8.856602 4.94473,-1.241049 7.01527,3.080072 3.81571,7.963214 -1.84938,2.822505 -4.53262,3.17433 -6.81356,0.893388 z M 233.5,47 c -11.78187,-0.490911 -17.01803,-1.945625 -16.16933,-4.492176 0.39723,-1.19191 159.67148,-1.953848 159.66558,-0.763809 -0.005,1.036057 -7.94782,4.219474 -12.10228,4.850575 C 360.33565,47.287042 248.65878,47.631616 233.5,47 Z m 22.81819,-11.495203 c -2.29999,-0.689439 -5.28777,-1.042107 -6.6395,-0.783707 -1.35173,0.2584 -3.56965,-0.258766 -4.92871,-1.149257 -2.279,-1.493252 -2.92871,-1.491108 -8.3605,0.0276 -10.84394,3.031913 -11.37015,2.971371 -16.70336,-1.921756 -4.5162,-4.143539 -4.79446,-4.686716 -4.5,-8.784154 L 215.5,18.526011 394.75,18.336789 c 167.12636,-0.176424 179.24822,-0.07585 179.22369,1.486994 -0.0145,0.92192 -0.86516,4.826217 -1.89042,8.676217 l -1.86411,7 -5.85958,-0.299848 C 558.39536,34.894949 553,33.372773 553,31.995311 c 0,-1.704254 -4.05173,-1.767161 -4.95631,-0.07695 -1.33773,2.499571 -10.85277,4.484925 -14.62357,3.051271 -1.59462,-0.606274 -4.30417,-0.838763 -6.02123,-0.516641 -2.21004,0.414606 -3.51733,0.109223 -4.47568,-1.04552 -2.54538,-3.066988 -5.2404,-3.341265 -7.62546,-0.776058 -2.82388,3.037165 -9.3781,3.288238 -12.19903,0.467308 -2.96389,-2.963888 -5.69055,-3.436093 -7.7702,-1.345649 -3.45105,3.468955 -6.99167,4.28449 -15.69618,3.615408 -5.4244,-0.416952 -8.99324,-0.2457 -10.38331,0.498245 -1.53687,0.822505 -2.89066,0.837917 -4.93356,0.05616 -1.54851,-0.592569 -4.82362,-1.080133 -7.27803,-1.083476 -3.42966,-0.0047 -4.98096,-0.565438 -6.70225,-2.422744 -2.6684,-2.879252 -4.90366,-3.091506 -6.24102,-0.592628 -1.61594,3.019417 -8.45602,4.528532 -14.23833,3.141378 -2.70777,-0.649584 -5.78567,-0.955525 -6.83978,-0.679869 -1.10499,0.288962 -3.29025,-0.512283 -5.16059,-1.892178 -3.78312,-2.791097 -5.41932,-2.995139 -6.63261,-0.827115 -0.48209,0.86144 -2.64195,1.966605 -4.79969,2.455921 -3.38967,0.768683 -4.41198,0.551847 -7.51771,-1.594524 -3.5895,-2.480702 -6.13132,-2.463587 -8.40546,0.0566 -2.29081,2.538655 -8.31054,3.652138 -14.02913,2.595 -4.35648,-0.805339 -6.48383,-0.720412 -9.69866,0.387188 -2.75624,0.949602 -4.70059,1.107079 -5.87942,0.476186 C 359.92407,35.42418 356.95203,35 354.28825,35 c -2.74866,0 -5.79688,-0.66796 -7.04833,-1.544505 -1.47996,-1.036609 -2.78628,-1.255308 -3.9725,-0.665062 -4.52001,2.249096 -13.0624,3.476687 -16.31148,2.344053 C 325.16603,34.510519 321.99526,34 319.90979,34 c -2.08546,0 -4.08703,-0.477757 -4.44791,-1.061683 -1.32554,-2.144765 -5.64562,-3.078926 -7.35173,-1.589717 -0.88558,0.772994 -3.29241,1.999287 -5.3485,2.725096 -3.42609,1.209427 -3.98651,1.136173 -6.7095,-0.877022 -3.839,-2.838291 -6.11829,-2.770137 -10.67048,0.319063 -2.48951,1.689427 -4.39241,2.298243 -5.79346,1.853567 -3.34799,-1.062613 -14.90626,-0.846121 -17.08821,0.320071 -1.45006,0.775016 -3.14988,0.724262 -6.18181,-0.184578 z"
     style="fill:#afb0b0" />
  <path
     inkscape:connector-curvature="0"
     id="path1451"
     d="M 144.8784,540.46371 C 137.57368,538.17292 135.68443,534 141.95203,534 c 1.59661,0 3.08531,-0.65493 3.4096,-1.5 0.50131,-1.3064 7.20722,-1.5 51.95776,-1.5 35.5956,0 52.42653,-0.34796 54.78139,-1.13253 1.86957,-0.62289 4.99319,-2.64789 6.94138,-4.5 1.94819,-1.85211 4.20113,-3.36747 5.00652,-3.36747 2.78522,0 4.00562,-7.20358 3.3034,-19.49863 C 266.83257,493.40526 266.391,491 265.24061,491 c -0.91555,0 -1.22965,-0.58617 -0.8476,-1.58179 0.33385,-0.86998 0.61388,-2.10748 0.6223,-2.75 0.009,-0.67764 0.4368,-0.53831 1.01901,0.33179 0.86874,1.29833 1.2028,1.23902 2.48468,-0.44113 2.10115,-2.75395 1.8693,-4.47317 -0.519,-3.84862 -1.1,0.28766 -2,0.22433 -2,-0.14072 0,-0.91909 7.912,-15.44009 10.29633,-18.897 1.55685,-2.2572 2.45392,-2.70105 4.44773,-2.20063 2.30276,0.57796 2.37114,0.50044 0.87674,-0.99396 -1.81569,-1.81569 -2.16949,-6.02079 -0.58877,-6.99774 0.56762,-0.3508 3.97834,-4.65197 7.57937,-9.55815 6.01029,-8.18863 6.76639,-8.86709 9.21797,-8.27145 2.63608,0.64048 2.64686,0.62202 0.83298,-1.42646 -1.01071,-1.14143 -1.68571,-2.6933 -1.5,-3.44859 0.18571,-0.7553 3.48765,-5.72702 7.33765,-11.04829 l 7,-9.67501 4,0.59198 4,0.59198 -2.75,-2.57036 c -1.5125,-1.41369 -2.75,-2.79638 -2.75,-3.07265 0,-0.27626 1.05852,-1.56081 2.35227,-2.85456 1.29375,-1.29375 2.53942,-2.91371 2.76815,-3.59991 0.22874,-0.6862 1.08272,-1.34829 1.89773,-1.47131 2.71301,-0.40949 3.98185,-1.76059 3.98185,-4.24001 0,-1.35 0.5625,-3.3726 1.25,-4.49467 1.10562,-1.80449 0.87358,-2.35156 -2.00901,-4.73644 -3.89463,-3.22216 -4.16753,-4.64566 -0.72501,-3.78164 2.07153,0.51992 2.68981,0.17427 3.5,-1.9567 0.54121,-1.42349 0.98402,-3.9247 0.98402,-5.55824 0,-2.70087 -0.18905,-2.86891 -2.08565,-1.85388 -3.72363,1.99282 -3.60683,1.49364 3.22143,-13.76835 1.76044,-3.93481 2.1005,-4.18023 4.99101,-3.60213 2.90786,0.58157 3.05603,0.47041 2.36925,-1.7775 -0.40293,-1.31882 -1.33873,-3.09101 -2.07955,-3.93818 -1.16744,-1.33504 -0.58523,-2.12942 4.36828,-5.96031 3.14337,-2.43099 7.91997,-6.80034 10.61465,-9.70967 2.69468,-2.90934 5.71179,-5.2897 6.70469,-5.2897 1.29871,0 1.99578,-1.05224 2.48423,-3.75 0.37342,-2.0625 1.2659,-4.91118 1.98328,-6.3304 0.76275,-1.50896 1.35665,-6.49161 1.43033,-12 C 362.17632,291.88312 362.19088,292 360.39301,292 c -0.88933,0 -1.38907,-0.56789 -1.11902,-1.27163 0.26839,-0.6994 1.27329,-4.80148 2.23312,-9.11572 3.921,-17.62414 14.38495,-35.49538 26.77514,-45.72888 C 398.94262,227.07899 407,218.91437 407,216.91689 407,215.8626 407.4133,215 407.91844,215 c 0.50514,0 1.78934,-1.4625 2.85377,-3.25 2.07108,-3.47795 2.03219,-10.97799 -0.0704,-13.57622 -0.78029,-0.96423 -0.71215,-1.54936 0.24965,-2.14379 2.69224,-1.6639 20.03835,-3.06989 36.29058,-2.94154 l 16.74206,0.13221 5.25794,3.14805 c 14.05107,8.41266 48.13144,28.36078 51.47782,30.13129 3.3695,1.78274 6.08133,2.03481 24.96424,2.32045 13.7508,0.208 21.88604,-0.0552 23.18453,-0.75015 1.42809,-0.76429 2.80593,-0.75585 4.81589,0.0295 5.53918,2.1643 53.00268,6.16752 58.81547,4.96068 2.2,-0.45676 3.23248,-0.88222 2.29441,-0.94547 -0.93808,-0.0633 -3.31552,-1.20753 -5.28321,-2.54284 -1.96769,-1.33531 -5.02518,-2.72812 -6.79441,-3.09514 -1.76924,-0.36702 -5.46679,-1.7038 -8.21679,-2.97063 -2.75,-1.26682 -8.08684,-3.04143 -11.85965,-3.94357 -3.7728,-0.90214 -9.16496,-2.80844 -11.98256,-4.23623 -2.8176,-1.42779 -7.14043,-3.09787 -9.60628,-3.71128 -4.06304,-1.01075 -4.56759,-1.4728 -5.38171,-4.92845 -0.62535,-2.6544 -1.31944,-3.64201 -2.28407,-3.25 -0.76215,0.30973 -2.06073,0.83628 -2.88573,1.17013 -0.825,0.33384 -1.5,0.16394 -1.5,-0.37756 0,-2.02925 3.17281,-3.48951 8.36561,-3.85019 4.66192,-0.32382 7.30362,0.39315 20.2479,5.49538 C 632.98749,219.81793 651.83735,226 658.97817,226 c 1.11397,0 -1.91748,-6.623 -5.09972,-11.14169 C 650.43916,209.97464 649,199.24869 649,178.49972 c 0,-10.65323 0.42338,-20.48311 0.94085,-21.84416 0.51747,-1.36104 1.6482,-5.89906 2.51272,-10.08448 l 1.57186,-7.60986 -3.51272,-3.0842 c -3.63849,-3.19464 -4.83037,-6.59663 -1.91981,-5.47974 3.80198,1.45895 6.4071,1.7624 6.4071,0.74631 0,-1.47573 -3.68506,-3.32266 -5.88565,-2.94985 -0.99391,0.16838 -2.44316,-0.22173 -3.22055,-0.86692 -0.7774,-0.64518 -5.90903,-2.73809 -11.40363,-4.65091 -13.42301,-4.67291 -35.11659,-15.60029 -31.05763,-15.64419 1.6129,-0.0175 14.8879,1.29277 29.5,2.91159 14.6121,1.61882 33.76746,3.72581 42.56746,4.68221 19.75338,2.14682 43.3603,2.67682 71.5,1.60524 19.97967,-0.76084 21.6265,-0.69187 23.28896,0.97525 2.0659,2.07172 6.59956,2.23255 22.50639,0.79844 5.66245,-0.51051 22.2183,-1.00924 36.7908,-1.10829 24.3415,-0.16546 26.57342,-0.3258 27.45465,-1.97239 C 857.56836,113.93801 858,105.61765 858,96.434072 v -16.69741 l 4.25,0.735436 c 2.3375,0.40449 6.275,0.803891 8.75,0.887558 5.32345,0.179958 7,1.065983 7,3.699361 C 878,86.126558 878.45,87 879,87 c 0.55,0 1,-0.9 1,-2 0,-1.518864 0.66156,-1.996316 2.75,-1.984687 3.44754,0.0192 4.91748,0.951114 5.38432,3.413574 0.4508,2.377857 2.39791,1.75521 2.28086,-0.729371 -0.0642,-1.363301 0.5428,-1.727522 2.5,-1.5 L 895.5,84.5 l 0.57011,18.35958 c 0.48989,15.77617 0.80649,18.49186 2.25,19.29969 1.47364,0.82469 1.67989,3.09434 1.67989,18.48605 0,15.46491 0.21991,17.86076 1.85417,20.20031 1.0198,1.4599 2.15337,3.89187 2.51905,5.40437 0.38383,1.58754 1.34621,2.75 2.27667,2.75 1.30604,0 1.49421,0.71136 0.99196,3.75 -0.34091,2.0625 -0.62479,4.3125 -0.63084,5 -0.006,0.6875 -0.92513,1.25 -2.04239,1.25 -2.7584,0 -3.48719,2.42155 -1.55781,5.17613 0.87405,1.24788 1.58919,2.90665 1.58919,3.68613 0,0.77949 0.67404,1.91686 1.49787,2.5275 1.16434,0.86302 1.32601,2.11226 0.72602,5.61024 -0.61743,3.59967 -1.21723,4.56393 -2.99787,4.81955 -2.66135,0.38204 -2.66861,0.45467 -0.59016,5.89702 0.89972,2.35589 2.24972,4.28343 3,4.28343 1.58807,0 1.82928,3.13486 0.35468,4.60946 -0.59064,0.59064 -1.1454,9.49016 -1.33711,21.45 -0.31524,19.66638 -0.43253,20.6962 -3.09699,27.19082 -4.33471,10.56585 -10.79345,14.66822 -23.18432,14.72586 -2.82033,0.0131 -6.87033,0.80074 -9,1.75026 -3.18959,1.4221 -8.10252,1.8187 -27.87212,2.25 -23.39127,0.51032 -24.08123,0.58455 -27.20275,2.92672 l -3.20274,2.40312 -33.29726,-0.95939 c -20.50172,-0.59072 -33.7776,-0.60251 -34.54725,-0.0307 -2.36606,1.75792 -1.55898,13.76724 1.35263,20.12703 3.20078,6.99144 2.52769,8.34168 -1.08515,2.17684 -3.43007,-5.85298 -8.6015,-10.35758 -12.79374,-11.14404 -4.2265,-0.7929 -19.0907,-11.7771 -23.93151,-17.68468 -2.72916,-3.33057 -4.62204,-4.66429 -7.21758,-5.08549 -4.77927,-0.77557 -11.77763,-5.72004 -19.57465,-13.82986 -6.34789,-6.60256 -6.69891,-6.80774 -15,-8.76821 -4.675,-1.1041 -14.35,-3.39118 -21.5,-5.0824 -12.94538,-3.06204 -29.5815,-5.15671 -41,-5.16234 -12.79555,-0.006 -19.0047,3.18733 -20.15251,10.36537 -0.94442,5.90609 -6.53957,7.55512 -13.83325,4.07701 -4.49893,-2.14539 -5.07932,-1.58795 -9.5732,9.1946 -2.99269,7.18061 -3.37083,9.17787 -3.69191,19.5 -0.36793,11.82849 -0.64205,13.10865 -5.08626,23.7533 l -2.61079,6.2533 -3.52604,-0.63464 c -1.93932,-0.34905 -3.78,-0.77546 -4.09039,-0.94758 -0.3104,-0.17212 -0.12994,-3.52217 0.40101,-7.44456 0.78191,-5.77627 1.41179,-7.42412 3.31436,-8.67073 2.63,-1.72324 3.16419,-6.67213 1.29804,-12.02538 -0.76926,-2.20669 -0.65256,-6.06579 0.43539,-14.39786 1.27531,-9.76687 1.28822,-11.73828 0.091,-13.88449 -0.76745,-1.37575 -1.9074,-3.73886 -2.53322,-5.25136 -3.20774,-7.75252 -7.98668,-0.14163 -14.4448,23.00463 C 527.31135,283.58958 525.19138,290 524.78638,290 c -0.40501,0 -0.52884,-1.2375 -0.27517,-2.75 0.25366,-1.5125 1.17248,-10.75831 2.04181,-20.54625 1.56156,-17.58177 1.5557,-17.84771 -0.4862,-22.06573 C 524.93007,242.28981 524,239.68543 524,238.85049 c 0,-2.47859 -14.44154,-11.55091 -21,-13.19241 -1.375,-0.34414 -6.55,-3.56076 -11.5,-7.14804 -6.20798,-4.49895 -11.09834,-7.17241 -15.76395,-8.61782 -8.379,-2.59584 -9.73605,-2.17227 -9.73605,3.03888 0,2.19663 -0.90586,6.41499 -2.01301,9.37413 -1.66621,4.45334 -2.96335,6.03478 -7.52919,9.17939 -5.35634,3.68906 -5.70387,3.78161 -11.99409,3.19422 -5.00091,-0.46699 -7.26764,-1.23504 -9.94147,-3.36855 -4.97092,-3.96638 -2.27062,-5.25692 5.09876,-2.43682 l 5.4319,2.07867 5.22355,-1.98067 c 2.87295,-1.08937 5.75874,-2.32578 6.41286,-2.74758 1.65858,-1.0695 7.31069,-13.93077 7.31069,-16.63532 0,-3.82872 -5.96693,-10.50197 -10.48249,-11.72334 -4.8553,-1.31327 -17.70003,-0.33932 -21.5102,1.63099 -2.53106,1.30886 -9.30906,9.42828 -11.84402,14.18804 C 419.52348,214.8856 419,218.735 419,222.23848 c 0,7.03895 -2.35712,11.85751 -9.19445,18.79583 -3.08809,3.13369 -3.50412,4.18439 -3.67028,9.26938 -0.16051,4.91187 0.16866,6.09115 2.29321,8.21569 1.36433,1.36434 3.15489,2.48062 3.97901,2.48062 3.1041,0 6.54999,-2.39062 8.07342,-5.60102 1.45122,-3.05821 1.4393,-3.62666 -0.14907,-7.11144 -0.94951,-2.08315 -1.87511,-4.05006 -2.0569,-4.37092 C 417.34847,242.28139 427.21873,241 440.74102,241 H 455.75 l 0.54851,2.75 c 0.30168,1.5125 0.87178,5.61309 1.26689,9.11242 0.69732,6.17597 0.6556,6.34447 -1.42351,5.75 -1.17804,-0.33683 -3.02489,-0.86235 -4.10412,-1.16782 -1.07922,-0.30547 -2.94506,-0.0294 -4.14631,0.61349 -2.01797,1.07998 -2.12781,0.98913 -1.44428,-1.1946 1.76027,-5.62367 1.68166,-7.42998 -0.44079,-10.12824 C 444.42566,244.72568 442.96448,244 440.49885,244 c -5.51687,0 -8.87593,4.90149 -7.81968,11.41036 0.80488,4.95994 -1.35085,7.81956 -7.04235,9.3418 -3.62782,0.9703 -4.63682,1.69176 -4.63682,3.31543 0,1.88661 -0.14286,1.93241 -1.57143,0.50384 -1.76768,-1.76769 -5.1197,-2.01956 -8.71012,-0.65449 -3.08977,1.17473 -5.72615,6.69798 -4.99473,10.46405 0.39874,2.05317 0.0878,3.14498 -1.0821,3.79969 C 403.73873,282.68597 403,283.97702 403,285.04969 403,286.12236 402.58851,287 402.08557,287 c -0.50294,0 -4.92666,-4.275 -9.8305,-9.5 -4.90384,-5.225 -9.62874,-9.5 -10.49979,-9.5 -2.11641,0 -7.17907,8.40291 -9.75964,16.19888 -1.14717,3.46562 -2.5077,11.02353 -3.02341,16.79536 -0.51571,5.77183 -1.30344,10.61616 -1.7505,10.76518 -0.44706,0.14902 -0.62194,4.63565 -0.38862,9.97028 0.61095,13.96881 1.41346,14.85749 14.24625,15.77598 9.12237,0.65292 12.00376,1.62027 11.5856,3.88955 -0.0907,0.49237 2.08504,1.54288 4.83504,2.33446 6.3557,1.82947 7.31167,2.74098 5.65567,5.39265 -0.71183,1.13983 -1.1029,2.26376 -0.86904,2.49762 0.23386,0.23387 4.42526,0.66026 9.31421,0.94755 9.29974,0.54648 12.67801,1.82243 7.96021,3.00652 -5.63268,1.41372 -13.58689,-0.29105 -28.69748,-6.15051 -8.19805,-3.17898 -8.95943,-3.29741 -15,-2.33309 -7.36551,1.17583 -8.98022,2.39955 -9.20249,6.97419 -0.14034,2.88853 0.3539,3.61065 3.83892,5.60892 4.04729,2.32067 8.5,3.07158 8.5,1.43345 0,-0.49116 0.675,-1.15203 1.5,-1.46862 2.24594,-0.86184 1.81505,0.83377 -1.08889,4.2849 -1.96787,2.33868 -3.41487,3.07673 -6.03212,3.07673 -1.89378,0 -5.00377,0.65204 -6.91111,1.44897 -3.90474,1.63151 -4.32682,0.94042 -2.44638,-4.00551 0.72973,-1.91935 0.68941,-3.08687 -0.14119,-4.08767 -1.48313,-1.78707 -3.99986,-0.99129 -9.8258,3.10687 -4.51545,3.17632 -4.55451,3.25361 -4.55451,9.01158 0,4.52553 0.399,6.05263 1.80723,6.91677 1.52608,0.93646 2.38172,0.44541 5.5,-3.15649 4.26355,-4.92479 5.19277,-5.22361 5.19277,-1.6699 0,1.41054 0.95396,4.78217 2.11992,7.4925 2.02586,4.70923 2.04362,5.04434 0.40043,7.55216 l -1.71948,2.62427 -1.1653,-2.36677 C 360.99465,388.56505 358.31401,386.375 355.67858,385 l -4.79169,-2.5 -2.5095,3 c -5.51241,6.58984 -15.34597,23.08733 -15.36143,25.77144 -0.0116,2.01072 -0.73468,3.09891 -2.63438,3.96447 C 326.70259,416.91217 316,433.066 316,436.94259 c 0,2.34293 -0.53123,3.15264 -2.37137,3.61448 -3.02378,0.75892 -14.1117,16.74168 -13.22231,19.05939 0.33579,0.87508 1.16925,1.38701 1.85211,1.13764 0.68286,-0.24938 5.96657,-1.90781 11.74157,-3.68541 5.775,-1.7776 13.425,-4.17041 17,-5.31735 7.34407,-2.35615 22.34994,-2.58236 273,-4.11533 65.725,-0.40198 126.925,-1.18053 136,-1.73011 20.95834,-1.26924 74.94096,-4.02824 90,-4.59982 6.325,-0.24007 16.45,0.0279 22.5,0.5954 6.05,0.56754 22.475,2.14009 36.5,3.49454 14.025,1.35446 29.1,2.77279 33.5,3.15186 4.4,0.37906 12.95,1.56746 19,2.64088 6.05,1.07342 15.95,2.35369 22,2.84505 10.97408,0.89129 23.21055,3.74616 26.34534,6.14659 4.67651,3.58099 8.67523,7.59677 8.84086,8.87857 0.10241,0.79257 -2.48509,3.64576 -5.75,6.34043 -3.26491,2.69468 -5.9362,5.6439 -5.9362,6.55384 0,1.76616 -5.16915,7.12669 -8.52682,8.84251 -1.11475,0.56965 -5.38975,1.50495 -9.5,2.07845 -7.51895,1.04911 -20.38894,3.98734 -37.97318,8.66932 -5.225,1.3912 -13.1,3.18743 -17.5,3.9916 -10.19912,1.86407 -36.61304,1.86991 -54,0.0119 -7.15,-0.76405 -17.95,-1.92281 -24,-2.57502 -11.69041,-1.26027 -28.83511,-0.84374 -42,1.02039 -10.27598,1.45506 -117.26603,0.70461 -129.31619,-0.90705 -7.65153,-1.02336 -11.00702,-2.27559 -18.38021,-6.8593 -2.62428,-1.63145 -2.98533,-1.55659 -13.5,2.79883 L 621.5,503.5 l -50,0.32447 c -41.34917,0.26834 -53.13501,0.0281 -68.11971,-1.38824 -16.22444,-1.53357 -18.42097,-1.55486 -21,-0.20356 -9.08433,4.7598 -11.34204,5.71455 -15.88029,6.71554 -2.94856,0.65035 -12.79546,0.99489 -24,0.83976 -18.27955,-0.2531 -19.28439,-0.16359 -26.5,2.36076 -8.55403,2.99259 -16.77271,4.60632 -47.60962,9.34811 -48.25082,7.41953 -56.30643,8.88637 -66.51848,12.11229 -24.14849,7.62837 -24.44582,7.65425 -91.8719,7.99668 -50.67266,0.25734 -61.25071,0.0718 -65.1216,-1.1421 z m 139.64506,-18.1222 c -0.96159,-7.69633 -3.33476,-12.51259 -5.97899,-12.13413 -3.20225,0.45833 -3.24177,6.48306 -0.0834,12.71578 1.86083,3.67217 3.15321,5.07684 4.67101,5.07684 1.96724,0 2.05419,-0.35363 1.39139,-5.65849 z M 898.8851,505.09217 c 1.11096,-0.70358 0.97552,-1.09639 -0.68426,-1.98468 -2.64177,-1.41384 -4.89451,-1.41215 -5.76994,0.004 -1.3627,2.20489 3.66419,3.74732 6.4542,1.98037 z M 305.5,497.61532 c 6.05,-0.88382 17.525,-2.55066 25.5,-3.70408 16.32462,-2.36104 22,-3.60497 22,-4.82198 0,-1.52484 -7.93699,-2.1338 -26.31172,-2.01876 -13.15495,0.0824 -19.84869,-0.30092 -24.18828,-1.38503 -3.3,-0.8244 -8.52863,-1.79091 -11.61917,-2.1478 l -5.61917,-0.64889 -1.63083,4.07585 c -1.90078,4.75053 -2.07171,8.34306 -0.53369,11.21689 1.24736,2.3307 2.85009,2.29019 22.40286,-0.5662 z m 295.50037,-6.01121 c 8.21765,-1.76486 10.17796,-2.5678 9.7103,-3.97732 -0.50436,-1.52011 -23.02158,-2.06595 -25.71701,-0.6234 -2.65407,1.42042 -2.52885,3.84594 0.25634,4.96545 3.30611,1.32889 8.41533,1.21058 15.75037,-0.36473 z M 891,117.05902 c 0,-1.17986 -1.95035,-2.442 -2.66667,-1.72569 C 887.61702,116.04965 888.87916,118 890.05902,118 890.57656,118 891,117.57656 891,117.05902 Z m -12.25014,-3.64249 c -0.95295,-0.95296 -2.86349,0.5906 -2.1533,1.7397 0.42212,0.683 0.98146,0.66575 1.69964,-0.0524 0.58876,-0.58876 0.79291,-1.34803 0.45366,-1.68727 z M 879.98469,93.25 C 879.97382,89.168604 879.68807,87.935288 879,89 c -1.65516,2.561185 -1.15924,10 0.66667,10 0.18333,0 0.32644,-2.5875 0.31802,-5.75 z M 209.36163,484.5 c -0.31659,-0.825 -1.21659,-1.5 -2,-1.5 -2.53627,0 -2.70613,-3.00439 -0.31383,-5.55088 2.74031,-2.91693 6.96382,-3.19875 9.29721,-0.62038 2.25975,2.49699 2.07801,4.42522 -0.65946,6.99695 -2.68671,2.52403 -5.49905,2.82391 -6.32392,0.67431 z M 364,400.09878 c 0,-1.15669 6.95055,-5.28193 8.19853,-4.86594 1.8393,0.6131 -3.3183,5.76716 -5.77111,5.76716 C 365.09234,401 364,400.59445 364,400.09878 Z M 534,353 c 0.5887,-1.1 1.50453,-2 2.03518,-2 1.58768,0 1.08981,2.73806 -0.61697,3.39301 C 533.00365,355.31956 532.84304,355.1618 534,353 Z M 288.04616,289.55562 c -2.70069,-3.25413 1.76872,-7.16931 4.76443,-4.1736 1.27355,1.27355 1.40397,2.05494 0.56528,3.38674 -1.46016,2.31867 -3.77482,2.66039 -5.32971,0.78686 z m 16.62051,0.77771 c -1.15384,-1.15383 -0.72573,-4.03942 0.78534,-5.2935 1.90448,-1.58058 5.54799,-0.38037 5.54799,1.82756 0,3.14467 -4.30092,5.49836 -6.33333,3.46594 z M 288.16251,273.1216 c -0.73562,-0.46628 -1.18562,-1.92189 -1,-3.23469 0.47702,-3.37372 5.36066,-3.96462 6.3742,-0.77124 0.50295,1.58464 0.1824,2.61656 -1.10529,3.55813 -2.11305,1.54511 -2.47744,1.58333 -4.26891,0.4478 z m 16.87736,-0.57356 C 302.95751,270.03895 304.19486,267.5 307.5,267.5 c 3.56259,0 4.72172,3.13349 1.91761,5.1839 -2.28513,1.67093 -2.89392,1.65204 -4.37774,-0.13586 z m 25.57504,-7.59385 c -3.1568,-3.75164 -3.17201,-3.97624 -0.49928,-7.37407 1.62278,-2.06302 2.83246,-2.6186 5.19262,-2.38485 2.95266,0.29242 3.0804,0.49872 3.16164,5.10609 0.0975,5.52678 -0.19117,6.18628 -3.10498,7.09478 -1.62459,0.50652 -2.76032,-0.0774 -4.75,-2.44195 z M 305.2,255.8 c -2.98558,-2.98558 0.32571,-7.65938 4.02418,-5.68002 C 312.17201,251.69761 310.8432,257 307.5,257 c -0.605,0 -1.64,-0.54 -2.3,-1.2 z m -17.83837,-1.3 c -0.95038,-2.47663 0.4201,-4.5 3.04797,-4.5 2.94837,0 3.948,1.29794 3.08756,4.00895 -0.75649,2.38347 -5.2707,2.74476 -6.13553,0.49105 z m -54.92648,-13.90043 c -7.29376,-6.33365 -10.6025,-7.15298 -32.93515,-8.15557 -8.25,-0.37037 -15.59241,-0.99392 -16.31647,-1.38565 -0.83493,-0.45172 5.38348,-4.58692 17,-11.30488 10.07406,-5.82595 18.90529,-10.74132 19.62495,-10.92305 0.76399,-0.19292 1.88394,1.30172 2.69137,3.59182 1.42011,4.02779 6.2634,8.88868 14.69934,14.75279 7.65629,5.32215 9.32466,10.8758 2.25433,7.50419 C 235.52587,232.80626 232,232.48086 232,233.99135 c 0,0.54524 1.575,3.05471 3.5,5.57659 2.91135,3.81408 4.36659,6.66416 3.25,6.3651 -0.1375,-0.0368 -2.97918,-2.43688 -6.31485,-5.33347 z m 90.1343,-2.17298 c -1.95904,-1.95904 -1.99971,-3.82462 -0.11744,-5.38676 2.20588,-1.83072 5.54799,-0.32931 5.54799,2.49237 0,3.25531 -3.30704,5.0179 -5.43055,2.89439 z m -34.90278,-0.0933 c -1.51322,-1.51321 -0.60076,-5.21947 1.44484,-5.86872 2.81295,-0.8928 5.31668,1.61093 4.42388,4.42388 -0.64925,2.0456 -4.35551,2.95806 -5.86872,1.44484 z m 16.6428,-0.96925 C 303.48222,235.2083 305.2587,232.5 307.5,232.5 c 0.98011,0 2.24019,0.72633 2.80016,1.61408 1.52773,2.42194 0.1156,4.88592 -2.80016,4.88592 -1.45016,0 -2.83531,-0.71022 -3.19053,-1.63592 z m -33.92543,-16.80567 c -1.06518,-2.77582 0.0723,-5.05841 2.52067,-5.05841 3.15441,0 4.9413,2.77569 3.16486,4.91618 -1.64171,1.97813 -4.94928,2.06088 -5.68553,0.14223 z m 17.28263,0.77492 c -1.05008,-1.05007 -0.77771,-5.14667 0.39017,-5.86846 1.8581,-1.14837 5.94316,0.46979 5.94316,2.35418 0,3.18727 -4.28349,5.56412 -6.33333,3.51428 z M 304.36163,220.5 c -1.40923,-3.67237 2.65128,-6.91566 5.31869,-4.24825 2.22293,2.22293 0.82519,5.74825 -2.27909,5.74825 -1.3552,0 -2.72302,-0.675 -3.0396,-1.5 z m 17.60885,-0.0356 c -1.81696,-2.1893 -0.0625,-4.96443 3.13851,-4.96443 1.99001,0 2.39101,0.50313 2.39101,3 0,2.28 -0.501,3.07158 -2.08751,3.29826 -1.14812,0.16404 -2.69703,-0.43618 -3.44201,-1.33383 z m 217.42509,-0.94015 c -4.76269,-2.00256 -7.68644,-6.34444 -7.02343,-10.43007 1.26289,-7.78231 9.85044,-12.10818 18.77525,-9.4578 5.52486,1.64071 6.8973,3.55174 4.47389,6.22958 -0.8917,0.98532 -1.62128,2.90937 -1.62128,4.27566 0,2.72818 -3.73728,6.74231 -8.51962,9.15073 -2.53943,1.27888 -3.50706,1.31576 -6.08481,0.2319 z m -96.43075,-2.45854 c 2.63626,-4.92591 -0.17816,-10.66262 -4.04602,-8.2471 -1.57639,0.98447 -1.9188,0.9265 -1.9188,-0.32486 0,-1.8211 5.67855,-5.4863 8.5,-5.4863 2.41939,0 8.5,3.56097 8.5,4.97782 0,0.55809 -0.65766,1.0147 -1.46146,1.0147 -0.85781,0 -1.90445,1.64515 -2.53396,3.98299 -1.05443,3.91584 -3.31519,6.01701 -6.47402,6.01701 -1.27291,0 -1.38883,-0.39631 -0.56574,-1.93426 z M 435.63837,212.5 c 0.31659,-0.825 0.75246,-1.5 0.96862,-1.5 0.21615,0 0.39301,0.675 0.39301,1.5 0,0.825 -0.43588,1.5 -0.96862,1.5 -0.53273,0 -0.70959,-0.675 -0.39301,-1.5 z M 193.2,207.8 c -0.66,-0.66 -1.2,-1.92 -1.2,-2.8 0,-1.55494 1.81712,-4 2.97273,-4 0.315,0 0.57272,1.8 0.57272,4 0,4.23895 -0.41321,4.73224 -2.34545,2.8 z m 46.16002,-39.0265 c -0.26293,-0.42542 6.861,-0.78528 15.83096,-0.79967 8.96996,-0.0144 22.15902,-0.23632 29.30902,-0.49317 7.15,-0.25686 55.075,-0.91809 106.5,-1.46941 51.425,-0.55132 102.6125,-1.27271 113.75,-1.6031 17.74258,-0.52631 20.25,-0.41188 20.25,0.92415 0,0.83866 -0.74616,2.27101 -1.65814,3.18298 -1.53149,1.53149 -12.42199,1.63422 -142.58096,1.34493 -77.50756,-0.17226 -141.13795,-0.66128 -141.40088,-1.08671 z M 225.75,168.33772 c 0.6875,-0.27741 1.8125,-0.27741 2.5,0 0.6875,0.27741 0.125,0.50439 -1.25,0.50439 -1.375,0 -1.9375,-0.22698 -1.25,-0.50439 z m 108.69703,-25.39626 c -2.32041,-2.56402 -0.91277,-5.44146 2.66196,-5.44146 2.7486,0 3.8557,3.6327 1.84533,6.05504 -1.59596,1.92302 -2.29822,1.82742 -4.50729,-0.61358 z M 910.72255,116.66821 C 910.32515,115.66073 910,112.62323 910,109.91821 910,106.21313 910.36999,105 911.5,105 c 1.60702,0 1.87771,4.70385 0.60424,10.5 -0.54685,2.48897 -0.78221,2.68797 -1.38169,1.16821 z M 770,110.94098 c 0,-1.13246 0.43035,-1.79305 0.95633,-1.46797 0.52598,0.32507 0.70283,1.25163 0.39301,2.05902 C 770.55611,113.59914 770,113.35555 770,110.94098 Z M 424.32868,109 c -5.04423,-0.275 -9.51917,-0.84994 -9.94431,-1.27764 -0.42514,-0.42771 1.00195,-2.21728 3.17132,-3.97683 2.16937,-1.75956 6.46,-5.572119 9.53472,-8.472361 L 432.68083,90 h 63.74292 c 50.54627,0 63.65806,0.258787 63.33304,1.25 -0.22544,0.6875 -4.78145,4.9625 -10.12447,9.5 l -9.71458,8.25 -26.20887,0.0247 c -14.41488,0.0136 -38.35887,0.12607 -53.20887,0.25 -14.85,0.1239 -31.12709,3e-4 -36.17132,-0.2747 z M 714.95041,90.440253 c -4.38227,-5.280318 8.19721,-13.107534 15.11533,-9.405069 C 733.66293,82.96034 731.68074,91 727.60891,91 726.92238,91 725.3825,89.875 724.18695,88.5 721.06316,84.907329 718,85.154879 718,89 c 0,3.313807 -1.07379,3.820937 -3.04959,1.440253 z M 56.113216,63.069972 C 55.089352,62.437188 55.048714,61.777494 55.931939,60.127174 57.339455,57.497206 60,57.333954 60,59.877555 c 0,2.436061 -2.194353,4.238396 -3.886784,3.192417 z M 616.37011,46.522119 C 615.60584,44.530455 617.70554,42 620.12244,42 c 2.67921,0 2.31982,2.480198 -0.64045,4.419844 -2.25095,1.474878 -2.581,1.485725 -3.11188,0.102275 z M 240.24377,45.335642 C 237.644,44.287516 240.29839,43 245.05902,43 248.78434,43 250,43.369056 250,44.5 c 0,1.110423 -1.1038,1.479496 -4.25,1.421053 -2.3375,-0.04342 -4.8153,-0.306856 -5.50623,-0.585411 z m 33.46995,0.04475 C 272.03335,43.700014 273.31834,43 278.08333,43 c 3.61923,0 4.96494,0.360026 4.67228,1.25 -0.44736,1.360416 -7.88236,2.289916 -9.04189,1.130388 z m 33.00783,0.0078 C 305.08726,43.753922 306.24059,43 310.375,43 c 5.31504,0 10.73914,1.006294 10.19241,1.890923 -0.56893,0.920561 -12.97694,1.366214 -13.84586,0.497296 z M 339.5,45.066707 c -1.87473,-0.785082 -1.83926,-0.879939 0.56627,-1.514419 3.59857,-0.949156 12.48297,-0.258734 12.19523,0.947712 -0.29976,1.256884 -10.07663,1.691051 -12.7615,0.566707 z M 294.5,28 l -78,-0.5 v -3.985864 -3.985864 l 178.25,-0.01414 C 492.7875,19.506361 572.99749,19.725 572.99442,20 c -0.003,0.275 -0.47422,2.1875 -1.047,4.25 L 570.90599,28 541.203,28.0419 C 524.86635,28.06494 480.225,28.177442 442,28.2919 403.775,28.406353 337.4,28.275 294.5,28 Z"
     style="fill:#929292" />
  <path
     inkscape:connector-curvature="0"
     id="path1449"
     d="m 753,286.00501 c -13.475,-0.33345 -25.30959,-0.97761 -26.29909,-1.43147 -2.90924,-1.33439 -1.56568,-3.98032 2.34382,-4.61579 5.07991,-0.82572 5.60359,-1.37803 6.33413,-6.68045 0.56802,-4.12277 0.22863,-5.62476 -2.47719,-10.96277 -1.72446,-3.40201 -4.0953,-7.05158 -5.26853,-8.11016 -2.72845,-2.46183 -20.92179,-10.47135 -40.1162,-17.66096 -18.50157,-6.9301 -25.70138,-11.44946 -30.72308,-19.28504 -5.57203,-8.69428 -6.76188,-15.41004 -6.77837,-38.25837 -0.0129,-17.85932 0.20284,-20.2993 2.56396,-29 2.34108,-8.62688 3.0533,-9.98959 7.74929,-14.82704 6.29119,-6.4807 8.12841,-7.49072 18.24184,-10.02852 8.78446,-2.20431 25.023,-3.10767 67.19976,-3.73833 13.89869,-0.20783 32.34869,-1.05767 41,-1.88854 32.8209,-3.15209 84.17097,-1.07334 107.72966,4.3611 l 3,0.69203 0.5,17.11329 c 0.44505,15.23255 0.7173,17.353 2.47727,19.29452 2.85269,3.14695 2.71114,9.82046 -0.25,11.78658 -2.7341,1.81538 -2.8198,4.92055 -0.22727,8.23491 2.71637,3.47268 2.71637,11.04172 0,13.5 -2.5903,2.34419 -2.52785,4.55923 0.22727,8.0618 2.97798,3.78589 2.97798,9.52637 0,12.69628 -1.5461,1.64575 -2.22727,3.60938 -2.22727,6.42062 0,3.43982 -0.92672,5.23754 -6.15278,11.93555 -3.38403,4.33716 -6.60008,8.46144 -7.14677,9.16507 -0.5467,0.70362 -2.03164,6.69994 -3.29988,13.32516 -1.89171,9.88227 -2.93632,12.99565 -5.81588,17.3339 -5.50938,8.30023 -10.39885,9.54863 -37.42696,9.55604 -18.82332,0.005 -20.53213,0.15492 -22.88486,2.00558 -2.82371,2.22113 -9.06067,2.32179 -62.27287,1.00501 z M 689.42857,163.42857 C 692.74392,160.11322 690.44013,153 686.05102,153 c -4.15458,0 -5.77277,6.44001 -2.52103,10.03314 2.15065,2.37644 3.80656,2.48745 5.89858,0.39543 z"
     style="fill:#b32a42" />
  <path
     inkscape:connector-curvature="0"
     id="path1447"
     d="m 797.957,286.63255 c -0.29865,-0.30354 -14.69865,-0.83393 -32,-1.17865 -44.39606,-0.88456 -41.86666,-0.64099 -40.61192,-3.91077 0.69364,-1.8076 10.65492,-2.2602 10.65492,-0.48411 0,0.58246 0.49804,0.75121 1.10676,0.375 0.78844,-0.48728 0.75311,-0.90259 -0.12284,-1.44396 -0.78049,-0.48236 -1.05177,-2.17165 -0.74272,-4.625 0.56305,-4.46986 -1.37522,-11.033 -4.91378,-16.63845 -1.35949,-2.15356 -2.32681,-4.0448 -2.14961,-4.20275 0.17721,-0.15794 7.29719,0.11832 15.82219,0.61392 8.525,0.49559 27.61362,0.77984 42.41916,0.63165 l 26.91916,-0.26943 1.6975,-3 c 2.20827,-3.90268 1.13898,-5.93753 -4.51724,-8.59627 -6.2221,-2.92473 -7.98677,-6.00298 -7.9706,-13.90373 0.007,-3.575 0.32951,-7.67343 0.71598,-9.10762 l 0.70267,-2.60761 -8.11645,-0.67689 c -6.49284,-0.54148 -8.44619,-0.37847 -9.76484,0.81489 -1.43921,1.30247 -2.15198,1.31242 -5.61686,0.0784 -4.74356,-1.68942 -8.42212,-1.84949 -11.92218,-0.51876 -1.8377,0.69869 -4.21049,0.55872 -8.21647,-0.48471 -6.73591,-1.75448 -6.83662,-1.83168 -4.70259,-3.60519 1.3204,-1.09733 8.16158,-1.49849 32.27417,-1.8925 26.53443,-0.43359 31.05067,-0.73244 34.00223,-2.25 4.00241,-2.05786 6.76028,-2.24529 7.35725,-0.5 0.3141,0.91829 1.68567,0.64538 5.1685,-1.02838 4.61075,-2.21581 5.56424,-2.27813 34.72024,-2.26917 16.48862,0.005 30.4003,0.26939 30.91484,0.58739 1.81176,1.11973 1.04581,7.37434 -1.06447,8.69223 -1.46345,0.91394 -2,2.33203 -2,5.28597 0,4.34145 -0.46779,5.20433 -8.80054,16.2332 -5.26731,6.97159 -5.57092,7.71651 -7.87257,19.31591 -1.96365,9.89594 -3.04305,13.04223 -6.00475,17.50288 -5.15996,7.77146 -7.89745,8.42997 -35.04413,8.42997 -20.53546,0 -21.47548,0.0861 -24.38021,2.23368 -2.30624,1.70508 -4.72235,2.31854 -10.20951,2.59222 -3.95356,0.1972 -7.43264,0.11019 -7.73129,-0.19335 z M 830,249 c 0,-0.55 -0.45,-1 -1,-1 -0.55,0 -1,0.45 -1,1 0,0.55 0.45,1 1,1 0.55,0 1,-0.45 1,-1 z m -117.5,-2.70104 c -4.4,-1.92723 -10.25,-4.3179 -13,-5.31258 -28.93396,-10.46553 -36.03842,-14.41004 -42.06089,-23.3529 -4.48246,-6.65607 -4.42026,-7.9181 0.27233,-5.52568 2.04129,1.04071 5.08843,1.8922 6.77142,1.8922 2.09085,0 5.23207,1.58354 9.91832,5 3.77209,2.75 7.29445,5 7.82746,5 0.533,0 2.38711,0.63863 4.12023,1.41919 1.73312,0.78055 8.32613,3.31781 14.65113,5.63835 11.14704,4.08968 11.9533,4.23409 26.26929,4.70511 16.59078,0.54588 17.65777,1.43467 6.27123,5.22387 -6.76454,2.25109 -10.14373,4.99917 -9.19319,7.47623 0.93996,2.4495 -2.92761,1.74313 -11.84733,-2.16379 z M 856,202.43499 c -1.375,-0.16845 -15.50309,-0.86751 -31.39575,-1.55346 -28.29112,-1.22109 -28.94994,-1.2974 -31.48516,-3.64697 -2.1567,-1.99876 -3.26032,-2.29921 -6.60425,-1.79796 -12.8562,1.92713 -22.22486,2.42228 -25.77672,1.36233 -4.91318,-1.46619 -6.27912,-3.10448 -4.09898,-4.91625 1.30464,-1.0842 8.23301,-1.49062 32.09471,-1.88268 28.39553,-0.46656 30.52348,-0.62677 31.81508,-2.39539 1.09069,-1.49351 3.03451,-1.99536 9.16762,-2.36687 17.20858,-1.04239 69.86076,-1.68378 71.03345,-0.8653 2.10417,1.46862 1.56509,8.38856 -0.75,9.62756 -1.1,0.5887 -2.00689,2.06703 -2.01531,3.28518 -0.0309,4.46553 -0.67208,4.62329 -20.5213,5.04919 -10.42986,0.22379 -20.08839,0.26907 -21.46339,0.10062 z m -15.5,-22.5662 c -10.45,-0.4665 -21.53653,-1.35349 -24.63673,-1.97109 -3.1002,-0.6176 -10.0752,-1.27815 -15.5,-1.46789 -14.42075,-0.50437 -26.47628,-1.26033 -29.6137,-1.85695 -1.51274,-0.28767 -3.98774,-0.0121 -5.5,0.61242 -3.09777,1.27925 -4.55291,1.19437 -8.49957,-0.49581 -3.4358,-1.47139 -3.44345,-2.18847 -0.0471,-4.41642 2.38067,-1.56169 6.22511,-1.83776 32.25,-2.31593 23.51021,-0.43195 30.21455,-0.85421 32.81377,-2.06668 1.79666,-0.83809 2.95916,-1.8313 2.58334,-2.20712 -0.37583,-0.37583 0.31823,-0.68332 1.54236,-0.68332 1.22915,0 1.94896,0.44774 1.60765,1 -0.37663,0.6094 1.06506,0.98595 3.69098,0.96404 3.00692,-0.0251 5.18021,-0.74841 7.19204,-2.39363 l 2.88301,-2.35767 -2.32093,-1.24212 c -1.27652,-0.68317 -7.52387,-1.61643 -13.88302,-2.07391 -12.54788,-0.9027 -15.60052,-1.56587 -21.30653,-4.62872 -2.49045,-1.33681 -5.85851,-2.05578 -10.05701,-2.14682 -3.4719,-0.0753 -8.86315,-1.03334 -11.98056,-2.12902 -7.55691,-2.65604 -10.66328,-2.49133 -20.71798,1.09852 -4.675,1.66913 -10.40634,3.44181 -12.7363,3.93929 -2.32997,0.49748 -5.57013,1.59426 -7.20034,2.43728 -3.69794,1.91227 -7.0768,1.94701 -10.73232,0.11034 -6.03272,-3.03106 -23.91485,-7.05825 -26.66133,-6.00433 C 702.75137,149.92565 702,150.93829 702,151.82356 702,155.38086 698.71264,162 696.94593,162 c -0.9803,0 -2.49416,0.27314 -3.36414,0.60699 -1.19924,0.46019 -1.58179,-0.0394 -1.58179,-2.06574 0,-8.15197 -8.32185,-11.08532 -11.05495,-3.89673 -0.72376,1.90364 -0.53617,3.23908 0.76424,5.44049 1.92192,3.25356 4.29586,4.36552 7.29071,3.41499 1.13181,-0.35922 2,-0.1797 2,0.41356 0,1.44695 -4.46711,2.437 -7.5287,1.66859 -3.54333,-0.88932 -5.94634,-6.23642 -5.02052,-11.17149 C 679.49455,150.84691 685.60837,145 690.38235,145 c 5.21901,0 4.4459,-1.60182 -1.45651,-3.01779 -2.79079,-0.6695 -7.33601,-2.73938 -10.10049,-4.59974 C 674.81447,134.68335 672.80919,134 668.89951,134 c -5.45565,0 -5.95131,-0.69262 -2.64951,-3.70231 4.34293,-3.95872 20.42158,-7.15815 39.25,-7.81021 31.47041,-1.08989 63.47244,-1.34109 63.99084,-0.5023 0.28299,0.45789 -0.91547,2.03578 -2.66325,3.50644 -4.89897,4.12221 -2.67251,4.73807 14.67241,4.05852 8.25,-0.32322 22.875,-0.83285 32.5,-1.13251 20.77827,-0.6469 22,-0.83499 22,-3.38699 0,-2.74716 -2.75943,-4.01046 -6.16606,-2.82291 -1.91285,0.66683 -5.63,0.59153 -11.57578,-0.23448 -4.81699,-0.6692 -11.57066,-1.16189 -15.00816,-1.09488 -3.58164,0.0698 -6.25,-0.30515 -6.25,-0.87827 0,-1.93903 55.60065,-1.48759 71.5,0.58054 6.6,0.8585 15.571,1.9751 19.93554,2.48134 4.36455,0.50623 8.26511,1.45366 8.6679,2.10539 0.85391,1.38166 -0.0501,30.99648 -0.97769,32.02943 -0.34416,0.38325 -4.90075,0.9733 -10.12575,1.31123 -12.24495,0.79195 -14.61562,1.27635 -13.19568,2.69629 0.64067,0.64067 6.54023,1.24012 14.24453,1.44736 7.23301,0.19457 13.55598,0.60409 14.05104,0.91005 1.66594,1.02961 0.97267,7.2925 -1.01278,9.14931 -1.05209,0.98393 -2.06459,3.13896 -2.25,4.78896 l -0.33711,3 -19,0.10849 c -10.45,0.0597 -27.55,-0.27319 -38,-0.7397 z"
     style="fill:#932134" />
  <path
     inkscape:connector-curvature="0"
     id="path1445"
     d="m 804.92548,284.58979 c 0.6437,-0.77562 1.2613,-4.03812 1.37245,-7.25 L 806.5,271.5 796,270.79899 c -5.775,-0.38555 -21.3,-0.96765 -34.5,-1.29355 l -24,-0.59255 -3.31842,-6.56481 -3.31842,-6.5648 6.81842,0.59099 c 27.66159,2.39761 106.2645,1.25439 111.81842,-1.6263 1.1,-0.57055 3.575,-2.26952 5.5,-3.77548 1.925,-1.50597 5.75,-3.97074 8.5,-5.47726 5.09228,-2.78969 12.66679,-8.12895 15.6546,-11.03492 0.91003,-0.8851 2.26003,-1.73279 3,-1.88375 2.7172,-0.55434 4.82073,-1.80745 4.33995,-2.58538 -0.27168,-0.43959 -2.84351,0.0935 -5.71517,1.18465 -4.67798,1.77749 -5.53636,1.83598 -8.25029,0.56221 -2.07485,-0.97383 -3.97417,-1.15801 -6.02909,-0.58468 -1.65,0.46036 -3.5508,0.6328 -4.224,0.3832 -0.6732,-0.24961 -4.40198,1.11677 -8.28618,3.03639 -3.8842,1.91962 -10.64113,4.64461 -15.01539,6.05553 -6.75848,2.17994 -9.37923,2.51319 -17.44618,2.21841 -9.19142,-0.33587 -9.59677,-0.45075 -12.76061,-3.61644 -3.07925,-3.08106 -3.25956,-3.65511 -3.12754,-9.9571 0.12216,-5.83092 0.46581,-6.9677 2.68287,-8.87473 1.39852,-1.20296 3.13547,-2.38659 3.8599,-2.63029 1.07799,-0.36264 1.06795,-0.74496 -0.0553,-2.10571 -1.2117,-1.46788 -1.09457,-1.66687 1,-1.69889 45.86815,-0.70132 85.86855,-1.84329 86.90025,-2.48092 0.53471,-0.33046 0.97219,0.0849 0.97219,0.92299 0,0.83811 -0.9,2.0055 -2,2.5942 -1.5175,0.81214 -2,2.09382 -2,5.31268 0,4.54985 -0.44013,5.3728 -8.77131,16.4004 -5.23198,6.92533 -5.54501,7.69434 -7.84652,19.27667 -1.95427,9.83477 -3.05469,13.05391 -5.95613,17.42379 C 869.31208,281.11572 865.6217,282 838.59213,282 c -19.26248,0 -20.96197,0.14576 -23.31926,2 -3.12381,2.45719 -12.33282,2.98209 -10.34739,0.58979 z m -79.42985,-1.59685 c -0.75927,-1.22854 1.99283,-2.42712 3.47279,-1.51245 0.58531,0.36174 0.80531,1.07661 0.48887,1.58861 -0.76324,1.23495 -3.18006,1.18848 -3.96166,-0.0762 z M 699.5,239.99921 c -5.5,-2.06514 -13.375,-5.02895 -17.5,-6.58623 -8.48612,-3.20369 -16.15977,-7.3923 -16.7418,-9.13839 -0.29379,-0.88136 0.43369,-0.90799 2.92539,-0.1071 1.82402,0.58628 6.01641,1.43808 9.31641,1.89287 5.9561,0.82086 9.15443,1.81267 25.5,7.9076 6.70351,2.49961 10.66636,3.29248 18.75,3.75143 5.6375,0.32007 10.25,0.90301 10.25,1.29542 0,1.42267 -8.6607,3.80737 -15.5,4.26788 -6.27962,0.42283 -8.02912,0.0849 -17,-3.28348 z m 63,-25.07023 c -1.65,-0.38079 2.85,-0.71007 10,-0.73172 7.15,-0.0216 12.55,0.11394 12,0.30131 -2.19278,0.74701 -19.18747,1.0795 -22,0.43041 z m 75.63994,-15.73022 c -3.31151,-0.24647 -4.48189,-0.79037 -4.86663,-2.26164 -0.43413,-1.66009 -1.45521,-1.94806 -7.13994,-2.01363 -3.64835,-0.0421 -7.53337,-0.3002 -8.63337,-0.57359 -1.1,-0.27339 -6.77293,-0.50999 -12.60652,-0.52579 -11.56663,-0.0313 -16.23872,-1.24457 -7.7143,-2.00324 2.92645,-0.26045 27.59582,-0.5664 54.82082,-0.67988 48.43879,-0.20191 49.45371,-0.16626 47.34096,1.66298 -1.18747,1.02812 -2.31247,2.95532 -2.5,4.28267 L 896.5,199.5 l -27,0.0116 c -14.85,0.006 -28.96203,-0.1344 -31.36006,-0.31288 z m -77.72092,-6.32978 c -0.29538,-0.47794 5.452,-0.83345 12.77196,-0.79003 7.31996,0.0434 12.85902,0.2328 12.30902,0.42085 -2.41517,0.82577 -24.597,1.15227 -25.08098,0.36918 z M 846,178.3288 c -6.60413,-0.69567 -8.38794,-1.34086 -7.14464,-2.58416 0.62955,-0.62955 1.14464,-1.44652 1.14464,-1.81547 0,-1.10029 -10.17892,-1.84997 -34,-2.50414 -12.375,-0.33984 -22.6875,-0.79949 -22.91667,-1.02146 -0.22916,-0.22196 3.82084,-0.48741 9,-0.58989 5.17917,-0.10247 11.21667,-0.29051 13.41667,-0.41786 3.13287,-0.18136 77.27395,-0.24706 92.25,-0.0817 3.68758,0.0407 4.11706,0.96521 1.34907,2.90399 -1.04552,0.7323 -2.05802,2.44532 -2.25,3.8067 L 896.5,178.5 873,178.59874 c -12.925,0.0543 -25.075,-0.0672 -27,-0.26994 z m -83.25,-7.99108 c 0.6875,-0.27741 1.8125,-0.27741 2.5,0 0.6875,0.27741 0.125,0.50439 -1.25,0.50439 -1.375,0 -1.9375,-0.22698 -1.25,-0.50439 z m 7.9777,-0.0594 c 1.77523,-0.22091 4.92523,-0.22454 7,-0.008 2.07476,0.21648 0.6223,0.39722 -3.2277,0.40166 -3.85,0.004 -5.54754,-0.17268 -3.7723,-0.39359 z M 854,158.31883 c -2.475,-0.20455 -7.65,-0.8218 -11.5,-1.37166 -3.85,-0.54985 -11.13833,-1.42405 -16.19629,-1.94265 -7.86469,-0.80637 -10.36783,-1.55623 -17.28717,-5.17868 -6.72032,-3.51826 -9.22801,-4.2931 -14.80371,-4.5741 -3.69206,-0.18607 -10.22243,-1.30915 -14.51194,-2.49573 -6.77642,-1.87451 -8.21885,-1.98729 -11,-0.86011 -4.19957,1.70206 -16.02394,5.00437 -21.70089,6.06063 -2.475,0.4605 -5.94458,1.42556 -7.71017,2.14458 -2.73031,1.11188 -3.70195,1.07285 -6.5,-0.2611 -1.80941,-0.86261 -9.36483,-3.02356 -16.78983,-4.8021 -7.425,-1.77854 -16.15071,-4.53965 -19.39046,-6.13581 -3.23976,-1.59615 -6.51722,-2.9021 -7.28325,-2.9021 -0.76603,0 -3.66708,-1.15248 -6.44678,-2.56106 -4.36439,-2.2116 -5.80989,-2.46661 -10.59379,-1.8689 -9.35383,1.16868 -5.92758,-1.61406 5.77718,-4.69213 8.59353,-2.25989 13.43991,-2.85305 27.4371,-3.35812 26.40665,-0.95285 59.50232,-1.30258 59.47836,-0.62854 -0.0119,0.33481 -1.47441,1.28375 -3.25,2.10875 -1.90264,0.88403 -3.35305,2.37412 -3.53201,3.62863 -0.24485,1.71649 0.3152,2.21945 2.89259,2.59773 3.11808,0.45764 40.01574,-0.40002 76.67268,-1.7822 l 18.26162,-0.68857 0.61516,-2.45101 c 0.91463,-3.64416 -0.82664,-4.63712 -9.38867,-5.35394 L 839.5,120.30183 847,120.14947 c 8.69273,-0.17659 28.57324,1.64026 31.5,2.87874 1.1,0.46547 5.375,1.12751 9.5,1.47118 4.125,0.34368 7.77405,0.93441 8.109,1.31274 C 897.05868,126.8848 895.8815,140 894.83554,140 c -1.51055,0 -5.76961,5.34604 -5.80394,7.28518 -0.0174,0.98185 -0.8191,2.98945 -1.7816,4.46133 -0.9625,1.47187 -1.1875,2.32948 -0.5,1.9058 0.7763,-0.47841 1.25,-0.22864 1.25,0.65911 0,1.08559 -2.70619,1.70939 -11.25,2.5932 -16.99966,1.75851 -17.90386,1.81472 -22.75,1.41421 z M 883,127 c 1.21296,-0.78387 1.06944,-0.9723 -0.75,-0.98469 C 881.0125,126.00689 880,126.45 880,127 c 0,1.25292 1.06124,1.25292 3,0 z M 690.56291,154.06591 C 688.94751,152.37966 686.97991,151 686.19046,151 c -1.16248,0 -1.19869,-0.28516 -0.19046,-1.5 1.62682,-1.96019 7.94543,-1.92695 10.77749,0.0567 2.50284,1.75306 2.91738,3.4433 0.84448,3.4433 -0.75791,0 -1.99541,0.92966 -2.75,2.06591 -1.35666,2.04285 -1.40475,2.03169 -4.30906,-1 z"
     style="fill:#7a1c2c" />
</svg>
