<?xml version="1.0" encoding="UTF-8" standalone="no"?>
<!-- Created with Inkscape (http://www.inkscape.org/) -->

<svg
   xmlns:dc="http://purl.org/dc/elements/1.1/"
   xmlns:cc="http://creativecommons.org/ns#"
   xmlns:rdf="http://www.w3.org/1999/02/22-rdf-syntax-ns#"
   xmlns:svg="http://www.w3.org/2000/svg"
   xmlns="http://www.w3.org/2000/svg"
   xmlns:sodipodi="http://sodipodi.sourceforge.net/DTD/sodipodi-0.dtd"
   xmlns:inkscape="http://www.inkscape.org/namespaces/inkscape"
   version="1.1"
   id="svg2627"
   width="1000"
   height="600"
   viewBox="0 0 1000 600"
   sodipodi:docname="p5.svg"
   inkscape:version="0.92.3 (2405546, 2018-03-11)">
  <metadata
     id="metadata2633">
    <rdf:RDF>
      <cc:Work
         rdf:about="">
        <dc:format>image/svg+xml</dc:format>
        <dc:type
           rdf:resource="http://purl.org/dc/dcmitype/StillImage" />
        <dc:title></dc:title>
      </cc:Work>
    </rdf:RDF>
  </metadata>
  <defs
     id="defs2631" />
  <sodipodi:namedview
     pagecolor="#ffffff"
     bordercolor="#666666"
     borderopacity="1"
     objecttolerance="10"
     gridtolerance="10"
     guidetolerance="10"
     inkscape:pageopacity="0"
     inkscape:pageshadow="2"
     inkscape:window-width="1858"
     inkscape:window-height="1057"
     id="namedview2629"
     showgrid="false"
     inkscape:zoom="0.81175858"
     inkscape:cx="686.53336"
     inkscape:cy="301.78836"
     inkscape:window-x="54"
     inkscape:window-y="-8"
     inkscape:window-maximized="1"
     inkscape:current-layer="svg2627" />
  <path
     inkscape:connector-curvature="0"
     id="path3192"
     d="m 141.11698,542.91076 c -11.05435,-2.99 -15.57991,-5.94009 -20.72189,-13.50804 C 118.97221,527.30853 116,517.19746 116,514.45121 c 0,-1.89332 2.41261,-1.86389 4,0.0488 0.68469,0.825 2.03469,1.5 3,1.5 0.96531,0 2.31531,0.675 3,1.5 1.76266,2.12387 7.33545,1.8918 9.40183,-0.39152 1.00082,-1.1059 2.50432,-1.68428 3.61992,-1.39254 1.45701,0.38102 2.33013,-0.41298 3.69318,-3.35848 0.98179,-2.1216 2.0552,-4.08246 2.38537,-4.35746 0.33016,-0.275 1.1277,-1.50168 1.77231,-2.72595 1.05531,-2.0043 12.54102,-18.61284 23.10434,-33.40928 C 172.18963,468.7654 174,465.783 174,465.23722 c 0,-0.54578 0.6851,-1.5609 1.52244,-2.25584 0.83735,-0.69493 4.8974,-6.14466 9.02234,-12.11051 9.07384,-13.12338 22.42716,-30.66155 25.33577,-33.27585 2.7445,-2.46679 2.67175,-3.72752 -0.38055,-6.59501 -2.37749,-2.23354 -3.35903,-5.02547 -1.75,-4.97776 0.4125,0.0122 1.875,0.90222 3.25,1.97776 1.375,1.07554 2.97901,1.96553 3.56446,1.97776 1.15347,0.0241 12.80571,-15.50132 14.61583,-19.4741 0.98186,-2.15496 0.72153,-2.79524 -2.28612,-5.62256 C 222.8914,381.11833 224.42879,379.74501 229,383 c 1.66604,1.18632 3.45248,2.00914 3.96988,1.82847 C 234.36155,384.34254 248,364.85969 248,363.35758 c 0,-0.70797 -0.86871,-1.75213 -1.93046,-2.32036 -2.05836,-1.1016 -6.55954,-6.88056 -5.88477,-7.55532 0.22162,-0.22162 2.40821,0.92736 4.85909,2.55329 2.45088,1.62594 4.95386,2.95817 5.56217,2.96053 1.19661,0.005 8.9486,-9.92414 10.63056,-13.61563 0.89284,-1.95957 0.51111,-2.76378 -2.85292,-6.01054 -3.22938,-3.1168 -3.58056,-3.81457 -2.0845,-4.14171 0.98954,-0.21639 2.88621,0.31883 4.21482,1.18937 3.44216,2.25539 5.39049,1.96422 6.50701,-0.97244 0.53432,-1.40537 2.37375,-5.46271 4.08761,-9.0163 1.84534,-3.8262 2.89429,-7.30938 2.57215,-8.54123 C 272.97713,315.19655 273.84287,313 275.60699,313 276.37314,313 277,312.70738 277,312.34974 277,311.32139 268.05912,303.148 264.87976,301.2699 263.29589,300.33429 262,298.99081 262,298.28439 c 0,-1.72916 1.4739,-1.62323 3,0.21561 2.50566,3.01913 4.51841,1.72736 6.29421,-4.0396 2.10045,-6.82127 2.15471,-9.84294 0.20579,-11.4604 -0.825,-0.68469 -1.5,-1.82197 -1.5,-2.52729 0,-0.92182 -1.14037,-1.12944 -4.05574,-0.73841 -2.47902,0.33251 -5.0274,0.024 -6.55507,-0.79361 -1.91339,-1.02401 -3.18074,-1.08039 -5.40592,-0.24048 -3.75637,1.41787 -4.40313,0.61293 -6.38953,-7.95224 -0.85902,-3.70402 -3.10754,-9.77509 -4.99672,-13.49127 -4.40553,-8.66606 -14.4027,-18.67148 -20.09702,-20.11362 -2.2,-0.55717 -12.55,-1.5139 -23,-2.12607 -10.45,-0.61216 -21.25,-1.46667 -24,-1.89891 -2.75,-0.43223 -16.025,-0.66435 -29.5,-0.51581 -34.02463,0.37506 -32.74629,0.66791 -52.643302,-12.0598 C 84.292204,214.74412 76.564846,210 76.184793,210 75.804739,210 71.688392,207.4125 67.037355,204.25 59.488714,199.11726 58.436743,198.01693 57.237815,194 55.247745,187.3324 50,152.48666 50,145.93992 c 0,-3.118 -1.327092,-20.91753 -2.949092,-39.5545 C 45.428907,87.748437 43.966407,69.35 43.800908,65.5 L 43.5,58.5 46.466501,58.162686 c 1.631576,-0.185522 5.215625,-2.128092 7.964554,-4.316822 4.675507,-3.722694 5.08298,-3.863364 6.314055,-2.179769 1.259479,1.72244 8.47681,1.787962 168.03545,1.525509 110.60473,-0.18193 167.22431,0.06437 168.21944,0.731774 1.25566,0.842135 1.5148,4.731885 1.59086,23.879313 0.05,12.580319 0.41478,23.397429 0.81069,24.038009 0.52074,0.84257 1.26665,0.87206 2.69691,0.10661 1.0874,-0.58196 2.82468,-0.78909 3.86063,-0.46029 1.31907,0.41865 2.43158,-0.19137 3.71223,-2.035543 C 413.70333,93.645261 425.15651,83 427.37138,83 c 4.41053,0 6.01996,-2.256666 5.75475,-8.069026 -0.13366,-2.929263 0.0532,-8.091619 0.41516,-11.471903 l 0.65817,-6.145971 96.15027,-0.569251 c 52.88265,-0.313088 114.30302,-0.313922 136.48972,-0.0019 39.76632,0.559334 40.35108,0.597165 41.15819,2.662701 1.21435,3.107761 -0.34046,3.848756 -14.64584,6.979952 -7.06849,1.547167 -20.54252,4.568554 -29.94229,6.714192 C 654.00975,75.244478 645.76933,77 645.09748,77 643.99856,77 618.82595,87.154618 603.5,93.780399 c -7.05655,3.05072 -11.5,5.924796 -11.5,7.438341 0,0.75532 4.60973,0.90339 15.25,0.48986 67.00276,-2.604076 74.59354,-3.061406 97.9674,-5.90235 7.94664,-0.965863 8.63187,-1.219369 7.75,-2.867156 -1.16493,-2.176691 -1.2421,-6.958197 -0.14031,-8.693565 C 715.02715,80.78034 720.50786,78 725.13852,78 c 7.09005,0 10.37726,3.141953 10.09417,9.648137 -0.20844,4.790577 -0.15162,4.889791 3.52773,6.159525 2.05677,0.709787 5.08958,1.44847 6.73958,1.641518 1.65,0.193049 5.67015,0.845957 8.93366,1.450909 C 757.69717,97.50504 762.37378,98 764.82612,98 h 4.45879 l -0.63263,-5.75 c -0.34795,-3.1625 -0.92094,-7.4375 -1.2733,-9.5 -0.56399,-3.301222 -0.40031,-3.75 1.36773,-3.75 3.24795,0 4.36609,2.39819 5.22184,11.199793 0.44385,4.565114 1.5325,9.973257 2.41923,12.018087 0.88672,2.04484 1.61222,6.27514 1.61222,9.40067 v 5.68279 l 10.25,-0.5831 c 5.6375,-0.3207 10.925,-0.84286 11.75,-1.16035 1.27128,-0.48925 1.45539,-3.29937 1.20742,-18.429825 l -0.29258,-17.852561 3.79258,-0.626746 c 2.08592,-0.344711 6.51508,-0.631699 9.84258,-0.637752 3.3275,-0.0061 6.54296,-0.503962 7.14546,-1.106464 0.63961,-0.639613 4.66199,-1.056898 9.66631,-1.002793 7.6938,0.08318 8.68415,-0.119029 9.67801,-1.976076 1.04974,-1.961455 1.73084,-2.042579 13.1333,-1.564266 6.61437,0.277461 11.86881,0.353676 11.67653,0.169366 -0.19229,-0.184309 -7.74781,-1.309168 -16.79006,-2.499685 -9.04225,-1.190517 -17.36725,-2.683199 -18.5,-3.317072 -2.5109,-1.405064 -12.97116,-2.767248 -25.05955,-3.26337 -4.95,-0.203154 -9.3375,-0.387658 -9.75,-0.410009 -1.48971,-0.08072 -0.63332,-1.57993 2.00096,-3.502915 2.42205,-1.768061 4.12626,-1.937334 17.21857,-1.710254 12.15069,0.210747 19.28006,1.071881 43.53047,5.257902 15.95,2.753233 31.7,5.701378 35,6.551434 3.3,0.850056 7.3125,1.617025 8.91667,1.704376 1.61256,0.08781 3.12261,0.829504 3.37728,1.65882 0.25334,0.825 1.25584,2.4 2.22778,3.5 0.97195,1.1 2.07836,4.025 2.4587,6.5 0.38034,2.475 1.78835,8.700025 3.12893,13.833388 2.63784,10.100912 2.56766,15.387832 -0.32615,24.569002 -1.21291,3.8482 -1.44229,8.10788 -1.0667,19.80903 0.43222,13.46561 0.29818,15.13584 -1.38662,17.27771 -1.0258,1.30409 -1.45112,2.62693 -0.94517,2.93963 0.98483,0.60865 0.63629,30.20349 -0.43816,37.20421 -0.39563,2.57784 -0.22271,4.38734 0.45957,4.80901 1.61823,1.00013 1.37982,11.07581 -0.29496,12.46576 -1.0805,0.89674 -1.4781,5.86356 -1.79092,22.37244 -0.39402,20.79397 -0.4593,21.34548 -3.25303,27.48162 -5.09232,11.18477 -11.72839,15.19065 -26.06722,15.73555 -3.85,0.14631 -9.025,0.75364 -11.5,1.34962 -2.475,0.59598 -14.175,1.26166 -26,1.47929 -20.17528,0.3713 -21.73386,0.53522 -25.29558,2.66038 -3.7916,2.26232 -3.82731,2.264 -34,1.59146 -16.61243,-0.37028 -31.44192,-0.91259 -32.95442,-1.20513 L 746,286.84109 v 6.94103 c 0,6.00857 0.53736,8.08773 4,15.47681 2.2,4.69467 4,9.42687 4,10.51598 0,4.87415 3.08571,4.72535 -97.90363,4.72122 L 561.5,324.49225 554,321.65178 c -11.62755,-4.40368 -10.69345,-4.51613 -11.50505,1.38492 -0.39444,2.86796 -0.62451,8.64547 -0.51127,12.83889 0.45207,16.73961 -0.44095,19.49262 -7.07734,21.81797 -3.94167,1.38113 -104.50411,1.72863 -121.40634,0.41952 -8.38788,-0.64965 -11.68548,-1.45864 -20.4551,-5.01818 -9.46463,-3.84164 -10.98655,-4.18198 -16.06513,-3.59255 -3.08552,0.35811 -6.1826,1.00497 -6.8824,1.43747 -2.18441,1.35004 -0.78266,5.35101 2.55586,7.29508 3.13043,1.82289 3.18024,1.81784 6.88955,-0.69937 4.51131,-3.06146 4.84146,-3.07921 9.03756,-0.48588 3.72421,2.30169 4.90485,4.88107 3.95904,8.64945 -0.61728,2.45947 -15.71402,28.90733 -19.72067,34.54851 -2.52809,3.55943 -5.80576,4.32756 -9.75397,2.28587 -3.69177,-1.90909 -5.34371,-5.52674 -4.52382,-9.90688 0.50543,-2.70014 0.18052,-3.36529 -2.38212,-4.8766 -4.4806,-2.64241 -5.82422,-2.18481 -8.80859,3 -1.50375,2.6125 -4.89772,7.99218 -7.54215,11.95484 -3.02597,4.53439 -4.80806,8.29691 -4.80806,10.15122 0,2.27983 -0.75487,3.39177 -3.33675,4.91512 -3.99876,2.35933 -12.80782,15.21733 -13.2956,19.40671 -0.44743,3.84276 -1.05468,4.75262 -3.8919,5.83133 -2.33347,0.88718 -11.10528,12.69458 -10.14461,13.65526 0.28069,0.28068 3.35851,-0.40205 6.8396,-1.51718 3.48109,-1.11513 11.05426,-3.36086 16.82926,-4.99051 11.7908,-3.32727 1.23751,-2.94193 101,-3.68786 120.08503,-0.89788 328.72985,-3.36014 330.5,-3.9003 1.1,-0.33566 13.7,-1.04874 28,-1.58461 14.3,-0.53587 30.05,-1.42783 35,-1.98212 8.96409,-1.00379 25.93025,-0.29274 47.5,1.99072 5.225,0.55314 21.425,2.13004 36,3.50423 27.42548,2.58579 45.28506,4.93243 47.32388,6.21807 0.64686,0.4079 6.12612,1.00773 12.17612,1.33295 13.15405,0.70709 23.58602,3.6135 29.71354,8.27838 4.0387,3.07466 4.30353,3.58418 4.58179,8.81525 0.28217,5.3049 0.14057,5.67001 -3.1824,8.20457 -1.91275,1.45892 -3.78279,3.66539 -4.15564,4.90326 -0.86911,2.88541 -6.14178,8.4943 -9.77206,10.39516 -1.54813,0.81063 -6.94813,2.09534 -12,2.85493 -5.05188,0.75959 -14.58523,2.80147 -21.18523,4.53751 -31.69688,8.33743 -35.95471,9.06041 -55.5,9.42399 -18.23051,0.33912 -25.48689,-0.10981 -50.5,-3.12426 -16.34189,-1.96945 -29.03657,-2.03127 -43,-0.20941 -5.54267,0.72317 -27.82325,1.27313 -58,1.43164 -63.38472,0.33294 -92.10664,-1.76522 -96.49162,-7.04879 -1.87955,-2.26472 -4.36665,-1.87744 -14.3844,2.2399 l -9.12398,3.75 -54,-0.028 c -37.71489,-0.0196 -58.29452,-0.43856 -68.24025,-1.38934 l -14.24025,-1.36132 -3.75975,2.48312 c -7.66413,5.06174 -19.65956,7.29827 -33.98808,6.33701 -15.92152,-1.06812 -20.82833,-0.73974 -28.76702,1.92519 -9.40447,3.15697 -10.16677,3.29192 -90.50465,16.02117 -9.53212,1.51034 -20.9341,4.06311 -27,6.045 -23.14035,7.56057 -24.40152,7.67022 -92.5,8.04194 -58.41152,0.31885 -61.31329,0.24824 -68.38302,-1.66399 z M 315.9696,493.40557 c 17.5504,-2.29765 18.81016,-3.26694 4.34375,-3.34218 -8.53632,-0.0444 -14.6768,-0.66036 -20.5,-2.05638 -11.736,-2.81353 -12.62094,-2.71177 -14.44816,1.6614 -1.10998,2.65655 -1.25851,4.27032 -0.53848,5.85061 0.98214,2.15555 1.10223,2.16594 9.83379,0.85062 4.86172,-0.73237 14.45082,-2.06621 21.3091,-2.96407 z M 596.5,489 c -0.78398,-1.2685 -4.53713,-1.2685 -6.5,0 -1.09674,0.70877 -0.34157,0.97349 2.80902,0.98469 2.62138,0.009 4.06696,-0.37634 3.69098,-0.98469 z M 372.66354,386.69194 c 7.01091,-8.82604 9.57617,-12.54509 12.36036,-17.91973 2.20476,-4.2561 2.29553,-4.88135 0.90981,-6.26707 -1.38572,-1.38572 -1.95045,-0.96392 -5.66052,4.22779 -2.26668,3.17189 -6.12228,9.86708 -8.568,14.8782 -2.44572,5.01112 -4.95491,9.42517 -5.57598,9.80901 -0.62107,0.38384 -1.12921,1.10721 -1.12921,1.60749 0,2.01377 3.00383,-0.46959 7.66354,-6.33569 z m 149.85939,-41.958 c 4.83305,-4.15722 11.69599,-33.82009 15.52441,-67.09932 1.13038,-9.82596 1.81974,-18.10087 1.53192,-18.38869 -1.24796,-1.24797 -2.8216,6.27854 -4.13017,19.75407 -0.77443,7.975 -1.41729,15.08289 -1.42857,15.79531 -0.0149,0.93761 -0.98864,1.1137 -3.52621,0.63764 l -3.50569,-0.65767 -3.53958,7.76709 c -4.21052,9.23939 -6.03002,8.98563 -3.93319,-0.54853 1.60727,-7.30813 5.472,-42.86724 5.47935,-50.4151 C 525.00387,242.68275 526.28527,243 490.34501,243 461.14579,243 459,243.11994 459,244.75198 c 0,3.34697 3.87145,21.78776 6.01081,28.63113 2.98561,9.55037 8.45936,20.91838 13.77917,28.61689 5.13919,7.43713 17.03196,20 18.9332,20 2.55189,0 1.1906,3.96398 -2.26693,6.60117 l -3.54376,2.70295 -10.12846,-6.8516 c -5.57066,-3.76839 -13.67273,-10.02432 -18.0046,-13.90207 -4.7488,-4.25097 -9.14739,-7.32272 -11.07778,-7.73616 -1.95918,-0.41961 -6.59316,0.0655 -11.94106,1.25 C 435.95391,305.12893 429.38618,306 426.16562,306 c -5.10052,0 -6.61696,-0.49552 -11.76058,-3.84293 -3.4785,-2.26377 -11.04162,-9.41831 -18.40504,-17.41074 -6.875,-7.4623 -13.04353,-13.60798 -13.70785,-13.65707 -1.76628,-0.13053 -5.92729,7.48883 -8.15632,14.93529 -2.12609,7.10258 -3.61957,23.87998 -2.60645,29.28035 0.57454,3.06258 2.13109,4.42724 14.89369,13.05755 L 400.67516,338 l 8.91242,0.0153 c 9.13465,0.0157 14.16824,1.3092 9.36027,2.40535 -1.34632,0.30694 -4.69785,0.91078 -7.44785,1.34188 -2.75,0.43109 -4.94951,1.22338 -4.8878,1.76063 0.36614,3.18772 4.79627,3.44732 59.08204,3.46209 l 54.19423,0.0147 2.63446,-2.26606 z M 485.5,341.75556 c -2.2,-0.55794 -13.45,-0.937 -25,-0.84234 -12.27728,0.10062 -21.60139,-0.23244 -22.44785,-0.80185 -2.7179,-1.82831 2.88254,-2.11678 36.14847,-1.86191 32.52875,0.24922 36.22003,0.64286 34.35323,3.66341 -0.84399,1.36561 -17.49695,1.25198 -23.05385,-0.15731 z M 279,303 c 0,-3.24326 -0.15813,-3.31837 -4.96267,-2.35747 l -3.21266,0.64254 2.83766,2.3215 C 277.53016,306.77085 279,306.60382 279,303 Z M 421.36514,283.92742 C 422.81431,282.7875 424,281.1725 424,280.33853 c 0,-1.12268 -0.79872,-0.84424 -3.07673,1.07258 -1.69219,1.42389 -3.49219,2.58889 -4,2.58889 -0.5078,0 -0.92327,0.45 -0.92327,1 0,1.64711 2.55765,1.13579 5.36514,-1.07258 z m 27.5291,-0.82863 c 3.20732,-2.99608 4.1102,-6.09879 1.77474,-6.09879 -0.73206,0 -1.91722,1.09532 -2.63369,2.43405 -0.71646,1.33873 -2.5925,2.96833 -4.16898,3.62132 -3.48842,1.44496 -3.72884,2.94463 -0.47207,2.94463 1.31684,0 3.79184,-1.30554 5.5,-2.90121 z m -7.62026,-2.05232 c 3.19855,-1.602 4.42788,-5.1827 3.06822,-8.9369 -1.78832,-4.93782 -9.22807,-2.08085 -9.3104,3.57533 -0.0415,2.84895 1.77037,7.58032 2.72435,7.1143 0.40912,-0.19986 1.99214,-0.98858 3.51783,-1.75273 z m -23.94151,-2.346 c 2.00073,-2.32092 1.65477,-7.46105 -0.59753,-8.87793 -1.7373,-1.09291 -4.92282,-0.01 -6.98494,2.37514 -2.16947,2.50901 -2.21671,4.69098 -0.16499,7.62022 1.85954,2.65488 4.86986,2.22069 7.74746,-1.11743 z m -0.2283,-22.80464 c 1.60598,-1.60598 1.95756,-2.8372 1.48494,-5.20029 -0.7877,-3.93851 -2.14264,-4.74714 -5.81135,-3.46822 -3.74823,1.30664 -5.24217,4.42099 -3.86203,8.05102 1.28582,3.38198 5.13378,3.67215 8.18844,0.61749 z m 25.58327,1.31851 c 3.38397,-2.15172 3.22949,-9.54151 -0.22719,-10.86797 -2.49392,-0.957 -6.34036,1.32777 -7.05958,4.19336 -1.33844,5.33278 3.06033,9.36201 7.28677,6.67461 z m 351.0334,-3.02065 c 0.8562,-0.544 1.13341,-3.60084 0.92813,-10.23468 -0.16099,-5.20246 0.1283,-10.71703 0.64288,-12.25461 1.41432,-4.22607 -1.19373,-6.66138 -6.3878,-5.9647 -2.62574,0.35218 -5.27842,-0.0557 -7.82213,-1.20276 -3.63565,-1.63945 -3.99379,-1.64079 -6.46105,-0.0242 -2.71649,1.77992 -8.77602,1.41936 -11.30844,-0.67288 -1.42489,-1.17721 -9.16428,-0.16604 -11.3889,1.488 -2.05658,1.52909 -3.11451,5.73707 -1.83114,7.28345 1.14955,1.38511 0.21031,2.43895 -4.84239,5.43327 -1.98019,1.17349 -3.25,2.72543 -3.25,3.97209 0,2.71822 -2.35762,3.49203 -6.01886,1.9755 -3.67284,-1.52134 -5.56466,-0.28321 -6.20195,4.05896 -0.73042,4.97664 0.75185,5.39717 21.12086,5.9922 31.5414,0.92141 41.55189,0.95656 42.82079,0.15034 z M 743.5,224.65623 c 0,-5.98154 0.37265,-8.09057 1.58777,-8.98608 2.61977,-1.93071 2.68181,-3.92087 0.23465,-7.52696 -3.03076,-4.46609 -3.09555,-7.15813 -0.15375,-6.38883 1.77095,0.46311 2.04288,0.2393 1.48275,-1.22037 -0.37726,-0.98312 -0.2204,-2.34841 0.34858,-3.03399 1.29804,-1.56404 0.24958,-4.5 -1.60699,-4.5 C 744.62686,193 744,192.325 744,191.5 c 0,-2.88859 2.71096,-1.46529 4.28557,2.25 1.0032,2.36705 1.55816,6.44324 1.50482,11.05294 -0.0465,4.01662 0.39347,7.78092 0.97767,8.36512 0.74958,0.74958 2.33796,0.60222 5.39706,-0.50069 3.237,-1.16705 9.51128,-1.656 24.77337,-1.93058 14.57655,-0.26225 20.55173,-0.70745 20.83333,-1.55225 0.50247,-1.50741 6.22818,-1.5645 6.22818,-0.0621 0,0.77978 0.45404,0.74563 1.48727,-0.11187 0.81799,-0.67888 2.20797,-0.95776 3.08883,-0.61974 0.89688,0.34417 2.72181,-0.2666 4.14759,-1.38813 2.1123,-1.66153 4.05623,-2.0027 11.41117,-2.0027 5.24343,0 8.86514,-0.40853 8.86514,-1 0,-0.55 -2.5875,-1.02293 -5.75,-1.05096 -3.1625,-0.028 -13.175,-0.48678 -22.25,-1.01945 -9.075,-0.53267 -24.40841,-1.07224 -34.07425,-1.19904 L 757.35151,200.5 l -3.15088,-3.1482 c -3.34919,-3.34634 -3.25871,-3.67162 1.79937,-6.46912 1.77418,-0.98125 7.99225,-1.52784 21.41747,-1.88268 13.2927,-0.35133 19.03454,-0.85191 19.31119,-1.68357 0.27194,-0.81747 2.41185,-1.03606 6.9183,-0.70671 4.38541,0.32052 6.31318,0.1348 5.87979,-0.56643 C 809.15658,185.44433 809.78403,185 811,185 c 1.16492,0 1.86906,0.40285 1.56476,0.89522 -0.3043,0.49236 0.18355,1.17796 1.08411,1.52353 0.90056,0.34558 1.68548,0.50523 1.74426,0.35479 1.55183,-3.97192 2.33705,-4.27463 12.38232,-4.77354 9.32148,-0.46296 14.74406,-1.75817 9.14122,-2.18343 -8.25442,-0.62651 -14.54322,-0.81712 -42.41667,-1.28562 -17.05,-0.28658 -33.60309,-0.59769 -36.78465,-0.69136 -3.29149,-0.0969 -6.28592,0.33098 -6.94769,0.99275 C 749.16232,181.43768 744,176.44013 744,173.28068 c 0,-2.70379 3.72514,-4.67476 5.75055,-3.04261 0.86948,0.70065 2.75434,0.36083 6.18539,-1.11516 4.30979,-1.85403 6.87454,-2.12464 20.24944,-2.13656 C 792.67455,166.97164 796,166.53479 796,164.38337 796,163.29387 798.21801,163 806.44098,163 c 5.88197,0 10.71085,-0.43665 11.05902,-1 0.33992,-0.55 4.64148,-1 9.55902,-1 8.89109,0 11.78409,-1.18138 5.81598,-2.375 -1.71875,-0.34375 -5.65625,-0.63935 -8.75,-0.65688 -7.08358,-0.0402 -30.47309,-2.55981 -35.125,-3.78388 -1.925,-0.50654 -6.11965,-1.69648 -9.32144,-2.64433 -4.35844,-1.29026 -6.49461,-1.46917 -8.5,-0.71191 -1.47321,0.5563 -5.82856,1.74976 -9.67856,2.65213 -3.85,0.90238 -7.69152,2.176 -8.53672,2.83028 -2.91417,2.2559 -6.09019,7.68345 -5.77714,9.87268 0.27063,1.89262 -0.16826,2.20337 -3.18614,2.25594 l -3.5,0.061 -0.26395,32.32601 c -0.24844,30.42571 -0.16026,32.30603 1.5,31.98608 1.50582,-0.29018 1.76395,-1.4837 1.76395,-8.15586 z m 53.76903,-16.34922 c 0.97297,-0.25354 2.32297,-0.23687 3,0.0371 0.67703,0.27393 -0.11903,0.48137 -1.76903,0.46099 -1.65,-0.0204 -2.20394,-0.2445 -1.23097,-0.49804 z m -53.68608,-9.1728 c -0.43077,-0.697 -0.51316,-1.53733 -0.18309,-1.86741 0.89497,-0.89496 1.87077,0.4213 1.38739,1.87145 -0.33872,1.01617 -0.57427,1.01538 -1.2043,-0.004 z M 748.25,190.27976 C 746.74873,189.74359 746.56585,187 748.03138,187 c 1.03152,0 2.5471,2.80238 1.84216,3.40622 -0.20545,0.17599 -0.93604,0.11908 -1.62354,-0.12646 z m -4.00945,-8.26619 c -1.95194,-3.12554 -1.5597,-4.25201 1.00945,-2.89905 2.618,1.37868 3.82417,2.95645 3.125,4.08773 -0.87701,1.41903 -2.86239,0.84822 -4.13445,-1.18868 z m -179.44518,35.55306 c 0.16697,-4.48484 -0.21178,-9.15773 -0.87133,-10.75 -1.9101,-4.61141 0.31439,-8.39776 6.71176,-11.4242 3.79619,-1.79589 5.3642,-3.11024 5.3642,-4.49644 0,-1.07732 0.675,-2.21778 1.5,-2.53436 1.6225,-0.62261 2.06728,-4.893 0.60383,-5.79746 -0.4929,-0.30463 -0.75726,-2.24368 -0.58748,-4.30902 0.16978,-2.06533 0.6076,-8.93015 0.97294,-15.25515 0.36533,-6.325 0.91847,-12.175 1.22921,-13 0.31073,-0.825 0.71649,-4.2 0.90168,-7.5 0.1852,-3.3 0.78112,-10.95 1.32429,-17 1.44602,-16.10643 1.74244,-34.943399 0.55553,-35.302821 -0.55,-0.166552 -1.0839,0.283448 -1.18645,1 -0.10254,0.716551 -0.46762,3.440321 -0.81127,6.052821 -0.65094,4.94849 -2.79472,6.82069 -2.29013,2 0.23271,-2.223243 -0.15893,-2.813279 -2.04462,-3.080358 -1.28285,-0.181696 -3.08285,0.328374 -4,1.133489 -0.91714,0.805115 -3.46753,2.377858 -5.66753,3.494989 -5.40798,2.74608 -17.33064,12.39592 -19.61926,15.87922 -1.40688,2.1413 -2.64223,2.82266 -5.11765,2.82266 H 538.5 l -0.22388,14 c -0.2472,15.45831 0.007,17.33967 2.10896,15.59537 2.57705,-2.13876 4.61492,-0.19165 4.61492,4.40938 0,3.69176 -0.78214,5.29039 -5.6025,11.45101 -5.04782,6.45134 -5.45676,7.32776 -4.13049,8.85224 2.04978,2.35611 1.37922,3.6236 -6.60288,12.48085 -4.6109,5.11644 -7.52633,7.59427 -8.49715,7.22173 -1.27781,-0.49034 -1.38806,1.20751 -0.81441,12.54188 0.3649,7.20994 1.12117,13.96422 1.68059,15.0095 2.31245,4.32086 5.38657,4.89461 24.96684,4.65985 L 564.5,225.5 Z m -27.41625,3.99679 c -7.98259,-3.47424 -11.05352,-13.9095 -5.62912,-19.1282 4.8969,-4.7112 10.72538,-6.73107 17.12062,-5.93321 4.81358,0.60054 6.17282,1.27329 9.37938,4.64226 2.0625,2.16697 3.75,4.62602 3.75,5.46456 0,2.81033 -5.13765,8.29882 -11.57257,12.36284 -6.91832,4.36932 -8.32302,4.64833 -13.04831,2.59175 z m 32.69983,-60.14675 c 0.048,-1.16495 0.28494,-1.4019 0.60416,-0.60417 0.28887,0.72187 0.25335,1.58437 -0.0789,1.91667 -0.33229,0.33229 -0.56864,-0.25834 -0.52522,-1.3125 z M 570,151.5 c 0,-0.825 0.45,-1.5 1,-1.5 0.55,0 1,0.675 1,1.5 0,0.825 -0.45,1.5 -1,1.5 -0.55,0 -1,-0.675 -1,-1.5 z m 1.58295,-3.36579 c -0.43077,-0.697 -0.51316,-1.53733 -0.18309,-1.86741 0.89497,-0.89496 1.87077,0.4213 1.38739,1.87145 -0.33872,1.01617 -0.57427,1.01538 -1.2043,-0.004 z m 0.22955,-5.81732 c 0.72187,-0.28887 1.58438,-0.25335 1.91667,0.0789 0.33229,0.33229 -0.25834,0.56864 -1.3125,0.52522 -1.16495,-0.048 -1.4019,-0.28494 -0.60417,-0.60416 z M 570,137 c 0,-0.55 0.64468,-1 1.43261,-1 0.78794,0 1.73264,-0.9453 2.09934,-2.10066 0.43669,-1.37589 1.0058,-1.76159 1.64949,-1.1179 C 576.54118,134.14118 574.01083,138 571.75945,138 570.79175,138 570,137.55 570,137 Z m 0.36009,-7.05045 c 0.36502,-1.82508 1.33332,-4.05828 2.15179,-4.96267 2.07892,-2.29719 2.04976,-4.69789 -0.0361,-2.96682 -1.96616,1.63177 -2.8875,0.6993 -1.65272,-1.67268 0.52893,-1.01606 1.45046,-3.08488 2.04785,-4.59738 0.71523,-1.81085 1.82063,-2.75 3.23681,-2.75 2.06558,0 2.12378,0.28679 1.47129,7.25 -0.37365,3.9875 -0.91212,8.0375 -1.1966,9 C 575.653,131.71804 574,131.42895 574,128.83333 c 0,-2.77481 -1.23241,-1.6161 -1.38502,1.30219 -0.0632,1.20936 -0.74578,2.40887 -1.51677,2.66558 -1.0964,0.36507 -1.2572,-0.25613 -0.73812,-2.85155 z m 7.18262,-18.88045 c -0.31644,-0.512 -0.11799,-1.21356 0.44098,-1.55902 0.55897,-0.34546 1.01631,0.0734 1.01631,0.9309 0,1.75653 -0.60006,2.01516 -1.45729,0.62812 z m -2.62305,-1.3191 c -0.0442,-0.1375 -0.19966,-2.6125 -0.3455,-5.5 -0.27226,-5.390496 1.04194,-7.431915 1.60942,-2.5 0.17796,1.54669 0.86338,2.64061 1.56642,2.5 1.87888,-0.37578 1.50465,1.49535 -0.75,3.75 -1.1,1.1 -2.03615,1.8875 -2.08034,1.75 z M 746.1038,220.7038 c -1.28349,-1.28349 -2.58505,-0.2915 -1.63484,1.24598 0.36808,0.59556 1.12735,0.79971 1.68727,0.45366 0.683,-0.42212 0.66575,-0.98146 -0.0524,-1.69964 z m -304.68806,-8.84014 c -0.46919,-0.75916 -0.98781,-0.59282 -1.60824,0.51584 -0.50366,0.89999 -0.60412,2.14056 -0.22324,2.75684 0.46919,0.75916 0.98781,0.59282 1.60824,-0.51584 0.50366,-0.89999 0.60412,-2.14056 0.22324,-2.75684 z m -9.55871,-2.13609 c 1.92614,-5.07617 0.62137,-5.9466 -2.93967,-1.9611 -3.54214,3.96433 -3.83793,6.50557 -0.70456,6.05308 1.50399,-0.21719 2.67132,-1.52794 3.64423,-4.09198 z M 200.66417,204.56722 C 200.3334,203.70525 199.59865,203 199.03138,203 c -1.1505,0 -1.41332,3.28473 -0.34805,4.35 1.09781,1.0978 2.63907,-1.06745 1.98084,-2.78278 z M 660.8,197.8 c 0.84494,-0.84494 1.2,-6.55586 1.2,-19.30136 0,-16.17716 0.25665,-18.98414 2.41437,-26.4059 1.49692,-5.14887 3.39689,-9.33008 5,-11.00336 C 673.2305,137.10619 672.7419,136 667.16639,136 c -4.19688,0 -5.36856,0.49399 -8.89462,3.75 -6.03745,5.57508 -6.65962,8.93338 -6.34479,34.24731 0.14705,11.82352 0.68947,22.28602 1.20538,23.25 1.08049,2.01892 5.85711,2.36322 7.66764,0.55269 z M 699,167.5 c 1.66614,-1.77352 1.92675,-2.5 0.89682,-2.5 -1.82722,0 -5.89682,2.79967 -5.89682,4.0567 0,1.77145 2.64783,0.94707 5,-1.5567 z m 199.77643,-7.22689 c -2.04796,-0.21488 -5.64796,-0.21785 -8,-0.007 -2.35204,0.21125 -0.67643,0.38706 3.72357,0.39069 4.4,0.004 6.32439,-0.16921 4.27643,-0.38408 z m -92.49365,-33.21215 c 2.91868,-2.70891 -3.97112,-4.70656 -14.28278,-4.1412 -1.925,0.10554 -7.02085,0.27927 -11.32411,0.38607 -6.38452,0.15844 -8.08057,0.54327 -9.21797,2.09149 -0.76662,1.04353 -1.20793,2.19815 -0.9807,2.56582 0.55072,0.89108 34.80332,0.028 35.80556,-0.90218 z m -515.52613,-3.94568 c 1.17302,-1.58659 6.99515,-5.93169 12.93806,-9.65577 5.94291,-3.72408 13.73029,-8.66293 17.30529,-10.97522 30.34036,-19.624022 56.94412,-35.929981 59.46083,-36.444704 1.67154,-0.341867 2.90252,-1.053129 2.7355,-1.580581 -0.45692,-1.442948 -6.2514,-0.625331 -9.38176,1.323792 -3.11953,1.942379 -19.17512,12.132018 -58.81457,37.326523 -4.125,2.62182 -11.20218,7.07333 -15.72707,9.89224 -4.52489,2.81892 -9.13739,6.40372 -10.25,7.96624 -3.64626,5.1207 -1.98543,7.1779 1.73372,2.14748 z m -188.69204,-0.47029 c 1.01885,-1.29525 9.18361,-6.97741 18.14392,-12.627 C 129.16884,104.36839 143.025,95.58665 151,90.503013 180.15705,71.916949 189.56065,66.25507 192.39464,65.579409 c 1.77274,-0.422643 2.53623,-1.048536 1.9699,-1.614872 -1.56837,-1.568367 -7.92265,0.840804 -15.61038,5.918537 C 174.76437,72.518325 156.65,84.024666 138.5,95.452721 108.35075,114.43604 99,121.1905 99,123.98531 c 0,1.6484 1.08797,1.17257 3.06461,-1.34032 z m 63.69949,-0.64625 c 1.50474,-1.6507 9.9359,-7.48355 18.7359,-12.96189 8.8,-5.47834 22.19793,-13.915276 29.77319,-18.748738 7.57525,-4.833461 16.57525,-10.555431 20,-12.715488 3.42474,-2.160056 8.57,-5.453499 11.43391,-7.318762 2.8639,-1.865262 6.85536,-3.846492 8.86989,-4.402732 2.35979,-0.651568 3.31862,-1.355519 2.69531,-1.978826 -2.14774,-2.147745 -9.1441,1.637819 -41.7723,22.602016 -2.75,1.766924 -12.65,8.071551 -22,14.01028 -9.35,5.93874 -19.71539,12.53404 -23.03421,14.65624 -3.31881,2.1222 -6.83176,5.20868 -7.80653,6.85885 -2.29397,3.88337 -0.43554,3.8828 3.10484,-9.5e-4 z m 61.97344,1.04991 c 1.2561,-2.01132 4.61203,-4.2737 36.49627,-24.603644 10.3036,-6.569753 23.1286,-14.747165 28.5,-18.172026 17.30737,-11.035354 21.70786,-13.560952 24.76619,-14.214191 1.65,-0.352429 2.86675,-1.072332 2.70388,-1.599784 -0.39309,-1.273061 -4.99996,-0.614911 -8.55292,1.221894 -2.60863,1.348605 -30.44111,18.787489 -53.65096,33.615858 -5.225,3.338163 -11.975,7.623153 -15,9.522193 -12.04164,7.55954 -16.24924,10.76235 -17.6193,13.41174 -1.12711,2.17961 -1.1584,2.76931 -0.14693,2.76931 0.70683,0 1.83352,-0.87811 2.50377,-1.95135 z M 729.83385,95.123851 c 1.08714,-0.68914 1.05888,-0.951038 -0.15281,-1.416004 -0.81765,-0.313764 -2.31788,0.0593 -3.33384,0.829033 -1.78015,1.348713 -1.7746,1.400112 0.1528,1.416004 1.1,0.0091 2.60023,-0.363995 3.33385,-0.829033 z M 584.55,53.188797 c 3.20083,-2.733184 30.49887,-18.119238 33.09641,-18.6542 5.32151,-1.095965 9.32767,1.414132 14.85359,9.306651 2.75,3.927752 5.7875,7.400604 6.75,7.717448 C 644.90499,53.420253 638.50506,54 612.3,54 596.515,54 584.0275,53.634959 584.55,53.188797 Z M 225.16761,48 c -5.4055,-0.368604 -7.66639,-0.957411 -8.60335,-2.240577 C 215.2181,43.91587 213.42928,19.732459 214.50975,17.984219 214.84431,17.442898 218.37648,17 222.35902,17 c 4.4529,0 7.72701,-0.481302 8.50326,-1.25 1.01061,-1.00078 1.43554,-0.943265 2.13131,0.288474 0.76389,1.352322 5.80798,1.505849 41.68772,1.268846 C 297.13159,17.159026 316.175,16.946546 317,16.835142 c 0.825,-0.111403 7.89076,0.135649 15.70169,0.549005 13.49652,0.714237 14.2874,0.651458 15.92775,-1.264336 1.40517,-1.641114 1.92541,-1.767627 2.79831,-0.680501 0.74749,0.930933 5.21043,1.536167 14.73519,1.998291 l 13.66293,0.6629 2.60846,-2.80025 2.60846,-2.800251 0.59524,2.25 c 0.55628,2.10276 1.19292,2.265135 9.7286,2.481286 17.74394,0.449334 18.52303,0.371252 20.20114,-2.024579 1.92441,-2.747483 4.03341,-2.839805 4.72198,-0.206707 0.46727,1.786863 1.46546,2.024112 9.36663,2.226259 16.76379,0.428891 17.0964,0.384778 20.30955,-2.693615 l 2.96608,-2.841683 1.00924,2.654519 c 0.9765,2.568392 1.29395,2.661651 9.784,2.874303 15.70498,0.393367 16.08187,0.339193 19.33708,-2.779494 l 3.00939,-2.883183 2.21414,2.682677 c 2.12539,2.57515 2.65504,2.693987 13.21414,2.964846 10.65679,0.273365 11.11215,0.196572 14.59439,-2.46123 4.4262,-3.378275 5.28121,-3.409227 6.72366,-0.243399 1.07846,2.366963 1.60584,2.509748 9.91051,2.683185 12.65904,0.264375 12.79533,0.240466 17.64327,-3.095001 4.57022,-3.144392 5.45951,-2.99555 6.94155,1.161816 0.52736,1.479337 1.93046,1.75 9.0719,1.75 5.86678,0 8.57695,0.381933 8.86992,1.25 0.23203,0.6875 -0.17513,3.5 -0.9048,6.25 -0.72966,2.75 -1.332,7.051492 -1.33853,9.55887 -0.0231,8.866893 9.68755,8.046452 -98.04685,8.283881 l -95.46502,0.21039 -7,2.881436 -7,2.881435 -66.5,0.09199 C 262.425,48.458603 229.20042,48.275 225.16761,48 Z m 448.22101,0.180222 c 0.27865,-0.450878 3.04558,-1.682787 6.14871,-2.737575 5.56732,-1.892388 5.66075,-1.892244 7.05237,0.01091 C 687.36536,46.514342 688,47.746251 688,48.19113 688,48.636008 684.59844,49 680.44098,49 c -4.15746,0 -7.33102,-0.3689 -7.05236,-0.819778 z"
     style="fill:#cfcfd0" />
  <path
     inkscape:connector-curvature="0"
     id="path3190"
     d="m 152,543.21741 c -7.96195,-0.40907 -20.03514,-4.64528 -23.83948,-8.36473 -3.63933,-3.55812 -4.01193,-4.88809 -1.16052,-4.14243 1.48888,0.38935 2,0.0307 2,-1.40347 0,-2.29623 -5.02485,-2.1329 68.75,-2.23469 45.34069,-0.0626 52.25,-0.26705 52.25,-1.54641 0,-1.63357 4.86988,-4.47819 6.59991,-3.85517 1.75118,0.63063 3.52615,-2.24714 3.61002,-5.85296 0.0425,-1.82465 -0.26463,-7.59255 -0.6824,-12.81755 -0.59024,-7.3822 -0.40796,-10.82975 0.81765,-15.46496 1.17088,-4.42817 1.27982,-6.14877 0.42288,-6.67839 -0.86952,-0.53739 -0.85995,-1.35956 0.0388,-3.33209 0.65623,-1.44027 1.19314,-3.3608 1.19314,-4.26786 0,-1.71112 3.90571,-8.05699 7.41967,-12.05522 1.6053,-1.82653 2.12897,-1.99707 2.55022,-0.83051 0.44223,1.22463 0.92746,1.14494 2.92698,-0.4807 l 2.39686,-1.9487 -1.9981,-2.22079 c -3.89718,-4.33151 -3.9133,-5.05924 -0.0962,-4.34314 3.31561,0.62201 3.68338,0.39335 7.41708,-4.61159 2.16068,-2.89633 4.93997,-6.9089 6.17621,-8.91683 1.23624,-2.00792 2.91361,-3.9063 3.72748,-4.21861 2.29468,-0.88056 1.83646,-1.90005 -3.23685,-7.20171 -2.59414,-2.71089 -3.60004,-4.20041 -2.23534,-3.31004 1.36471,0.89037 3.92424,1.93578 5.68784,2.32313 3.07863,0.67618 3.39723,0.4335 7.98534,-6.08264 2.62832,-3.7328 6.18373,-8.25317 7.90089,-10.04526 l 3.12213,-3.25834 -3.62213,-3.83979 c -4.88215,-5.17554 -8.88738,-7.89129 -19.4911,-13.21596 -5.72822,-2.87644 -9.87754,-5.70822 -11.50058,-7.84881 l -2.53915,-3.3488 3.92265,1.63899 c 2.15745,0.90144 5.28691,2.74268 6.95435,4.09164 8.6061,6.96236 21.67158,15.46698 23.76161,15.46698 1.30356,0 2.8315,0.4614 3.39543,1.02533 0.70045,0.70045 1.87371,-0.70727 3.70276,-4.44269 1.47259,-3.00741 3.12619,-5.74537 3.67467,-6.08435 0.54848,-0.33898 0.99724,-1.32365 0.99724,-2.18815 0,-1.23789 -0.74358,-1.45116 -3.5,-1.00385 -3.23632,0.52518 -3.5,0.37514 -3.5,-1.99161 0,-2.19305 0.22086,-2.37627 1.54238,-1.27951 1.16431,0.96629 1.82489,0.99756 2.69488,0.12757 1.11266,-1.11266 -0.63215,-2.99354 -12.23726,-13.19158 l -2.5,-2.19688 2.5,1.63346 c 2.24911,1.46952 10.70822,5.59226 11.47433,5.59226 1.21159,0 3.51677,-8.76401 2.96544,-11.27423 -0.74109,-3.37417 3.14439,-13.03429 4.99184,-12.41079 0.58762,0.19831 1.58793,-0.3448 2.22293,-1.2069 1.51249,-2.05344 -1.42409,-6.35577 -5.48681,-8.0386 -1.58629,-0.65707 -3.86499,-2.5213 -5.06377,-4.14274 -1.19879,-1.62144 -9.70009,-7.95647 -18.89178,-14.07783 -19.00671,-12.65784 -17.68644,-11.70798 -17.09529,-12.29913 0.24762,-0.24762 8.98512,5.12124 19.41666,11.93079 10.43155,6.80956 21.0764,13.74667 23.65523,15.41581 6.56325,4.24803 8.85537,4.64333 12.1045,2.08756 2.92462,-2.3005 3.63809,-4.27857 1.20672,-3.34557 -2.85594,1.09593 -1.47646,-1.22994 3.84853,-6.48878 4.61959,-4.5622 6.39822,-5.66575 9.78824,-6.07308 1.06171,-0.12757 2.75435,-11.92136 3.38369,-23.57651 0.59331,-10.98797 3.3234,-25.33419 5.8993,-31 4.03898,-8.88392 4.58799,-10.62092 4.04313,-12.79182 -1.10489,-4.40226 12.34978,-22.10212 22.34564,-29.39606 2.40283,-1.75334 5.88853,-4.75273 7.74601,-6.66531 2.11276,-2.17544 4.04521,-3.30983 5.16134,-3.02982 2.75926,0.69225 5.31593,-8.33103 4.0467,-14.28206 -0.52446,-2.45904 -1.58448,-4.71309 -2.35559,-5.00899 -1.2255,-0.47027 -17.16584,1.3936 -28.90699,3.38004 -2.2,0.37221 -35.04287,0.83239 -72.98415,1.02262 l -68.98415,0.34587 -2.76585,2.64986 c -2.93064,2.80773 -3.42277,5.17968 -1.73067,8.34141 1.25538,2.34569 2.7362,2.45114 5.04752,0.35942 1.60956,-1.45664 2.40362,-1.03253 10.57874,5.65001 4.86121,3.97367 8.83856,7.69956 8.83856,8.27976 0,0.58019 -1.05057,1.30291 -2.3346,1.60602 l -2.3346,0.55113 3.08629,3.8836 c 3.16255,3.97955 5.91895,11.10162 4.74926,12.2713 -0.35975,0.35975 -1.47978,-0.0932 -2.48896,-1.00644 -1.00914,-0.9133 -3.2619,-1.66054 -5.00609,-1.66054 -3.8627,0 -4.08934,1.69241 -1.14613,8.55863 2.48073,5.78731 1.8581,7.08634 -0.85713,1.78828 -3.01716,-5.88718 -15.95779,-17.91599 -20.70121,-19.24256 C 221.28505,235.4942 211.625,234.53112 202,233.96417 c -22.331,-1.31537 -24.73726,-1.67652 -22.89228,-3.43577 0.76575,-0.73017 12.45113,-7.67277 25.96751,-15.42799 L 229.65046,201 h 66.54378 c 52.88195,0 68.26445,-0.29153 74.92477,-1.41998 4.60954,-0.78099 16.7657,-2.60579 27.01369,-4.05511 10.24798,-1.44932 19.92298,-3.02165 21.5,-3.49407 2.8616,-0.85723 -52.74585,-1.08581 -256.19547,-1.05311 -80.83599,0.013 -103.40256,-0.2524 -104.638332,-1.23058 -1.128509,-0.89328 -2.365536,-6.70754 -4.359693,-20.49135 -1.531272,-10.58432 -2.564216,-19.46412 -2.295431,-19.73291 0.421253,-0.42125 398.815546,-0.83524 438.856226,-0.45604 10.0917,0.0956 13.58794,0.40308 11.5,1.01146 -3.64492,1.06204 -100.71353,5.70886 -145,6.94137 -33.58973,0.93481 -44.67811,1.60562 -49.2433,2.97906 -3.81633,1.14814 15.95603,1.13795 36.7433,-0.0189 9.075,-0.50506 30.45,-1.37287 47.5,-1.92847 17.05,-0.55559 37.075,-1.22624 44.5,-1.49033 7.425,-0.26409 23.625,-0.76417 36,-1.1113 12.375,-0.34712 31.05,-0.98759 41.5,-1.42327 12.36658,-0.51557 19.43402,-0.44314 20.24315,0.20748 2.41557,1.94236 -1.29178,15.40264 -5.53134,20.08269 -0.9415,1.03931 -2.61364,4.60662 -3.71589,7.92736 -1.91229,5.76117 -2.20999,6.09977 -6.5,7.39289 -3.27542,0.98729 -10.96704,1.33475 -28.33334,1.27992 -13.11058,-0.0414 -24.07413,0.16146 -24.36345,0.45078 -0.6769,0.67689 10.54967,7.88666 22.70087,14.57863 5.225,2.87754 14.225,8.11513 20,11.63909 16.0839,9.81454 15.5979,9.66088 32,10.11742 7.975,0.22198 17.2,0.0374 20.5,-0.4101 l 6,-0.8137 0.0148,-12.18925 c 0.0147,-12.10039 0.0361,-12.2115 2.93709,-15.23944 2.87592,-3.00182 6.8364,-4.01072 8.04808,-2.05019 0.33992,0.55 2.33913,1 4.4427,1 3.66406,0 16.81688,4.1762 51.5573,16.37015 20.5485,7.21256 22.43236,7.26729 18.95913,0.55082 -2.17407,-4.20419 -0.9666,-5.39772 2.98808,-2.95359 1.84745,1.14178 5.01317,2.03262 7.22319,2.03262 3.15334,0 5.21425,0.96364 10.38197,4.8544 4.89316,3.68405 10.18455,6.25305 21.94763,10.65568 l 15.5,5.80128 15.94023,0.46864 c 13.70001,0.40277 15.68073,0.65838 14.09382,1.81876 -1.01553,0.74257 -4.18022,2.02858 -7.03265,2.85781 -2.85242,0.82922 -6.27161,2.36144 -7.59819,3.40493 -1.32658,1.04348 -3.29167,2.06666 -4.36686,2.27372 -1.56534,0.30146 -0.86702,1.17065 3.50438,4.36188 5.26348,3.84247 5.81792,4.00881 15.45927,4.63818 5.5,0.35903 24.1975,0.70047 41.55,0.75875 33.03247,0.11095 33.95,-0.004 33.95,-4.26529 0,-1.08419 0.65354,-2.69341 1.45231,-3.57604 1.30624,-1.44338 0.82847,-1.83196 -4.75,-3.86335 -8.45604,-3.07925 -10.18753,-5.60358 -9.92049,-14.46303 0.11331,-3.75929 0.67957,-7.71991 1.25834,-8.80137 0.57878,-1.08145 0.81434,-2.35135 0.52347,-2.82199 -0.43183,-0.69872 -8.84166,-0.7265 -22.06363,-0.0729 -1.1,0.0544 -4.29689,-0.20609 -7.10419,-0.57882 -3.15815,-0.41931 -5.90052,-0.25151 -7.19285,0.44013 -1.38373,0.74055 -2.86733,0.80025 -4.39581,0.17688 -1.26893,-0.51751 -4.05868,-1.22698 -6.19943,-1.5766 -3.64266,-0.5949 -3.78476,-0.74328 -2.21565,-2.31367 1.4882,-1.48941 6.01314,-1.74941 40.26339,-2.31345 l 38.58675,-0.63547 2.1289,-2.56784 2.12889,-2.56785 35,-0.24233 35,-0.24234 0.30149,4.07273 c 0.18931,2.55731 -0.23236,4.60657 -1.13325,5.50747 -1.12398,1.12397 -1.5313,5.97003 -1.8805,22.37292 -0.41164,19.33582 -0.63102,21.38024 -2.86675,26.71474 -3.01344,7.19018 -9.27388,13.5537 -14.53486,14.77418 -2.13737,0.49585 -6.81113,0.91714 -10.38613,0.93622 -3.575,0.0191 -8.70902,0.70481 -11.40893,1.52385 -3.691,1.11971 -10.2216,1.48918 -26.32193,1.48918 -21.27213,0 -21.44227,0.0172 -25.86271,2.60771 l -4.44972,2.6077 -31.99729,-1.15502 c -17.59851,-0.63526 -32.43877,-0.88217 -32.97836,-0.54869 -0.53958,0.33349 -0.98106,3.73977 -0.98106,7.56951 0,6.13111 0.47798,7.91385 4,14.91879 4.84076,9.62779 5.11587,12.64984 1.25,13.73095 -1.5125,0.42298 -44.6,0.76767 -95.75,0.76597 l -93,-0.003 -7.5,-2.83743 c -11.75085,-4.44562 -11.61764,-4.44564 -12.53807,0.002 -0.43735,2.1131 -0.8327,10.06835 -0.87855,17.67833 l -0.0834,13.83632 -2.83799,2.4414 -2.83798,2.44139 -65.16202,-0.27772 L 404.5,356.5 393.61554,352.1216 c -9.99561,-4.02086 -11.37551,-4.32708 -16.89766,-3.7499 -7.01017,0.73271 -8.71788,1.83985 -8.71788,5.65197 0,2.12424 0.83788,3.27314 3.55716,4.87755 4.41959,2.60762 5.65842,2.62303 7.94284,0.0988 2.30576,-2.54784 6.67473,-2.5694 8.95999,-0.0442 1.72953,1.91111 1.69096,1.94296 -1.68822,1.3946 -3.25974,-0.52898 -3.61199,-0.29875 -6.13821,4.01192 -2.10327,3.58895 -3.50167,4.79436 -6.49799,5.60118 -2.09988,0.56544 -4.58467,1.87528 -5.52177,2.91076 -1.47912,1.63441 -1.54944,2.49569 -0.5333,6.53117 1.1339,4.50311 1.05712,4.83217 -2.455,10.52226 -6.38272,10.34083 -4.81151,10.66262 5.53088,1.13275 5.55685,-5.12029 9.14515,-9.63054 13.68743,-17.20415 3.38591,-5.64552 6.15619,-9.87567 6.15619,-9.40034 0,0.96909 -7.95571,15.97659 -14.76329,27.84919 -2.46144,4.29282 -5.51236,8.48461 -6.77983,9.31508 -2.05671,1.34761 -2.62156,1.34599 -5.25358,-0.0151 -3.10035,-1.60325 -4.16703,-3.98145 -4.18965,-9.34094 -0.0113,-2.67585 -0.72616,-3.70733 -4.13096,-5.96052 l -4.1173,-2.7247 -2.6327,3.10052 C 344.1123,392.592 334,409.74444 334,412.34749 c 0,1.87484 -0.83205,3.03142 -2.97981,4.14207 -3.75853,1.94361 -13.2287,15.83944 -13.97662,20.50826 -0.38759,2.41949 -1.29043,3.81133 -2.92044,4.50218 -1.29767,0.55 -4.55624,4.24218 -7.24127,8.20484 -4.69065,6.92265 -5.74205,9.28922 -4.13186,9.30034 0.75799,0.005 15.29287,-4.40523 27.25,-8.26872 6.24426,-2.0176 9.31318,-2.13288 78,-2.93014 97.36331,-1.1301 154.25262,-1.55195 241.52671,-1.79098 49.86464,-0.13658 81.19872,-0.65723 96,-1.59517 24.1124,-1.52798 63.08631,-3.39906 85.01297,-4.08135 8.67796,-0.27003 20.13488,0.16284 30,1.13346 8.77817,0.86369 27.88532,2.65762 42.46032,3.98652 26.64049,2.42899 43.51361,4.63004 49.9934,6.52148 1.92137,0.56085 6.89912,1.01972 11.06166,1.01972 7.66327,0 20.69143,2.7833 26.08601,5.57295 1.55757,0.80545 4.41301,2.85265 6.34543,4.54934 5.1667,4.53643 4.8126,7.60378 -1.4865,12.87771 -2.75,2.30243 -5,4.80368 -5,5.55832 0,1.94133 -5.76347,8.268 -9.10714,9.99708 -1.54563,0.79928 -6.31633,1.94026 -10.60155,2.5355 -4.28522,0.59525 -18.59131,3.80794 -31.79131,7.13931 -17.86158,4.50785 -26.55768,6.21214 -34,6.66342 -11.30283,0.68537 -41.19416,-0.31484 -52.5,-1.75674 -26.98165,-3.44111 -31.57477,-3.61674 -47.82033,-1.82854 -20.63267,2.27111 -113.8827,2.45182 -135.17967,0.26197 -14.05683,-1.44538 -17.39883,-2.294 -22.03498,-5.59523 -3.76973,-2.68428 -4.90372,-2.54356 -14.30302,1.77491 L 624.5,504.5 H 566 c -32.175,0 -63.75477,-0.40158 -70.17727,-0.89241 l -11.67728,-0.89241 -4.46028,2.95438 c -3.26564,2.16306 -7.13434,3.445 -14.44398,4.78619 -8.86003,1.62565 -11.2231,1.69495 -20.99572,0.61577 -11.59726,-1.28067 -17.46875,-0.75169 -26.25201,2.36509 -5.77206,2.04825 -25.17154,5.68405 -50.56105,9.47603 -11.03718,1.64842 -22.06218,3.44345 -24.5,3.98896 -2.43783,0.5455 -10.81923,1.93566 -18.62534,3.08923 -7.97698,1.17882 -18.05008,3.41717 -23,5.11084 -21.0931,7.21725 -20.68508,7.17985 -85.30707,7.81938 -32.175,0.31842 -60.975,0.45179 -64,0.29636 z m 151,-46.60687 c 5.225,-0.78708 13.775,-1.9714 19,-2.63183 9.91138,-1.25277 21.87578,-3.52115 22.64868,-4.29406 0.24707,-0.24706 -8.46032,-0.68064 -19.34974,-0.9635 -14.08362,-0.36584 -21.48329,-0.99255 -25.63383,-2.17107 -3.20919,-0.91123 -7.70919,-1.52027 -10,-1.35343 -3.90151,0.28415 -4.25649,0.56768 -5.60902,4.48005 -1.17082,3.38675 -1.2109,4.68812 -0.21189,6.8807 1.37493,3.01764 -0.48958,3.01246 19.1558,0.0531 z m 299.25689,-6.77315 c 2.61629,-0.55334 4.50223,-1.41812 4.19098,-1.92173 -0.95493,-1.54512 -17.79702,-1.11333 -20.00674,0.51292 -1.60166,1.17874 -1.6788,1.51466 -0.44113,1.92077 0.825,0.27071 2.175,0.73167 3,1.02437 1.58655,0.56288 5.44654,0.11555 13.25689,-1.53633 z M 359.81955,368.23978 c 0.36516,-2.55943 -0.63027,-2.82988 -3.2812,-0.89148 -1.06886,0.78157 -1.53033,1.85566 -1.09789,2.55536 1.17149,1.89551 4.02601,0.8109 4.37909,-1.66388 z m 118.95524,-19.37364 c 38.19247,-0.13041 53.71832,-0.50622 54.84146,-1.32749 1.337,-0.97763 1.39376,-1.78774 0.38722,-5.52577 -1.27118,-4.72078 -0.31413,-19.32708 2.49071,-38.01288 2.26425,-15.08439 4.60872,-35.97782 4.81567,-42.91622 0.41295,-13.84502 -4.13208,-6.70155 -10.76294,16.91622 -3.52636,12.56018 -6.80626,21 -8.16107,21 -0.31543,0 -0.28715,-2.1375 0.0629,-4.75 1.62848,-12.15537 4.27486,-44.24534 3.83749,-46.5333 -0.26903,-1.40731 -1.49191,-3.5008 -2.71753,-4.65221 -2.17703,-2.04521 -2.95254,-2.08736 -33.64852,-1.82898 L 458.5,241.5 l -0.31996,2.78665 c -0.17598,1.53266 0.38652,6.89946 1.25,11.92622 1.88142,10.95274 1.97488,13.08772 0.45884,10.48169 -1.45459,-2.50038 -5.15642,-3.71783 -8.54356,-2.80979 -2.73858,0.73417 -2.83358,0.96633 -2.53226,6.189 0.20935,3.6285 -0.17347,6.08254 -1.15548,7.40721 -1.40834,1.89978 -1.44815,1.87429 -0.97102,-0.62166 0.62841,-3.2873 -2.18463,-8.8637 -4.46224,-8.84567 -3.87273,0.0307 -6.39419,1.40584 -8.00066,4.36345 l -1.69624,3.1229 -0.33573,-2.80799 c -0.29723,-2.48597 -0.69336,-2.77267 -3.45432,-2.5 -2.60456,0.25722 -3.54046,1.12263 -5.67798,5.25027 -1.40767,2.71826 -3.16559,5.13283 -3.9065,5.36571 -1.06245,0.33394 -1.11527,-0.01 -0.25,-1.62655 1.61843,-3.02405 1.33707,-6.66354 -0.71063,-9.19234 -1.47238,-1.81831 -2.39973,-2.10244 -4.99876,-1.5316 -5.70695,1.25346 -7.7771,6.98231 -4.67355,12.93338 1.24153,2.38065 1.29398,3.48169 0.29716,6.23834 -1.08166,2.9913 -0.96736,3.67628 1.07427,6.43774 1.2566,1.69964 1.9693,3.39239 1.58378,3.76165 -0.38553,0.36926 -7.10707,-6.03474 -14.93677,-14.23113 -7.8297,-8.19638 -14.71126,-14.60867 -15.29235,-14.24954 -1.92358,1.18884 -6.23826,9.45114 -8.27685,15.84957 -2.08886,6.55623 -3.80459,27.33784 -2.64007,31.97765 0.34082,1.35794 2.31869,3.71126 4.39527,5.22961 l 3.77561,2.76062 -3.32044,-0.67762 c -3.27519,-0.66839 -3.31607,-0.63205 -3,2.6673 0.3042,3.17536 0.55548,3.37197 4.95696,3.87831 2.55009,0.29335 5.25009,1.01586 6,1.60556 0.74991,0.58971 2.48848,1.33677 3.86348,1.66014 2.19142,0.51537 2.00627,0.15103 -1.5,-2.9518 -3.94413,-3.4903 -3.95314,-3.51396 -0.64536,-1.69351 1.84504,1.01543 4.15981,2.85873 5.14392,4.09623 0.9841,1.2375 2.10354,2.25 2.48763,2.25 0.38409,0 1.86894,0.92079 3.29967,2.0462 1.43072,1.12541 3.5267,1.97559 4.65773,1.88931 1.13102,-0.0863 2.95641,-0.0911 4.05641,-0.0108 1.85064,0.13522 1.82394,0.24376 -0.35761,1.45347 l -2.35761,1.30734 2.67009,2.10029 c 2.43888,1.91843 5.71757,3.275 11.04513,4.56998 1.1,0.26738 3.8,0.30751 6,0.0892 2.2,-0.21833 27.97365,-0.47882 57.27479,-0.57886 z m 10.46038,-7.57382 C 485.03177,340.48441 488.07454,339 493.93402,339 c 7.1139,0 12.21941,0.94273 11.49073,2.12175 -0.54154,0.87624 -11.89576,0.99587 -16.18958,0.17057 z m -3.83013,-16.19325 c -8.66621,-5.72499 -15.3819,-10.86709 -22.71627,-17.3935 -8.69786,-7.73968 -10.12319,-8.05262 -23.49989,-5.15954 -13.76439,2.97693 -20.97561,2.07591 -25.26171,-3.15638 -0.96941,-1.18341 0.0444,-0.88382 3.16069,0.93406 5.52577,3.22341 8.54571,3.31613 22.12668,0.67932 5.657,-1.09834 11.32031,-1.99834 12.58512,-2 3.65828,-0.005 8.17983,2.81086 15.70034,9.77695 6.98697,6.4719 23.44249,18.22002 25.52066,18.22002 0.60355,0 0.81926,0.45 0.47934,1 -0.96466,1.56085 -1.78708,1.26613 -8.09496,-2.90093 z m 253.76135,-43.96146 c 0.36652,-0.35069 0.0683,-1.18113 -0.66263,-1.84542 -1.06055,-0.96383 -1.66683,-0.69226 -3.00125,1.34432 -1.64433,2.50956 -1.63327,2.54034 0.66264,1.84541 1.28417,-0.38869 2.63473,-0.99363 3.00124,-1.34431 z M 770.5,282 c -0.33992,-0.55 -1.04148,-1 -1.55902,-1 -0.51754,0 -0.94098,0.45 -0.94098,1 0,0.55 0.70156,1 1.55902,1 0.85746,0 1.2809,-0.45 0.94098,-1 z M 419.02111,255.96056 c 2.72676,-5.095 -0.66377,-11.76903 -5.37783,-10.58588 -6.42386,1.61229 -8.56864,7.79086 -4.21556,12.14395 2.13903,2.13903 2.79558,2.29949 5.52111,1.34936 1.70136,-0.5931 3.53389,-1.90144 4.07228,-2.90743 z m 25.13895,1.34756 c 3.32854,-2.918 3.02641,-9.14826 -0.55976,-11.54281 C 439.5561,243.06493 434,246.96258 434,252.5 c 0,6.5907 5.2777,9.08831 10.16006,4.80812 z M 830.17139,250 c 0.37607,-3.94342 0.33428,-4 -2.95398,-4 -2.16256,0 -3.09739,0.38517 -2.65848,1.09535 1.17323,1.89832 -1.68892,5.99817 -3.7342,5.34902 C 819.82113,252.12584 819,252.34555 819,252.93261 819,253.55723 821.23792,254 824.39496,254 h 5.39497 z M 450,238.27677 c 1.92535,-0.75853 -2.9732,-1.99551 -8.54768,-2.15846 -2.97273,-0.0869 -5.42085,-1.11422 -9.2182,-3.86831 -2.84378,-2.0625 -5.03814,-4.2 -4.87636,-4.75 0.16177,-0.55 1.91195,-1.40819 3.88928,-1.90709 2.88873,-0.72885 4.61118,-0.47 8.76602,1.31736 5.11918,2.20221 5.22157,2.20628 10.24281,0.40709 5.43175,-1.94629 7.84779,-4.77409 9.93667,-11.63017 1.04952,-3.44471 0.89588,-4.33773 -1.59143,-9.25 C 457.0869,203.44674 455.20721,201 454.424,201 c -1.88732,0 -1.80721,1.91908 0.17139,4.1054 2.56997,2.83978 2.34434,8.05755 -0.40916,9.46225 -1.27258,0.6492 -3.52258,2.30708 -5,3.68417 -5.79172,5.3984 -9.16329,5.95499 -12.73398,2.10216 -3.82706,-4.12947 -3.0167,-11.97407 1.76416,-17.07788 1.86304,-1.98889 1.9086,-2.2909 0.43115,-2.85785 -3.21931,-1.23536 -6.59158,0.66046 -10.83154,6.08928 l -4.29305,5.49679 0.33025,10.3701 c 0.33495,10.51776 -0.9331,15.81887 -4.03096,16.85149 -0.6709,0.22364 5.50713,0.23453 13.72896,0.0242 8.22183,-0.21032 15.62378,-0.64833 16.44878,-0.97336 z m 65.81312,0.44841 c 1.39179,-1.67701 -3.63383,-5.12907 -9.81312,-6.74055 -2.6715,-0.69669 -7.75066,-3.62511 -12.5,-7.20694 -8.27697,-6.2423 -10.95399,-7.68233 -18.36792,-9.88056 -3.99867,-1.1856 -4.48662,-1.13275 -5.77207,0.6252 -0.77228,1.05616 -1.09438,2.60819 -0.71579,3.44898 0.37859,0.84078 0.72602,2.87869 0.77207,4.52869 0.0679,2.4331 -0.32439,3 -2.07593,3 -3.19095,0 -3.50901,0.74791 -2.75031,6.46727 0.52779,3.97868 1.18571,5.40108 2.79992,6.05335 1.16052,0.46893 12.29243,0.88113 24.73759,0.91599 17.18038,0.0481 22.88225,-0.2435 23.68556,-1.21143 z m 98.76109,-9.60511 c -0.6673,-1.07971 -8.65216,-3.72038 -14.07421,-4.65447 -2.2,-0.37901 -5.97432,-1.81902 -8.38739,-3.20002 -2.95838,-1.69309 -6.05261,-2.55239 -9.5,-2.63825 -5.10637,-0.12717 -5.113,-0.12321 -5.43545,3.24983 -0.17757,1.85743 0.11607,3.81607 0.65251,4.35251 1.84966,1.84966 37.85159,4.68165 36.74454,2.8904 z M 442.1529,215.56377 C 443.46077,212.6933 442.68506,210 440.55044,210 c -1.68193,0 -3.08518,4.1641 -2.18967,6.49776 0.85742,2.2344 2.537,1.82072 3.79213,-0.93399 z M 205.73079,487.58793 c -2.63152,-2.63152 -3.11303,-7.19847 -1.05286,-9.98591 3.56467,-4.82302 8.51635,-5.81024 12.68721,-2.52944 3.70306,2.91283 3.52847,6.99771 -0.44187,10.33853 -1.69219,1.42389 -3.60469,2.59503 -4.25,2.60254 -0.6453,0.008 -2.11869,0.26746 -3.27419,0.57765 -1.23471,0.33146 -2.74716,-0.0822 -3.66829,-1.00337 z m 31.6667,-57.27434 c -2.34604,-0.46199 -9.09114,-6.95327 -8.17604,-7.86837 0.89884,-0.89884 7.98468,3.0453 10.70286,5.95746 2.43102,2.6045 2.13439,2.82883 -2.52682,1.91091 z m 25.01008,-20.92335 c -2.25083,-0.79852 -5.36802,-2.7833 -6.92709,-4.41062 -5.94561,-6.20588 1.06314,-4.56081 8.54267,2.0051 4.85948,4.26589 4.62258,4.61862 -1.61558,2.40552 z M 294.5,363.43399 c -2.75,-1.32454 -5.47831,-2.41405 -6.06291,-2.42112 -1.00956,-0.0122 -4.42948,-3.39184 -7.40539,-7.31811 -1.28559,-1.69614 -1.19192,-1.7285 1.55001,-0.53542 4.19773,1.82653 9.31958,5.24584 13.91829,9.29174 4.67668,4.11451 4.59011,4.15705 -2,0.98291 z m -25.62756,-18.09771 c -1.24448,-1.5086 -1.16266,-1.55194 0.87756,-0.46482 2.32696,1.23991 2.89993,2.12854 1.37244,2.12854 -0.48265,0 -1.49515,-0.74867 -2.25,-1.66372 z m 17.69899,-53.90771 c -2.42282,-2.42282 -1.94377,-6.1385 1.0438,-8.09603 2.34341,-1.53546 2.88909,-1.56037 5.25,-0.23963 3.64506,2.0391 3.86884,5.18451 0.55434,7.7917 -3.20966,2.52471 -4.7454,2.6467 -6.84814,0.54396 z m 16.90117,-0.45885 c -4.12033,-4.55291 2.94421,-11.61745 7.49712,-7.49712 2.65507,2.4028 2.56729,4.67428 -0.28417,7.35309 -2.88591,2.71117 -4.85415,2.75047 -7.21295,0.14403 z m 0.6429,-16.60137 c -2.76204,-1.93461 -2.70855,-5.83956 0.10701,-7.81165 3.00423,-2.10424 5.1045,-1.95783 7.33934,0.51164 1.6937,1.87152 1.73224,2.31355 0.40498,4.64534 -1.96823,3.45789 -5.16257,4.53795 -7.85133,2.65467 z M 286.2,273.8 c -1.82645,-1.82645 -1.43547,-5.27693 0.83028,-7.3274 4.36864,-3.95357 10.70039,2.53222 6.91953,7.08787 -1.45049,1.74774 -6.09796,1.89138 -7.74981,0.23953 z m 43.35032,-6.15877 C 324.07272,262.16363 328.09673,253 335.97971,253 c 2.81973,0 7.02029,4.33342 7.02029,7.24232 0,3.07646 -4.7974,8.53014 -8.19968,9.32139 -2.07841,0.48336 -3.28656,0.041 -5.25,-1.92248 z M 304.22251,257.4433 c -4.52744,-3.17114 -1.30464,-9.92799 4.42065,-9.26826 2.057,0.23704 3.09008,1.0972 3.81808,3.17905 0.87794,2.5106 0.66283,3.14244 -1.78736,5.25 -3.28905,2.82912 -3.56004,2.86438 -6.45137,0.83921 z m -18.27236,-1.53644 c -1.6144,-3.01655 -0.36563,-6.76448 2.49291,-7.48192 5.63944,-1.41541 9.0837,2.59599 6.11682,7.12402 -2.08172,3.1771 -6.99171,3.3812 -8.60973,0.3579 z m 35.18098,-15.99932 c -2.8203,-2.62751 -2.43472,-5.60919 1.06163,-8.20973 2.55105,-1.89744 2.82733,-1.91466 5.25,-0.32727 3.36944,2.20774 3.33621,5.87156 -0.0776,8.55688 -3.25658,2.56163 -3.46379,2.56097 -6.23401,-0.0199 z M 286.2,239.8 c -2.06526,-2.06526 -1.42842,-6.60423 1.16502,-8.30352 3.70575,-2.4281 8.63498,0.18939 8.63498,4.58531 0,0.50501 -0.9,1.81821 -2,2.91821 -2.23745,2.23745 -5.97882,2.62118 -7.8,0.8 z m 17.04508,0.0451 c -3.38552,-3.38552 -0.029,-9.15766 5.0295,-8.64908 4.19842,0.4221 5.66692,3.03083 3.69422,6.56263 -1.70374,3.0503 -6.59099,4.21918 -8.72372,2.08645 z M 269.125,223.09842 C 265.56171,220.84134 269.03518,213 273.59828,213 c 2.28374,0 5.40172,3.30314 5.40172,5.72251 0,3.66749 -6.4683,6.53379 -9.875,4.37591 z m 17.44643,-0.66985 c -2.42282,-2.42282 -1.94377,-6.1385 1.0438,-8.09603 2.34341,-1.53546 2.88909,-1.56037 5.25,-0.23963 3.3438,1.87057 3.85018,5.19168 1.19626,7.8456 -2.45908,2.45908 -5.333,2.64712 -7.49006,0.49006 z m 17,0 C 301.43121,220.28836 301.59772,217.40228 304,215 c 2.49115,-2.49115 5.18862,-2.55405 7.34501,-0.17126 2.19936,2.43026 2.08834,4.73791 -0.34501,7.17126 -2.40228,2.40228 -5.28836,2.56879 -7.42857,0.42857 z m 16.80977,-0.96953 c -1.32562,-2.02315 -1.43914,-3.03646 -0.55706,-4.97242 2.30058,-5.04921 10.17586,-3.9707 10.17586,1.39358 0,5.72568 -6.60252,8.18226 -9.6188,3.57884 z m 218.03399,-0.88045 C 533.76729,218.55489 531,214.44333 531,209.56131 c 0,-3.4055 0.59518,-4.73258 3.25,-7.24652 4.14609,-3.9261 9.29045,-5.57182 14.70863,-4.70541 4.48478,0.71714 9.49887,4.20104 10.25985,7.12877 0.6802,2.61694 -5.15726,10.30555 -10.63828,14.01185 -5.37906,3.63735 -5.82607,3.71776 -10.16501,1.82859 z M 188.97525,209.4349 c -2.718,-7.14888 0.75061,-12.4349 8.15961,-12.4349 4.67791,0 7.86514,2.76911 7.86514,6.83333 0,4.17586 -1.06865,4.52691 -2.88972,0.94928 -1.99829,-3.92579 -3.64362,-4.52309 -5.07776,-1.84338 -0.80515,1.50443 -0.80264,2.6218 0.009,4.13891 1.71085,3.19676 0.47178,4.92186 -3.53519,4.92186 -2.89714,0 -3.73686,-0.47534 -4.53138,-2.5651 z m 462.1037,-5.01823 c 0.048,-1.16495 0.28494,-1.4019 0.60416,-0.60417 0.28887,0.72187 0.25335,1.58437 -0.0789,1.91667 -0.33229,0.33229 -0.56864,-0.25834 -0.52522,-1.3125 z M 864,201.8864 c -21.175,-0.33748 -45.1862,-0.97214 -53.35821,-1.41035 -13.97596,-0.74943 -14.9931,-0.94221 -17.12989,-3.24664 -2.02684,-2.18586 -2.79657,-2.37683 -7.14179,-1.77189 -2.67856,0.37291 -8.02011,0.63905 -11.87011,0.59143 -4.81949,-0.0596 -6.54177,0.21384 -5.52896,0.87786 0.80907,0.53044 1.13907,1.29641 0.73333,1.70215 -0.40574,0.40574 -1.23504,0.24037 -1.84289,-0.36748 -0.60786,-0.60786 -1.64641,-0.89751 -2.30789,-0.64367 C 764.34121,198.08304 755,194.50088 755,193.57072 c 0,-0.27519 1.0125,-1.07869 2.25,-1.78554 1.61205,-0.92079 10.8978,-1.49079 32.75,-2.01034 41.61979,-0.98954 46.66912,-1.40157 47.31219,-3.86065 0.4917,-1.88026 1.60467,-1.9316 36.34752,-1.67692 L 909.5,184.5 l 0.32125,3.93261 c 0.17669,2.16293 -0.14209,4.86293 -0.7084,6 -0.56631,1.13706 -1.16087,3.1621 -1.32125,4.50007 -0.1985,1.65596 -1.08981,2.61382 -2.7916,3 -1.375,0.31203 -19.825,0.2912 -41,-0.0463 z m -19,-22.00461 c -12.925,-0.44612 -25.975,-1.35121 -29,-2.0113 -3.025,-0.6601 -9.1,-1.09642 -13.5,-0.9696 -5.46485,0.1575 -9.17818,-0.26561 -11.71788,-1.33516 C 785.81071,173.4721 781,173.49239 781,175.60699 c 0,1.14191 -0.50647,1.39571 -1.75,0.87695 -5.91272,-2.46655 -16.17097,-2.78313 -14.73188,-0.45462 0.77076,1.24712 0.77855,1.24795 -5.33662,-0.56806 -5.7926,-1.72022 -6.3099,-2.6758 -2.72138,-5.02708 2.03293,-1.33203 7.63299,-1.77253 32.25,-2.5368 C 830.7062,166.59355 837,166.1492 837,164.48805 c 0,-1.69418 1.42077,-2.60878 5.41271,-3.48435 l 3.08729,-0.67715 -4,-1.20759 c -2.2,-0.66417 -9.175,-1.61471 -15.5,-2.11232 -12.48688,-0.98239 -15.38556,-1.6322 -21.73863,-4.8733 -2.82615,-1.44179 -6.05854,-2.1382 -9.97153,-2.14835 -3.28243,-0.008 -9.18851,-1.07072 -13.63766,-2.45276 -7.10905,-2.20827 -8.19163,-2.30933 -11.5,-1.07354 -8.18972,3.05914 -20.44556,6.54131 -23.0228,6.54131 -1.51092,0 -3.62063,0.66069 -4.68825,1.4682 -2.08446,1.5766 -9.98432,2.07995 -10.84283,0.69085 -0.46785,-0.75699 -9.14462,-3.27007 -15.5983,-4.51777 -1.375,-0.26583 -5.37755,-1.20382 -8.89455,-2.08442 -3.51701,-0.8806 -6.56856,-1.42709 -6.78123,-1.21442 -0.21266,0.21267 0.35608,1.68512 1.26388,3.27212 1.57118,2.74669 1.54389,3.06577 -0.56755,6.63544 -1.21996,2.0625 -2.98946,3.75 -3.93223,3.75 -0.94278,0 -3.00752,1.35 -4.58832,3 -3.63953,3.79885 -7.63279,3.95812 -11.14635,0.44456 -2.15766,-2.15766 -2.4536,-3.13052 -1.90122,-6.25 1.01168,-5.71338 1.43192,-6.48344 5.29055,-9.69456 2.48997,-2.07213 4.68478,-3 7.09628,-3 4.60678,0 5.19131,-2.08408 0.8148,-2.90512 C 687.45197,141.80656 676,136.19331 676,134.92195 676,134.41488 673.34914,134 670.10919,134 c -5.14327,0 -6.50743,0.44483 -10.75,3.50539 -6.94591,5.01073 -6.68929,4.98858 -12.38704,1.06923 -2.895,-1.99141 -6.42511,-3.57462 -7.97041,-3.57462 -4.79234,0 -15.89989,-8.28647 -24.65095,-18.39015 -1.25426,-1.44813 -3.75272,-2.75739 -6,-3.14417 -4.32435,-0.74427 -13.34589,-6.29666 -13.34886,-8.21568 -0.002,-1.60979 2.17162,-1.57435 16.06165,0.2618 13.7509,1.81776 50.64125,5.37655 64.18642,6.19203 l 9.75,0.587 v -2.45429 c 0,-1.34985 0.59554,-3.26873 1.32342,-4.26416 1.15714,-1.58249 1.59688,-1.6391 3.5,-0.45058 2.99132,1.86811 2.75864,4.51529 -0.46806,5.32515 -2.04971,0.51444 -2.37611,0.93251 -1.45094,1.85841 0.82413,0.82478 6.05472,1.19464 16.89464,1.19464 14.39855,0 15.67657,-0.14516 15.4071,-1.75 -0.16161,-0.9625 0.17589,-1.75 0.75,-1.75 0.57411,0 1.04384,-0.675 1.04384,-1.5 0,-0.825 0.40186,-1.5 0.89301,-1.5 1.52842,0 2.20025,-3.18271 0.98174,-4.65091 -0.63786,-0.76858 -0.82873,-1.72405 -0.42416,-2.12326 0.91191,-0.899804 22.08034,-0.775769 37.75347,0.22122 l 11.70406,0.74451 1.1273,3.41576 c 0.62002,1.87867 0.97819,5.54807 0.79594,8.15422 L 774.5,117.5 l 7.5,0.28252 c 4.125,0.15539 15.375,-0.1969 25,-0.78288 9.625,-0.58597 21.1,-1.16311 25.5,-1.28252 l 8,-0.21712 0.5,-18.669625 c 0.275,-10.268294 0.7545,-18.922797 1.06556,-19.232229 1.26212,-1.255514 23.25576,-0.811935 35.32939,0.712541 C 889.89135,79.888545 892,79.845672 892,78.013739 c 0,-1.864891 -14.84987,-7.952862 -23.47555,-9.624222 -14.46426,-2.802677 -8.02094,-2.760427 9.69069,0.06354 27.88959,4.446764 29.85979,5.697797 31.57108,20.046939 0.59034,4.95 1.95426,11.025 3.03092,13.500004 1.61148,3.70439 1.81952,5.56082 1.17668,10.5 -0.4295,3.3 -1.27881,7.26679 -1.88736,8.8151 -0.65423,1.66452 -1.10646,9.73666 -1.10646,19.75 0,9.31419 -0.3375,16.99321 -0.75,17.06448 -0.4125,0.0713 -8.75173,0.2205 -18.53163,0.33163 -17.12951,0.19464 -21.908,1.01252 -18.5555,3.17592 C 873.89829,162.11171 882.375,162.725 892,163 l 17.5,0.5 0.33412,2.93344 c 0.18377,1.61339 -0.24655,5.55089 -0.95627,8.75 L 907.58745,181 888.04372,180.84647 C 877.29468,180.76202 857.925,180.32792 845,179.88179 Z m -27.69816,-51.55453 18.80184,-0.6362 -0.30184,-3.07681 L 835.5,121.53743 823,121.10911 c -6.875,-0.23557 -21.27025,-0.34721 -31.98944,-0.24809 l -19.48945,0.18023 -3.66375,3.72937 c -2.52337,2.56857 -3.3048,3.98423 -2.51055,4.54814 0.63425,0.45031 8.35319,0.55459 17.15319,0.23172 8.8,-0.32286 24.46083,-0.87331 34.80184,-1.22322 z M 333.49331,144.58422 C 330.47766,141.56857 330.35269,139.64731 333,137 c 2.49115,-2.49115 5.18862,-2.55405 7.34501,-0.17126 2.88704,3.19014 2.03011,6.88434 -2.1017,9.06032 -1.94845,1.02614 -2.59725,0.84791 -4.75,-1.30484 z m -166.57555,-7.3664 -3.12421,-2.79148 5.85322,0.0288 c 5.57079,0.0274 6.38403,-0.31292 16.85323,-7.05259 6.05,-3.89476 24.725,-15.74528 41.5,-26.33449 C 244.775,90.478842 259.7375,80.499482 261.25,78.891695 262.98261,77.049928 264,74.864407 264,72.984223 264,71.342901 264.39754,70 264.88342,70 c 1.84026,0 1.82354,5.408224 -0.0297,9.597691 -1.51373,3.422036 -2.85742,4.752686 -6.36688,6.305088 -2.44653,1.082215 -5.60669,3.126122 -7.02258,4.542014 -1.41589,1.415892 -4.16042,3.237052 -6.09895,4.047021 -3.29924,1.378509 -18.97562,11.105176 -53.3924,33.128196 -7.98988,5.11265 -16.19294,9.99179 -18.22902,10.84251 -3.62261,1.51363 -3.76893,1.48695 -6.82617,-1.2447 z m 125.82176,0.0322 -2.63467,-2.75 5.69757,-0.0342 c 5.68638,-0.0342 5.76341,-0.0762 39.19758,-21.37268 18.425,-11.73614 37.49622,-23.870732 42.38049,-26.965762 8.92937,-5.658296 14.56207,-11.79322 13.05969,-14.224117 -0.47691,-0.77166 -0.32961,-0.952906 0.40531,-0.498703 1.80123,1.113219 1.3594,5.499005 -0.86927,8.628893 -1.11308,1.563178 -9.55058,7.64745 -18.75,13.520605 C 362.0268,99.427161 353.375,105.23039 352,106.45007 c -1.375,1.21968 -5.09005,3.45172 -8.25566,4.96008 -3.16561,1.50837 -6.19966,3.5721 -6.74232,4.58608 -0.54267,1.01398 -2.58494,2.37108 -4.53839,3.01577 -1.95345,0.6447 -5.53252,2.68415 -7.95349,4.53212 -2.42096,1.84797 -6.33864,4.33004 -8.70595,5.51571 -2.3673,1.18567 -5.65419,3.39849 -7.30419,4.91738 C 306.29258,136.00922 297.68454,140 295.50895,140 c -0.0741,0 -1.32037,-1.2375 -2.76943,-2.75 z m -189.29157,-1.03327 c -1.98736,-1.66262 -1.87705,-1.71683 3.5,-1.72004 5.54903,-0.003 5.57518,-0.018 48.02243,-27.01516 43.1192,-27.424504 47.54047,-30.812021 46.31768,-35.487986 C 201.00133,70.897095 201.23347,70 201.80391,70 c 0.57045,0 1.33394,1.35113 1.69664,3.002512 1.24723,5.678609 -1.94932,8.765552 -22.25264,21.489603 C 170.93656,100.95422 160.025,108.09475 157,110.35996 c -3.025,2.26522 -7.525,5.07213 -10,6.23757 -2.475,1.16545 -5.4,3.13535 -6.5,4.37754 -1.1,1.2422 -4.36002,3.30512 -7.24449,4.58427 -2.88447,1.27915 -6.25947,3.38473 -7.5,4.67907 -2.86914,2.99358 -13.61529,7.77189 -17.38056,7.72832 -1.58122,-0.0183 -3.79837,-0.8058 -4.927,-1.75 z m 125.2783,0.0333 c -1.4904,-1.64687 -1.24907,-1.75205 4.09501,-1.78478 L 238.5,134.43044 280,108.11988 C 302.825,93.649078 322.7375,80.49513 324.25,78.888887 325.98324,77.048224 327,74.865088 327,72.984223 327,71.342901 327.39754,70 327.88342,70 c 1.39787,0 2.03541,5.27348 0.90543,7.489357 -1.99962,3.921251 -8.19967,9.47694 -13.4341,12.037904 -2.91878,1.428026 -6.11035,3.617873 -7.09239,4.866326 -0.98203,1.248454 -2.98242,2.570319 -4.4453,2.93748 -1.46288,0.36716 -4.60767,2.235866 -6.98842,4.152683 -2.38075,1.91681 -6.57864,4.55214 -9.32864,5.8563 -2.75,1.30415 -5.85561,3.33435 -6.90135,4.51155 -1.04575,1.1772 -4.19575,3.25589 -7,4.61931 -2.80426,1.36342 -7.20531,3.95272 -9.78011,5.75401 -20.39782,14.26999 -31.02641,18.51783 -35.09229,14.02508 z M 422.7976,117 c -13.2194,-0.52035 -16.29588,-1.48976 -13.89781,-4.37926 0.95676,-1.15281 0.93712,-1.92279 -0.0924,-3.62225 -1.21729,-2.00946 -0.72701,-2.7114 7.11276,-10.183519 4.6311,-4.413914 11.07051,-10.230926 14.3098,-12.926693 l 5.88962,-4.901396 72.19021,0.256559 c 60.78149,0.216013 72.1902,0.475859 72.1902,1.644211 0,0.763208 -2.12644,3.189986 -4.72542,5.39284 -3.87046,3.280529 -4.99115,3.784661 -6.19406,2.786334 -1.19204,-0.989306 -1.7128,-0.827876 -2.76512,0.85716 C 566.10233,93.065794 565.22215,94 564.85945,94 c -0.3627,0 -2.18319,1.4625 -4.04555,3.25 -1.86235,1.7875 -6.63235,5.83952 -10.6,9.0045 -4.42581,3.53045 -7.2139,6.49276 -7.2139,7.66468 0,1.64273 -1.0151,2.00438 -7.25,2.58294 -8.79168,0.81583 -95.19909,1.1967 -112.9524,0.49788 z m 273.40679,-5.81094 c -1.98952,-1.53093 -2.20581,-2.32798 -1.62219,-5.97776 0.60465,-3.78125 0.46706,-4.2113 -1.3474,-4.2113 -1.11145,0 -2.30872,0.75025 -2.66059,1.66722 -0.48233,1.25691 -0.92292,1.38407 -1.79033,0.51666 -1.59132,-1.59132 -0.62791,-2.26098 4.18065,-2.90595 3.35063,-0.449412 4.49811,-0.15846 6.08259,1.54227 2.37873,2.55327 2.44202,3.1798 0.32121,3.1798 -1.32637,0 -1.53128,0.74844 -1.09516,4 0.29509,2.2 0.46684,3.98999 0.38167,3.97776 -0.0852,-0.0122 -1.18786,-0.81714 -2.45045,-1.7887 z M 705,112 c 0,-0.55 1.15156,-1 2.55902,-1 1.45136,0 2.2915,0.43284 1.94098,1 -0.33992,0.55 -1.49148,1 -2.55902,1 C 705.87344,113 705,112.55 705,112 Z m -3,-7.39301 c 0,-2.02851 2.65241,-2.72249 5.48049,-1.43392 C 710.71537,104.64697 709.73922,106 705.44098,106 703.16646,106 702,105.52778 702,104.60699 Z M 714,105 c 0,-0.55 0.45,-1 1,-1 0.55,0 1,0.45 1,1 0,0.55 -0.45,1 -1,1 -0.55,0 -1,-0.45 -1,-1 z m 3.9963,-2.50394 C 716.70659,101.12323 716.11007,100 716.6707,100 c 1.27732,0 4.8243,3.83833 4.16045,4.50219 -0.26946,0.26946 -1.54515,-0.6333 -2.83485,-2.00613 z m -6.43743,-1.02786 c -1.897,-1.43483 -1.89132,-1.4682 0.25,-1.4682 1.281,0 2.19113,0.62305 2.19113,1.5 0,1.80955 -0.007,1.80946 -2.44113,-0.0318 z M 715.25,92.496701 c -3.23466,-2.314738 -2.9315,-6.469601 0.72787,-9.975502 4.0997,-3.927763 12.72841,-4.814917 15.90778,-1.635547 4.22485,4.224847 1.74932,10.408282 -4.59645,11.481096 -2.08406,0.352331 -5.1392,0.887981 -6.7892,1.190332 -1.91984,0.351799 -3.81012,-0.02999 -5.25,-1.060379 z M 845,64.923004 c -4.125,-0.431032 -11.55,-1.100334 -16.5,-1.487337 -10.81338,-0.845418 -13.32292,-1.792049 -9.05377,-3.415202 3.06851,-1.166668 15.69543,0.227239 30.90351,3.411492 11.91501,2.494753 9.8265,3.076852 -5.34974,1.491047 z M 53.961673,63.453819 c -1.063851,-1.281863 -0.938122,-2.008397 0.735476,-4.25 2.730187,-3.656789 6.687217,-3.701073 7.107142,-0.07954 0.549212,4.736538 -4.974211,7.785758 -7.842618,4.329539 z M 615.57143,49.428571 c -2.94442,-2.94442 -1.30912,-7.775622 2.99785,-8.856602 4.94473,-1.241049 7.01527,3.080072 3.81571,7.963214 -1.84938,2.822505 -4.53262,3.17433 -6.81356,0.893388 z M 233.5,47 c -11.78187,-0.490911 -17.01803,-1.945625 -16.16933,-4.492176 0.39723,-1.19191 159.67148,-1.953848 159.66558,-0.763809 -0.005,1.036057 -7.94782,4.219474 -12.10228,4.850575 C 360.33565,47.287042 248.65878,47.631616 233.5,47 Z m 22.81819,-11.495203 c -2.29999,-0.689439 -5.28777,-1.042107 -6.6395,-0.783707 -1.35173,0.2584 -3.56965,-0.258766 -4.92871,-1.149257 -2.279,-1.493252 -2.92871,-1.491108 -8.3605,0.0276 -10.84394,3.031913 -11.37015,2.971371 -16.70336,-1.921756 -4.5162,-4.143539 -4.79446,-4.686716 -4.5,-8.784154 L 215.5,18.526011 394.75,18.336789 c 167.12636,-0.176424 179.24822,-0.07585 179.22369,1.486994 -0.0145,0.92192 -0.86516,4.826217 -1.89042,8.676217 l -1.86411,7 -5.85958,-0.299848 C 558.39536,34.894949 553,33.372773 553,31.995311 c 0,-1.704254 -4.05173,-1.767161 -4.95631,-0.07695 -1.33773,2.499571 -10.85277,4.484925 -14.62357,3.051271 -1.59462,-0.606274 -4.30417,-0.838763 -6.02123,-0.516641 -2.21004,0.414606 -3.51733,0.109223 -4.47568,-1.04552 -2.54538,-3.066988 -5.2404,-3.341265 -7.62546,-0.776058 -2.82388,3.037165 -9.3781,3.288238 -12.19903,0.467308 -2.96389,-2.963888 -5.69055,-3.436093 -7.7702,-1.345649 -3.45105,3.468955 -6.99167,4.28449 -15.69618,3.615408 -5.4244,-0.416952 -8.99324,-0.2457 -10.38331,0.498245 -1.53687,0.822505 -2.89066,0.837917 -4.93356,0.05616 -1.54851,-0.592569 -4.82362,-1.080133 -7.27803,-1.083476 -3.42966,-0.0047 -4.98096,-0.565438 -6.70225,-2.422744 -2.6684,-2.879252 -4.90366,-3.091506 -6.24102,-0.592628 -1.61594,3.019417 -8.45602,4.528532 -14.23833,3.141378 -2.70777,-0.649584 -5.78567,-0.955525 -6.83978,-0.679869 -1.10499,0.288962 -3.29025,-0.512283 -5.16059,-1.892178 -3.78312,-2.791097 -5.41932,-2.995139 -6.63261,-0.827115 -0.48209,0.86144 -2.64195,1.966605 -4.79969,2.455921 -3.38967,0.768683 -4.41198,0.551847 -7.51771,-1.594524 -3.5895,-2.480702 -6.13132,-2.463587 -8.40546,0.0566 -2.29081,2.538655 -8.31054,3.652138 -14.02913,2.595 -4.35648,-0.805339 -6.48383,-0.720412 -9.69866,0.387188 -2.75624,0.949602 -4.70059,1.107079 -5.87942,0.476186 C 359.92407,35.42418 356.95203,35 354.28825,35 c -2.74866,0 -5.79688,-0.66796 -7.04833,-1.544505 -1.47996,-1.036609 -2.78628,-1.255308 -3.9725,-0.665062 -4.52001,2.249096 -13.0624,3.476687 -16.31148,2.344053 C 325.16603,34.510519 321.99526,34 319.90979,34 c -2.08546,0 -4.08703,-0.477757 -4.44791,-1.061683 -1.32554,-2.144765 -5.64562,-3.078926 -7.35173,-1.589717 -0.88558,0.772994 -3.29241,1.999287 -5.3485,2.725096 -3.42609,1.209427 -3.98651,1.136173 -6.7095,-0.877022 -3.839,-2.838291 -6.11829,-2.770137 -10.67048,0.319063 -2.48951,1.689427 -4.39241,2.298243 -5.79346,1.853567 -3.34799,-1.062613 -14.90626,-0.846121 -17.08821,0.320071 -1.45006,0.775016 -3.14988,0.724262 -6.18181,-0.184578 z"
     style="fill:#afb0b0" />
  <path
     inkscape:connector-curvature="0"
     id="path3188"
     d="M 145.8058,540.63186 C 140.58629,539.19267 138,537.45177 138,535.37756 138,534.47815 139.17771,534 141.39301,534 c 2.09352,0 3.61346,-0.57449 3.96862,-1.5 0.50131,-1.3064 7.20722,-1.5 51.95776,-1.5 35.5956,0 52.42653,-0.34796 54.78139,-1.13253 1.86957,-0.62289 4.99319,-2.64789 6.94138,-4.5 1.94819,-1.85211 4.20113,-3.36747 5.00652,-3.36747 2.79583,0 3.98048,-7.14366 3.29592,-19.87496 -0.54491,-10.13428 -0.87388,-11.85917 -2.16713,-11.3629 -1.13266,0.43464 -1.35149,0.13373 -0.85108,-1.17032 0.37049,-0.96547 0.6805,-2.28109 0.68892,-2.92361 0.009,-0.67764 0.4368,-0.53831 1.01901,0.33179 0.86874,1.29833 1.2028,1.23902 2.48468,-0.44113 2.10115,-2.75395 1.8693,-4.47317 -0.519,-3.84862 -1.1,0.28766 -1.98235,0.13303 -1.96077,-0.34362 0.0953,-2.10445 10.84509,-19.96597 12.55844,-20.86663 1.34226,-0.70559 1.80592,-1.84332 1.57487,-3.86443 -0.22293,-1.95 0.43843,-3.70579 2.0717,-5.5 1.31955,-1.44956 4.77068,-5.89628 7.66918,-9.8816 4.77461,-6.56488 5.5199,-7.18533 7.9283,-6.60027 2.58259,0.62739 2.60845,0.58944 0.90828,-1.3327 -0.9625,-1.08817 -1.75,-2.52648 -1.75,-3.19625 0,-0.66977 2.97609,-5.11818 6.61354,-9.88536 3.63745,-4.76718 6.84692,-9.27576 7.13216,-10.01907 0.38168,-0.99464 1.60581,-1.17096 4.63645,-0.66779 l 4.11785,0.68368 -2.75,-2.57036 C 313.93735,406.03694 313.18809,404 315.03373,404 c 0.56854,0 1.97795,-1.60035 3.13201,-3.55633 1.15406,-1.95598 2.65904,-3.34115 3.34442,-3.07815 1.75815,0.67467 3.48984,-1.34942 3.48984,-4.07909 0,-1.27246 0.5625,-3.23162 1.25,-4.35369 1.10562,-1.80449 0.87358,-2.35156 -2.00901,-4.73644 -3.89463,-3.22216 -4.16753,-4.64566 -0.72501,-3.78164 2.07153,0.51992 2.68981,0.17427 3.5,-1.9567 0.54121,-1.42349 0.98402,-3.9247 0.98402,-5.55824 0,-2.70087 -0.18905,-2.86891 -2.08565,-1.85388 -3.72223,1.99207 -3.60563,1.49258 3.20601,-13.73451 1.5916,-3.55795 2.28828,-4.16026 4.62669,-4 2.24598,0.15393 2.69029,-0.17964 2.4127,-1.81133 -0.18714,-1.1 -0.9664,-2.70132 -1.73168,-3.55849 -1.21982,-1.36629 -0.74888,-2.04457 3.81869,-5.5 2.86556,-2.16783 7.69482,-6.493 10.73168,-9.61148 3.03686,-3.11849 6.40977,-5.82238 7.49536,-6.00865 1.42719,-0.24489 2.16571,-1.44402 2.66679,-4.33003 0.38114,-2.19524 1.18043,-5.25814 1.7762,-6.80645 C 361.51255,314.1366 362,308.1741 362,302.4349 362,293.51733 361.76633,292 360.39301,292 c -0.88933,0 -1.38907,-0.56789 -1.11902,-1.27163 0.26839,-0.6994 1.27329,-4.80148 2.23312,-9.11572 3.921,-17.62414 14.38495,-35.49538 26.77514,-45.72888 C 398.07574,227.79498 407,218.96952 407,217.37324 c 0,-0.80329 1.125,-2.67379 2.5,-4.15667 2.01625,-2.17443 2.5,-3.72671 2.5,-8.02209 0,-2.92928 -0.44966,-6.16616 -0.99925,-7.19307 -0.78041,-1.45823 -0.61617,-1.98005 0.75,-2.38283 C 417.0007,194.07079 431.1506,193 446.35396,193 h 17.20924 l 7.9684,4.65811 c 4.38262,2.56196 17.31189,10.21799 28.73172,17.01341 14.34474,8.5359 22.36275,12.69832 25.93728,13.46492 6.49437,1.3928 37.11286,0.61139 41.25016,-1.05273 2.17763,-0.87589 4.14272,-0.90827 7.5,-0.12358 10.82835,2.53091 56.04924,6.04661 56.04924,4.35756 0,-1.71074 -17.44006,-8.85138 -27.81993,-11.39057 -4.02596,-0.98485 -9.64874,-3.00834 -12.49506,-4.49665 -2.84633,-1.4883 -7.18703,-3.20651 -9.646,-3.81824 -4.04926,-1.00734 -4.55558,-1.47182 -5.36921,-4.92537 -0.69897,-2.96688 -1.26136,-3.66687 -2.53407,-3.15406 -0.89965,0.36249 -2.19823,0.88904 -2.88573,1.17012 -0.6875,0.28108 -1.25,0.068 -1.25,-0.47349 0,-2.02738 3.17078,-3.48937 8.34768,-3.84895 4.56832,-0.31731 7.21552,0.36787 18.24791,4.72312 37.52519,14.81382 55.59939,20.78503 63.17346,20.87073 1.92386,0.0218 2.17373,-0.35413 1.64248,-2.47081 -0.61182,-2.43766 -0.56191,-2.46293 2.11823,-1.07246 1.50965,0.78322 6.17054,1.74248 10.35753,2.13169 5.46183,0.50772 11.22901,2.08868 20.41209,5.59558 16.19646,6.18523 23.07277,7.79399 33.70062,7.88449 l 8.5,0.0724 -5.37824,2.4424 C 726.37406,242.25953 722.96334,243 718.87176,243 715.64229,243 713,243.42701 713,243.94892 c 0,0.5219 2.90835,2.33694 6.46299,4.03342 3.55465,1.69647 7.91563,4.30696 9.69107,5.80108 l 3.22808,2.71658 34.55893,0.77365 c 22.56926,0.50524 42.53841,0.38252 57.55893,-0.35373 l 23,-1.12738 7.2024,-4.64627 c 3.96132,-2.55545 11.09086,-7.11691 15.84343,-10.13659 4.75256,-3.01967 9.10043,-6.34871 9.66192,-7.39786 0.93896,-1.75447 0.75091,-1.84853 -2.34343,-1.17206 -1.85038,0.40452 -5.61432,0.81855 -8.36432,0.92007 -2.75,0.10153 -5.53484,0.52156 -6.18854,0.93341 -0.67878,0.42766 -1.56763,0.0714 -2.07243,-0.83061 -0.76995,-1.37582 -2.07582,-1.05492 -10.12973,2.48927 -12.39753,5.45563 -15.8809,6.30594 -27.6093,6.73956 -8.70652,0.3219 -10.42361,0.10701 -13.27493,-1.66133 -4.20991,-2.61092 -5.54458,-6.17977 -4.87296,-13.03013 0.47082,-4.80225 1.00678,-5.89454 4.22467,-8.60995 2.20202,-1.85816 3.25326,-3.37706 2.61171,-3.77356 -0.59056,-0.36498 -12.5696,-0.57305 -26.6201,-0.46236 -14.05049,0.11068 -25.78128,-0.0337 -26.06841,-0.32081 -0.28713,-0.28714 17.59541,-0.81826 39.73898,-1.18029 79.17178,-1.29437 97.34104,-1.67256 103.01104,-2.14414 5.15155,-0.42845 5.75,-0.28034 5.75,1.42311 0,1.04573 -0.50186,2.06862 -1.11524,2.27308 -0.76391,0.25464 -1.07388,5.24256 -0.98397,15.83333 0.0722,8.50388 -0.27451,18.65003 -0.77047,22.54702 -1.20652,9.48032 -5.37433,17.87003 -10.77415,21.68815 -3.66539,2.59173 -5.33952,3.02133 -14.5,3.72088 -5.69589,0.43498 -12.15617,1.27843 -14.35617,1.87434 -2.27071,0.61507 -13.29495,1.09665 -25.5,1.11393 -19.74988,0.028 -21.7442,0.19218 -24.5,2.01727 -3.45854,2.2905 -12.50027,2.92297 -10.72187,0.75 0.56266,-0.6875 1.18026,-3.95 1.37245,-7.25 l 0.34942,-6 -10,-0.62255 c -5.5,-0.3424 -20.87954,-0.97503 -34.17676,-1.40584 l -24.17676,-0.7833 -1.67007,5.74483 c -1.37907,4.74383 -2.20421,5.96943 -4.73557,7.03378 l -3.06551,1.28895 2.26763,1.2136 c 1.34034,0.71733 3.67368,0.94983 5.70605,0.56855 6.58233,-1.23485 7.35099,-0.36152 7.35099,8.35195 0,7.14665 0.35058,8.4755 4.46779,16.93476 2.45729,5.04876 4.22741,9.80599 3.93361,10.57162 -0.87123,2.27039 -29.30814,2.86559 -114.9014,2.40495 l -78,-0.41978 -8,-3.18615 c -4.4,-1.75239 -8.7875,-3.18824 -9.75,-3.19077 -2.05489,-0.005 -2.105,-0.8001 -0.65024,-10.31305 0.60487,-3.95535 1.77716,-7.95423 2.60508,-8.8864 1.07467,-1.20998 1.36258,-3.06953 1.00636,-6.5 -0.27443,-2.64283 0.23155,-11.02947 1.12439,-18.63698 1.53167,-13.05075 1.52568,-13.88649 -0.10612,-14.79969 C 544.77826,256.33616 544,255.11298 544,254.15031 544,252.06944 542.13392,250 540.25754,250 c -2.13788,0 -6.46202,10.34993 -10.76013,25.75463 C 527.31135,283.58958 525.19138,290 524.78638,290 c -0.40501,0 -0.53206,-1.2375 -0.28235,-2.75 0.24972,-1.5125 1.16329,-10.76915 2.03016,-20.57033 1.5546,-17.57697 1.54806,-17.87832 -0.47903,-22.06573 C 524.92482,242.27898 524,239.68543 524,238.85049 c 0,-1.33322 -4.75435,-5.00242 -13.0904,-10.10259 -1.42472,-0.87167 -4.34972,-2.0594 -6.5,-2.6394 -2.15028,-0.58 -7.89593,-3.99356 -12.76812,-7.5857 -6.37945,-4.7034 -10.79102,-7.11814 -15.76395,-8.62862 -8.53622,-2.5928 -9.87753,-2.1804 -9.87753,3.03692 0,2.19663 -0.90586,6.41499 -2.01301,9.37413 -1.66621,4.45334 -2.96335,6.03478 -7.52919,9.17939 -5.35634,3.68906 -5.70387,3.78161 -11.99409,3.19422 -5.00174,-0.46707 -7.26753,-1.23496 -9.94296,-3.36973 -5.13997,-4.10128 -2.9506,-5.33607 4.59111,-2.58936 l 6.03401,2.1976 5.17706,-1.96328 c 2.84739,-1.0798 5.71226,-2.30838 6.36638,-2.73018 1.65858,-1.0695 7.31069,-13.93077 7.31069,-16.63532 0,-3.8163 -5.96697,-10.50259 -10.44998,-11.70974 -4.39642,-1.18383 -17.44012,-0.34166 -21.19318,1.36835 -2.24096,1.02105 -9.92136,10.10598 -12.2051,14.43708 -0.63346,1.20134 -1.16769,5.02634 -1.18718,8.5 -0.0422,7.52189 -2.3186,11.89821 -10.52146,20.22721 -1.52872,1.55222 -2.11075,3.57246 -2.26661,7.86737 -0.18031,4.96866 0.13674,6.1253 2.26144,8.25 1.35914,1.35914 3.14544,2.47116 3.96956,2.47116 3.1041,0 6.54999,-2.39062 8.07342,-5.60102 1.45122,-3.05821 1.4393,-3.62666 -0.14907,-7.11144 -0.94951,-2.08315 -1.87511,-4.05006 -2.0569,-4.37092 C 417.34847,242.28139 427.21873,241 440.74102,241 H 455.75 l 0.54851,2.75 c 0.30168,1.5125 0.87178,5.61309 1.26689,9.11242 0.69732,6.17597 0.6556,6.34447 -1.42351,5.75 -1.17804,-0.33683 -3.02489,-0.86235 -4.10412,-1.16782 -1.07922,-0.30547 -2.94506,-0.0294 -4.14631,0.61349 -2.01797,1.07998 -2.12781,0.98913 -1.44428,-1.1946 1.76027,-5.62367 1.68166,-7.42998 -0.44079,-10.12824 C 444.42566,244.72568 442.96448,244 440.49885,244 c -5.51687,0 -8.87593,4.90149 -7.81968,11.41036 0.80488,4.95994 -1.35085,7.81956 -7.04235,9.3418 -3.62782,0.9703 -4.63682,1.69176 -4.63682,3.31543 0,1.88661 -0.14286,1.93241 -1.57143,0.50384 -1.76768,-1.76769 -5.1197,-2.01956 -8.71012,-0.65449 -3.08977,1.17473 -5.72615,6.69798 -4.99473,10.46405 0.39874,2.05317 0.0878,3.14498 -1.0821,3.79969 C 403.73873,282.68597 403,283.97702 403,285.04969 403,286.12236 402.58851,287 402.08557,287 c -0.50294,0 -4.92666,-4.275 -9.8305,-9.5 -4.90384,-5.225 -9.62043,-9.5 -10.48132,-9.5 -2.17981,0 -7.19244,8.23877 -9.73472,16 -1.17103,3.575 -2.55109,11.22241 -3.0668,16.99424 -0.51571,5.77183 -1.30344,10.61616 -1.7505,10.76518 -0.44706,0.14902 -0.62194,4.63565 -0.38862,9.97028 0.61296,14.01482 1.43072,14.91603 14.36716,15.83318 8.60385,0.60998 10.11531,0.98912 11.32931,2.84192 0.7705,1.17593 3.47896,2.75162 6.01882,3.50155 4.99984,1.47628 6.39453,3.25256 4.42097,5.63055 -0.6899,0.83129 -1.00294,1.76287 -0.69563,2.07017 0.30731,0.30731 4.52293,0.75794 9.36806,1.00139 9.20119,0.46234 12.68899,1.76844 7.91925,2.96557 -5.63268,1.41372 -13.58689,-0.29105 -28.69748,-6.15051 -8.19805,-3.17898 -8.95943,-3.29741 -15,-2.33309 -7.36551,1.17583 -8.98022,2.39955 -9.20249,6.97419 -0.14034,2.88853 0.3539,3.61065 3.83892,5.60892 4.04729,2.32067 8.5,3.07158 8.5,1.43345 0,-0.49116 0.675,-1.15203 1.5,-1.46862 2.24594,-0.86184 1.81505,0.83377 -1.08889,4.2849 -1.96787,2.33868 -3.41487,3.07673 -6.03212,3.07673 -1.89378,0 -5.01696,0.65755 -6.94041,1.46121 l -3.49718,1.46122 0.65813,-4.96122 c 0.6709,-5.05745 0.34618,-5.53152 -3.43581,-5.01604 -0.73496,0.10017 -3.56821,1.78561 -6.29612,3.74542 l -4.95983,3.56328 0.29611,5.51956 c 0.21628,4.03131 0.78341,5.81709 2.10335,6.62306 1.52401,0.93057 2.38596,0.43503 5.5,-3.16197 2.03102,-2.34602 4.03027,-4.25852 4.44277,-4.25 0.4125,0.009 0.75,1.35344 0.75,2.98873 0,1.63529 0.97353,4.97706 2.16339,7.42616 2.08866,4.29909 2.10249,4.54585 0.40043,7.14353 l -1.76295,2.69061 -1.1653,-2.36677 C 360.99465,388.56505 358.31401,386.375 355.67858,385 l -4.79169,-2.5 -2.5095,3 c -5.51241,6.58984 -15.34597,23.08733 -15.36143,25.77144 -0.0116,2.01072 -0.73468,3.09891 -2.63438,3.96447 C 326.70259,416.91217 316,433.066 316,436.94259 c 0,2.34293 -0.53123,3.15264 -2.37137,3.61448 -3.02378,0.75892 -14.1117,16.74168 -13.22231,19.05939 0.33579,0.87508 1.16925,1.38701 1.85211,1.13764 0.68286,-0.24938 5.96657,-1.90781 11.74157,-3.68541 5.775,-1.7776 13.425,-4.17041 17,-5.31735 7.34407,-2.35615 22.34994,-2.58236 273,-4.11533 65.725,-0.40198 126.925,-1.18053 136,-1.73011 20.95834,-1.26924 74.94096,-4.02824 90,-4.59982 6.325,-0.24007 16.45,0.0279 22.5,0.5954 6.05,0.56754 22.475,2.14009 36.5,3.49454 14.025,1.35446 29.1,2.77279 33.5,3.15186 4.4,0.37906 12.95,1.56746 19,2.64088 6.05,1.07342 15.95,2.35369 22,2.84505 10.97408,0.89129 23.21055,3.74616 26.34534,6.14659 4.67651,3.58099 8.67523,7.59677 8.84086,8.87857 0.10241,0.79257 -2.48509,3.64576 -5.75,6.34043 -3.26491,2.69468 -5.9362,5.6439 -5.9362,6.55384 0,1.76616 -5.16915,7.12669 -8.52682,8.84251 -1.11475,0.56965 -5.38975,1.50495 -9.5,2.07845 -7.51895,1.04911 -20.38894,3.98734 -37.97318,8.66932 -5.225,1.3912 -13.1,3.18743 -17.5,3.9916 -10.19912,1.86407 -36.61304,1.86991 -54,0.0119 -7.15,-0.76405 -17.95,-1.92281 -24,-2.57502 -11.69041,-1.26027 -28.83511,-0.84374 -42,1.02039 -10.27598,1.45506 -117.26603,0.70461 -129.31619,-0.90705 -7.65153,-1.02336 -11.00702,-2.27559 -18.38021,-6.8593 -2.62428,-1.63145 -2.98533,-1.55659 -13.5,2.79883 L 621.5,503.5 l -50,0.32447 c -41.34917,0.26834 -53.13501,0.0281 -68.11971,-1.38824 -16.22444,-1.53357 -18.42097,-1.55486 -21,-0.20356 -9.08433,4.7598 -11.34204,5.71455 -15.88029,6.71554 -2.94856,0.65035 -12.79546,0.99489 -24,0.83976 -18.27955,-0.2531 -19.28439,-0.16359 -26.5,2.36076 -8.55403,2.99259 -16.77271,4.60632 -47.60962,9.34811 -48.1871,7.40973 -56.29925,8.88378 -66.39038,12.06376 -24.5364,7.73206 -23.63609,7.65264 -91,8.02826 -47.2701,0.26357 -61.52651,0.0543 -65.1942,-0.957 z m 138.71766,-18.29035 c -0.76858,-6.15153 -3.26238,-12.35059 -4.95867,-12.3262 -0.58564,0.008 -1.69106,0.41189 -2.4565,0.8966 C 273.61287,513.12535 278.9277,528 283.214,528 c 1.86765,0 1.96428,-0.41754 1.30946,-5.65849 z M 898.8851,505.09217 c 1.11096,-0.70358 0.97552,-1.09639 -0.68426,-1.98468 -2.64177,-1.41384 -4.89451,-1.41215 -5.76994,0.004 -1.3627,2.20489 3.66419,3.74732 6.4542,1.98037 z M 305.5,497.61532 c 6.05,-0.88382 17.525,-2.55066 25.5,-3.70408 16.32462,-2.36104 22,-3.60497 22,-4.82198 0,-1.52484 -7.93699,-2.1338 -26.31172,-2.01876 -13.15495,0.0824 -19.84869,-0.30092 -24.18828,-1.38503 -3.3,-0.8244 -8.58638,-1.79813 -11.74751,-2.16384 -5.6272,-0.651 -5.77062,-0.60585 -6.8512,2.15672 -1.81273,4.63435 -2.20432,9.88692 -0.91648,12.29327 1.37717,2.57326 2.59329,2.55402 22.51519,-0.3563 z m 295.50037,-6.01121 c 8.21765,-1.76486 10.17796,-2.5678 9.7103,-3.97732 -0.50436,-1.52011 -23.02158,-2.06595 -25.71701,-0.6234 -2.65407,1.42042 -2.52885,3.84594 0.25634,4.96545 3.30611,1.32889 8.41533,1.21058 15.75037,-0.36473 z M 209.36163,484.5 c -0.31659,-0.825 -1.21659,-1.5 -2,-1.5 -2.53627,0 -2.70613,-3.00439 -0.31383,-5.55088 2.74031,-2.91693 6.96382,-3.19875 9.29721,-0.62038 2.25975,2.49699 2.07801,4.42522 -0.65946,6.99695 -2.68671,2.52403 -5.49905,2.82391 -6.32392,0.67431 z M 364,400.09878 c 0,-1.15669 6.95055,-5.28193 8.19853,-4.86594 1.8393,0.6131 -3.3183,5.76716 -5.77111,5.76716 C 365.09234,401 364,400.59445 364,400.09878 Z M 533.69502,353.05823 C 533.99106,351.9262 534.88877,351 535.68996,351 c 1.99924,0 1.21882,3.39389 -0.87305,3.79674 -1.23787,0.2384 -1.52322,-0.2038 -1.12189,-1.73851 z M 288.04616,289.55562 c -2.70069,-3.25413 1.76872,-7.16931 4.76443,-4.1736 1.27355,1.27355 1.40397,2.05494 0.56528,3.38674 -1.46016,2.31867 -3.77482,2.66039 -5.32971,0.78686 z m 16.26331,-0.19154 c -0.90925,-2.36947 1.03236,-4.86408 3.78582,-4.86408 2.72109,0 3.74779,2.77923 1.86484,5.04804 -1.61729,1.94872 -4.87295,1.84272 -5.65066,-0.18396 z M 288.25,273.33772 c -1.82205,-0.73521 -1.53026,-5.29294 0.38592,-6.02825 1.74117,-0.66815 4.51178,0.63364 5.0992,2.3959 0.36864,1.10591 -2.37125,4.35358 -3.55655,4.21568 -0.37321,-0.0434 -1.24107,-0.30592 -1.92857,-0.58333 z m 16.78987,-0.78968 C 302.95751,270.03895 304.19486,267.5 307.5,267.5 c 3.56259,0 4.72172,3.13349 1.91761,5.1839 -2.28513,1.67093 -2.89392,1.65204 -4.37774,-0.13586 z m 25.57504,-7.59385 c -3.1568,-3.75164 -3.17201,-3.97624 -0.49928,-7.37407 1.62278,-2.06302 2.83246,-2.6186 5.19262,-2.38485 2.95266,0.29242 3.0804,0.49872 3.16164,5.10609 0.0975,5.52678 -0.19117,6.18628 -3.10498,7.09478 -1.62459,0.50652 -2.76032,-0.0774 -4.75,-2.44195 z M 305.2,255.8 c -2.98558,-2.98558 0.32571,-7.65938 4.02418,-5.68002 C 312.17201,251.69761 310.8432,257 307.5,257 c -0.605,0 -1.64,-0.54 -2.3,-1.2 z m -17.83837,-1.3 c -0.95038,-2.47663 0.4201,-4.5 3.04797,-4.5 2.94837,0 3.948,1.29794 3.08756,4.00895 -0.75649,2.38347 -5.2707,2.74476 -6.13553,0.49105 z m -54.23342,-13.56508 c -2.95027,-2.69833 -6.99855,-5.3987 -8.99617,-6.00082 -1.99762,-0.60212 -12.07656,-1.62112 -22.39763,-2.26443 -10.32108,-0.64332 -18.7833,-1.54984 -18.80495,-2.01448 -0.0504,-1.08108 37.19197,-22.69817 38.1184,-22.12561 0.3816,0.23584 0.97511,1.83528 1.31892,3.55431 0.67246,3.36229 6.78463,9.60569 14.77483,15.09204 2.55289,1.75289 5.39083,4.45541 6.30654,6.00558 1.57466,2.66569 1.56699,2.81816 -0.14161,2.81233 -0.9936,-0.003 -3.09548,-0.67839 -4.67085,-1.5 -1.57537,-0.82161 -3.71287,-1.49384 -4.75,-1.49384 -2.0043,0 -2.5908,2.44618 -0.84517,3.52504 1.25645,0.77653 6.2389,8.52888 5.77784,8.98993 -0.1793,0.1793 -2.73987,-1.88172 -5.69015,-4.58005 z m 89.44124,-2.50833 c -1.95904,-1.95904 -1.99971,-3.82462 -0.11744,-5.38676 2.20588,-1.83072 5.54799,-0.32931 5.54799,2.49237 0,3.25531 -3.30704,5.0179 -5.43055,2.89439 z m -34.90278,-0.0933 c -1.51322,-1.51321 -0.60076,-5.21947 1.44484,-5.86872 2.81295,-0.8928 5.31668,1.61093 4.42388,4.42388 -0.64925,2.0456 -4.35551,2.95806 -5.86872,1.44484 z m 16.6428,-0.96925 C 303.48222,235.2083 305.2587,232.5 307.5,232.5 c 0.98011,0 2.24019,0.72633 2.80016,1.61408 1.52773,2.42194 0.1156,4.88592 -2.80016,4.88592 -1.45016,0 -2.83531,-0.71022 -3.19053,-1.63592 z m -33.92543,-16.80567 c -1.06518,-2.77582 0.0723,-5.05841 2.52067,-5.05841 3.15441,0 4.9413,2.77569 3.16486,4.91618 -1.64171,1.97813 -4.94928,2.06088 -5.68553,0.14223 z m 17.28263,0.77492 c -1.05008,-1.05007 -0.77771,-5.14667 0.39017,-5.86846 1.8581,-1.14837 5.94316,0.46979 5.94316,2.35418 0,3.18727 -4.28349,5.56412 -6.33333,3.51428 z M 304.36163,220.5 c -1.40923,-3.67237 2.65128,-6.91566 5.31869,-4.24825 2.22293,2.22293 0.82519,5.74825 -2.27909,5.74825 -1.3552,0 -2.72302,-0.675 -3.0396,-1.5 z m 17.60885,-0.0356 c -1.81696,-2.1893 -0.0625,-4.96443 3.13851,-4.96443 1.99001,0 2.39101,0.50313 2.39101,3 0,2.28 -0.501,3.07158 -2.08751,3.29826 -1.14812,0.16404 -2.69703,-0.43618 -3.44201,-1.33383 z m 217.42509,-0.94015 c -4.76269,-2.00256 -7.68644,-6.34444 -7.02343,-10.43007 1.26289,-7.78231 9.85044,-12.10818 18.77525,-9.4578 5.52486,1.64071 6.8973,3.55174 4.47389,6.22958 -0.8917,0.98532 -1.62128,2.90937 -1.62128,4.27566 0,2.72818 -3.73728,6.74231 -8.51962,9.15073 -2.53943,1.27888 -3.50706,1.31576 -6.08481,0.2319 z m -96.43075,-2.45854 c 2.51122,-4.69226 -0.17746,-10.68295 -3.7759,-8.41311 -0.90389,0.57016 -1.98508,2.11906 -2.40264,3.44201 -0.54565,1.72872 -0.62152,1.42079 -0.26974,-1.09464 0.90218,-6.45093 7.48691,-9.60926 13.35597,-6.4061 3.81574,2.08252 5.23213,4.4061 2.68582,4.4061 -0.97859,0 -1.83784,1.14753 -2.19448,2.93074 -0.73582,3.67913 -3.82322,7.06926 -6.43799,7.06926 -1.66373,0 -1.82381,-0.32217 -0.96104,-1.93426 z M 193.2,207.8 c -0.66,-0.66 -1.2,-1.92 -1.2,-2.8 0,-1.55494 1.81712,-4 2.97273,-4 0.315,0 0.57272,1.8 0.57272,4 0,4.23895 -0.41321,4.73224 -2.34545,2.8 z M 843.83202,200 c -8.61739,-0.275 -16.00489,-0.8375 -16.41667,-1.25 -0.41177,-0.4125 0.33882,-0.75689 1.66798,-0.76531 1.32917,-0.008 3.02721,-0.40217 3.77343,-0.875 1.14235,-0.72383 1.14235,-0.99467 0,-1.71383 -1.54508,-0.97269 -8.53024,-1.22113 -46.04239,-1.63756 -14.6771,-0.16293 -27.0146,-0.6252 -27.41667,-1.02727 -0.40207,-0.40207 5.75647,-0.76094 13.68563,-0.79749 7.92917,-0.0366 26.11667,-0.29651 40.41667,-0.5777 14.3,-0.28119 41.44138,-0.58878 60.31417,-0.68355 L 908.12833,190.5 907.51085,194 c -1.24086,7.03338 0.79003,6.5 -24.74917,6.5 -12.79393,0 -30.31227,-0.225 -38.92966,-0.5 z M 839,196.61663 c 0,-0.21085 -0.9,-0.61872 -2,-0.90638 -1.1,-0.28766 -2,-0.11514 -2,0.38337 0,0.49851 0.9,0.90638 2,0.90638 1.1,0 2,-0.17252 2,-0.38337 z m -17.25,1.72109 c 0.6875,-0.27741 1.8125,-0.27741 2.5,0 0.6875,0.27741 0.125,0.50439 -1.25,0.50439 -1.375,0 -1.9375,-0.22698 -1.25,-0.50439 z m 19.79169,-20.08402 c -7.20643,-0.36722 -9.78868,-1.44648 -8.91408,-3.72566 0.27981,-0.72916 0.0382,-1.61652 -0.5368,-1.97192 -0.57505,-0.3554 -17.25573,-0.65826 -37.06818,-0.67303 C 775.21018,171.86832 759,171.50005 759,171.06472 c 0,-1.6289 147.11562,-3.28243 148.72642,-1.67163 0.23299,0.23299 0.11376,2.48985 -0.26495,5.01526 L 906.77291,179 877.63646,178.80414 c -16.02505,-0.10772 -32.2677,-0.35542 -36.09477,-0.55044 z m -602.18167,-9.4802 c -0.26293,-0.42542 6.861,-0.78528 15.83096,-0.79967 8.96996,-0.0144 22.15902,-0.23632 29.30902,-0.49317 7.15,-0.25686 55.075,-0.91809 106.5,-1.46941 51.425,-0.55132 102.6125,-1.27271 113.75,-1.6031 17.74258,-0.52631 20.25,-0.41188 20.25,0.92415 0,0.83866 -0.74616,2.27101 -1.65814,3.18298 -1.53149,1.53149 -12.42199,1.63422 -142.58096,1.34493 -77.50756,-0.17226 -141.13795,-0.66128 -141.40088,-1.08671 z M 225.75,168.33772 c 0.6875,-0.27741 1.8125,-0.27741 2.5,0 0.6875,0.27741 0.125,0.50439 -1.25,0.50439 -1.375,0 -1.9375,-0.22698 -1.25,-0.50439 z m 456.28896,-4.52628 c -2.29458,-2.46294 -2.6924,-7.55575 -0.78896,-10.1 0.6875,-0.91895 2.75273,-2.77014 4.5894,-4.11375 4.01325,-2.93589 9.65455,-2.58126 12.38836,0.77878 2.32734,2.86044 2.20606,3.62353 -0.57589,3.62353 -1.77917,0 -2.79311,0.98681 -4.18463,4.07266 -1.88163,4.17269 -5.70059,7.92734 -8.06314,7.92734 -0.72941,0 -2.24372,-0.98485 -3.36514,-2.18856 z M 851,158.30454 c -2.475,-0.19033 -8.8287,-1.01171 -14.11933,-1.8253 C 831.59004,155.66566 825.43951,155 823.21283,155 c -2.27906,0 -6.16045,-1.05518 -8.88067,-2.41426 -12.11086,-6.05088 -16.69204,-7.62491 -21.75159,-7.47357 -2.79431,0.0836 -8.38283,-0.83835 -12.41893,-2.04875 -6.84233,-2.05198 -7.65344,-2.10046 -12,-0.71713 -15.30843,4.87202 -18.24677,5.6571 -21.29291,5.68915 -1.8528,0.0195 -4.49373,0.67854 -5.86873,1.46456 -3.31885,1.89723 -7.51571,1.86342 -10.48859,-0.0845 -1.33003,-0.87147 -5.0267,-2.18338 -8.21482,-2.91535 -17.29911,-3.97178 -22.25368,-5.42162 -26.78863,-7.83906 C 692.76233,137.1975 689.79186,136 688.9069,136 c -0.88496,0 -3.7101,-1.11715 -6.27808,-2.48256 -4.02166,-2.13834 -5.49019,-2.39674 -10.59099,-1.86361 -5.68844,0.59456 -5.8999,0.53474 -5.36325,-1.51743 0.66719,-2.55132 0.17169,-2.62539 -3.80529,-0.56881 -1.94085,1.00366 -2.83052,2.09106 -2.47302,3.02268 C 661.06973,134.3453 657.65679,138 655.34439,138 653.3257,138 647,133.31606 647,131.8213 c 0,-0.69634 1.41358,-0.85088 4,-0.43729 2.37282,0.37943 4,0.24234 4,-0.33701 0,-1.3736 -3.42383,-3.047 -6.23426,-3.047 -1.30116,0 -2.79324,-0.41877 -3.31574,-0.93059 -0.5225,-0.51183 -5.45,-2.49226 -10.95,-4.40097 -5.5,-1.9087 -15.4,-6.20067 -22,-9.53769 -14.2557,-7.20782 -14.58681,-7.12985 15.54605,-3.66102 63.699,7.33288 76.5796,8.00616 125.95395,6.58373 15.26218,-0.43969 15.50481,-0.41353 15.81372,1.70549 0.24826,1.70305 -0.85181,2.80982 -5.27279,5.30486 -5.39193,3.04302 -8.15238,5.99141 -6.83908,7.30471 1.4848,1.48479 97.07003,-0.7907 98.66065,-2.3487 0.48301,-0.47312 0.44436,-2.09327 -0.0879,-3.68232 -0.81597,-2.43628 -1.50353,-2.85477 -4.8625,-2.95965 -2.15168,-0.0672 -5.63325,-0.46107 -7.73684,-0.87531 -5.71104,-1.1246 -2.95703,-2.90667 4.68132,-3.02918 7.55766,-0.12122 12.64338,-1.95677 12.64338,-4.5633 0,-1.23119 -0.50027,-1.65532 -1.5,-1.27169 -1.29538,0.49709 -1.5,-1.63953 -1.5,-15.66305 V 79.736662 l 4.25,0.735436 c 2.3375,0.40449 6.275,0.803891 8.75,0.887558 5.32345,0.179958 7,1.065983 7,3.699361 C 878,86.126558 878.45,87 879,87 c 0.55,0 1,-0.9 1,-2 0,-1.518864 0.66156,-1.996316 2.75,-1.984687 3.39368,0.0189 4.90898,0.944094 5.38432,3.287508 0.49595,2.445043 2.38691,2.118189 2.28086,-0.394248 -0.0671,-1.588453 0.45681,-1.946576 2.5,-1.709057 L 895.5,84.5 l 0.27237,19.47237 c 0.15324,10.95553 0.69997,19.89997 1.25,20.45 0.5377,0.5377 0.97763,3.83604 0.97763,7.32965 0,6.07053 -0.12512,6.39564 -2.82358,7.33632 -3.15382,1.09943 -6.16649,6.69377 -6.19173,11.49768 -0.008,1.60269 -0.34801,3.43689 -0.75464,4.07599 -0.70936,1.11492 -25.64985,4.5269 -30.43223,4.16328 -1.2638,-0.0961 -4.32282,-0.33043 -6.79782,-0.52075 z M 677.69664,126.3633 c -0.66995,-0.66995 -7.62204,0.94839 -7.1758,1.67042 0.26462,0.42816 2.0553,0.29535 3.97929,-0.29514 1.92399,-0.59049 3.36242,-1.20937 3.19651,-1.37528 z M 693.5,123 c -0.33992,-0.55 -1.04148,-1 -1.55902,-1 -0.51754,0 -0.94098,0.45 -0.94098,1 0,0.55 0.70156,1 1.55902,1 0.85746,0 1.2809,-0.45 0.94098,-1 z m 7,0 c -0.33992,-0.55 -1.04148,-1 -1.55902,-1 -0.51754,0 -0.94098,0.45 -0.94098,1 0,0.55 0.70156,1 1.55902,1 0.85746,0 1.2809,-0.45 0.94098,-1 z m 190.17124,-6.5625 c 0.16294,-0.51562 -0.1277,-1.60874 -0.64586,-2.42914 -1.26195,-1.99807 -3.33622,0.018 -2.43496,2.36669 0.66594,1.73539 2.54018,1.77338 3.08082,0.0624 z m -20.11739,-1.52463 c 1.03052,-1.66742 -1.28721,-3.57951 -2.66672,-2.2 C 866.73321,113.86679 867.45541,116 869,116 c 0.48508,0 1.18431,-0.48921 1.55385,-1.08713 z M 879.98469,99.25 C 879.97432,91.294201 879.65635,87.984366 879,89 c -1.7899,2.769672 -1.20716,22 0.66667,22 0.18333,0 0.32644,-5.2875 0.31802,-11.75 z m -545.53766,43.69146 c -2.32041,-2.56402 -0.91277,-5.44146 2.66196,-5.44146 2.7486,0 3.8557,3.6327 1.84533,6.05504 -1.59596,1.92302 -2.29822,1.82742 -4.50729,-0.61358 z M 910.72255,116.66821 C 910.32515,115.66073 910,112.62323 910,109.91821 910,106.21313 910.36999,105 911.5,105 c 1.60702,0 1.87771,4.70385 0.60424,10.5 -0.54685,2.48897 -0.78221,2.68797 -1.38169,1.16821 z M 770.15789,111 c 0,-1.375 0.22698,-1.9375 0.50439,-1.25 0.27741,0.6875 0.27741,1.8125 0,2.5 -0.27741,0.6875 -0.50439,0.125 -0.50439,-1.25 z m -345.82921,-2 c -5.04423,-0.275 -9.51917,-0.84994 -9.94431,-1.27764 -0.42514,-0.42771 1.00195,-2.21728 3.17132,-3.97683 2.16937,-1.75956 6.46,-5.572119 9.53472,-8.472361 L 432.68083,90 h 63.74292 c 50.54627,0 63.65806,0.258787 63.33304,1.25 -0.22544,0.6875 -4.78145,4.9625 -10.12447,9.5 l -9.71458,8.25 -26.20887,0.0247 c -14.41488,0.0136 -38.35887,0.12607 -53.20887,0.25 -14.85,0.1239 -31.12709,3e-4 -36.17132,-0.2747 z M 714.95041,90.440253 c -4.38227,-5.280318 8.19721,-13.107534 15.11533,-9.405069 C 733.66293,82.96034 731.68074,91 727.60891,91 726.92238,91 725.3825,89.875 724.18695,88.5 721.06316,84.907329 718,85.154879 718,89 c 0,3.313807 -1.07379,3.820937 -3.04959,1.440253 z M 56.113216,63.069972 C 55.089352,62.437188 55.048714,61.777494 55.931939,60.127174 57.339455,57.497206 60,57.333954 60,59.877555 c 0,2.436061 -2.194353,4.238396 -3.886784,3.192417 z M 616.37011,46.522119 C 615.60584,44.530455 617.70554,42 620.12244,42 c 2.67921,0 2.31982,2.480198 -0.64045,4.419844 -2.25095,1.474878 -2.581,1.485725 -3.11188,0.102275 z M 240.24377,45.335642 C 237.644,44.287516 240.29839,43 245.05902,43 248.78434,43 250,43.369056 250,44.5 c 0,1.110423 -1.1038,1.479496 -4.25,1.421053 -2.3375,-0.04342 -4.8153,-0.306856 -5.50623,-0.585411 z m 33.46995,0.04475 C 272.03335,43.700014 273.31834,43 278.08333,43 c 3.61923,0 4.96494,0.360026 4.67228,1.25 -0.44736,1.360416 -7.88236,2.289916 -9.04189,1.130388 z m 33.00783,0.0078 C 305.08726,43.753922 306.24059,43 310.375,43 c 5.31504,0 10.73914,1.006294 10.19241,1.890923 -0.56893,0.920561 -12.97694,1.366214 -13.84586,0.497296 z M 339.5,45.066707 c -1.87473,-0.785082 -1.83926,-0.879939 0.56627,-1.514419 3.59857,-0.949156 12.48297,-0.258734 12.19523,0.947712 -0.29976,1.256884 -10.07663,1.691051 -12.7615,0.566707 z M 294.5,28 l -78,-0.5 v -3.985864 -3.985864 l 178.25,-0.01414 C 492.7875,19.506361 572.99749,19.725 572.99442,20 c -0.003,0.275 -0.47422,2.1875 -1.047,4.25 L 570.90599,28 541.203,28.0419 C 524.86635,28.06494 480.225,28.177442 442,28.2919 403.775,28.406353 337.4,28.275 294.5,28 Z"
     style="fill:#929292" />
  <path
     inkscape:connector-curvature="0"
     id="path3186"
     d="m 575.83459,321.91983 c -17.05238,-0.7472 -17.93729,-0.89151 -25.5,-4.15855 l -7.83459,-3.38449 0.3654,-5.9384 c 0.20097,-3.26611 1.16903,-7.97979 2.15123,-10.47484 1.19613,-3.03844 1.61765,-6.0286 1.27651,-9.05517 -0.51074,-4.53129 1.89441,-26.51177 3.81498,-34.86484 0.56356,-2.45105 2.67887,-6.70996 4.7007,-9.46424 2.71445,-3.69782 3.80882,-6.3223 4.18362,-10.033 l 0.50756,-5.02521 5.44072,-0.77977 c 3.4397,-0.49298 10.24376,-0.2337 18.5,0.70497 7.18261,0.8166 30.60928,3.09757 52.05928,5.06882 67.68538,6.22026 62.09572,5.35411 77,11.93168 14.55727,6.42443 17.05099,8.33568 20.9621,16.06585 2.27058,4.48772 2.60972,6.11673 2.01751,9.69094 -1.01356,6.11727 -2.1437,7.79413 -5.26479,7.81173 -1.49315,0.008 -3.38982,0.44215 -4.21482,0.96384 -1.31064,0.82878 -1.27691,1.17167 0.26715,2.71612 1.28171,1.28204 3.789,1.8697 9.12748,2.13928 l 7.36034,0.37168 0.4661,7.64688 c 0.38753,6.35797 1.1786,9.14353 4.69326,16.52614 3.02903,6.36253 3.92081,9.18561 3.14628,9.96014 -0.63373,0.63373 -8.41999,1.37745 -18.82076,1.79772 -23.10282,0.93352 -133.6467,0.77996 -156.40526,-0.21728 z M 682.44295,161.55328 c -1.3808,-2.10738 -1.41681,-2.83552 -0.25958,-5.25 1.70948,-3.56671 4.77403,-3.63335 6.73122,-0.14638 3.19776,5.6972 -2.92778,10.80499 -6.47164,5.39638 z"
     style="fill:#c6304a" />
  <path
     inkscape:connector-curvature="0"
     id="path3184"
     d="m 709.20826,321.39725 c -0.90038,-0.41246 -0.98252,-0.96433 -0.27111,-1.82152 0.94456,-1.13812 -1.5616,-12.54103 -3.41562,-15.5409 C 705.09451,303.34391 688.15958,303 654.56343,303 c -44.09123,0 -50.47673,-0.19061 -51.59679,-1.54019 -0.93295,-1.12414 -1.34389,-7.38832 -1.52127,-23.18944 -0.2188,-19.49149 -0.42166,-21.77987 -2.03533,-22.95981 -4.19005,-3.06384 -6.49366,-1.37057 -9.26991,6.81384 l -1.82347,5.3756 -5.77298,0.88054 c -4.61741,0.70428 -6.45741,0.55416 -9.19226,-0.75 -7.06783,-3.37042 -6.99147,-3.5245 -7.24554,14.61946 -0.12515,8.9375 -0.53768,16.55287 -0.91672,16.92305 -0.37904,0.37018 -2.01215,0.82018 -3.62914,1 -2.63353,0.29287 -3.25285,1.10202 -5.94178,7.76302 -1.80249,4.46512 -2.58231,7.57591 -1.95183,7.78607 2.01664,0.67221 4.82568,3.11911 4.24609,3.69869 -0.60207,0.60207 -10.14569,-2.40489 -13.74287,-4.33005 -1.78833,-0.95708 -1.95908,-1.7586 -1.45654,-6.83748 0.31309,-3.16431 1.36129,-7.7947 2.32932,-10.28975 1.16855,-3.01188 1.58889,-6.05506 1.25073,-9.05517 -0.51074,-4.53129 1.89441,-26.51177 3.81498,-34.86484 0.56356,-2.45105 2.67887,-6.70996 4.7007,-9.46424 2.71445,-3.69782 3.80882,-6.3223 4.18362,-10.033 l 0.50756,-5.02521 5.44072,-0.77977 c 3.4397,-0.49298 10.24376,-0.2337 18.5,0.70497 7.18261,0.8166 30.60928,3.09757 52.05928,5.06882 67.68538,6.22026 62.09572,5.35411 77,11.93168 14.55727,6.42443 17.05099,8.33568 20.9621,16.06585 2.27058,4.48772 2.60972,6.11673 2.01751,9.69094 -1.01356,6.11727 -2.1437,7.79413 -5.26479,7.81173 -1.49315,0.008 -3.38982,0.44215 -4.21482,0.96384 -1.31064,0.82878 -1.27691,1.17167 0.26715,2.71612 1.28269,1.28302 3.7908,1.86979 9.14884,2.14035 l 7.3817,0.37276 0.40399,7.64581 c 0.3414,6.46148 1.05893,9.00819 4.63219,16.44108 2.32552,4.83739 3.96284,9.22465 3.63849,9.74946 -0.32435,0.5248 -3.15082,0.86201 -6.28104,0.74936 -3.13023,-0.11266 -12.21632,0.11011 -20.19132,0.49504 -7.975,0.38492 -15.08128,0.43358 -15.79174,0.10812 z M 659.25,320.31067 c 0.9625,-0.25152 2.5375,-0.25152 3.5,0 0.9625,0.25153 0.175,0.45733 -1.75,0.45733 -1.925,0 -2.7125,-0.2058 -1.75,-0.45733 z m 31.5,-0.0164 c 1.2375,-0.23836 3.2625,-0.23836 4.5,0 1.2375,0.23835 0.225,0.43337 -2.25,0.43337 -2.475,0 -3.4875,-0.19502 -2.25,-0.43337 z m -8.30705,-158.74099 c -1.3808,-2.10738 -1.41681,-2.83552 -0.25958,-5.25 1.70948,-3.56671 4.77403,-3.63335 6.73122,-0.14638 3.19776,5.6972 -2.92778,10.80499 -6.47164,5.39638 z"
     style="fill:#b32a42" />
  <path
     inkscape:connector-curvature="0"
     id="path3182"
     d="m 749,319.09461 c 0,-0.49796 -1.4625,-2.6959 -3.25,-4.8843 -1.7875,-2.18841 -4.01444,-5.37727 -4.94875,-7.08636 -1.72978,-3.1642 -5.14161,-5.08332 -12.30125,-6.91933 C 718.40622,297.61618 708,290.81304 708,286.80261 708,284.30793 702.74331,279 700.2727,279 c -2.94482,0 -11.09729,-5.63213 -18.76511,-12.96386 -7.4323,-7.10654 -8.96397,-7.91184 -20.00759,-10.51936 -6.62411,-1.56403 -11.4404,-2.72406 -23,-5.5397 -10.01882,-2.44034 -13.57445,-2.89765 -23.69151,-3.04707 -5.66967,-0.0837 -11.11763,-0.57966 -12.10657,-1.10205 -2.45796,-1.29836 -11.85566,0.73497 -14.41435,3.11876 -1.10102,1.02575 -2.29418,3.69316 -2.65148,5.92758 -0.40356,2.52375 -1.38326,4.45521 -2.58644,5.09913 -2.65156,1.41907 -8.95715,1.49127 -12.36475,0.14158 -4.92651,-1.9513 -5.67061,-1.42761 -9.38049,6.60194 -3.24419,7.02164 -3.60621,8.71105 -4.01789,18.75 -0.4948,12.06605 -1.10383,14.95865 -5.10704,24.25617 -2.77165,6.43717 -4.26382,7.39813 -7.64674,4.92448 -1.60107,-1.17073 -1.76573,-2.24959 -1.22582,-8.03143 0.34304,-3.67346 1.31431,-7.66501 2.15839,-8.8701 1.09916,-1.56928 1.53469,-4.70472 1.53469,-11.04851 0,-9.60244 2.51825,-31.30026 4.12239,-35.51946 0.54659,-1.43766 2.54073,-4.50174 4.43142,-6.80908 2.49621,-3.04628 3.65007,-5.65671 4.21338,-9.53209 l 0.77576,-5.33693 9.97852,0.0799 c 5.48819,0.0439 14.92853,0.60244 20.97853,1.2411 6.05,0.63867 21.35,2.07938 34,3.20159 68.91592,6.11366 75.97394,6.95079 79.8915,9.47568 1.15968,0.74742 6.3835,3.21093 11.6085,5.47447 10.31951,4.47054 12.92481,6.78005 16.51799,14.64263 2.05156,4.48923 2.20621,5.65204 1.26344,9.5 -1.42374,5.81111 -2.40563,6.88464 -6.29689,6.88464 -1.91019,0 -3.49831,0.5935 -3.81811,1.42689 -1.08693,2.83248 3.93063,4.86242 12.33357,4.98976 l 5.5,0.0833 0.51338,8.5 c 0.4186,6.93082 1.08681,9.60766 3.61959,14.5 3.84566,7.42833 4.85036,10.5 3.43442,10.5 C 749.48032,320 749,319.59258 749,319.09461 Z M 683.2,162.8 c -2.06724,-2.06724 -1.47356,-7.58323 0.95613,-8.88356 1.83953,-0.98449 2.42362,-0.8061 3.97777,1.21482 2.13874,2.7811 2.1635,2.95631 0.89085,6.30364 -1.03819,2.73064 -3.80968,3.38017 -5.82475,1.3651 z"
     style="fill:#791e2e" />
</svg>
